<svg xmlns="http://www.w3.org/2000/svg" width="100%" height="100%" viewBox="70 73 259 160">
    <path d="M198.494 77.394c-.045.046-1.057.17-2.247.276-1.19.106-2.839.377-3.664.602-.825.226-2.025.509-2.666.63-4.11.772-11.046 4.754-12.204 7.006-.144.28-.574.884-.955 1.342-1.111 1.336-1.382 1.87-2.606 5.142-1.244 3.325-.339 9.21 2.36 15.358 1.041 2.372 1.502 5.347.982 6.338-.129.246-.117.611.045 1.334l.223.995 1.288-.06c1.204-.055 1.33-.028 1.911.414 1.671 1.271 3.518 3.638 3.819 4.896.055.229.207.627.337.885.579 1.15 1.034 7.389.584 8.014-.073.101-.268.596-.433 1.101-.837 2.543-1.911 3.586-3.312 3.212-1.124-.3-1.969.594-1.4 1.481.888 1.385.599 3.479-1.019 7.39-1.06 2.56-1.276 3.731-1.275 6.917l.001 2.916.618 1.634c.613 1.616 1.07 2.622 1.267 2.783.056.046.244.346.417.667.174.32.483.771.688 1 .204.229.579.735.832 1.125.252.389.508.708.567.708.059 0 .368.238.686.53 2.79 2.554 7.691 4.803 10.469 4.803 1.229 0 1.223-.01 1.283 1.976.137 4.492.27 8.405.324 9.524.056 1.159.128 8.673.099 10.301l-.013.717-.389-.42c-.214-.231-.53-.741-.704-1.134a9.349 9.349 0 0 0-.778-1.364c-.254-.357-.462-.746-.462-.864s-.45-1.024-1-2.013c-.55-.989-1-1.968-1-2.175 0-.208-.343-.912-.762-1.566s-.824-1.348-.9-1.543c-.148-.38-1.232-2.243-1.471-2.526-.169-.201-1.187-2.34-1.624-3.413-.168-.412-.43-.9-.583-1.083-.602-.723-.589-.766.605-1.855 1.393-1.272 1.381-1.32-.625-2.391-1.765-.942-3.339-2.027-3.679-2.533a7.708 7.708 0 0 0-.753-.888c-2.403-2.436-3.383-4.071-4.543-7.583-1.406-4.254-1.191-8.365.662-12.667 1.418-3.292 1.186-6.81-.565-8.552-.582-.58-1.311-1.483-1.619-2.007l-.922-1.572c-.198-.34-.367-.741-.375-.89a.747.747 0 0 0-.246-.464c-.127-.106-.282-.472-.344-.812-.061-.341-.259-1.104-.439-1.696-1.23-4.039-.454-7.709 1.993-9.423l1.19-.834-.098-1c-.081-.823-.182-1.074-.574-1.42-1.285-1.137-1.89-2.684-2.249-5.749-.356-3.048-1.446-7.581-1.903-7.914-.062-.046-.282-.504-.489-1.019-.206-.515-.501-1.112-.656-1.327a13.274 13.274 0 0 1-.698-1.171c-1.042-1.952-1.272-2.283-2.217-3.184-.843-.805-2.75-2.132-3.064-2.132-.049 0-.813-.328-1.696-.728-3.421-1.55-6.25-2.019-10.609-1.76-3.648.217-8.976 1.629-11.935 3.162-.699.363-1.376.659-1.504.659-.129 0-.622.281-1.095.625-.886.643-1.764 1.225-3.261 2.161-.798.5-1.324.932-3.513 2.881-6.347 5.654-9.527 13.239-8.208 19.583.152.733.343 1.677.425 2.097.144.745.27 1.032 1.219 2.792.252.467.458.948.458 1.068 0 .331 1.631 2.294 2.678 3.221.51.452 1.147 1.113 1.416 1.468.269.355.883.939 1.364 1.297.482.358.875.723.875.812 0 .089.121.162.268.162 1.09 0 5.232 4.882 5.232 6.167 0 .792.875 1.495 1.461 1.174 3.537-1.941 9.586.743 11.942 5.297.141.274.315.524.385.555.443.195 1.278 2.362 1.531 3.973.199 1.264 2.273 3.511 4.047 4.386 1.177.58 2.755 1.281 2.884 1.281.058 0 .493.184.969.409.476.225 1.84.754 3.031 1.175 1.192.421 2.56 1.024 3.039 1.341.48.316.937.575 1.014.575.774 0 4.545 3.684 5.545 5.417.212.366.547.891.746 1.166.301.416.915 2.118 1.745 4.834.085.28.102 1.487.037 2.75-.146 2.859-.146 3.618 0 3.764.14.14 2.409-.55 2.548-.775.21-.341.512-.119.865.636.203.435.817 1.413 1.364 2.172.548.76 1.042 1.529 1.099 1.709.057.18.173.327.257.327.084 0 .34.37.569.822.229.451.492.868.586.926.093.058.17.214.17.348 0 .256 1.158 2.114 1.378 2.211.071.031.248.293.395.583.146.29.66 1.127 1.142 1.86 1.356 2.065 2.009 3.108 2.4 3.833a22.615 22.615 0 0 0 1.702 2.731c1.001 1.398.705 1.53-.935.418-.46-.311-.933-.565-1.052-.565s-.502-.23-.852-.511a9.817 9.817 0 0 0-1.147-.791c-.62-.34-2.861-1.865-3.168-2.157-.121-.114-.302-.208-.402-.208-.099 0-.578-.3-1.064-.667-.486-.366-.932-.666-.992-.666-.184 0-1.739-1.049-1.739-1.173 0-.171-1.287-.994-1.555-.994-.373 0-6.278-3.796-6.278-4.036 0-.087.229-.73.508-1.428.918-2.291 1.829-6.753 1.826-8.943-.003-2.998-1.471-7.162-3.201-9.083a2.217 2.217 0 0 1-.3-.417c-.14-.297-2.102-2.093-2.286-2.093-.095 0-.263-.109-.374-.243-.383-.461-2.413-1.457-3.416-1.675-.554-.12-1.795-.49-2.757-.822a82.58 82.58 0 0 0-2.5-.823c-1.894-.555-4.654-2.146-5.522-3.184-.375-.448-1.139-.185-1.457.501-1.348 2.909-5.523 2.517-10.104-.947-.725-.548-2.523-2.234-2.615-2.452-.063-.15-.422-.606-.797-1.014-.376-.409-.726-.915-.779-1.125-.052-.211-.15-.383-.216-.383-.138 0-.741-1.306-1.003-2.176-.33-1.095-.179-4.025.221-4.285.104-.068.366-.324.582-.57l.394-.447-.716-.831c-.509-.591-.881-.863-1.285-.938-1.33-.25-4.212-2.811-5.428-4.825-.464-.767-1.494-2.094-1.626-2.094-.064 0-.667-.568-1.341-1.261-1.175-1.21-3.262-2.907-3.829-3.114-.148-.054-.748-.425-1.333-.825-2.909-1.987-5.6-2.601-9.392-2.143-1.584.192-4.12.861-4.524 1.194-.103.085-.591.273-1.084.418-.493.146-.971.323-1.063.394-.091.072-.729.423-1.416.781-2.053 1.07-3.526 2.129-5.334 3.834-.32.303-1.21 1.132-1.977 1.844-.767.712-1.63 1.632-1.917 2.044-.592.85-.613.884-1.516 2.395-.363.608-.757 1.105-.874 1.105-.248 0-.524.504-2.071 3.782-.355.751-.645 1.521-.645 1.711 0 .19-.074.475-.165.635-.658 1.152-1.832 5.633-2.324 8.872-.41 2.697.007 7.561.805 9.389.193.443.351.877.351.964 0 .407 1.565 3.238 2.282 4.127.441.547 1.202 1.488 1.692 2.092.49.603 1.066 1.14 1.28 1.194.213.054.511.234.662.4.307.339 2.071 1.247 3.834 1.972 1.547.637 5.626 1.659 8.083 2.026 4.317.645 5.985 1.541 6.561 3.523.205.703 1.464.46 1.742-.336.549-1.576 2.319-3.005 3.753-3.029.382-.006.823-.063.981-.126.839-.332 5.743.255 6.142.736a.757.757 0 0 0 .511.235c.174 0 .81.3 1.414.667.603.366 1.137.666 1.187.666.499 0 3.6 3.009 4.047 3.928.587 1.208.281 2.906-.525 2.906-.252 0-.336.707-.14 1.181.202.488.346.555 1.533.714 1.28.171 4.76 3.267 5.313 4.726.188.496 3.991 3.869 4.815 4.27.424.207.953.529 1.191.726 1.781 1.479 7.969 1.873 11.837.754 1.022-.296 4.111-1.753 4.305-2.031.046-.065.721-.551 1.5-1.078 1.392-.942 3-2.36 3-2.645 0-.079.271-.475.602-.879l.602-.735.488.348c.817.582 5.335 2.995 6.251 3.339.473.177.952.433 1.063.567.112.135.888.593 1.724 1.017l2.02 1.027c.275.141.537.303.583.361.121.151 1.999 1.021 2.558 1.185.712.208 4.121 2.374 3.972 2.523-.072.072-1.251.056-2.621-.034-5.048-.332-8.399-.504-11.325-.581-1.65-.044-4.029-.127-5.287-.186-2.529-.118-2.348-.018-2.547-1.403-.217-1.511-.382-1.63-1.302-.929a5.58 5.58 0 0 1-1.198.65c-2.08.769-4.398 1.61-4.833 1.754-3.615 1.196-8.66.766-11.5-.978-.55-.338-1.324-.78-1.72-.982-.396-.201-1.183-.78-1.75-1.286-3.373-3.009-4.822-4.4-6.16-5.909-.809-.914-1.116-1.136-1.917-1.39a49.691 49.691 0 0 1-1.386-.459c-.472-.171-1.205-.052-1.743.282-.518.322-3.521.785-4.391.677a22.14 22.14 0 0 0-1.683-.122c-3.942-.113-8.187-1.929-9.24-3.952a5.176 5.176 0 0 0-.578-.84c-.486-.558-.729-1.586-.646-2.734l.07-.972-.678-.346c-.61-.312-.771-.327-1.605-.155-2.355.486-5.378-.059-8.573-1.546-2.42-1.127-6.096-1.757-10.25-1.757-3.195 0-5.055.6-7.377 2.378a8.721 8.721 0 0 1-1.207.763c-.651.316-2.916 2.46-2.916 2.758 0 .106-.407.64-.904 1.186-3.744 4.111-6.396 14.745-5.528 22.159.22 1.883.316 2.429.79 4.5.694 3.032 2.062 7.137 2.588 7.763.121.145.221.319.221.387 0 .365 2.718 4.16 3.593 5.017 2.092 2.047 5.61 4.111 7.814 4.584.372.079.976.223 1.343.318.843.219 3.69.231 4.906.021.51-.089 1.452-.242 2.094-.34 1.648-.254 3.076-.682 7.5-2.248 3.417-1.21 5.398-1.42 6.465-.686 1.011.694 2.332.188 2.043-.783-.693-2.324.918-4.616 4.454-6.338 5.634-2.744 14.929-.917 13.629 2.679-.304.84.97 2.087 1.407 1.379.591-.955 4.01-.634 6.752.635 2.969 1.374 8.413 1.831 11.688.983 3.497-.907 7.698-4.174 9.263-7.204l1.117-2.167c.973-1.89 1.588-3.811 1.734-5.416l.114-1.25 1.334-.015a67.515 67.515 0 0 0 3-.123c.916-.06 2.529-.148 3.583-.197 1.054-.049 3.342-.166 5.083-.26 1.742-.095 4.741-.207 6.665-.25 4.549-.102 6.266-.173 10.502-.437 2.16-.135 6.435-.208 11.167-.193 7.131.024 9.906.112 17.916.563 1.696.095 4.546.2 6.334.232 7.106.13 7.283.169 7.443 1.62.135 1.237 1.715 6.007 2.147 6.484.134.148.243.332.243.409 0 .266 1.014 2.221 1.257 2.422.133.111.243.284.243.384 0 .193 2.517 2.686 3.185 3.154l1.065.748c2.29 1.609 7.181 2.524 9.268 1.734.219-.083.811-.2 1.315-.261.505-.061 1.629-.289 2.5-.507 4.902-1.226 6.785-1.415 8.407-.845 1.08.379 1.337.119 1.177-1.192-.332-2.729 3.459-4.691 8.41-4.352 1.626.111 2.226.209 4.173.678.671.162 2.877 1.146 3.75 1.673.807.487 1.25.83 1.25.966 0 .081.253.504.563.939.992 1.397 1.104 1.736 1.104 3.355 0 2.125.628 2.659 2.033 1.729.995-.659 3.503-.669 5.133-.021a53.56 53.56 0 0 0 1.834.688c.412.142 1.221.457 1.796.7.576.243 1.626.549 2.334.68a36.36 36.36 0 0 1 1.953.412c2.443.64 7.822.688 9.417.084.412-.156 1.05-.37 1.418-.476.768-.221 2.575-1.339 3.384-2.093.303-.284.605-.516.671-.516.326 0 3.86-3.88 3.86-4.238 0-.049.299-.578.665-1.175 2.859-4.671 4.486-10.692 4.371-16.17-.138-6.587-1.393-12.277-3.512-15.928a45.256 45.256 0 0 1-1.16-2.193c-.828-1.681-5.161-6.129-5.971-6.129-.076 0-.514-.18-.974-.4-4.27-2.046-7.684-2.577-11.002-1.712-2.16.563-5.436 1.578-9.167 2.841-1.987.673-2.016.677-4.549.684-2.682.008-2.987.095-2.771.79.199.64-.247 2.141-.843 2.838-.323.377-.587.766-.587.864 0 .335-2.511 2.13-3.583 2.561-2.427.974-7.83 1.393-9.535.738-2.633-1.011-6.698 1.315-12.622 7.219-1.238 1.235-2.729 2.164-4.26 2.657-.504.162-1.104.391-1.333.508-2.114 1.077-8.257.895-10.608-.314-.472-.242-.908-.441-.97-.441-.321 0-3.714-1.785-4.463-2.348-1.294-.973-1.25-1.015-1.554 1.492l-.109.895-.936-.078c-.515-.043-1.538-.017-2.273.057-.736.074-2.425.176-3.754.226-2.861.107-8.769.407-9.833.499-2.338.203-6.57.282-6.417.12.533-.562 3.352-2.196 3.79-2.196.406 0 5.873-2.74 6.347-3.181.167-.156.655-.413 1.083-.573.429-.159.851-.355.938-.435.087-.079.316-.144.509-.144s.685-.211 1.092-.469c.408-.258 1.29-.748 1.961-1.089.671-.341 1.346-.686 1.5-.767 3.289-1.715 3.73-1.833 4.22-1.134.604.863 2.856 3.284 3.137 3.373.141.045.556.349.923.674.367.326 1.004.83 1.417 1.119.412.29.849.624.97.743 1.662 1.632 8.406 2.948 11.28 2.202.366-.095.996-.252 1.4-.348 1.291-.308 3.209-1.408 4.372-2.509.609-.575 1.869-1.713 2.801-2.53.931-.816 1.836-1.666 2.01-1.887.693-.881 3.616-2.712 4.33-2.712 1.007 0 1.697-.941 1.122-1.529-1.638-1.677-.665-4.484 2.243-6.475 1.227-.84 4.026-2.329 4.378-2.329.15 0 .569-.151.93-.335 1.424-.726 4.812-1.073 6.414-.657.847.221 2.416.986 2.416 1.179 0 .08.108.146.239.146.248 0 1.257 1.368 1.267 1.717.012.468.455.816.803.63.185-.099.708-.18 1.162-.18.742 0 .872-.059 1.284-.575.866-1.086 2.554-1.694 6.495-2.339 2.909-.475 4.379-.791 5.396-1.157.401-.144.871-.262 1.044-.262.173 0 .445-.063.604-.14l1.55-.75c.693-.335 1.309-.61 1.369-.61.06 0 .43-.228.823-.507a104.5 104.5 0 0 1 1.381-.958c1.667-1.13 2.769-2.3 3.399-3.606 2.018-4.188 2.521-5.848 2.845-9.388.224-2.438-.454-7.742-1.323-10.362-.59-1.779-1.004-3.167-1.004-3.365 0-.11-.188-.445-.417-.746-.229-.3-.417-.606-.417-.68 0-.073-.178-.51-.395-.969a71.677 71.677 0 0 1-.792-1.753c-.218-.504-.664-1.216-.991-1.583-.921-1.031-1.488-1.84-1.488-2.121 0-.141-.905-1.183-2.01-2.317-1.105-1.134-2.124-2.249-2.265-2.479-.24-.39-1.172-1.161-1.957-1.618-.19-.11-.422-.3-.515-.42-.404-.522-2.946-2.206-4.837-3.205-2.321-1.225-7.185-2.271-9.333-2.007-5.066.623-7.474 1.695-10.534 4.692-.623.611-1.564 1.53-2.091 2.042-.527.513-.958.978-.958 1.033 0 .055-.225.336-.5.624s-.5.629-.5.76c0 .13-.244.438-.542.684-.298.246-.967.934-1.487 1.529-.52.595-1.27 1.317-1.667 1.604-.396.287-.759.566-.804.619-.178.207-1.318.663-1.659.663-.628 0-1.384.487-1.248.803 1.073 2.499 1.172 3.354.617 5.364-.475 1.724-2.244 4.46-3.571 5.526-.382.307-.972.801-1.312 1.099-.34.298-.735.542-.877.542-.143 0-.361.1-.484.223-2.457 2.458-8.633 2.642-8.633.257 0-1.055-1.213-.892-2.45.33-.611.603-1.24 1.055-1.645 1.181-.36.112-.898.313-1.196.447-.297.134-1.197.324-2 .422-.802.099-1.695.283-1.984.41-.289.126-.673.23-.854.23-.631 0-3.631.972-4.705 1.525-1.586.817-3.49 2.212-3.496 2.562-.002.095-.306.47-.676.834-.826.814-2.443 3.223-2.591 3.86-.06.258-.208.627-.328.82-1.446 2.325-1.269 9.934.315 13.52.599 1.357.584 1.598-.113 1.807-.198.06-1.016.554-1.817 1.098-.802.545-1.702 1.074-2 1.176-.546.188-1.141.554-2.377 1.463-.366.27-.756.493-.866.496-.246.007-1.59.901-1.88 1.251-.116.14-.309.254-.429.254s-.337.119-.482.265c-.146.146-.582.437-.97.647-1.932 1.048-2.442 1.365-3.267 2.032-.492.398-.993.723-1.115.723-.121 0-.463.222-.76.493-.44.402-2.448 1.507-2.738 1.507-.189 0-.028-.355.591-1.307l1.338-2.068c.369-.573.978-1.376 1.354-1.785.376-.409.817-1.056.98-1.437.288-.672 1.378-2.315 1.76-2.653.103-.092.476-.654.827-1.25.352-.596.763-1.233.915-1.417.151-.183.524-.783.828-1.333.304-.55.826-1.412 1.16-1.917 2.719-4.108 2.763-4.162 3.213-3.926.114.06.508.291.875.514 1.747 1.063 1.71 1.104 1.364-1.463-.485-3.604-.159-5.433 1.571-8.8 1.126-2.193 1.13-2.199 3.533-4.844 2.927-3.223 5.162-4.343 10.948-5.49 2.825-.56 3.405-.709 4.196-1.081.428-.202.972-.416 1.208-.475s.43-.186.43-.282c0-.096.177-.414.393-.705.485-.656 1.134-1.953 1.474-2.948.141-.412.39-1.125.553-1.583l.355-1c.032-.092.321-.504.643-.917.321-.412.727-.965.902-1.229.491-.739 3.18-3.604 3.384-3.604.099 0 .433-.192.741-.427 2.338-1.783 6.593-2.008 7.596-.402.385.617 2.125-.448 2.125-1.3 0-.401.751-2.138.966-2.234.066-.03.442-.466.835-.97.394-.505.965-1.104 1.27-1.334.305-.229 1.018-.81 1.584-1.291.566-.482 1.123-.875 1.238-.875.515 0 4.819-4.959 5.445-6.273.213-.446.74-1.448 1.173-2.227 1.329-2.395 1.612-4.64 1.079-8.571-.298-2.202-.667-3.327-1.993-6.068-.237-.489-.43-.978-.43-1.087 0-.184-.393-.818-1.564-2.524-1.679-2.449-6.971-7.586-8.478-8.233-.685-.293-2.636-1.509-3.255-2.028-.118-.099-.568-.331-1-.515-.878-.374-3.132-1.416-3.571-1.65-.156-.083-.606-.2-1-.259-.393-.059-1.353-.32-2.132-.58-6.003-2.004-12.556-1.961-16.965.112-.302.142-.815.351-1.141.463-1.961.679-6.107 4.836-6.92 6.94-.088.229-.341.791-.56 1.25-.772 1.607-2.247 8.195-2.247 10.03 0 1.667-1.5 4.886-2.276 4.886-.237 0-.891 1.16-.891 1.58 0 .142.278.389.619.548.929.434 1.983 1.485 2.27 2.264.819 2.225 1.066 5.391.546 7.025-.146.458-.267 1.021-.27 1.25-.017 1.161-1.856 4.339-3.434 5.931-1.566 1.581-2.061 6.32-1.094 10.486 1.306 5.633 1.452 6.897 1.085 9.405-.276 1.894-.924 4.079-1.349 4.556-.145.162-.494.663-.776 1.114-1.717 2.741-4.097 4.999-6.597 6.258-.504.254-1.096.602-1.314.773-.259.202-.67.31-1.177.31-.89 0-1.449.315-1.291.726.058.151.22.274.36.274.14 0 .255.076.255.17 0 .093.525.552 1.167 1.02.642.468 1.167.918 1.167 1 0 .165-.316.761-.607 1.144-.104.137-.667 1.187-1.25 2.333-.583 1.146-1.107 2.121-1.164 2.167-.191.153-1.813 3.164-1.813 3.365 0 .109-.3.704-.666 1.321-.367.617-.667 1.166-.667 1.221 0 .054-.322.641-.716 1.304-.394.663-.93 1.618-1.191 2.122-.261.504-.568 1.029-.681 1.167a2.275 2.275 0 0 0-.33.666c-.315 1.055-1.461 2.665-1.663 2.337-.118-.191-.035-2.571.248-7.087.086-1.375.197-3.587.246-4.916.05-1.329.202-3.88.338-5.667.136-1.788.267-3.546.29-3.908l.042-.658 1.584-.296c2.982-.56 4.762-1.161 7.583-2.561 4.438-2.202 7.346-6.043 8.009-10.577.366-2.51.288-3.184-.91-7.833a62.306 62.306 0 0 1-.596-2.584c-.15-.733-.344-1.647-.43-2.032-.234-1.044-.19-2.434.117-3.652.336-1.341.258-1.441-1.17-1.487-7.432-.241-4.713-19.337 2.75-19.314 1.089.003 1.106-.003 1.294-.525.105-.29.346-.706.534-.923.248-.286.31-.511.226-.814-.473-1.699-.119-4.215.927-6.586.896-2.034 1.698-4.37 2.058-6 .541-2.449.667-7.886.209-8.982-.138-.331-.219-.601-.18-.601.317 0-1.883-3.901-2.483-4.403-.119-.099-.562-.676-.985-1.282-.824-1.179-2.237-2.483-3.453-3.187-.413-.238-.926-.599-1.141-.802-1.14-1.075-5.249-2.965-7.609-3.5-.734-.167-2.084-.502-3-.746-1.561-.415-2.608-.533-7.503-.85-.735-.047-1.374-.048-1.42-.003"/>
</svg>