<svg width="180" height="180" viewBox="0 0 180 180" fill="none" xmlns="http://www.w3.org/2000/svg">
<path d="M89.0052 31.0243C88.9746 31.0582 88.2869 31.1496 87.4782 31.2277C86.6696 31.3058 85.549 31.5055 84.9884 31.6714C84.4278 31.8379 83.6123 32.0464 83.1767 32.1356C80.3838 32.7045 75.6705 35.639 74.8836 37.2985C74.7857 37.5048 74.4935 37.95 74.2346 38.2875C73.4796 39.272 73.2955 39.6655 72.4637 42.0767C71.6183 44.527 72.2333 48.8638 74.0674 53.3944C74.7748 55.1424 75.0881 57.3348 74.7347 58.0651C74.6471 58.2463 74.6552 58.5153 74.7653 59.0481L74.9169 59.7814L75.7921 59.7372C76.6103 59.6966 76.6959 59.7165 77.0907 60.0422C78.2262 60.9789 79.4814 62.7232 79.6859 63.6502C79.7233 63.819 79.8266 64.1123 79.9149 64.3024C80.3084 65.1499 80.6176 69.7475 80.3118 70.2081C80.2622 70.2825 80.1297 70.6473 80.0175 71.0195C79.4487 72.8935 78.7189 73.6621 77.7669 73.3865C77.0031 73.1654 76.4288 73.8242 76.8155 74.4779C77.4189 75.4985 77.2226 77.0416 76.1231 79.9237C75.4027 81.8103 75.2559 82.6732 75.2566 85.0211L75.2573 87.1699L75.6773 88.3741C76.0938 89.5649 76.4044 90.3063 76.5383 90.4249C76.5763 90.4588 76.7041 90.6799 76.8216 90.9165C76.9399 91.1523 77.1498 91.4846 77.2892 91.6534C77.4278 91.8221 77.6826 92.195 77.8545 92.4824C78.0258 92.7691 78.1997 93.0042 78.2398 93.0042C78.2799 93.0042 78.4899 93.1796 78.706 93.3947C80.6019 95.2768 83.9324 96.9342 85.8202 96.9342C86.6553 96.9342 86.6512 96.9268 86.692 98.3904C86.7851 101.701 86.8755 104.584 86.9122 105.409C86.9502 106.263 86.9992 111.8 86.9795 113L86.9706 113.528L86.7063 113.219C86.5609 113.049 86.3461 112.673 86.2279 112.383C86.078 112.033 85.9011 111.696 85.6992 111.378C85.5266 111.115 85.3853 110.828 85.3853 110.741C85.3853 110.654 85.0795 109.987 84.7057 109.258C84.332 108.529 84.0262 107.808 84.0262 107.655C84.0262 107.502 83.7931 106.983 83.5083 106.501C83.2236 106.019 82.9484 105.508 82.8968 105.364C82.7962 105.084 82.0596 103.711 81.8971 103.502C81.7823 103.354 81.0905 101.778 80.7936 100.987C80.6794 100.684 80.5014 100.324 80.3974 100.189C79.9883 99.6564 79.9971 99.6247 80.8085 98.8222C81.7551 97.8848 81.747 97.8495 80.3838 97.0602C79.1844 96.366 78.1148 95.5665 77.8838 95.1936C77.7286 94.9618 77.5576 94.743 77.3721 94.5392C75.7391 92.744 75.0732 91.5392 74.2849 88.9511C73.3294 85.8162 73.4755 82.7867 74.7347 79.6164C75.6983 77.1905 75.5407 74.598 74.3508 73.3143C73.9553 72.8868 73.4599 72.2214 73.2506 71.8353L72.6241 70.6768C72.4895 70.4262 72.3747 70.1307 72.3692 70.0209C72.3535 69.8888 72.2941 69.7673 72.2021 69.679C72.1158 69.6009 72.0105 69.3312 71.9683 69.0806C71.9269 68.8293 71.7923 68.2671 71.67 67.8308C70.8342 64.8544 71.3615 62.1498 73.0243 60.8868L73.833 60.2722L73.7664 59.5352C73.7113 58.9287 73.6427 58.7438 73.3763 58.4888C72.5031 57.6509 72.092 56.5109 71.848 54.2522C71.6061 52.0061 70.8654 48.6656 70.5549 48.4202C70.5127 48.3863 70.3632 48.0488 70.2226 47.6693C70.0826 47.2897 69.8821 46.8498 69.7768 46.6914C69.6052 46.4127 69.4468 46.1247 69.3025 45.8284C68.5944 44.3899 68.4381 44.146 67.7959 43.4821C67.2231 42.8888 65.9272 41.9109 65.7138 41.9109C65.6805 41.9109 65.1613 41.6692 64.5613 41.3744C62.2366 40.2322 60.3141 39.8866 57.352 40.0775C54.873 40.2374 51.2524 41.2779 49.2416 42.4076C48.7666 42.6751 48.3066 42.8933 48.2196 42.8933C48.1319 42.8933 47.7969 43.1003 47.4755 43.3538C46.8734 43.8277 46.2768 44.2566 45.2595 44.9463C44.7172 45.3148 44.3598 45.6331 42.8723 47.0694C38.5592 51.236 36.3982 56.8256 37.2946 61.5006C37.3978 62.0408 37.5276 62.7364 37.5834 63.0459C37.6812 63.595 37.7668 63.8065 38.4117 65.1034C38.583 65.4476 38.723 65.802 38.723 65.8905C38.723 66.1344 39.8313 67.581 40.5428 68.2641C40.8893 68.5972 41.3222 69.0843 41.505 69.3459C41.6878 69.6075 42.105 70.0379 42.4319 70.3017C42.7594 70.5655 43.0265 70.8345 43.0265 70.9001C43.0265 70.9657 43.1087 71.0195 43.2086 71.0195C43.9493 71.0195 46.764 74.6171 46.764 75.5641C46.764 76.1477 47.3586 76.6658 47.7568 76.4292C50.1604 74.9989 54.2709 76.9768 55.8719 80.3327C55.9678 80.5347 56.086 80.7189 56.1336 80.7417C56.4346 80.8854 57.002 82.4823 57.1739 83.6695C57.3092 84.601 58.7186 86.2569 59.9241 86.9017C60.7239 87.3291 61.7962 87.8457 61.8839 87.8457C61.9233 87.8457 62.2189 87.9813 62.5424 88.1471C62.8658 88.3129 63.7927 88.7027 64.602 89.013C65.4121 89.3232 66.3417 89.7676 66.6672 90.0012C66.9934 90.2341 67.3039 90.4249 67.3562 90.4249C67.8822 90.4249 70.4448 93.1398 71.1243 94.4169C71.2684 94.6866 71.496 95.0735 71.6313 95.2761C71.8358 95.5827 72.253 96.8369 72.8171 98.8384C72.8748 99.0448 72.8864 99.9342 72.8422 100.865C72.743 102.972 72.743 103.531 72.8422 103.639C72.9373 103.742 74.4792 103.233 74.5737 103.068C74.7164 102.816 74.9216 102.98 75.1615 103.536C75.2994 103.857 75.7167 104.578 76.0884 105.137C76.4608 105.697 76.7965 106.264 76.8352 106.396C76.874 106.529 76.9528 106.637 77.0099 106.637C77.0669 106.637 77.2409 106.91 77.3965 107.243C77.5521 107.575 77.7309 107.883 77.7947 107.925C77.8579 107.968 77.9103 108.083 77.9103 108.182C77.9103 108.371 78.6972 109.74 78.8467 109.811C78.8949 109.834 79.0152 110.027 79.1151 110.241C79.2143 110.455 79.5636 111.071 79.8911 111.612C80.8126 113.133 81.2563 113.902 81.522 114.436C81.863 115.136 82.2495 115.808 82.6786 116.449C83.3588 117.479 83.1577 117.576 82.0432 116.757C81.7306 116.528 81.4092 116.34 81.3284 116.34C81.2475 116.34 80.9872 116.171 80.7494 115.964C80.5026 115.75 80.2422 115.555 79.97 115.381C79.5486 115.13 78.0258 114.007 77.8172 113.791C77.7349 113.707 77.6119 113.638 77.544 113.638C77.4767 113.638 77.1512 113.417 76.8209 113.147C76.4907 112.877 76.1876 112.656 76.1468 112.656C76.0218 112.656 74.9651 111.883 74.9651 111.791C74.9651 111.665 74.0905 111.059 73.9084 111.059C73.6549 111.059 69.6422 108.261 69.6422 108.085C69.6422 108.02 69.7978 107.547 69.9874 107.032C70.6113 105.344 71.2303 102.056 71.2283 100.442C71.2263 98.2327 70.2287 95.1641 69.0531 93.7485C68.9744 93.6549 68.9059 93.5518 68.8492 93.4412C68.7541 93.2223 67.4208 91.8988 67.2958 91.8988C67.2312 91.8988 67.1171 91.8185 67.0416 91.7197C66.7814 91.38 65.4019 90.646 64.7203 90.4854C64.3438 90.3969 63.5005 90.1243 62.8468 89.8796C62.2835 89.6677 61.7172 89.4655 61.1479 89.2731C59.8609 88.8641 57.9853 87.6917 57.3955 86.9268C57.1407 86.5966 56.6215 86.7904 56.4054 87.2959C55.4894 89.4397 52.6523 89.1508 49.5393 86.5981C49.0466 86.1942 47.8248 84.9518 47.7623 84.7911C47.7195 84.6806 47.4755 84.3446 47.2207 84.0439C46.9652 83.7425 46.7273 83.3696 46.6913 83.2149C46.656 83.0594 46.5894 82.9326 46.5445 82.9326C46.4507 82.9326 46.041 81.9702 45.8629 81.3291C45.6387 80.5221 45.7413 78.3629 46.0131 78.1713C46.0838 78.1212 46.2618 77.9326 46.4086 77.7513L46.6763 77.4219L46.1898 76.8095C45.8439 76.374 45.5911 76.1735 45.3166 76.1183C44.4128 75.934 42.4543 74.0468 41.628 72.5626C41.3127 71.9974 40.6128 71.0195 40.5231 71.0195C40.4796 71.0195 40.0698 70.6009 39.6118 70.0902C38.8133 69.1985 37.3951 67.948 37.0098 67.7954C36.9093 67.7556 36.5015 67.4822 36.104 67.1875C34.1272 65.7232 32.2985 65.2707 29.7217 65.6082C28.6453 65.7497 26.922 66.2427 26.6475 66.4881C26.5775 66.5508 26.2458 66.6893 25.9108 66.7962C25.5758 66.9037 25.251 67.0342 25.1885 67.0865C25.1266 67.1396 24.6931 67.3982 24.2262 67.662C22.8311 68.4506 21.8302 69.231 20.6015 70.4874C20.3841 70.7107 19.7793 71.3216 19.2581 71.8463C18.7369 72.371 18.1504 73.049 17.9554 73.3526C17.5531 73.979 17.5388 74.004 16.9252 75.1175C16.6785 75.5656 16.4108 75.9318 16.3313 75.9318C16.1628 75.9318 15.9752 76.3032 14.9239 78.7189C14.6827 79.2723 14.4856 79.8397 14.4856 79.9798C14.4856 80.1198 14.4354 80.3298 14.3735 80.4477C13.9264 81.2966 13.1286 84.5988 12.7943 86.9857C12.5156 88.9732 12.799 92.5576 13.3413 93.9047C13.4724 94.2312 13.5798 94.551 13.5798 94.6151C13.5798 94.915 14.6433 97.0013 15.1305 97.6564C15.4302 98.0595 15.9473 98.7529 16.2803 99.198C16.6133 99.6424 17.0047 100.038 17.1501 100.078C17.2949 100.118 17.4974 100.25 17.6 100.373C17.8086 100.622 19.0073 101.292 20.2054 101.826C21.2566 102.295 24.0285 103.048 25.6981 103.319C28.6317 103.794 29.7652 104.455 30.1566 105.915C30.2959 106.433 31.1515 106.254 31.3404 105.667C31.7135 104.506 32.9163 103.453 33.8907 103.435C34.1503 103.431 34.45 103.389 34.5574 103.342C35.1275 103.098 38.46 103.53 38.7311 103.885C38.8221 103.989 38.9464 104.051 39.0784 104.058C39.1966 104.058 39.6288 104.279 40.0392 104.55C40.449 104.819 40.8119 105.04 40.8459 105.04C41.1849 105.04 43.2922 107.258 43.596 107.935C43.9949 108.825 43.7869 110.077 43.2392 110.077C43.068 110.077 43.0109 110.598 43.1441 110.947C43.2813 111.306 43.3792 111.356 44.1858 111.473C45.0556 111.599 47.4205 113.881 47.7962 114.956C47.924 115.321 50.5083 117.807 51.0682 118.102C51.3564 118.255 51.7159 118.492 51.8776 118.637C53.0879 119.727 57.2929 120.018 59.9214 119.193C60.6159 118.975 62.715 117.901 62.8468 117.696C62.878 117.648 63.3367 117.29 63.8661 116.902C64.812 116.208 65.9047 115.163 65.9047 114.953C65.9047 114.895 66.0889 114.603 66.3138 114.305L66.7229 113.763L67.0545 114.02C67.6097 114.449 70.6799 116.227 71.3024 116.48C71.6238 116.611 71.9493 116.799 72.0247 116.898C72.1008 116.998 72.6282 117.335 73.1963 117.648L74.5689 118.405C74.7558 118.508 74.9338 118.628 74.9651 118.671C75.0473 118.782 76.3235 119.423 76.7034 119.544C77.1872 119.697 79.5038 121.293 79.4025 121.403C79.3536 121.456 78.5524 121.444 77.6215 121.378C74.1911 121.133 71.914 121.007 69.9256 120.95C68.8044 120.917 67.1877 120.856 66.3329 120.813C64.6143 120.726 64.7373 120.8 64.602 119.779C64.4546 118.665 64.3425 118.578 63.7173 119.094C63.465 119.289 63.1916 119.45 62.9032 119.573C61.4897 120.14 59.9146 120.76 59.619 120.866C57.1624 121.747 53.7341 121.43 51.8042 120.145C51.4304 119.896 50.9045 119.57 50.6354 119.421C50.3663 119.273 49.8315 118.847 49.4462 118.474C47.1541 116.256 46.1694 115.231 45.2602 114.119C44.7104 113.446 44.5018 113.282 43.9575 113.095C43.642 112.987 43.328 112.874 43.0156 112.757C42.6949 112.631 42.1968 112.718 41.8312 112.965C41.4792 113.202 39.4385 113.543 38.8473 113.463C38.4673 113.418 38.0858 113.388 37.7036 113.374C35.0249 113.29 32.1402 111.952 31.4247 110.461C31.3128 110.241 31.1813 110.034 31.0319 109.842C30.7016 109.431 30.5365 108.673 30.5929 107.827L30.6405 107.111L30.1797 106.856C29.7652 106.626 29.6558 106.615 29.0891 106.742C27.4887 107.1 25.4345 106.698 23.2633 105.603C21.6188 104.772 19.1208 104.308 16.298 104.308C14.1268 104.308 12.8629 104.75 11.285 106.06C11.0262 106.272 10.7519 106.46 10.4648 106.623C10.0224 106.855 8.48323 108.435 8.48323 108.655C8.48323 108.733 8.20665 109.127 7.86892 109.529C5.3247 112.558 3.52255 120.395 4.1124 125.859C4.2619 127.246 4.32713 127.649 4.64924 129.175C5.12084 131.409 6.05046 134.434 6.4079 134.895C6.49012 135.002 6.55808 135.131 6.55808 135.181C6.55808 135.45 8.40508 138.246 8.99968 138.878C10.4213 140.386 12.8119 141.907 14.3096 142.256C14.5624 142.314 14.9729 142.42 15.2223 142.49C15.7951 142.652 17.7298 142.66 18.5561 142.506C18.9027 142.44 19.5428 142.327 19.9791 142.255C21.099 142.068 22.0694 141.753 25.0757 140.599C27.3977 139.707 28.7438 139.552 29.4689 140.093C30.1559 140.604 31.0536 140.232 30.8572 139.516C30.3863 137.803 31.4811 136.114 33.8839 134.845C37.7125 132.823 44.0288 134.17 43.1454 136.82C42.9388 137.439 43.8046 138.358 44.1015 137.836C44.5032 137.132 46.8265 137.369 48.6898 138.304C50.7074 139.316 54.4068 139.653 56.6324 139.028C59.0087 138.36 61.8635 135.952 62.927 133.719L63.686 132.122C64.3472 130.73 64.7651 129.314 64.8644 128.131L64.9418 127.21L65.8483 127.199C66.5284 127.185 67.2081 127.155 67.887 127.108C68.5094 127.064 69.6055 126.999 70.3218 126.963C71.038 126.927 72.5928 126.841 73.7759 126.772C74.9597 126.702 76.9976 126.619 78.3051 126.587C81.3963 126.512 82.5631 126.46 85.4416 126.265C86.9095 126.166 89.8145 126.112 93.0301 126.123C97.876 126.141 99.7617 126.206 105.205 126.538C106.357 126.608 108.294 126.685 109.509 126.709C114.338 126.805 114.458 126.833 114.567 127.903C114.659 128.814 115.732 132.329 116.026 132.681C116.117 132.79 116.191 132.926 116.191 132.982C116.191 133.178 116.88 134.619 117.045 134.767C117.136 134.849 117.21 134.976 117.21 135.05C117.21 135.192 118.921 137.03 119.375 137.374L120.098 137.926C121.655 139.111 124.978 139.786 126.396 139.203C126.545 139.142 126.948 139.056 127.29 139.011C127.633 138.966 128.397 138.798 128.989 138.638C132.32 137.734 133.6 137.595 134.702 138.015C135.436 138.294 135.61 138.103 135.502 137.136C135.276 135.125 137.852 133.68 141.217 133.929C142.322 134.011 142.729 134.083 144.052 134.429C144.508 134.548 146.007 135.273 146.601 135.662C147.149 136.021 147.45 136.273 147.45 136.374C147.45 136.433 147.622 136.745 147.833 137.066C148.507 138.095 148.583 138.345 148.583 139.538C148.583 141.104 149.01 141.498 149.964 140.812C150.641 140.327 152.345 140.319 153.453 140.797C153.865 140.974 154.281 141.143 154.699 141.304C154.979 141.408 155.529 141.641 155.919 141.82C156.311 141.999 157.024 142.224 157.505 142.321C157.95 142.409 158.393 142.51 158.832 142.624C160.493 143.096 164.148 143.131 165.232 142.686C165.512 142.571 165.945 142.414 166.195 142.335C166.717 142.173 167.945 141.349 168.495 140.793C168.701 140.584 168.906 140.413 168.951 140.413C169.172 140.413 171.574 137.554 171.574 137.29C171.574 137.254 171.777 136.864 172.026 136.424C173.969 132.982 175.074 128.545 174.996 124.508C174.902 119.654 174.049 115.46 172.61 112.77C172.333 112.239 172.07 111.7 171.821 111.154C171.259 109.915 168.314 106.637 167.764 106.637C167.712 106.637 167.414 106.505 167.102 106.343C164.2 104.835 161.88 104.443 159.625 105.081C158.158 105.496 155.931 106.244 153.396 107.175C152.046 107.67 152.026 107.673 150.305 107.679C148.482 107.684 148.275 107.749 148.422 108.261C148.557 108.732 148.254 109.838 147.849 110.352C147.629 110.63 147.45 110.917 147.45 110.989C147.45 111.236 145.744 112.558 145.015 112.876C143.366 113.594 139.694 113.903 138.536 113.42C136.747 112.675 133.984 114.389 129.959 118.74C129.117 119.65 128.104 120.335 127.064 120.698C126.721 120.817 126.314 120.986 126.158 121.072C124.721 121.866 120.547 121.732 118.949 120.841C118.629 120.662 118.332 120.516 118.29 120.516C118.072 120.516 115.766 119.2 115.257 118.786C114.378 118.068 114.408 118.038 114.201 119.885L114.127 120.545L113.491 120.487C113.141 120.455 112.446 120.475 111.947 120.529C111.446 120.584 110.299 120.659 109.396 120.696C107.451 120.774 103.437 120.996 102.714 121.063C101.125 121.213 98.249 121.271 98.353 121.152C98.7152 120.738 100.631 119.533 100.928 119.533C101.204 119.533 104.919 117.514 105.242 117.189C105.355 117.074 105.687 116.885 105.977 116.767C106.269 116.65 106.556 116.505 106.615 116.447C106.674 116.388 106.83 116.34 106.961 116.34C107.092 116.34 107.426 116.185 107.703 115.995C107.98 115.805 108.579 115.444 109.035 115.192C109.491 114.941 109.95 114.687 110.055 114.627C112.29 113.363 112.589 113.276 112.922 113.791C113.333 114.427 114.863 116.211 115.054 116.277C115.15 116.31 115.432 116.534 115.681 116.774C115.931 117.014 116.364 117.385 116.644 117.598C116.924 117.812 117.221 118.058 117.303 118.146C118.433 119.349 123.016 120.318 124.969 119.769C125.217 119.699 125.646 119.583 125.92 119.512C126.797 119.285 128.101 118.475 128.891 117.663C129.305 117.239 130.161 116.401 130.794 115.799C131.427 115.197 132.042 114.571 132.16 114.408C132.631 113.759 134.618 112.41 135.103 112.41C135.787 112.41 136.256 111.716 135.865 111.283C134.752 110.047 135.413 107.978 137.389 106.511C138.223 105.892 140.125 104.795 140.364 104.795C140.466 104.795 140.751 104.684 140.996 104.548C141.964 104.013 144.266 103.757 145.355 104.064C145.931 104.227 146.997 104.791 146.997 104.933C146.997 104.992 147.07 105.04 147.159 105.04C147.328 105.04 148.013 106.048 148.02 106.306C148.028 106.651 148.329 106.907 148.566 106.77C148.692 106.697 149.047 106.637 149.356 106.637C149.86 106.637 149.948 106.594 150.228 106.214C150.817 105.413 151.964 104.965 154.642 104.49C156.619 104.14 157.617 103.907 158.309 103.637C158.581 103.531 158.9 103.444 159.018 103.444C159.136 103.444 159.32 103.398 159.428 103.341L160.482 102.788C160.953 102.541 161.371 102.339 161.412 102.339C161.453 102.339 161.704 102.171 161.971 101.965C162.282 101.727 162.595 101.492 162.91 101.259C164.043 100.426 164.791 99.5643 165.219 98.6018C166.591 95.5156 166.933 94.2923 167.153 91.6836C167.305 89.887 166.844 85.9783 166.254 84.0476C165.853 82.7366 165.571 81.7137 165.571 81.5678C165.571 81.4868 165.444 81.2399 165.288 81.0181C165.133 80.797 165.005 80.5715 165.005 80.517C165.005 80.4632 164.884 80.1411 164.736 79.8029C164.552 79.3749 164.372 78.9443 164.198 78.5111C164.05 78.1396 163.747 77.615 163.525 77.3445C162.899 76.5847 162.514 75.9886 162.514 75.7815C162.514 75.6776 161.899 74.9097 161.148 74.074C160.397 73.2384 159.704 72.4167 159.608 72.2472C159.445 71.9598 158.812 71.3916 158.279 71.0548C158.15 70.9738 157.992 70.8338 157.929 70.7453C157.654 70.3607 155.927 69.1197 154.642 68.3835C153.064 67.4808 149.759 66.7099 148.3 66.9045C144.857 67.3636 143.221 68.1536 141.141 70.3621C140.718 70.8124 140.078 71.4896 139.72 71.8669C139.362 72.245 139.069 72.5877 139.069 72.6282C139.069 72.6687 138.916 72.8758 138.729 73.088C138.543 73.3003 138.39 73.5515 138.39 73.6481C138.39 73.7439 138.224 73.9709 138.021 74.1521C137.819 74.3334 137.364 74.8404 137.011 75.2789C136.658 75.7174 136.148 76.2494 135.878 76.4609C135.609 76.6724 135.362 76.878 135.332 76.9171C135.211 77.0696 134.436 77.4057 134.204 77.4057C133.778 77.4057 133.264 77.7646 133.356 77.9974C134.085 79.839 134.153 80.4691 133.776 81.9503C133.453 83.2207 132.251 85.237 131.349 86.0225C131.089 86.2488 130.688 86.6128 130.457 86.8324C130.226 87.052 129.958 87.2318 129.861 87.2318C129.764 87.2318 129.616 87.3055 129.533 87.3962C127.863 89.2075 123.666 89.3431 123.666 87.5856C123.666 86.8081 122.842 86.9282 122.001 87.8287C121.586 88.2731 121.159 88.6062 120.883 88.6991C120.639 88.7816 120.273 88.9297 120.071 89.0285C119.869 89.1272 119.257 89.2672 118.711 89.3394C118.166 89.4124 117.56 89.548 117.363 89.6416C117.167 89.7344 116.906 89.8111 116.783 89.8111C116.354 89.8111 114.315 90.5274 113.586 90.9349C112.508 91.537 111.214 92.565 111.21 92.8229C111.209 92.8929 111.002 93.1692 110.751 93.4375C110.189 94.0373 109.09 95.8126 108.99 96.282C108.949 96.4721 108.849 96.7441 108.767 96.8863C107.784 98.5996 107.905 104.207 108.981 106.85C109.388 107.85 109.378 108.027 108.904 108.181C108.77 108.225 108.214 108.589 107.67 108.99C107.125 109.392 106.513 109.782 106.31 109.857C105.939 109.995 105.535 110.265 104.695 110.935C104.446 111.134 104.181 111.298 104.107 111.301C103.94 111.306 103.026 111.965 102.829 112.222C102.75 112.326 102.619 112.41 102.538 112.41C102.456 112.41 102.309 112.497 102.21 112.605C102.111 112.713 101.815 112.927 101.551 113.082C100.238 113.854 99.8915 114.088 99.3309 114.579C98.9965 114.872 98.6561 115.112 98.5732 115.112C98.4909 115.112 98.2585 115.276 98.0567 115.475C97.7577 115.771 96.3932 116.586 96.1961 116.586C96.0677 116.586 96.1771 116.324 96.5977 115.623L97.507 114.099C97.7577 113.676 98.1716 113.085 98.4271 112.783C98.6826 112.482 98.9823 112.005 99.093 111.724C99.2887 111.229 100.029 110.018 100.289 109.769C100.359 109.701 100.612 109.287 100.851 108.848C101.09 108.409 101.369 107.939 101.473 107.804C101.575 107.669 101.829 107.227 102.035 106.822C102.242 106.416 102.597 105.781 102.824 105.409C104.671 102.382 104.701 102.342 105.007 102.516C105.085 102.56 105.352 102.73 105.602 102.894C106.789 103.678 106.764 103.708 106.529 101.816C106.199 99.1604 106.421 97.8126 107.596 95.3314C108.361 93.7153 108.364 93.7109 109.997 91.7617C111.986 89.3866 113.505 88.5613 117.437 87.716C119.356 87.3033 119.75 87.1935 120.288 86.9194C120.579 86.7705 120.949 86.6128 121.109 86.5693C121.269 86.5259 121.401 86.4323 121.401 86.3615C121.401 86.2908 121.521 86.0564 121.668 85.842C121.998 85.3586 122.439 84.4028 122.67 83.6695C122.766 83.3659 122.935 82.8405 123.046 82.503L123.287 81.7661C123.309 81.6983 123.505 81.3946 123.724 81.0903C123.942 80.7867 124.218 80.3792 124.337 80.1846C124.67 79.64 126.498 77.5287 126.636 77.5287C126.704 77.5287 126.931 77.3872 127.14 77.2141C128.729 75.9001 131.62 75.7343 132.302 76.9178C132.563 77.3725 133.746 76.5877 133.746 75.9598C133.746 75.6643 134.256 74.3843 134.402 74.3135C134.447 74.2914 134.703 73.9701 134.97 73.5987C135.237 73.2266 135.625 72.7851 135.833 72.6157C136.04 72.4469 136.524 72.0188 136.909 71.6643C137.294 71.3091 137.672 71.0195 137.75 71.0195C138.1 71.0195 141.025 67.3651 141.45 66.3967C141.595 66.0681 141.953 65.3297 142.247 64.7556C143.151 62.9907 143.343 61.3363 142.981 58.4394C142.778 56.8167 142.527 55.9877 141.626 53.9678C141.465 53.6074 141.334 53.2471 141.334 53.1667C141.334 53.0311 141.067 52.5639 140.271 51.3067C139.13 49.502 135.534 45.7164 134.51 45.2396C134.045 45.0237 132.719 44.1276 132.298 43.7451C132.218 43.6722 131.912 43.5012 131.619 43.3656C131.022 43.09 129.49 42.3221 129.192 42.1497C129.086 42.0885 128.78 42.0023 128.513 41.9588C128.245 41.9154 127.593 41.723 127.064 41.5314C122.984 40.0546 118.531 40.0863 115.535 41.6139C115.33 41.7186 114.981 41.8726 114.76 41.9551C113.427 42.4555 110.61 45.5189 110.057 47.0694C109.998 47.2382 109.826 47.6523 109.677 47.9906C109.152 49.1748 108.15 54.0297 108.15 55.3819C108.15 56.6104 107.131 58.9825 106.603 58.9825C106.442 58.9825 105.998 59.8374 105.998 60.1469C105.998 60.2515 106.187 60.4335 106.419 60.5507C107.05 60.8705 107.766 61.645 107.961 62.2191C108.518 63.8588 108.685 66.1919 108.332 67.396C108.233 67.7335 108.151 68.1484 108.149 68.3172C108.137 69.1727 106.887 71.5147 105.815 72.6879C104.751 73.853 104.415 77.3452 105.072 80.4153C105.959 84.5664 106.058 85.4979 105.809 87.3461C105.621 88.7418 105.181 90.352 104.892 90.7035C104.794 90.8229 104.557 91.1921 104.365 91.5244C103.198 93.5443 101.581 95.2083 99.882 96.1361C99.5395 96.3233 99.1372 96.5797 98.9891 96.7057C98.813 96.8546 98.5338 96.9342 98.1892 96.9342C97.5844 96.9342 97.2046 97.1663 97.3119 97.4692C97.3513 97.5805 97.4614 97.6711 97.5566 97.6711C97.6517 97.6711 97.7298 97.7271 97.7298 97.7964C97.7298 97.8649 98.0866 98.2032 98.5229 98.5481C98.9591 98.8929 99.3159 99.2246 99.3159 99.285C99.3159 99.4066 99.1012 99.8458 98.9034 100.128C98.8328 100.229 98.4502 101.003 98.054 101.847C97.6578 102.692 97.3017 103.41 97.263 103.444C97.1332 103.557 96.031 105.776 96.031 105.924C96.031 106.004 95.8271 106.443 95.5784 106.897C95.329 107.352 95.1252 107.757 95.1252 107.797C95.1252 107.837 94.9063 108.27 94.6386 108.758C94.3709 109.247 94.0066 109.951 93.8293 110.322C93.6519 110.693 93.4433 111.08 93.3665 111.182C93.2674 111.331 93.1917 111.497 93.1422 111.673C92.9282 112.45 92.1494 113.637 92.0122 113.395C91.932 113.254 91.9884 111.5 92.1807 108.172C92.2391 107.159 92.3146 105.529 92.3479 104.55C92.3818 103.57 92.4851 101.69 92.5775 100.373C92.67 99.0558 92.759 97.7603 92.7746 97.4935L92.8031 97.0086L93.8796 96.7905C95.906 96.3778 97.1155 95.9349 99.0325 94.9032C102.048 93.2805 104.024 90.45 104.475 87.1088C104.724 85.2591 104.671 84.7624 103.857 81.3364C103.709 80.7049 103.574 80.07 103.452 79.4322C103.35 78.892 103.218 78.2185 103.159 77.9348C103 77.1654 103.03 76.1411 103.239 75.2435C103.467 74.2553 103.414 74.1816 102.444 74.1477C97.3935 73.9701 99.2412 59.8978 104.313 59.9147C105.053 59.917 105.064 59.9125 105.192 59.5279C105.263 59.3142 105.427 59.0076 105.555 58.8477C105.723 58.6369 105.765 58.4711 105.708 58.2478C105.387 56.9958 105.628 55.1417 106.338 53.3944C106.947 51.8955 107.492 50.1741 107.737 48.9729C108.104 47.1682 108.19 43.1615 107.879 42.3538C107.785 42.1099 107.73 41.9109 107.757 41.9109C107.972 41.9109 106.477 39.0362 106.069 38.6662C105.988 38.5933 105.687 38.1681 105.4 37.7215C104.84 36.8527 103.88 35.8917 103.053 35.3729C102.773 35.1975 102.424 34.9315 102.278 34.7819C101.503 33.9897 98.7111 32.5969 97.1074 32.2027C96.6086 32.0796 95.6912 31.8327 95.0688 31.6529C94.008 31.3471 93.2965 31.2601 89.9701 31.0265C89.4707 30.9919 89.0364 30.9912 89.0052 31.0243Z" fill="#9C1C1C"/>
</svg>
