<svg width="100%" height="100%" viewBox="0 0 188 114" xmlns="http://www.w3.org/2000/svg">
    <path d="M113.004 8.99132C115.504 14.4913 113.004 20.5913 111.404 25.9913C111.604 27.2913 111.504 27.9913 110.804 29.0913C109.404 28.7913 108.004 29.2913 107.104 30.4913C104.604 33.3913 104.204 37.5913 105.204 41.2913C105.804 42.1913 106.304 43.5913 107.604 43.6913H108.904C107.604 49.7913 113.204 56.4913 107.804 61.7913C105.104 65.0913 101.204 65.7913 97.4041 66.7913L96.4041 83.3913L96.7041 83.6913C99.7041 79.0913 102.004 73.8913 104.804 69.1913C104.304 68.3913 103.004 67.8913 102.504 67.0913C106.404 66.2913 109.504 62.9913 111.404 59.5913C114.004 53.7913 109.004 48.7913 111.104 42.9913C114.004 40.2913 115.904 36.1913 114.504 32.0913C114.204 30.8913 113.204 29.8913 112.104 29.3913C112.204 28.2913 113.404 28.2913 113.704 27.2913C115.404 21.5913 115.004 14.4913 121.104 11.2913C130.104 6.8913 139.704 11.0913 146.504 16.9913C150.804 21.0913 154.004 27.2913 152.104 33.3913C150.604 38.4913 144.804 40.4913 142.404 44.9913C142.704 45.8913 141.704 45.8913 141.404 46.4913C140.304 45.5913 138.704 45.0913 137.304 45.4913C133.404 46.6913 130.804 50.8913 129.704 54.4913C128.204 57.5913 123.804 56.7913 121.004 58.0913C116.104 60.0913 112.004 65.1913 112.304 70.6913L112.604 73.0913C112.004 72.6913 111.304 72.1913 110.504 72.1913C107.304 76.9913 104.104 81.7913 101.104 86.6913H101.704C106.304 83.7913 111.104 80.5913 115.904 77.7913C113.904 73.8913 113.704 68.3913 116.104 64.6913C118.704 60.1913 123.704 59.4913 128.204 58.5913C129.504 58.5913 129.704 56.5913 131.104 56.7913C131.104 57.7913 132.004 58.5913 132.904 58.6913C137.004 58.5913 140.604 56.0913 142.404 52.4913C143.004 50.9913 143.204 48.9913 142.304 47.5913C142.904 46.7913 144.504 46.6913 145.404 45.7913C149.104 41.3913 153.204 35.6913 159.504 36.2913C168.704 36.9913 175.704 45.7913 178.304 53.8913C179.704 59.1913 179.504 65.3913 176.104 69.5913C172.404 73.3913 167.104 73.9913 162.204 74.8913C160.804 75.2913 160.004 76.8913 158.604 76.5913C158.004 74.4913 156.704 74.4913 155.004 73.6913C150.704 73.6913 146.604 74.9913 144.304 78.7913C143.504 79.7913 144.804 81.0913 144.804 81.9913C138.804 83.8913 135.204 92.4913 127.704 89.5913C124.404 88.4913 121.604 86.2913 119.304 83.2913C113.804 85.5913 108.604 88.4913 103.304 91.1913C109.004 91.3913 115.204 90.8913 120.904 90.7913L121.504 88.4913C125.304 91.4913 130.704 92.8913 135.204 90.9913C139.904 88.8913 143.604 81.3913 149.804 83.7913C153.404 84.0913 156.504 82.6913 158.604 79.9913L158.804 77.7913C165.904 78.2913 172.504 71.7913 179.304 76.3913C186.504 80.9913 188.304 89.7913 187.604 98.0913C186.804 103.791 183.804 109.391 178.604 112.491C173.304 114.491 167.704 112.591 162.804 110.691C161.504 110.691 160.604 110.391 159.804 111.391C158.204 111.191 159.304 109.291 158.804 108.391C157.504 105.691 154.604 104.291 151.704 104.191C149.304 103.591 146.904 104.191 145.004 105.491C144.404 106.291 144.204 107.391 144.304 108.291C138.104 106.791 132.004 112.591 126.504 107.391C123.104 105.091 122.304 100.991 121.404 97.1913C117.304 96.5913 112.704 96.9913 108.304 96.4913C94.7041 95.3913 80.7041 96.9913 66.9041 97.1913C66.3041 102.291 62.8041 107.991 57.5041 109.391C52.8041 111.091 48.4041 106.591 43.7041 108.191C43.3041 108.191 43.2041 107.791 42.9041 107.591C43.4041 106.991 43.0041 106.191 42.8041 105.591C40.8041 103.591 37.3041 103.991 34.9041 104.191C32.5041 104.991 29.6041 106.191 29.1041 108.991C29.2041 109.591 29.6041 110.391 28.7041 110.691C24.5041 108.791 20.7041 112.391 16.5041 112.691C11.9041 113.891 8.00406 111.591 5.00406 108.591C-0.595937 101.491 -1.39593 91.2913 2.10407 82.9913C4.00407 78.9913 7.80406 74.6913 12.5041 74.2913C18.2041 73.4913 22.5041 77.1913 27.5041 76.7913C28.1041 76.4913 28.6041 76.9913 29.1041 77.1913C28.5041 78.7913 29.6041 79.9913 30.4041 81.1913C33.7041 83.6913 38.4041 84.4913 42.3041 82.6913C45.5041 82.9913 46.3041 86.3913 48.8041 87.8913C51.8041 90.4913 55.4041 92.2913 59.7041 91.4913C61.9041 90.7913 64.2041 90.2913 66.2041 88.9913L66.5041 90.8913C72.0041 91.4913 77.2041 91.0913 82.7041 91.6913L83.1041 91.4913C78.4041 88.5913 73.5041 86.3913 68.8041 83.6913C66.1041 87.0913 62.5041 89.3913 58.3041 89.7913C52.9041 90.3913 48.8041 85.9913 45.7041 82.0913C45.0041 81.0913 43.2041 81.7913 42.9041 80.5913C43.9041 79.7913 44.0041 78.2913 43.3041 77.2913C40.5041 74.2913 36.7041 72.2913 32.7041 73.0913C31.0041 73.0913 30.3041 74.7913 29.5041 75.8913C28.7041 76.1913 28.9041 75.2913 28.5041 74.8913C24.3041 71.9913 18.5041 72.9913 14.5041 69.8913C10.2041 66.0913 8.60406 60.2913 9.90406 54.8913C11.4041 45.8913 18.4041 36.7913 27.8041 35.0913C34.5041 33.9913 39.5041 39.6913 43.4041 44.5913C44.2041 45.9913 46.0041 45.0913 46.6041 46.7913C45.2041 47.4913 45.8041 49.3913 45.7041 50.5913C46.6041 53.9913 49.9041 56.7913 53.0041 58.1913C54.3041 58.4913 56.2041 58.8913 57.2041 57.5913C58.2041 54.2913 59.5041 58.7913 61.1041 58.4913C65.6041 60.0913 71.6041 61.1913 73.0041 66.5913C74.4041 70.3913 73.1041 74.4913 71.9041 77.8913C74.2041 80.0913 77.3041 81.0913 79.9041 83.1913L86.9041 87.7913C84.5041 82.6913 80.8041 77.7913 77.9041 72.7913C77.3041 72.6913 76.5041 73.0913 75.9041 73.4913C75.4041 72.1913 75.9041 70.4913 75.8041 68.7913C74.6041 60.8913 66.6041 58.5913 60.5041 55.9913C59.1041 54.8913 58.2041 53.3913 58.1041 51.5913C56.7041 48.5913 53.7041 45.1913 50.0041 45.1913C48.9041 44.9913 47.7041 46.4913 47.0041 45.2913C46.1041 41.1913 41.6041 39.9913 39.3041 36.5913C36.2041 33.2913 35.5041 28.2913 37.1041 23.9913C40.7041 15.6913 49.0041 10.3913 57.8041 9.1913C62.6041 8.8913 68.2041 9.8913 71.2041 14.1913C74.6041 18.1913 73.1041 24.2913 76.4041 28.1913C77.0041 30.1913 73.9041 30.4913 73.9041 32.3913C73.3041 36.8913 74.9041 40.6913 78.1041 43.7913C79.1041 48.7913 74.7041 52.5913 76.6041 57.7913C77.7041 61.8913 80.9041 65.9913 85.0041 67.6913L83.3041 69.3913C85.9041 74.1913 88.3041 78.9913 90.9041 83.6913H91.1041C91.2041 77.9913 91.1041 72.2913 90.8041 66.8913C86.5041 66.2913 82.3041 64.1913 79.9041 60.3913C76.8041 56.3913 78.9041 50.3913 80.3041 46.0913C80.9041 44.8913 79.1041 43.5913 80.5041 42.7913C81.4041 43.2913 82.0041 42.7913 82.7041 42.2913C84.7041 38.8913 84.4041 33.8913 82.0041 30.7913C80.9041 29.5913 79.7041 28.1913 77.9041 28.9913C77.4041 27.8913 77.9041 26.9913 77.9041 25.9913C76.4041 20.0913 72.5041 12.7913 77.1041 7.1913C82.5041 0.491298 91.5041 -0.908684 99.9041 0.491316C104.904 1.69132 110.104 4.09132 113.004 8.99132Z" />
</svg>
