<svg viewBox="0 0 24 24" xmlns="http://www.w3.org/2000/svg"><path d="M7.469 1C3.918 1 1 3.914 1 7.469v9.062C1 20.082 3.914 23 7.469 23h9.062C20.082 23 23 20.086 23 16.531V7.47C23 3.918 20.086 1 16.531 1H7.47zm-.216 1.571h9.494a4.675 4.675 0 014.682 4.682v9.494a4.675 4.675 0 01-4.682 4.682H7.253a4.675 4.675 0 01-4.682-4.682V7.253a4.675 4.675 0 014.682-4.682zm10.934 2.292a.945.945 0 00-.949.95c0 .527.422.949.95.949.527 0 .949-.422.949-.95a.945.945 0 00-.95-.949zM12 6.2c-3.19 0-5.8 2.61-5.8 5.8s2.61 5.8 5.8 5.8 5.8-2.61 5.8-5.8-2.61-5.8-5.8-5.8zm0 1.61A4.172 4.172 0 0116.19 12 4.172 4.172 0 0112 16.19 4.172 4.172 0 017.81 12 4.172 4.172 0 0112 7.81z"></path></svg>