<svg xmlns="http://www.w3.org/2000/svg" viewBox="0 0 24 24"><g transform="translate(0,24) scale(.025,-.025)"><path d="M371 786 c-29 -16 -50 -52 -50 -86 0 -34 21 -70 50 -86 23 -13 22 -13 -21 -14 -44 0 -49 -3 -138 -93 -50 -51 -92 -99 -92 -108 0 -29 23 -39 92 -39 l68 0 0 -88 c0 -55 4 -92 12 -100 17 -17 239 -17 256 0 7 7 12 43 12 92 0 62 3 77 12 68 21 -21 39 -14 115 43 61 46 76 54 92 45 11 -5 26 -10 34 -10 18 0 44 58 31 69 -13 11 -191 81 -208 81 -8 0 -46 -38 -85 -84 l-71 -83 0 -77 0 -76 -60 0 -60 0 0 60 c0 53 2 60 20 60 13 0 68 57 165 170 80 93 145 174 145 179 0 24 -31 17 -56 -12 -82 -99 -80 -97 -113 -86 -30 11 -30 11 -16 39 8 16 15 38 15 49 0 75 -83 124 -149 87z m79 -306 l-32 -40 -81 0 -81 0 39 40 c39 40 40 40 113 40 l74 0 -32 -40z m190 -4 l32 -13 -23 -17 c-32 -22 -35 -21 -48 14 -11 34 -7 36 39 16z"/></g></svg>
