<svg xmlns="http://www.w3.org/2000/svg" width="578" height="496" viewBox="0 0 544 496"><path d="m-3 4.734 2.71.014 2.875-.008c3.216-.008 6.432 0 9.648.006q3.47-.003 6.943-.01 8.574-.009 17.15 0c6.843.007 13.687.002 20.531-.004q20.115-.014 40.23-.004 17.604.008 35.207.004h2.355l9.466-.002c29.619-.006 59.238 0 88.858.01q39.504.014 79.009 0a155282 155282 0 0 1 98.14-.008h2.35q17.595.004 35.19-.005 20-.008 40 .007c6.808.005 13.618.008 20.427 0q9.335-.007 18.67.009 3.393.002 6.784-.004c3.054-.006 6.109 0 9.163.01l2.71-.015c6.064.038 6.064.038 8.292 2.266.197 2.614.268 5.122.252 7.737l.008 2.46c.008 2.752 0 5.502-.006 8.253q.003 2.97.01 5.94c.008 5.465.004 10.929-.003 16.393-.004 5.885.003 11.769.008 17.653q.012 16.303.002 32.606-.007 15.058-.003 30.117v2.015l.002 8.098q.007 38.01-.01 76.019-.014 33.795 0 67.59a113648 113648 0 0 1 .008 83.96l-.001 2.01q-.003 15.053.005 30.105.01 17.109-.006 34.218-.009 8.737 0 17.474.007 7.987-.009 15.973-.002 2.901.004 5.802c.006 2.614 0 5.227-.01 7.84l.015 2.316c-.038 5.193-.038 5.193-2.266 7.421-3.03.198-5.97.268-9.002.252l-2.875.008c-3.216.008-6.432 0-9.648-.006q-3.472.003-6.943.01-8.575.009-17.15 0c-6.844-.007-13.687-.002-20.531.004q-20.115.014-40.231.004a55703 55703 0 0 0-47.027-.002c-29.62.006-59.239 0-88.858-.01q-39.504-.014-79.009 0a155282 155282 0 0 1-98.14.008h-2.35q-17.595-.004-35.19.005-20 .009-40-.007c-6.809-.005-13.618-.008-20.427 0q-9.336.008-18.67-.009-3.393-.003-6.784.004c-3.055.006-6.109 0-9.163-.01l-2.71.015c-6.064-.038-6.064-.038-8.292-2.266a94 94 0 0 1-.252-7.737l-.009-2.46c-.007-2.752 0-5.502.007-8.253q-.004-2.97-.01-5.94c-.008-5.465-.004-10.929.002-16.393.005-5.885-.002-11.769-.008-17.653q-.01-16.303-.002-32.606.008-15.058.004-30.117v-2.015l-.002-8.098c-.006-25.34 0-50.68.01-76.019q.014-33.795 0-67.59a113648 113648 0 0 1-.008-83.96v-2.01q.003-15.053-.005-30.105-.008-17.109.007-34.218.009-8.737 0-17.474-.008-7.987.009-15.973.002-2.901-.004-5.802c-.006-2.614 0-5.227.01-7.84l-.015-2.316c.05-6.984 1.76-7.645 8.558-7.687M-.292 18a85 85 0 0 0-.249 7.378l-.008 2.343c-.006 2.619.002 5.237.01 7.856q-.002 2.827-.008 5.656c-.006 5.202 0 10.404.008 15.606.007 5.602.002 11.204-.002 16.806q-.006 16.474.01 32.948c.01 12.777.01 25.554.01 38.33q.002 35.22.024 70.437a96542 96542 0 0 1 .02 80.823v2.049c-.001 21.745.006 43.49.013 65.234q.006 13.374.005 26.75 0 16.287.014 32.576.008 8.317.007 16.636-.002 7.604.01 15.207v5.523q-.002 3.732.007 7.464l-.006 2.204c-.037 3.712-.037 3.712 1.135 7.174 5.745 1.017 11.393 1.143 17.213 1.129l2.724.005c3.01.005 6.02.002 9.03 0l6.541.007q8.985.008 17.971.004 9.691.002 19.383.01 18.982.013 37.967.012a116504 116504 0 0 1 41.959.01q31.042.009 62.086.009h21.368q37.08-.001 74.159.02a142086 142086 0 0 0 92.189.023h2.208q17.605 0 35.21.015 17.682.012 35.365.003 9.582-.007 19.165.005 8.766.011 17.531-.002 3.178-.003 6.355.005c2.871.007 5.743.002 8.614-.006l2.512.015c4.543-.028 8.17-.537 12.45-2.264a414650 414650 0 0 0 .11-197.643q.015-33.3.042-66.6.03-35.174.036-70.352.004-21.083.028-42.167.015-14.439.01-28.877-.001-8.342.012-16.685.014-7.626.004-15.251-.002-2.77.008-5.54c.008-2.495.003-4.99-.004-7.486l.016-2.21c.088-4.044.088-4.044-2.262-7.189-2.917-.198-5.74-.268-8.658-.252l-2.763-.008c-3.09-.008-6.18 0-9.269.006q-3.335-.003-6.67-.01c-6.137-.008-12.275-.004-18.412.003-5.93.004-11.86-.002-17.79-.007q-19.326-.014-38.652-.004-16.913.008-33.824.004h-2.263l-9.094-.002c-28.457-.006-56.914 0-85.37.01q-37.955.014-75.908 0a143332 143332 0 0 0-94.29-.008h-2.257q-16.905.004-33.81-.005-19.213-.008-38.428.007-9.813.009-19.625 0-8.97-.008-17.938.009-3.26.002-6.517-.004c-2.935-.006-5.87 0-8.804.01l-2.603-.015C3.262 15.567 3.262 15.567-.292 18" class="[]"/><path d="m68.637 83.696 2.336.003 2.415-.013a852 852 0 0 1 5.077-.002c2.563.003 5.126-.02 7.69-.045 18.631-.077 18.631-.077 25.22 5.298L113 91l1.687 2.062c3.913 5.776 2.8 14.246 2.313 20.938-1.103 3.81-2.674 6.775-5.637 9.512-1.7 1.52-1.7 1.52-1.363 4.488 1.444 1.434 1.444 1.434 3.312 2.75 4.67 3.885 6.416 7.286 6.965 13.27.298 10.224-1.358 17.246-7.875 25.156-8.798 6.68-18.292 6.393-28.855 6.236a529 529 0 0 0-7.707-.04q-2.45-.015-4.903-.036l-2.326-.007c-5.379-.097-5.379-.097-7.611-2.329-.199-2.76-.273-5.42-.259-8.182l-.01-2.562c-.01-2.804-.003-5.608.003-8.412l-.005-5.829q-.005-6.112.01-12.226c.012-5.233.005-10.466-.007-15.698q-.009-6.02 0-12.04.003-2.894-.005-5.789c-.005-2.693.003-5.387.014-8.08l-.012-2.434c.052-6.716 1.166-7.961 7.908-8.052M82 104c-.32 3.058-.32 3.058-.25 6.5l-.016 3.531c-.043 3.087-.043 3.087 2.266 4.969 4.177.31 7.477.439 11-2 1.6-3.201 1.352-6.52 1-10-.745-2.577-.745-2.577-3-4-5.986-1.619-5.986-1.619-11 1m0 35a83 83 0 0 0-.25 7.5l-.023 2.09c-.103 4.162-.103 4.162 2.273 7.41 5.659.67 5.659.67 10.437-1.875 2.817-3.83 2.886-6.365 2.563-11.125-1.747-3.728-1.747-3.728-5-6-1.914-.197-1.914-.197-4-.188l-2.125-.042c-2.12.065-2.12.065-3.875 2.23" class="B"/><path d="m139.121 83.727 2.379.023 2.379-.023c5.868.02 5.868.02 8.121 2.273.199 2.76.273 5.42.259 8.182l.01 2.562c.01 2.804.003 5.608-.003 8.412l.005 5.829q.005 6.112-.01 12.226c-.012 5.233-.005 10.466.007 15.698q.009 6.02 0 12.04-.003 2.894.005 5.789c.005 2.693-.003 5.387-.014 8.08l.012 2.434c-.042 5.52-.042 5.52-2.271 7.748-2.873.199-5.629.278-8.5.25l-2.379.023c-5.868-.02-5.868-.02-8.121-2.273-.199-2.76-.273-5.42-.259-8.182l-.01-2.562c-.01-2.804-.003-5.608.003-8.412l-.005-5.829q-.005-6.112.01-12.226c.012-5.233.005-10.466-.007-15.698q-.009-6.02 0-12.04.003-2.894-.005-5.789c-.005-2.693.003-5.387.014-8.08l-.012-2.434c.054-7.018 1.408-7.997 8.392-8.021" class="I"/><path d="m177.375 83.625 2.328-.074 2.258-.012 2.056-.025c2.946.722 4.075 2.16 5.983 4.486 1.508 2.837 1.508 2.837 2.91 6.086l1.56 3.57 1.593 3.719q1.576 3.639 3.16 7.273l1.398 3.256c1.372 3.081 2.848 6.09 4.379 9.096h1l.06-3.181c.076-3.888.165-7.775.257-11.663q.059-2.526.105-5.052c.045-2.417.103-4.835.164-7.252l.035-2.29c.151-5.334.151-5.334 2.379-7.562a94 94 0 0 1 8-.25l2.234-.023c5.513.02 5.513.02 7.766 2.273.199 2.76.273 5.42.259 8.182l.01 2.562c.01 2.804.003 5.608-.003 8.412l.005 5.829q.005 6.112-.01 12.226c-.012 5.233-.005 10.466.007 15.698q.009 6.02 0 12.04-.003 2.894.005 5.789c.005 2.693-.003 5.387-.014 8.08l.012 2.434c-.042 5.52-.042 5.52-2.271 7.748-2.959.444-5.95.324-8.937.313l-2.499.048-2.404.002-2.199.01c-2.567-.488-3.358-1.334-4.961-3.373-1.072-1.97-1.072-1.97-2.05-4.21l-1.11-2.508-1.153-2.657-2.39-5.414-1.178-2.68a640 640 0 0 0-4.681-10.281l-1.442-3.11L189 139h-1l-.06 3.09c-.076 3.775-.165 7.55-.257 11.327q-.059 2.452-.105 4.906c-.045 2.348-.103 4.696-.164 7.044l-.035 2.223c-.151 5.182-.151 5.182-2.379 7.41-2.71.199-5.293.278-8 .25l-2.234.023c-5.513-.02-5.513-.02-7.766-2.273-.199-2.76-.273-5.42-.259-8.182l-.01-2.562c-.01-2.804-.003-5.608.003-8.412l-.005-5.829q-.005-6.112.01-12.226c.012-5.233.005-10.466-.007-15.698q-.009-6.02 0-12.04.003-2.894-.005-5.789c-.005-2.693.003-5.387.014-8.08l-.012-2.434c.064-8.264 3.281-8.11 10.646-8.123" class="N"/><path d="M298.242 88.598c1.647 1.398 3.213 2.891 4.758 4.402-.533 4.008-1.589 6.219-4.25 9.25l-1.766 2.078c-2.417 2.037-3.83 2.537-6.984 2.672-2.36-1.031-2.36-1.031-4.75-2.5-4.386-2.34-7.368-3.125-12.273-2.215-3.841 1.39-5.945 4.04-8.032 7.426-4.767 11.544-4.234 29.102.164 40.55 1.645 3.211 3.702 5.145 6.891 6.739a95 95 0 0 0 5.125.063L282 157v-14l-3.875-1c-3.8-1.423-3.8-1.423-5.102-3.734-1.13-4.356-1.382-8.785-1.023-13.266 2-2 2-2 4.674-2.243l3.357.013 3.645.005 3.824.037 3.824.002c9.396.046 9.396.046 11.676 1.186 2.163 6.402 1.306 14.044 1.35 20.745q.025 2.756.082 5.51c.055 2.655.077 5.308.091 7.964l.07 2.484c-.022 5.71-.022 5.71-3 8.771L299 171l-2 1.195c-11.406 5.302-24.28 6.391-36.187 2.18-8.947-3.97-14.79-10.527-18.813-19.375-5.754-15.33-4.847-35.624 1.066-50.723C247.622 94.31 253.717 87.935 264 84c11.018-3.88 24.669-2.224 34.242 4.598" class="G"/><path d="M367 87a76 76 0 0 1 4 3c-.548 4.283-2.024 6.851-4.562 10.313l-1.942 2.675L363 105a55 55 0 0 1-9.437-2.562c-4.535-1.537-8.268-2.306-12.875-.563-1.847 1.03-1.847 1.03-2.688 3.125-.356 3.276-.56 5.223 1.402 7.95 4.467 3.526 9.85 5.035 15.157 6.962 6.142 2.32 11.1 4.585 14.867 10.22l.887 1.993.925 2.008c3.112 7.628 2.96 16.754.012 24.43-4.08 8.626-10.333 13.183-19.203 16.562-11.85 3.403-25.692 2.074-36.922-3.062-4.288-2.83-4.288-2.83-5.125-6.063 1.014-2.455 2.027-4.495 3.375-6.75l1.04-1.824A326 326 0 0 1 317 153c4.442-.162 6.21.708 10 3 6.215 2.168 12.228 3.284 18.375.438 2.891-2.287 2.891-2.287 3.75-5.938.229-3.494.229-3.494-1.82-5.573-2.385-1.994-4.43-3.084-7.297-4.259l-2.887-1.232a884 884 0 0 0-5.969-2.461c-7.684-3.303-11.702-6.973-16.027-14.037-2.718-7.227-2.111-16.23.5-23.376C319.252 91.84 323.979 87.02 332 84c10.964-3.122 24.87-2.04 35 3" class="S"/><path d="m391.766 83.727 2.234.023 2.234-.023c5.513.02 5.513.02 7.766 2.273.21 2.839.294 5.581.29 8.422l.02 2.642c.02 2.895.024 5.79.026 8.686l.02 6.04q.017 6.345.015 12.691c0 5.402.027 10.804.061 16.207.022 4.164.026 8.328.025 12.493q.004 2.985.027 5.97c.153 21.72.153 21.72-6.632 30.689-8.294 7.813-8.294 7.813-12.852 9.16-3.753-.64-5.101-2.101-7.812-4.812C375 191 375 191 374.313 188.563c.896-3.341 2.685-4.991 5.18-7.329 3.835-5.684 3.803-13.28 3.794-19.935l.02-2.477q.02-2.635.029-5.269c.008-2.778.028-5.556.052-8.334.056-6.889.092-13.778.128-20.667q.045-8.764.12-17.53c.02-2.74.028-5.48.036-8.22l.04-5.007-.002-2.315c.079-6.656 1.416-7.73 8.056-7.753" class="J"/><path d="m450.813 82.563 2.403.022c8.696.244 15.75 2.571 22.19 8.587C487.48 105.02 487.817 121.582 487 139c-.887 10.863-4.208 22.072-11.988 30.035-1.937 1.53-3.853 2.773-6.012 3.965l-3.125 1.813c-9.46 3.598-20.606 2.892-29.875-.813-3.021-1.69-5.493-3.622-8-6l-1.645-1.523c-9.23-9.58-10.534-22.097-10.543-34.727l-.037-2.988c-.026-13.594 2.852-27.066 12.538-37.149 6.922-6.618 13.051-9.177 22.5-9.05M444 103c-6.048 7.84-5.365 17.984-5.375 27.375l-.074 3.828c-.026 8.17.493 15.934 5.842 22.51 2.804 2.246 6.139 2.375 9.607 2.287 4.605-1.57 6.145-4.522 8.203-8.672 4.143-12.104 4.46-33.577-1.203-45.328-2.812-3.167-4.525-4.869-8.812-5.25-3.665.287-5.31.994-8.188 3.25" class="O"/><path d="M471 58c3.213 2.198 4.274 4.147 5 7.875.27 3.373-.079 4.283-1.687 7.5C470.87 77.282 470.87 77.282 468 78c-4.828-.077-7.015-.287-10.937-3.125C454.553 71.376 454 69.297 454 65c1.315-4.274 2.424-5.646 6.25-8 4.479-1.194 6.527-.832 10.75 1M445.656 59.305c2.466 3.111 2.466 6.833 2.344 10.695-1.562 3.67-2.66 4.773-6 7-5.029.81-8.825.815-13.062-2.125C426.748 71.625 426 69.917 426 66c1.45-4.35 2.149-6.433 6-9 4.798-1.6 9.624-.872 13.656 2.305" class="."/><path d="m73.285 209.678 3.715.01 3.621-.05c9.46-.005 19.007.847 26.379 7.362 4.786 5.853 5.73 11.456 5.426 18.906-.874 6.347-3.558 10.922-8.426 15.094.727 3.245.727 3.245 3.813 4.75 4.428 3.126 6.325 6.45 7.937 11.687.863 8.848-.382 15.915-4.437 23.875C107.1 296.207 102.369 298.99 96 300c-4.645.194-9.29.186-13.94.185-2.25.003-4.502.02-6.753.04q-2.144.005-4.287.005l-3.935.013C64 300 64 300 62 298c-.199-2.73-.273-5.359-.259-8.09l-.01-2.533c-.01-2.771-.003-5.543.003-8.315l-.005-5.761q-.005-6.043.01-12.085c.012-5.172.005-10.344-.007-15.516a3806 3806 0 0 1 0-11.9q.003-2.862-.005-5.723c-.005-2.662.003-5.325.014-7.987l-.012-2.406c.069-8.813 3.902-7.96 11.556-8.006M75 224c-.31 2.294-.31 2.294-.266 4.937l-.007 2.961.023 3.102-.023 3.102.007 2.96.007 2.723c.05 2.42.05 2.42 2.259 4.215 6.568.839 12.272.341 18-3 3.402-2.948 3.662-6.524 4-10.82 0-4.122-1.299-6.366-3.937-9.43-3.647-3.094-7.015-2.912-11.626-2.938l-3.503-.042c-3.057-.08-3.057-.08-4.934 2.23m0 37c-.278 2.72-.278 2.72-.195 5.883l.02 3.535.05 3.707.027 3.73q.036 4.573.098 9.145c5.955 3.12 11.518 2.658 17.875.687 3.1-1.05 5.022-2.155 7.125-4.687 2.182-5.456 2.588-10.365 1-16-2.362-4.286-5.353-6.569-10-8-3.515-.315-3.515-.315-7.187-.25l-3.731-.016c-3.187-.058-3.187-.058-5.082 2.266" class="b"/><path d="M116 210c1.915-.135 3.832-.232 5.75-.312l3.234-.176C128 210 128 210 130.002 212.08c2.207 3.224 3.634 6.48 4.978 10.118l.783 2.05c.817 2.143 1.621 4.29 2.424 6.439q1.226 3.236 2.457 6.47.761 2.008 1.516 4.017c1.301 3.463 1.301 3.463 2.84 6.825h2q1.817-4.5 3.625-9l1.098-2.726c1.741-4.344 3.45-8.692 5.039-13.094l.8-2.211q.736-2.055 1.446-4.117c1.261-3.513 1.78-4.71 4.992-6.852 2.7-.195 2.7-.195 5.688-.125l3.011.055L175 210c1.058 3.176 1.014 4.732-.414 7.746l-1.04 2.246-1.171 2.446-2.477 5.335-1.387 2.968c-2.595 5.596-5.11 11.227-7.63 16.857q-1.31 2.922-2.626 5.84l-1.63 3.628-1.46 3.249c-1.962 4.524-2.321 7.985-2.411 12.908l-.1 4.318q-.072 3.4-.13 6.801c-.04 2.19-.092 4.379-.145 6.568l-.076 3.973C152 298 152 298 150 300c-2.094.266-2.094.266-4.5.25l-2.406.016C141 300 141 300 139 298c-.144-2.768-.144-2.768-.027-6.316.26-18.057-1.824-31.202-10.337-47.485-2.716-5.31-5.144-10.747-7.57-16.194-.8-1.782-1.622-3.555-2.444-5.327l-1.481-3.26-1.328-2.882c-.87-2.713-.814-3.913.187-6.536" class="y"/><path d="M226.164 213.379c1.649 1.371 1.649 1.371 3.836 3.621-2.875 6.875-2.875 6.875-4 8-3.588.544-5.597-.24-8.625-2-5.029-2.676-9.798-2.698-15.375-2-3.74 1.247-5.365 1.932-7.375 5.313-1.044 4.488-1.289 7.369.824 11.566 2.925 4.196 7.24 5.953 11.738 8.121a1555 1555 0 0 1 5.145 2.613l2.463 1.249c8.523 4.4 14.227 8.742 17.58 17.888 1.457 7.23.64 14.953-3.016 21.402-4.92 6.687-11.138 10.543-19.109 12.536-11.856 1.14-23.618.018-33.25-7.688.432-4.752 1.328-6.92 5-10 3.196 1.013 6.093 2.05 9.063 3.625 6.325 2.767 14.108 2.253 20.562.25 3.023-2.387 4.115-4.236 5.375-7.875.529-5.024.133-8.003-3-12-5.256-4.858-11.866-7.59-18.252-10.67-7.257-3.652-11.573-7.56-15.623-14.58-2.342-7.807-1.955-15.504 1.875-22.75 3.638-5.794 9.402-9.46 15.938-11.312 9.623-1.921 19.805-.675 28.226 4.69" class="s"/><path d="m242.785 209.741 3.014-.019 3.263.012 3.34-.005q3.501-.002 7.001.01c3.582.011 7.164 0 10.745-.012q3.394 0 6.79.007l3.263-.012 3.014.02c.878 0 1.755.002 2.66.004C288 210 288 210 290 212c.341 3.14.341 5.274-1.012 8.152-2.993 2.782-6.226 2.484-10.113 2.535-4.823-.306-4.823-.306-8.875 1.313-.114 2.29-.157 4.583-.174 6.875l-.02 2.178a1794 1794 0 0 0-.036 4.696q-.026 3.713-.065 7.424-.104 10.558-.182 21.115-.049 6.45-.12 12.9-.024 2.463-.037 4.927a1070 1070 0 0 1-.063 6.88l-.031 3.962C269 298 269 298 267 300c-2.094.266-2.094.266-4.5.25l-2.406.016C258 300 258 300 256 298c-.272-3.043-.272-3.043-.303-7.004l-.026-2.183c-.025-2.387-.037-4.774-.05-7.16q-.024-2.482-.051-4.962c-.046-4.358-.08-8.716-.113-13.074q-.078-10.47-.188-20.939-.033-3.666-.055-7.334l-.04-4.47-.03-3.958c.188-2.807.188-2.807-1.144-3.916a299 299 0 0 0-10.186-.518c-5.6-.269-5.6-.269-7.814-2.482-.266-1.875-.266-1.875-.25-4l-.016-2.125c.607-4.282 3.426-4.127 7.051-4.134" class="t"/><path d="m300.094 209.734 2.406.016 2.406-.016C307 210 307 210 309 212c.265 2.438.265 2.438.287 5.544l.04 3.523.017 3.831.067 5.964c.038 3.504.063 7.009.089 10.513.03 4.143.064 8.286.112 12.429q.044 3.87.06 7.74c-.434 13.105-.434 13.105 4.217 24.729 4.422 3.619 9.667 3.197 15.111 2.727 3.574-1.369 4.648-2.41 6.604-5.686 1.547-3.673 1.78-6.235 1.797-10.206l.02-2.002c.02-2.166.02-4.331.02-6.497q.019-2.266.04-4.533c.037-3.965.057-7.929.072-11.894q.036-9.539.122-19.078c.016-2.22.02-4.442.023-6.664l.03-4.066.014-3.592C338 212 338 212 340 210c2.094-.266 2.094-.266 4.5-.25l2.406-.016C349 210 349 210 351 212c.26 2.837.26 2.837.275 6.51l.015 2.026c.014 2.219.013 4.437.01 6.655l.014 4.635q.01 4.869.002 9.738c-.006 4.14.01 8.28.034 12.42.015 3.196.016 6.391.013 9.587q0 2.287.015 4.575c.055 9.349-.21 17.277-4.94 25.604-7.27 6.71-15.918 8.6-25.532 8.457-7.796-.555-13.62-2.883-19.281-8.316-5.496-6.394-5.743-14.604-5.77-22.713l-.02-3.983-.003-4.246-.01-4.395a4275 4275 0 0 1-.007-9.17c0-3.923-.014-7.844-.031-11.766q-.015-4.53-.013-9.057a961 961 0 0 0-.013-4.34c-.01-2.016-.006-4.031 0-6.046l-.005-3.476c.302-3.305.94-4.533 4.34-4.965" class="u"/><path d="m415 213 1.95.98c1.675.958 1.675.958 4.05 3.02.625 2.5.625 2.5 0 5-1.999 2.74-3.133 3.848-6.5 4.438-2.96-.518-4.16-1.595-6.5-3.438-5.201-2.196-9.795-3.037-15.27-1.266-6.135 2.809-8.365 6.392-10.855 12.547-2.215 6.883-2.13 13.608-2.187 20.781l-.088 3.53c-.063 8.611.518 17.981 6.444 24.738 4.213 3.877 7.515 5.815 13.331 5.795l2.273.008c2.527-.143 4.878-.616 7.352-1.133.029-3.812.047-7.625.063-11.437l.025-3.3.01-3.134.016-2.904c.137-2.198.137-2.198-1.114-3.225-2.548-.283-5.095-.448-7.652-.621C398 263 398 263 396 261c-.75-3.5-.75-3.5-1-7 2.609-2.609 3.745-2.257 7.375-2.266l3.234-.007 3.391.023 3.39-.023 3.235.007 2.977.007C421 252 421 252 423 254a106 106 0 0 1 .371 8.332l.027 2.511q.022 2.634.028 5.269c.011 2.68.06 5.358.111 8.038q.015 2.56.022 5.12l.059 2.421c-.035 4.27-.23 5.828-3.013 9.272C412.86 301.02 403.678 302.87 394 302c-10.153-2.083-16.816-6.755-23-15-8.712-13.917-8.473-33.486-5-49 2.45-10.07 6.943-19.313 16-25 10.893-5.887 22.093-5.719 33 0" class="g"/><path d="m446.452 209.748 2.677.022h2.742q2.871.006 5.742.024c2.941.018 5.882.02 8.823.02l5.568.018 2.683.003c6.197.049 6.197.049 7.313 1.165-.05 1.996-.05 1.996-.313 4.437l-.238 2.434C481 220 481 220 479 222c-2.614.319-2.614.319-5.883.414l-3.535.117-3.707.094-3.73.117q-4.573.142-9.145.258c-1.226 2.453-1.114 4.05-1.098 6.79l.01 2.85.025 2.985.014 3.008q.018 3.683.049 7.367c2.845.818 5.303 1.101 8.258 1.027l2.394-.037q2.485-.053 4.97-.117c2.126-.03 4.253.042 6.378.127 2 2 2 2 2.266 3.875L476.25 253l.016 2.125C476 257 476 257 474 259c-2.247.319-2.247.319-5.008.414l-2.988.117-3.129.094-3.152.117q-3.86.142-7.723.258c-.029 4.125-.047 8.25-.063 12.375l-.025 3.562-.01 3.399-.016 3.142c-.057 2.518-.057 2.518 1.114 4.522l2.539.076q4.658.143 9.314.296 3.009.096 6.018.185l3.809.127 3.523.11C481 288 481 288 483 289q.04 2.47.062 4.937l.036 2.778C483 299 483 299 482 300c-3.08.114-6.135.164-9.215.168l-2.806.01q-2.945.007-5.889.007c-3.011.002-6.022.02-9.033.04q-2.854.005-5.71.005l-2.742.022-2.538-.01-2.239.005C440 300 440 300 438 298c-.199-2.73-.273-5.359-.259-8.09l-.01-2.533c-.01-2.771-.003-5.543.003-8.315l-.005-5.761q-.005-6.043.01-12.085c.012-5.172.005-10.344-.007-15.516q-.009-5.95 0-11.9.003-2.861-.005-5.723c-.005-2.662.003-5.325.014-7.987l-.012-2.406c.056-7.217 1.656-7.91 8.723-7.936" class="e"/><path d="m69.385 335.748 2.213.022h2.27q2.378.006 4.754.024c2.434.018 4.868.02 7.302.02l4.611.018 2.22.003c5.129.049 5.129.049 6.245 1.165.188 3.437.188 3.437 0 7-2.48 2.48-3.33 2.28-6.754 2.379l-2.838.103-2.97.08q-2.91.09-5.817.192l-2.611.072c-2.007-.043-2.007-.043-3.01 1.174a62 62 0 0 0-.133 4.219l-.004 2.574.012 2.707-.012 2.707.004 2.574.004 2.377c-.072 1.86-.072 1.86 1.129 2.842 3.396.237 6.784.396 10.186.518 5.6.269 5.6.269 7.814 2.482.188 3.562.188 3.562 0 7-2.31 2.31-8.628 1.462-11.918 1.605-3.857-.178-3.857-.178-7.082 1.395-.135 2.423-.21 4.821-.246 7.246l-.1 4.475a2026 2026 0 0 0-.13 7.084c-.04 2.272-.092 4.544-.145 6.816l-.026 2.147c-.126 5.005-.126 5.005-2.353 7.232-1.875.266-1.875.266-4 .25l-2.125.016C64 416 64 416 62 414a81 81 0 0 1-.259-7.172l-.01-2.237c-.01-2.447-.003-4.894.003-7.341l-.005-5.089q-.005-5.336.01-10.673c.012-4.567.005-9.133-.007-13.7q-.009-5.255 0-10.51.003-2.527-.005-5.053c-.005-2.351.003-4.702.014-7.053l-.012-2.122c.055-6.23 1.498-7.274 7.656-7.302" class="f"/><path d="M150.25 340.063c9.137 8.541 11.683 21.9 12.101 33.86.149 12.645-1.22 26.57-10.277 36.104-6.487 5.974-12.295 7.855-21.074 7.973-7.574-.765-12.928-3.589-18.125-9.187-7.828-9.59-9.268-21.026-9.25-33l.005-3.361c.171-11.443 1.9-21.659 10.085-30.253 11.214-10.725 23.898-10.156 36.535-2.137m-28.437 9c-5.018 8.131-5.333 16.917-5.25 26.25l.022 3.615c.19 14.266.19 14.266 7.103 26.322 5.31 2.806 9.765 3.485 15.562 1.813 5.942-4.457 8.418-10.311 9.469-17.547 1.091-13.64 1.696-27.528-4.469-40.079-3.369-3.65-6.933-5.098-11.812-5.812-4.365.671-7.432 2.426-10.625 5.438" class="o"/><path d="M121.438 315.688c3.562.312 3.562.312 5.5 1.437 1.592 2.81 1.515 4.703 1.062 7.875-1.562 2.438-1.562 2.438-4 4-3.625-.062-3.625-.062-7-1-2-3-2-3-1.75-6.562.996-4.567 1.495-5.324 6.188-5.75M147 316c2 1.563 2 1.563 3 4-.125 3.625-.125 3.625-1 7-3 2-3 2-6.562 1.75C139 328 139 328 137 326c-.546-6.005-.546-6.005 1.063-8.937 3.092-1.696 5.492-1.494 8.937-1.063" class="."/><path d="m189.5 335.563 3.477-.1c7.69-.048 13.666 1.012 20.023 5.537 5.905 6.215 6.354 12.174 6.277 20.41-.496 6.422-2.47 11.304-7.34 15.59-2.937 2-2.937 2-5.937 3 .599 4.238 2.084 7.295 4.195 11l1.918 3.438a877 877 0 0 0 3.036 5.351c.986 1.73 1.954 3.47 2.921 5.211l1.774 3.125c1.285 3.196 1.194 4.645.156 7.875-1.58.136-3.165.232-4.75.313l-2.672.175C210 416 210 416 207.914 413.961c-2.225-3.442-4.03-6.953-5.789-10.649-2.358-4.808-4.724-9.594-7.375-14.25l-1.328-2.34c-1.725-2.09-2.833-2.19-5.422-2.722l-.06 2.722q-.118 4.993-.257 9.986a893 893 0 0 0-.105 4.324c-.045 2.07-.103 4.14-.164 6.21l-.095 3.777C187 414 187 414 185 416c-1.875.266-1.875.266-4 .25l-2.125.016C177 416 177 416 175 414a81 81 0 0 1-.259-7.172l-.01-2.237c-.01-2.447-.003-4.894.003-7.341l-.005-5.089q-.005-5.337.01-10.673c.012-4.567.005-9.133-.007-13.7q-.009-5.255 0-10.51.003-2.527-.005-5.053c-.005-2.351.003-4.702.014-7.053l-.012-2.122c.084-9.475 7.166-7.45 14.771-7.488M187 348c-.31 2.294-.31 2.294-.266 4.938l-.007 2.96.023 3.102-.023 3.102.007 2.96.007 2.723c.05 2.42.05 2.42 2.259 4.215 4.487.611 8.703.497 12.938-1.125 3.112-2.83 4.734-5.626 5.347-9.832.207-4.693-.54-8.11-3.285-12.043-4.67-3.335-12.535-5.465-17-1" class="r"/><path d="m239.512 335.722 2.27.012 2.33-.005q2.441-.002 4.883.01c2.495.011 4.99 0 7.485-.012q2.37 0 4.739.007l2.27-.012c5.281.048 5.281.048 7.511 2.278-.25 3.563-.25 3.563-1 7-2.46 1.23-4.225 1.19-6.973 1.281l-2.974.114-6.242.21-2.971.114-2.739.092c-2.087-.038-2.087-.038-3.101 1.189a62 62 0 0 0-.133 4.219l-.004 2.574.012 2.707-.012 2.707.004 2.574.004 2.377c-.072 1.86-.072 1.86 1.129 2.842 3.825.237 7.644.397 11.475.518l2.427.103 2.234.076C264 369 264 369 266 371c.25 3 .25 3 0 6-2.353 2.353-2.899 2.27-6.098 2.379l-2.427.103-2.538.08c-5.394-.299-5.394-.299-9.937 1.438a91 91 0 0 0-.098 5.129l.01 3.135.025 3.299.014 3.31q.018 4.064.049 8.127l2.247.044c3.356.075 6.71.171 10.065.269l3.538.068 3.388.107 3.127.08c2.635.432 2.635.432 4.51 1.737C273 408 273 408 272.75 411.625 272 415 272 415 271 416c-2.716.113-5.405.164-8.121.168l-2.47.01q-2.591.007-5.183.007c-2.649.002-5.298.02-7.947.04q-2.513.005-5.025.005l-2.412.022c-5.613-.023-5.613-.023-7.842-2.252a81 81 0 0 1-.259-7.172l-.01-2.237c-.01-2.447-.003-4.894.003-7.341l-.005-5.089q-.005-5.337.01-10.673c.012-4.567.005-9.133-.007-13.7q-.009-5.255 0-10.51.003-2.527-.005-5.053c-.005-2.351.003-4.702.014-7.053l-.012-2.122c.056-6.31 1.575-7.272 7.783-7.328" class="e"/><path d="m289.938 335.688 2.652-.051c2.995.451 3.51 1.038 5.41 3.363a112 112 0 0 1 2.89 6.328l.806 1.885c.858 2.01 1.706 4.023 2.554 6.037q1.744 4.096 3.496 8.188l.859 2.012c2.62 6.12 5.417 12.138 8.32 18.128C318 384 318 384 318 386l2-1-.013-1.77q-.066-9.1-.097-18.2-.015-3.4-.04-6.799c-.025-3.251-.036-6.503-.045-9.754l-.032-3.085v-2.85l-.014-2.517C320 338 320 338 322 336c1.875-.266 1.875-.266 4-.25l2.125-.016C330 336 330 336 332 338c.198 2.428.273 4.743.259 7.172l.01 2.237c.01 2.447.003 4.894-.003 7.341l.005 5.089q.005 5.337-.01 10.673c-.012 4.567-.005 9.133.007 13.7q.009 5.255 0 10.51-.003 2.527.005 5.053c.005 2.351-.003 4.702-.014 7.053l.012 2.122c-.042 4.821-.042 4.821-2.271 7.05-2.023.336-2.023.336-4.375.375l-2.336.086c-3.266-.658-4.14-1.887-6.289-4.461-1.61-2.968-2.93-6.046-4.258-9.148l-1.179-2.698q-1.23-2.82-2.445-5.643a1753 1753 0 0 0-3.74-8.605 7207 7207 0 0 1-3.51-8.078C300.05 373.6 298.37 369.401 297 365l-2 1 .013 1.809q.066 9.294.097 18.589.015 3.472.04 6.943c.025 3.321.036 6.642.045 9.964l.032 3.15v2.912l.014 2.57C295 414 295 414 293 416c-1.875.266-1.875.266-4 .25l-2.125.016C285 416 285 416 283 414a81 81 0 0 1-.259-7.172l-.01-2.237c-.01-2.447-.003-4.894.003-7.341l-.005-5.089q-.005-5.337.01-10.673c.012-4.567.005-9.133-.007-13.7q-.009-5.255 0-10.51.003-2.527-.005-5.053c-.005-2.351.003-4.702.014-7.053l-.012-2.122c.052-5.918 1.344-7.337 7.209-7.363" class="n"/><path d="m350.875 335.734 2.125.016 2.125-.016C357 336 357 336 359 338c.198 2.428.273 4.743.259 7.172l.01 2.237c.01 2.447.003 4.894-.003 7.341l.005 5.089q.005 5.337-.01 10.673c-.012 4.567-.005 9.133.007 13.7q.009 5.255 0 10.51-.003 2.527.005 5.053c.005 2.351-.003 4.702-.014 7.053l.012 2.122c-.042 4.821-.042 4.821-2.271 7.05-1.875.266-1.875.266-4 .25l-2.125.016C349 416 349 416 347 414a81 81 0 0 1-.259-7.172l-.01-2.237c-.01-2.447-.003-4.894.003-7.341l-.005-5.089q-.005-5.337.01-10.673c.012-4.567.005-9.133-.007-13.7q-.009-5.255 0-10.51.003-2.527-.005-5.053c-.005-2.351.003-4.702.014-7.053l-.012-2.122c.06-6.737.06-6.737 4.146-7.316" class="i"/><path d="m381.813 335.375 2.582-.227c4.214 1.378 5.523 5.103 7.605 8.852 1.486 2.944 2.841 5.936 4.172 8.953l1.115 2.493q1.154 2.585 2.298 5.173 1.757 3.96 3.528 7.912 1.125 2.524 2.246 5.047l1.064 2.38.982 2.227.863 1.945c.757 1.934 1.272 3.846 1.732 5.87l2-1-.013-1.77q-.066-9.1-.097-18.2-.015-3.4-.04-6.799c-.025-3.251-.036-6.503-.045-9.754l-.032-3.085v-2.85l-.014-2.517C412 338 412 338 414 336c1.875-.266 1.875-.266 4-.25l2.125-.016C422 336 422 336 424 338c.198 2.428.273 4.743.259 7.172l.01 2.237c.01 2.447.003 4.894-.003 7.341l.005 5.089q.005 5.337-.01 10.673c-.012 4.567-.005 9.133.007 13.7q.009 5.255 0 10.51-.003 2.527.005 5.053c.005 2.351-.003 4.702-.014 7.053l.012 2.122c-.042 4.821-.042 4.821-2.271 7.05-2.023.336-2.023.336-4.375.375l-2.336.086c-3.2-.644-4.17-1.987-6.289-4.461a93 93 0 0 1-3.242-6.934l-.882-2.041c-.926-2.15-1.839-4.306-2.751-6.462q-1.358-3.173-2.72-6.344-.894-2.082-1.783-4.166c-2.395-5.594-4.943-11.103-7.56-16.596C389 367 389 367 389 365l-2 1 .013 1.809q.066 9.294.097 18.589.015 3.472.04 6.943c.025 3.321.036 6.642.045 9.964l.032 3.15v2.912l.014 2.57C387 414 387 414 385 416c-1.875.266-1.875.266-4 .25l-2.125.016C377 416 377 416 375 414a81 81 0 0 1-.259-7.172l-.01-2.237c-.01-2.447-.003-4.894.003-7.341l-.005-5.089q-.005-5.337.01-10.673c.012-4.567.005-9.133-.007-13.7q-.009-5.255 0-10.51.003-2.527-.005-5.053c-.005-2.351.003-4.702.014-7.053l-.012-2.122c.05-5.774 1.325-7.347 7.084-7.675" class="n"/><path d="M483 339c3.063 2.25 3.063 2.25 5 4-1.074 2.915-1.778 4.778-4 7-3.469-.237-5.811-.898-8.875-2.562-5.03-2.314-9.084-2.078-14.312-.438-5.683 4.04-8.587 10.212-9.813 17-.33 4.086-.37 8.152-.375 12.25l-.074 3.238c-.028 7.718.736 16.127 5.932 22.263 4.253 3.7 7.873 4.361 13.384 4.577 3.178-.489 4.726-1.145 7.133-3.328.657-3.055.515-6.016.375-9.125l-.043-2.535c.268-3.99.268-3.99-1.332-7.34-2.255-.243-4.51-.383-6.773-.523-2.66-.57-3.597-1.33-5.227-3.477-.312-2.562-.312-2.562 0-5 2.49-2.49 3.285-2.257 6.719-2.266l2.824-.007 2.957.023 2.957-.023 2.824.007 2.596.007C487 373 487 373 489 375c.236 2.522.352 4.931.371 7.457l.027 2.242q.022 2.352.028 4.704c.011 2.39.06 4.779.111 7.17q.015 2.285.022 4.572l.059 2.156c-.035 3.86-.487 5.536-2.93 8.58C480.068 417.1 472.25 418.16 464 418c-8.088-1.2-14.364-4.844-19.723-10.969-9.289-12.598-8.766-29.89-6.773-44.8 2.16-9.616 6.619-18.125 14.496-24.231 9.044-5.724 22.209-4.513 31 1" class="g"/></svg>