<svg id="Vector" xmlns="http://www.w3.org/2000/svg" xmlns:xlink="http://www.w3.org/1999/xlink" viewBox="0 0 144 54">
<defs>
<style>.cls-1{fill:none;}.cls-2,.cls-6{fill-rule:evenodd;}.cls-2{fill:url(#Ny_övertoningsruta_3);}.cls-3{fill:url(#Namnlös_övertoning_4);}.cls-4{fill:url(#Namnlös_övertoning_3);}.cls-5{fill:#faaf5a;}.cls-6{fill:url(#Namnlös_övertoning_9);}.cls-7{fill:#dc8730;}.cls-8{fill:#8d4428;}.cls-9{fill:#9f5024;}.cls-10{fill:#ad5725;}.cls-11{fill:#e48e33;}.cls-12{fill:#db7b29;}.cls-13{fill:#ffb560;}.cls-14{fill:#bc6327;}.cls-15{fill:#ffcb80;}.cls-16{fill:#ffd68e;}.cls-17{fill:#d57c3f;}.cls-18{fill:#ffcd85;}.cls-19{fill:#efa952;}.cls-20{fill:#fdac4a;}.cls-21{fill:#eb962a;}.cls-22{fill:#ffc378;}.cls-23{fill:#ffce89;}.cls-24{fill:#ffd79d;}.cls-25{fill:#eeaf67;}.cls-26{fill:#bf6b29;}.cls-27{fill:#fcb664;}.cls-28{fill:#994822;}.cls-29{fill:#d47429;}.cls-30{fill:#e7944b;}.cls-31{fill:#964c25;}.cls-32{fill:#823d1e;}.cls-33{fill:#6c2b13;}.cls-34{fill:#ba6019;}.cls-35{fill:#d89050;}.cls-36{fill:#7e3717;}.cls-37{fill:#94441e;}.cls-38{fill:#dd8732;}.cls-39{fill:#ffc278;}.cls-40{fill:#ea913e;}.cls-41{fill:#c57231;}.cls-42{fill:#642813;}.cls-43{fill:#56220c;}.cls-44{fill:#f49e4d;}.cls-45{fill:#76310a;}.cls-46{fill:#994b17;}.cls-47{fill:#a35622;}.cls-48{fill:#af6638;}.cls-49{fill:#a5572a;}.cls-50{fill:#e69646;}.cls-51{fill:#d27c3c;}.cls-52{fill:#7a2c13;}.cls-53{fill:#c27138;}.cls-54{fill:#9a4921;}.cls-55{fill:#96441e;}.cls-56{fill:#a04e14;}.cls-57{fill:#aa5a28;}.cls-58{fill:#944428;}.cls-59{fill:#ffc283;}.cls-60{fill:#aa5e33;}.cls-61{fill:#e5872b;}.cls-62{fill:#b96534;}.cls-63{fill:#f29b40;}.cls-64{fill:#b46027;}.cls-65{fill:url(#Ny_övertoningsruta_3-2);}.cls-66{fill:url(#Ny_övertoningsruta_3-3);}.cls-67{fill:url(#Ny_övertoningsruta_3-4);}.cls-68{fill:url(#Ny_övertoningsruta_3-5);}.cls-69{fill:url(#Ny_övertoningsruta_3-6);}.cls-70{fill:url(#Ny_övertoningsruta_3-7);}.cls-71{fill:url(#Ny_övertoningsruta_3-8);}.cls-72{fill:url(#Ny_övertoningsruta_3-9);}.cls-73{fill:url(#Ny_övertoningsruta_3-10);}.cls-74{fill:url(#Ny_övertoningsruta_3-11);}.cls-75{fill:url(#Ny_övertoningsruta_3-12);}.cls-76{fill:url(#Ny_övertoningsruta_3-13);}.cls-77{fill:url(#Ny_övertoningsruta_3-14);}.cls-78{fill:url(#Ny_övertoningsruta_3-15);}.cls-79{fill:url(#Ny_övertoningsruta_3-16);}.cls-80{fill:url(#Ny_övertoningsruta_3-17);}.cls-81{fill:url(#Ny_övertoningsruta_3-18);}.cls-82{fill:url(#Ny_övertoningsruta_3-19);}.cls-83{fill:url(#Ny_övertoningsruta_3-20);}.cls-84{fill:url(#Ny_övertoningsruta_3-21);}.cls-85{fill:url(#Ny_övertoningsruta_3-22);}.cls-86{fill:url(#Ny_övertoningsruta_3-23);}.cls-87{fill:url(#Ny_övertoningsruta_3-24);}.cls-88{fill:url(#Ny_övertoningsruta_3-25);}.cls-89{fill:url(#Ny_övertoningsruta_3-26);}.cls-90{fill:url(#Ny_övertoningsruta_3-27);}.cls-91{fill:url(#Ny_övertoningsruta_3-28);}.cls-92{fill:url(#Ny_övertoningsruta_3-29);}.cls-93{fill:url(#Ny_övertoningsruta_3-30);}.cls-94{fill:url(#Ny_övertoningsruta_3-31);}.cls-95{fill:url(#Ny_övertoningsruta_3-32);}.cls-96{fill:url(#Ny_övertoningsruta_3-33);}.cls-97{fill:url(#Ny_övertoningsruta_3-34);}.cls-98{fill:url(#Ny_övertoningsruta_3-35);}.cls-99{fill:url(#Ny_övertoningsruta_3-36);}.cls-100{fill:url(#Ny_övertoningsruta_3-37);}.cls-101{fill:url(#Ny_övertoningsruta_3-38);}.cls-102{fill:url(#Ny_övertoningsruta_3-39);}.cls-103{fill:#f8a943;}.cls-104{fill:#ec9c4b;}</style>
<radialGradient id="Ny_övertoningsruta_3" cx="126.26" cy="13.25" r="32.92" gradientTransform="translate(-1.44 2.89)" gradientUnits="userSpaceOnUse"><stop offset="0" stop-color="#ffe178"/><stop offset="0.18" stop-color="#ffd05f"/><stop offset="0.4" stop-color="#ffbe46"/><stop offset="0.6" stop-color="#ff9b0f"/><stop offset="0.8" stop-color="#f7780f"/><stop offset="0.9" stop-color="#f3640f"/><stop offset="1" stop-color="#e65f19"/></radialGradient><linearGradient id="Namnlös_övertoning_4" x1="133.01" y1="7.83" x2="107.06" y2="46.07" gradientUnits="userSpaceOnUse"><stop offset="0.02" stop-color="#ffe6a5"/><stop offset="0.11" stop-color="#fcc677"/><stop offset="0.29" stop-color="#f5871e"/><stop offset="0.29" stop-color="#f5871e"/><stop offset="0.56" stop-color="#e1690f"/><stop offset="0.63" stop-color="#cc5c0e"/><stop offset="0.8" stop-color="#9c3d0c"/><stop offset="0.93" stop-color="#7e2a0b"/><stop offset="1" stop-color="#73230a"/></linearGradient><linearGradient id="Namnlös_övertoning_3" x1="108.04" y1="44.77" x2="131.87" y2="9.37" gradientUnits="userSpaceOnUse"><stop offset="0.01" stop-color="#ffe6a0"/><stop offset="0.11" stop-color="#fcc877"/><stop offset="0.33" stop-color="#f5871e"/><stop offset="0.33" stop-color="#f5871e"/><stop offset="0.64" stop-color="#e1690f"/><stop offset="0.65" stop-color="#db650f"/><stop offset="0.76" stop-color="#ae490d"/><stop offset="0.86" stop-color="#8e340b"/><stop offset="0.94" stop-color="#7a280a"/><stop offset="0.99" stop-color="#73230a"/></linearGradient><radialGradient id="Namnlös_övertoning_9" cx="124.77" cy="14.04" r="36.96" gradientUnits="userSpaceOnUse"><stop offset="0" stop-color="#ffc85a"/><stop offset="0.27" stop-color="#f59619"/><stop offset="0.44" stop-color="#e56b16"/><stop offset="0.55" stop-color="#dc5014"/><stop offset="0.79" stop-color="#ba3f18"/><stop offset="0.82" stop-color="#b43c19"/></radialGradient><radialGradient id="Ny_övertoningsruta_3-2" cx="122.52" cy="14.58" r="35.7" gradientTransform="matrix(1, 0, 0, 1, 0, 0)" xlink:href="#Ny_övertoningsruta_3"/><radialGradient id="Ny_övertoningsruta_3-3" cx="122.46" cy="14.55" r="35.81" gradientTransform="matrix(1, 0, 0, 1, 0, 0)" xlink:href="#Ny_övertoningsruta_3"/><radialGradient id="Ny_övertoningsruta_3-4" cx="122.44" cy="14.51" r="35.76" gradientTransform="matrix(1, 0, 0, 1, 0, 0)" xlink:href="#Ny_övertoningsruta_3"/><radialGradient id="Ny_övertoningsruta_3-5" cx="122.56" cy="14.52" r="35.7" gradientTransform="matrix(1, 0, 0, 1, 0, 0)" xlink:href="#Ny_övertoningsruta_3"/><radialGradient id="Ny_övertoningsruta_3-6" cx="121.16" cy="12.91" r="39.56" gradientTransform="matrix(1, 0, 0, 1, 0, 0)" xlink:href="#Ny_övertoningsruta_3"/><radialGradient id="Ny_övertoningsruta_3-7" cx="123.24" cy="14.12" r="36.52" gradientTransform="matrix(1, 0, 0, 1, 0, 0)" xlink:href="#Ny_övertoningsruta_3"/><radialGradient id="Ny_övertoningsruta_3-8" cx="121.87" cy="13.32" r="37.96" gradientTransform="matrix(1, 0, 0, 1, 0, 0)" xlink:href="#Ny_övertoningsruta_3"/><radialGradient id="Ny_övertoningsruta_3-9" cx="122.23" cy="14.63" r="35.9" gradientTransform="matrix(1, 0, 0, 1, 0, 0)" xlink:href="#Ny_övertoningsruta_3"/><radialGradient id="Ny_övertoningsruta_3-10" cx="121.83" cy="14.03" r="37.35" gradientTransform="matrix(1, 0, 0, 1, 0, 0)" xlink:href="#Ny_övertoningsruta_3"/><radialGradient id="Ny_övertoningsruta_3-11" cx="123.03" cy="14.32" r="36.49" gradientTransform="matrix(1, 0, 0, 1, 0, 0)" xlink:href="#Ny_övertoningsruta_3"/><radialGradient id="Ny_övertoningsruta_3-12" cx="121.92" cy="14.58" r="37.53" gradientTransform="matrix(1, 0, 0, 1, 0, 0)" xlink:href="#Ny_övertoningsruta_3"/><radialGradient id="Ny_övertoningsruta_3-13" cx="122.3" cy="14.37" r="36.3" gradientTransform="matrix(1, 0, 0, 1, 0, 0)" xlink:href="#Ny_övertoningsruta_3"/><radialGradient id="Ny_övertoningsruta_3-14" cx="122.39" cy="14.42" r="36.79" gradientTransform="matrix(1, 0, 0, 1, 0, 0)" xlink:href="#Ny_övertoningsruta_3"/><radialGradient id="Ny_övertoningsruta_3-15" cx="122.32" cy="14.66" r="36.38" gradientTransform="matrix(1, 0, 0, 1, 0, 0)" xlink:href="#Ny_övertoningsruta_3"/><radialGradient id="Ny_övertoningsruta_3-16" cx="122.5" cy="14.71" r="37.24" gradientTransform="matrix(1, 0, 0, 1, 0, 0)" xlink:href="#Ny_övertoningsruta_3"/><radialGradient id="Ny_övertoningsruta_3-17" cx="122.32" cy="14.76" r="36.28" gradientTransform="matrix(1, 0, 0, 1, 0, 0)" xlink:href="#Ny_övertoningsruta_3"/><radialGradient id="Ny_övertoningsruta_3-18" cx="122.47" cy="14.66" r="36.41" gradientTransform="matrix(1, 0, 0, 1, 0, 0)" xlink:href="#Ny_övertoningsruta_3"/><radialGradient id="Ny_övertoningsruta_3-19" cx="122.51" cy="14.86" r="37.1" gradientTransform="matrix(1, 0, 0, 1, 0, 0)" xlink:href="#Ny_övertoningsruta_3"/><radialGradient id="Ny_övertoningsruta_3-20" cx="122.6" cy="14.84" r="36.2" gradientTransform="matrix(1, 0, 0, 1, 0, 0)" xlink:href="#Ny_övertoningsruta_3"/><radialGradient id="Ny_övertoningsruta_3-21" cx="122.7" cy="14.47" r="36.77" gradientTransform="matrix(1, 0, 0, 1, 0, 0)" xlink:href="#Ny_övertoningsruta_3"/><radialGradient id="Ny_övertoningsruta_3-22" cx="122.31" cy="14.54" r="36.14" gradientTransform="matrix(1, 0, 0, 1, 0, 0)" xlink:href="#Ny_övertoningsruta_3"/><radialGradient id="Ny_övertoningsruta_3-23" cx="122.69" cy="14.67" r="36.56" gradientTransform="matrix(1, 0, 0, 1, 0, 0)" xlink:href="#Ny_övertoningsruta_3"/><radialGradient id="Ny_övertoningsruta_3-24" cx="122.92" cy="14.19" r="36.92" gradientTransform="matrix(1, 0, 0, 1, 0, 0)" xlink:href="#Ny_övertoningsruta_3"/><radialGradient id="Ny_övertoningsruta_3-25" cx="122.72" cy="14.78" r="36.05" gradientTransform="matrix(1, 0, 0, 1, 0, 0)" xlink:href="#Ny_övertoningsruta_3"/><radialGradient id="Ny_övertoningsruta_3-26" cx="123.19" cy="14.32" r="36.93" gradientTransform="matrix(1, 0, 0, 1, 0, 0)" xlink:href="#Ny_övertoningsruta_3"/><radialGradient id="Ny_övertoningsruta_3-27" cx="122.76" cy="14.37" r="36.23" gradientTransform="matrix(1, 0, 0, 1, 0, 0)" xlink:href="#Ny_övertoningsruta_3"/><radialGradient id="Ny_övertoningsruta_3-28" cx="123.34" cy="14.45" r="37.54" gradientTransform="matrix(1, 0, 0, 1, 0, 0)" xlink:href="#Ny_övertoningsruta_3"/><radialGradient id="Ny_övertoningsruta_3-29" cx="122.71" cy="14.45" r="36.58" gradientTransform="matrix(1, 0, 0, 1, 0, 0)" xlink:href="#Ny_övertoningsruta_3"/><radialGradient id="Ny_övertoningsruta_3-30" cx="123.09" cy="13.69" r="36.97" gradientTransform="matrix(1, 0, 0, 1, 0, 0)" xlink:href="#Ny_övertoningsruta_3"/><radialGradient id="Ny_övertoningsruta_3-31" cx="123.03" cy="14.15" r="36.46" gradientTransform="matrix(1, 0, 0, 1, 0, 0)" xlink:href="#Ny_övertoningsruta_3"/><radialGradient id="Ny_övertoningsruta_3-32" cx="122.99" cy="14.16" r="36.67" gradientTransform="matrix(1, 0, 0, 1, 0, 0)" xlink:href="#Ny_övertoningsruta_3"/><radialGradient id="Ny_övertoningsruta_3-33" cx="122.96" cy="13.86" r="36.86" gradientTransform="matrix(1, 0, 0, 1, 0, 0)" xlink:href="#Ny_övertoningsruta_3"/><radialGradient id="Ny_övertoningsruta_3-34" cx="122.28" cy="13.47" r="37.82" gradientTransform="matrix(1, 0, 0, 1, 0, 0)" xlink:href="#Ny_övertoningsruta_3"/><radialGradient id="Ny_övertoningsruta_3-35" cx="123.04" cy="13.61" r="37.23" gradientTransform="matrix(1, 0, 0, 1, 0, 0)" xlink:href="#Ny_övertoningsruta_3"/><radialGradient id="Ny_övertoningsruta_3-36" cx="122.17" cy="13.44" r="37.63" gradientTransform="matrix(1, 0, 0, 1, 0, 0)" xlink:href="#Ny_övertoningsruta_3"/><radialGradient id="Ny_övertoningsruta_3-37" cx="122.24" cy="13.92" r="36.95" gradientTransform="matrix(1, 0, 0, 1, 0, 0)" xlink:href="#Ny_övertoningsruta_3"/><radialGradient id="Ny_övertoningsruta_3-38" cx="122.1" cy="13.87" r="36.73" gradientTransform="matrix(1, 0, 0, 1, 0, 0)" xlink:href="#Ny_övertoningsruta_3"/><radialGradient id="Ny_övertoningsruta_3-39" cx="121.2" cy="12.62" r="39" gradientTransform="matrix(1, 0, 0, 1, 0, 0)" xlink:href="#Ny_övertoningsruta_3"/>
</defs>
<rect class="cls-1" x="143" y="53" width="1" height="1"/><rect class="cls-1" width="1" height="1"/><path class="cls-2" d="M141.2,27A21.2,21.2,0,1,1,120,5.8,21.2,21.2,0,0,1,141.2,27Z"/><path class="cls-3" d="M120,4a23,23,0,1,0,23,23A23,23,0,0,0,120,4Zm0,45a22,22,0,1,1,22-22A22,22,0,0,1,120,49Z"/><path class="cls-4" d="M120,5a22,22,0,1,0,22,22A22,22,0,0,0,120,5Zm0,43a21,21,0,1,1,21-21A21,21,0,0,1,120,48Z"/><path class="cls-5" d="M120,49.1A22.1,22.1,0,1,1,142.1,27,22.12,22.12,0,0,1,120,49.1Zm0-44A21.9,21.9,0,1,0,141.9,27,21.92,21.92,0,0,0,120,5.1Z"/><path class="cls-6" d="M138.39,32.17c-.15.7-2,.57-2.54.56a.92.92,0,0,0-.84.68,12.69,12.69,0,0,1-1.63.14c-1.66,0-2.1-.64-2.1-.64-.75,0-.81.66-1.53.89-.39.12-.9-.69-.9-.69a10.14,10.14,0,0,1-3.4-.25c-.47-.32-1.42-2-1.78-2a3.36,3.36,0,0,0-.55,0c-.5.06-.76.54-.7,1.33s.26,2.33.38,2.86c.21,1,2.13,1.42,2.94,1.84l.08.41c-.95-.12-3.2-.38-2.75.15.16.19.48.5.71.8v.34a10.14,10.14,0,0,0-3.76-1,7.85,7.85,0,0,0-3.76.94l0-.38c.34-.32.55-.54.78-.77s-.7-.34-2.24-.25l.1-.42c.91-.27,2.33-.43,2.51-1.36s.34-3,.34-3c.14-1.23-.8-2-1.33-1.83a3.73,3.73,0,0,0-1.34.74c-.18.29.14.72.11,1.33,0,.35-1.13.37-2.43.28-.53,0-1.47,1-1.7,1A7.53,7.53,0,0,1,110,34c-.28,0-.59-.57-1.1-.6-.29,0-.7.56-.89.54a5.25,5.25,0,0,1-1.8-.53c-.18-.08.16-1.19.12-1.26a2.05,2.05,0,0,0-1.1.07c-.17.11-.64.54-.74.56a4.88,4.88,0,0,1-2.48.07,4.56,4.56,0,0,1,.24-1.52c.46-.46,1.36-1.22,1.23-1.48s-.94-.73-.78-1a4.2,4.2,0,0,1,.36-.52c.21-.27.7.08,1-.07s.43-.61.54-.65a3.37,3.37,0,0,1,.83-.05c.18,0,.44.74.57.74.32,0,.68,0,.79-.17a3.29,3.29,0,0,0,.3-1.24c0-.42-1.22-.77-1.23-1a3.63,3.63,0,0,1,.59-1.56c.32-.11.9-.33.86-.53-.1-.62-.42-1.85-.26-2A8.93,8.93,0,0,1,108,21c.2-.14.52,0,.82.16a.82.82,0,0,0,1.08-.18c.12-.22.09-1.5.26-1.61s.69-.39.84-.48.87.33,1,.19c.39-.46.62-.77.56-1a6,6,0,0,1-.33-1.61,5.87,5.87,0,0,1,.5-1c.25-.33,1.15-.14,1.51-.46s.26-.83.91-.9a7,7,0,0,0,2.26-1.06,6.13,6.13,0,0,1,2.43.14c.31,0,.88-.53,1.15-.56a5.29,5.29,0,0,1,1.56.28c.23.1.26,1.1.79,1.28a6,6,0,0,0,1.25.33c1.07.14,1.38-.73,1.75-.64a2.44,2.44,0,0,1,1.29.95c.29.37-.2,1.7.49,2,.87.36,1.79,1.33,1.72,1.61s-.55,1.15-.34,1.44.81,0,1.08-.1a1.62,1.62,0,0,1,1.08.3,3.34,3.34,0,0,0,.76.79c.47.22,1.16.53,1.23.73.23.67-.32,1.59-.22,1.9,0,0,.87.32,1,.56a17,17,0,0,1,0,1.79,2.47,2.47,0,0,1,1.36,0c.36.13.51.58.67,1.12,0,.14.5.21.55.33.27.65.25,1.08,0,1.19-.6.25-2,.73-1.79,1.29s.43.54.68.57a5.84,5.84,0,0,1,1.75.31A1.7,1.7,0,0,1,138.39,32.17Z"/><path class="cls-7" d="M134.85,23.67l-.53.37a.24.24,0,0,1,.09.11l.51-.32A.77.77,0,0,0,134.85,23.67Z"/><path class="cls-8" d="M134.91,23.8l-.51.33h0s0,.13,0,.23l.5-.33v-.1A.59.59,0,0,0,134.91,23.8Z"/><path class="cls-9" d="M134.93,24l-.5.33c0,.11,0,.28,0,.43l.51-.38Z"/><path class="cls-10" d="M134.93,24.38l-.51.37c0,.53,0,1.21,0,1.21l0,0,.59-.75H135S134.94,25,134.93,24.38Z"/><path class="cls-11" d="M132.3,20l-.46.42.27.31.48-.4A2.44,2.44,0,0,1,132.3,20Z"/><path class="cls-12" d="M132.56,20.26l-.47.4a2.19,2.19,0,0,0,.22.2l.48-.44A1.27,1.27,0,0,1,132.56,20.26Z"/><path class="cls-7" d="M135,25.2l-.6.75a3.26,3.26,0,0,1,.42-.1l.59-.67A1.85,1.85,0,0,0,135,25.2Z"/><path class="cls-13" d="M134.79,25.85l.19,0,.56-.63-.16,0Z"/><path class="cls-13" d="M131.68,20.16l.18.23.46-.42c-.06-.08-.16-.2-.27-.32a1,1,0,0,0-.5-.29l-.58.52A1.42,1.42,0,0,1,131.68,20.16Z"/><path class="cls-14" d="M120.75,12.84l0-.58a4.16,4.16,0,0,0-.51.28l0,.6Z"/><path class="cls-15" d="M135.52,25.2l-.57.63h.16l.54-.6Z"/><path class="cls-16" d="M135.63,25.21l-.55.61a1.65,1.65,0,0,1,.69.09l.36-.52A2,2,0,0,0,135.63,25.21Z"/><path class="cls-13" d="M132.45,21l.16.08.5-.46-.19-.09-.16-.08-.48.44A1.2,1.2,0,0,0,132.45,21Z"/><path class="cls-17" d="M121,12.73h.24l0-.55h-.22a1.07,1.07,0,0,0-.4.1l0,.58A1,1,0,0,1,121,12.73Z"/><path class="cls-18" d="M122.38,12.93l.36-.44a8.59,8.59,0,0,0-1.46-.31l0,.55A6.33,6.33,0,0,1,122.38,12.93Z"/><path class="cls-19" d="M122.56,13c.06,0,.11.13.17.28l.38-.49a.54.54,0,0,0-.26-.26l-.14,0-.35.45Z"/><path class="cls-7" d="M122.87,13.68l.41-.55a2.22,2.22,0,0,0-.18-.38l-.38.49C122.76,13.36,122.81,13.53,122.87,13.68Z"/><path class="cls-11" d="M123.23,14.22l.36-.49c-.13-.08-.21-.36-.32-.62l-.41.54A1.14,1.14,0,0,0,123.23,14.22Z"/><path class="cls-18" d="M123.36,14.29a5.64,5.64,0,0,0,1.48.35l.07-.57a2.71,2.71,0,0,1-1.34-.36l-.36.5A.53.53,0,0,0,123.36,14.29Z"/><path class="cls-12" d="M126,14.16l.08-.73a2.61,2.61,0,0,0-.57.36l-.12.76A2.46,2.46,0,0,0,126,14.16Z"/><path class="cls-20" d="M125.37,14.54l.13-.77a1.16,1.16,0,0,1-.61.3l-.08.57A1.4,1.4,0,0,0,125.37,14.54Z"/><path class="cls-21" d="M126.37,14l.11,0,.12-.56a.88.88,0,0,0-.3-.07.67.67,0,0,0-.28.06l-.08.74C126.1,14.05,126.23,13.94,126.37,14Z"/><path class="cls-22" d="M126.85,14.18l.12-.56a3.34,3.34,0,0,0-.4-.18l-.11.56A2.32,2.32,0,0,1,126.85,14.18Z"/><path class="cls-23" d="M127.19,14.43l.21-.53a4.82,4.82,0,0,0-.45-.29l-.12.56A2.47,2.47,0,0,1,127.19,14.43Z"/><path class="cls-24" d="M127.6,14.87l.46-.35a3.21,3.21,0,0,0-.68-.64l-.22.53A2.78,2.78,0,0,1,127.6,14.87Z"/><path class="cls-25" d="M127.7,15l.48-.32a.41.41,0,0,0-.06-.11l-.08-.1-.46.34.07.08A.61.61,0,0,1,127.7,15Z"/><path class="cls-7" d="M127.74,15.88l.57-.41a2,2,0,0,0-.15-.8l-.47.33A3,3,0,0,1,127.74,15.88Z"/><path class="cls-10" d="M127.85,16.64l.5-.39a6.07,6.07,0,0,1,0-.8l-.57.41A1.59,1.59,0,0,0,127.85,16.64Z"/><path class="cls-26" d="M128,16.8l.5-.37a.24.24,0,0,1-.11-.2l-.52.39A.68.68,0,0,0,128,16.8Z"/><path class="cls-27" d="M128.44,16.41l-.5.37a.57.57,0,0,0,.18.12l.11.05.48-.36Z"/><path class="cls-22" d="M128.64,17.18l.44-.32-.39-.28-.48.36A3.62,3.62,0,0,1,128.64,17.18Z"/><path class="cls-16" d="M129.64,18.07l.43-.3a6.59,6.59,0,0,0-1-.93l-.44.33A4.34,4.34,0,0,1,129.64,18.07Z"/><path class="cls-20" d="M129.78,18.28l.43-.32a1.46,1.46,0,0,0-.16-.21l-.42.3A1.82,1.82,0,0,1,129.78,18.28Z"/><path class="cls-7" d="M129.84,18.51l.5-.35a2,2,0,0,0-.14-.22l-.43.31A.41.41,0,0,1,129.84,18.51Z"/><path class="cls-10" d="M129.84,18.51a4,4,0,0,1-.14.41l.72-.49a.69.69,0,0,0-.09-.29l-.48.35Z"/><path class="cls-28" d="M129.54,20l.74-.69c-.14,0,0-.37.13-.75a.53.53,0,0,0,0-.13l-.71.47c-.21.54-.32.89-.19,1.08C129.53,20,129.53,20,129.54,20Z"/><path class="cls-27" d="M129.73,20l.82-.75-.21,0a.13.13,0,0,1-.09,0l-.73.68S129.62,20,129.73,20Z"/><path class="cls-16" d="M130.6,19.87a1.21,1.21,0,0,1,.41,0l.56-.52a2.86,2.86,0,0,0-1-.1l-.82.75A5.63,5.63,0,0,0,130.6,19.87Z"/><path class="cls-24" d="M133.19,21.32l.56-.41a5.48,5.48,0,0,0-.67-.36l-.5.46Z"/><path class="cls-13" d="M133.5,21.51l.55-.34a1.81,1.81,0,0,0-.33-.28l-.55.42Z"/><path class="cls-7" d="M133.67,21.71l.54-.28a1,1,0,0,0-.18-.28l-.56.34c.08.06.17.13.19.2Z"/><path class="cls-8" d="M133.65,22.56l.6-.37a2.13,2.13,0,0,0-.05-.78l-.54.28A1.61,1.61,0,0,1,133.65,22.56Z"/><path class="cls-10" d="M133.43,23.59h0l.61-.38v0a6.87,6.87,0,0,0,.17-1l-.59.37A4,4,0,0,0,133.43,23.59Z"/><path class="cls-13" d="M133.71,23.71l.57-.41c-.14-.05-.21-.08-.2-.12l-.65.41Z"/><path class="cls-16" d="M134.34,24.06l.53-.35a1.11,1.11,0,0,0-.61-.42l-.57.41A2,2,0,0,1,134.34,24.06Z"/><path class="cls-13" d="M136.1,25.38l-.35.52a.56.56,0,0,1,.28.21l.37-.48A.91.91,0,0,0,136.1,25.38Z"/><path class="cls-7" d="M136.63,26a1.87,1.87,0,0,0-.25-.41l-.37.47a1.13,1.13,0,0,1,.22.39Z"/><path class="cls-29" d="M136.4,27s.09.1.21.14l.42-.48-.09-.06c-.13-.09-.2-.34-.32-.61l-.4.45A3.36,3.36,0,0,1,136.4,27Z"/><path class="cls-13" d="M137,26.66l-.43.48c.15.07.35.12.38.2l0,0,.37-.47Z"/><path class="cls-30" d="M137.33,26.87l-.37.47a.75.75,0,0,1,.06.13l.43-.47A.74.74,0,0,0,137.33,26.87Z"/><path class="cls-10" d="M137.07,28.41l.53.16a2.07,2.07,0,0,0-.13-1.53l0-.06-.42.46C137.18,27.89,137.2,28.23,137.07,28.41Z"/><path class="cls-31" d="M136.94,28.51c-.26.11-.7.27-1.07.46l.67.3.79-.37a.64.64,0,0,0,.28-.35l-.53-.17A.29.29,0,0,1,136.94,28.51Z"/><path class="cls-32" d="M136.57,29.25l-.68-.29a3.28,3.28,0,0,0-.37.22l.69.24Z"/><path class="cls-33" d="M135.54,29.16a1.16,1.16,0,0,0-.37.36l.73.07a.37.37,0,0,1,.14-.09l.2-.1Z"/><path class="cls-32" d="M135.92,29.57l-.74-.08a.39.39,0,0,0,0,.35l.68-.09C135.8,29.69,135.86,29.62,135.92,29.57Z"/><path class="cls-34" d="M135.81,29.73l-.68.08a1.22,1.22,0,0,0,.14.28l.68-.27C135.84,29.81,135.81,29.77,135.81,29.73Z"/><path class="cls-10" d="M135.49,30.3l.71-.47-.28,0-.66.26A.56.56,0,0,0,135.49,30.3Z"/><path class="cls-29" d="M135.84,30.4H136l.75-.54-.54,0-.71.46A.75.75,0,0,0,135.84,30.4Z"/><path class="cls-30" d="M136.87,30.51l.68-.48a5.49,5.49,0,0,0-.85-.16l-.75.54C136.24,30.44,136.58,30.46,136.87,30.51Z"/><path class="cls-23" d="M137.58,30.7a.85.85,0,0,1,.21.14l.5-.36a1.54,1.54,0,0,0-.53-.38l-.23-.07-.68.47A2.8,2.8,0,0,1,137.58,30.7Z"/><path class="cls-35" d="M138.05,31.12l.48-.32a2,2,0,0,0-.26-.34l-.51.35A1.74,1.74,0,0,1,138.05,31.12Z"/><path class="cls-14" d="M138.37,32.16a.41.41,0,0,1-.09.19l.54.32a1,1,0,0,0,.12-.38,2.59,2.59,0,0,0-.43-1.51l-.48.32A1.54,1.54,0,0,1,138.37,32.16Z"/><path class="cls-8" d="M138.83,32.64l-.53-.31c-.25.32-1,.4-1.61.4l.2.61C137.65,33.31,138.53,33.16,138.83,32.64Z"/><path class="cls-33" d="M135.84,32.71a.82.82,0,0,0-.26,0l.17.59h0c.08,0,.57,0,1.13,0l-.2-.61C136.35,32.74,136,32.72,135.84,32.71Z"/><path class="cls-8" d="M135.07,33.2l.27.74c.2-.17.22-.57.44-.6l-.17-.6A.93.93,0,0,0,135.07,33.2Z"/><path class="cls-36" d="M135.36,33.91l-.27-.73a1.1,1.1,0,0,0-.11.25l.21.58.12,0Z"/><path class="cls-33" d="M133.38,33.54c-1.66,0-2.09-.66-2.09-.66h0l-.19.7a.3.3,0,0,1,.13.06,4.44,4.44,0,0,0,2.15.52,8.27,8.27,0,0,0,1.85-.17l-.22-.6A14.4,14.4,0,0,1,133.38,33.54Z"/><path class="cls-31" d="M130.43,33.32l-.21.93a2.66,2.66,0,0,0,.63-.51c.14-.13.19-.17.25-.15l.19-.71A1.09,1.09,0,0,0,130.43,33.32Z"/><path class="cls-36" d="M129.73,33.78l-.14.65a1.36,1.36,0,0,0,.66-.19l.21-1A1.54,1.54,0,0,1,129.73,33.78Z"/><path class="cls-33" d="M128.85,33.08h0l-.32.62h0a1.34,1.34,0,0,0,1.07.72l.14-.66C129.36,33.9,128.85,33.08,128.85,33.08Z"/><path class="cls-36" d="M125.44,32.83l-.36.51a4.79,4.79,0,0,0,2,.37l.26-.6A5,5,0,0,1,125.44,32.83Z"/><path class="cls-33" d="M123.67,30.81h-.41l.11.6a.27.27,0,0,1,.2.08c.38.29,1.27,1.74,1.54,1.87l.35-.51C125,32.52,124,30.82,123.67,30.81Z"/><path class="cls-36" d="M123.29,30.81a1,1,0,0,0-.45.1l.31.57a.43.43,0,0,1,.25-.07Z"/><path class="cls-33" d="M122.54,31.24l.49.54a.39.39,0,0,1,.14-.32l-.31-.56A.67.67,0,0,0,122.54,31.24Z"/><path class="cls-31" d="M127.32,33.11l-.27.6c.58,0,1.16,0,1.49,0l.31-.63A12.3,12.3,0,0,1,127.32,33.11Z"/><path class="cls-37" d="M122.39,32.06l.67.43a3.26,3.26,0,0,1,0-.75l-.48-.53A1.72,1.72,0,0,0,122.39,32.06Z"/><path class="cls-10" d="M122.81,35.15l.57-.18c0-.2-.25-1.71-.33-2.5l-.66-.44A30,30,0,0,0,122.81,35.15Z"/><path class="cls-38" d="M123.38,35l-.58.18a1.43,1.43,0,0,0,.23.38l.52-.33A.4.4,0,0,1,123.38,35Z"/><path class="cls-13" d="M123.53,35.16l-.52.32a2.56,2.56,0,0,0,.73.56l.39-.51A3.34,3.34,0,0,1,123.53,35.16Z"/><path class="cls-39" d="M124.66,36.44l.31-.52c-.28-.12-.61-.27-.87-.4l-.39.5A9.1,9.1,0,0,0,124.66,36.44Z"/><path class="cls-40" d="M125.42,36.74l.3-.51-.78-.33-.31.53Z"/><path class="cls-41" d="M125.76,36.9l.37-.43a1.25,1.25,0,0,0-.44-.26l-.3.52Z"/><path class="cls-37" d="M125.81,37.31l.56.52c.12-.08,0-.67-.1-1a1,1,0,0,0-.16-.35l-.38.45Z"/><path class="cls-36" d="M125,37.17l.54.59.67.1c.14,0,.18,0,.21,0l-.59-.54Z"/><path class="cls-36" d="M123.76,38.58l.47.61c.14-.07.11-.48.1-.77l-.57-.18Z"/><path class="cls-42" d="M124.09,37.68a9.68,9.68,0,0,1,1.45.08l-.54-.59c-.87-.08-2-.14-2,.12l1.06.45C124,37.69,124.06,37.68,124.09,37.68Z"/><path class="cls-31" d="M124,37.7,123,37.27a.2.2,0,0,0,.05.16,10.57,10.57,0,0,1,.75.85l.54.17a2,2,0,0,0,0-.32C124.21,37.93,124,37.76,124,37.7Z"/><path class="cls-33" d="M123.52,38.44l0,.66c.41.15.62.15.71.07l-.5-.63Z"/><path class="cls-36" d="M120.45,37.62l-.13.62a8.72,8.72,0,0,1,3,.75l.29.12,0-.66A9.83,9.83,0,0,0,120.45,37.62Z"/><path class="cls-33" d="M116.48,38.43l-.29.77a8.06,8.06,0,0,1,4.16-1l.13-.62A7.62,7.62,0,0,0,116.48,38.43Z"/><path class="cls-43" d="M116.23,38.55l-.41.7c.07,0,.21,0,.41-.07l.29-.77Z"/><path class="cls-33" d="M115.77,39.19a.11.11,0,0,0,.08.07l.42-.73,0-.38-.58,0A2.4,2.4,0,0,0,115.77,39.19Z"/><path class="cls-37" d="M116.06,37.64c.15,0-.36.29-.41.52l.59,0c.34-.32.56-.54.78-.77,0,0,.08-.1,0-.14Z"/><path class="cls-43" d="M116.46,37.11l-.66.51c.22,0,.27,0,.28,0l1-.36C117.08,37.19,116.86,37.13,116.46,37.11Z"/><path class="cls-33" d="M114.74,37.14l-.59.41c.11.22,1,0,1.68.07l.66-.51A15.47,15.47,0,0,0,114.74,37.14Z"/><path class="cls-37" d="M114.89,36.72l-.33-.44a2.21,2.21,0,0,0-.42,1.2.17.17,0,0,0,0,.1l.61-.45Z"/><path class="cls-14" d="M116,36.47l-.45-.49-.89.25-.1.07.34.46C115.2,36.66,115.66,36.56,116,36.47Z"/><path class="cls-44" d="M116.64,36.22l-.48-.47a5.66,5.66,0,0,1-.66.24l.44.49A4.82,4.82,0,0,0,116.64,36.22Z"/><path class="cls-38" d="M117.19,35.81l-.47-.46a1.54,1.54,0,0,1-.58.41l.48.47A1.51,1.51,0,0,0,117.19,35.81Z"/><path class="cls-45" d="M117.39,35.39c.15-.81.36-3.11.35-3.24l-.63.18c-.07.81-.18,2.31-.31,2.85a.39.39,0,0,1-.1.19l.47.46A1,1,0,0,0,117.39,35.39Z"/><path class="cls-31" d="M117.39,31l-.47.36a1.57,1.57,0,0,1,.19,1l.63-.18A1.94,1.94,0,0,0,117.39,31Z"/><path class="cls-33" d="M116.38,30.53a3.75,3.75,0,0,0-1.37.76l.64.44c-.07-.29.75-.62.91-.62a.55.55,0,0,1,.37.3l.47-.36A1,1,0,0,0,116.38,30.53Z"/><path class="cls-31" d="M115,31.28c-.12.2,0,.46.06.78l.68.51a4.65,4.65,0,0,0-.11-.87l-.63-.43Z"/><path class="cls-36" d="M115.13,32.61a.12.12,0,0,1,0,.09l.4.45a.74.74,0,0,0,.27-.6l-.69-.52A2.07,2.07,0,0,1,115.13,32.61Z"/><path class="cls-37" d="M114.67,32.87l.25.52a1.12,1.12,0,0,0,.59-.25l-.41-.45C115.05,32.77,114.9,32.83,114.67,32.87Z"/><path class="cls-33" d="M112.7,32.88l.13.58c.45,0,1.57,0,2.11-.08l-.24-.51A11.07,11.07,0,0,1,112.7,32.88Z"/><path class="cls-46" d="M111.71,33.4l.19.65a3.14,3.14,0,0,1,.79-.58h.16l-.13-.58A1.88,1.88,0,0,0,111.71,33.4Z"/><path class="cls-36" d="M111.74,33.38c-.36.28-.62.54-.75.55l.16.58a2,2,0,0,0,.77-.49Z"/><path class="cls-33" d="M110,34c-.25,0-.56-.47-1-.58l0,.59a.33.33,0,0,1,.17.1,1.19,1.19,0,0,0,.78.47,9.81,9.81,0,0,0,1.28-.06l-.17-.58A9.17,9.17,0,0,1,110,34Z"/><path class="cls-47" d="M108.85,33.38c-.2,0-.46.26-.66.42l.12.65a3.43,3.43,0,0,0,.49-.41.18.18,0,0,1,.18,0l0-.6Z"/><path class="cls-36" d="M108.22,33.79a.62.62,0,0,1-.27.15h0l0,.6a.67.67,0,0,0,.37-.11Z"/><path class="cls-33" d="M106.18,33.41a.11.11,0,0,1,0,0l-.5.32a1,1,0,0,0,.35.3,6.3,6.3,0,0,0,2,.56l0-.6A5.32,5.32,0,0,1,106.18,33.41Z"/><path class="cls-48" d="M106.24,32.54l-.67.51c0,.08,0,.19,0,.3a.5.5,0,0,0,.12.35l.49-.32A1.87,1.87,0,0,1,106.24,32.54Z"/><path class="cls-36" d="M106.3,32.15h0l-.76.62h0s0,.09,0,.32l.66-.51A1.45,1.45,0,0,0,106.3,32.15Z"/><path class="cls-33" d="M105.31,32.16l.06.73a.48.48,0,0,1,.11-.09.13.13,0,0,1,.07,0l.75-.61A2.28,2.28,0,0,0,105.31,32.16Z"/><path class="cls-49" d="M105.17,32.22c-.12.07-.4.31-.58.45l.27.58a5.77,5.77,0,0,0,.53-.38l0-.72A.54.54,0,0,0,105.17,32.22Z"/><path class="cls-33" d="M104.43,32.77a4.59,4.59,0,0,1-2.47.07l-.54.29,0,0c.24.31,1.31.51,3.08.21a1.28,1.28,0,0,0,.36-.13l-.27-.59A.66.66,0,0,1,104.43,32.77Z"/><path class="cls-49" d="M102.14,31.55l-.54-.22a4.81,4.81,0,0,0-.16,1.83l.54-.31A7.31,7.31,0,0,1,102.14,31.55Z"/><path class="cls-50" d="M102.22,31.36l.22-.22-.54-.35a1.3,1.3,0,0,0-.18.23,1.27,1.27,0,0,0-.13.34l.54.22A.59.59,0,0,1,102.22,31.36Z"/><path class="cls-51" d="M103.45,29.88l-.85.1,0,0c.07.12-.43.47-.74.8l.53.36C102.86,30.74,103.52,30.12,103.45,29.88Z"/><path class="cls-52" d="M103.44,29.86a5.79,5.79,0,0,0-.48-.46l-.73.06a5.83,5.83,0,0,0,.39.54l.83-.09A.07.07,0,0,0,103.44,29.86Z"/><path class="cls-9" d="M102.65,28.92l-.64,0a1.22,1.22,0,0,0,.24.58l.74-.05C102.81,29.26,102.62,29.06,102.65,28.92Z"/><path class="cls-7" d="M102.79,28.68l-.61-.18-.15.27a.24.24,0,0,0,0,.15l.64,0C102.64,28.89,102.66,28.87,102.79,28.68Z"/><path class="cls-26" d="M103,28.34a.24.24,0,0,1,.11-.08l-.22-.56a2.13,2.13,0,0,0-.76.83l.61.18A4.28,4.28,0,0,1,103,28.34Z"/><path class="cls-10" d="M103.54,28.28l-.09-.65a.86.86,0,0,0-.56.08l.22.56A.79.79,0,0,1,103.54,28.28Z"/><path class="cls-7" d="M103.42,27.63l.1.65a1,1,0,0,0,.38,0l-.12-.71A1.89,1.89,0,0,1,103.42,27.63Z"/><path class="cls-26" d="M103.84,27.58l-.08,0,.12.7a.27.27,0,0,0,.13-.05Z"/><path class="cls-50" d="M104.32,27.92l-.21-.69c-.13.15-.24.34-.29.37l.17.69A1.1,1.1,0,0,0,104.32,27.92Z"/><path class="cls-7" d="M104.1,27.25l.2.7a2.62,2.62,0,0,1,.17-.27l-.17-.62A.92.92,0,0,0,104.1,27.25Z"/><path class="cls-26" d="M104.52,27.64l.08,0-.07-.63-.15,0-.1,0,.17.62S104.5,27.64,104.52,27.64Z"/><path class="cls-10" d="M105.19,27.58l0-.61a3.33,3.33,0,0,0-.73,0l.08.62A3.44,3.44,0,0,1,105.19,27.58Z"/><path class="cls-26" d="M105.2,27l0,.61h.18l.15-.61Z"/><path class="cls-20" d="M105.5,27h0l-.15.61h0l.08,0,.27-.61Z"/><path class="cls-50" d="M105.61,27.9l.29-.69a.48.48,0,0,0-.23-.2l-.27.6A1,1,0,0,1,105.61,27.9Z"/><path class="cls-26" d="M105.81,28.24l.29-.73c-.07-.1-.15-.25-.22-.33l-.29.68C105.66,28,105.74,28.14,105.81,28.24Z"/><path class="cls-50" d="M105.92,28.33h.13l.19-.64a1.93,1.93,0,0,1-.17-.21l-.28.72C105.84,28.28,105.88,28.33,105.92,28.33Z"/><path class="cls-49" d="M106.63,28.25l-.27-.57,0,0s-.06,0-.11,0l-.2.67A1.31,1.31,0,0,0,106.63,28.25Z"/><path class="cls-50" d="M106.73,28.15a.67.67,0,0,0,.06-.15l-.39-.47c0,.09,0,.15-.06.16h0l.27.56A.24.24,0,0,0,106.73,28.15Z"/><path class="cls-7" d="M106.9,27.7l-.47-.4a1.78,1.78,0,0,1,0,.26l.4.46A2.39,2.39,0,0,0,106.9,27.7Z"/><path class="cls-53" d="M107,26.9a.25.25,0,0,0,0-.08l-.62.19a.64.64,0,0,1,0,.32l.47.39A2.9,2.9,0,0,0,107,26.9Z"/><path class="cls-52" d="M106.62,26.45l-.65.25c.2.13.41.26.43.33l.62-.18A.8.8,0,0,0,106.62,26.45Z"/><path class="cls-54" d="M106.16,26.18l-.61.22a4.6,4.6,0,0,0,.45.32l.65-.25A4.85,4.85,0,0,0,106.16,26.18Z"/><path class="cls-10" d="M105.8,25.87l-.54.14a.83.83,0,0,0,.31.41l.62-.22C105.91,26,105.79,26,105.8,25.87Z"/><path class="cls-55" d="M105.28,25.75s0,.11,0,.14a.34.34,0,0,0,0,.14l.54-.14a1.06,1.06,0,0,1,0-.2Z"/><path class="cls-10" d="M105.86,25.56l-.53,0c0,.08,0,.18-.06.24l.55-.06S105.84,25.62,105.86,25.56Z"/><path class="cls-50" d="M106.26,24.49l-.48-.27a6.26,6.26,0,0,0-.46,1.34l.53,0A4.84,4.84,0,0,1,106.26,24.49Z"/><path class="cls-44" d="M105.77,24.24l.48.28a.45.45,0,0,1,.11-.15l-.49-.29Z"/><path class="cls-7" d="M106.52,24.31,106,24a.54.54,0,0,0-.14.16l.49.28s0,0,0,0Z"/><path class="cls-56" d="M107,24.08l-.55-.36-.45.2L106,24l.52.35A4.25,4.25,0,0,0,107,24.08Z"/><path class="cls-44" d="M106.64,23.57v0a.38.38,0,0,1-.18.13l.54.36c.14-.09.26-.19.25-.29Z"/><path class="cls-50" d="M107.25,23.81c0-.21-.1-.52-.16-.81l-.56-.14a4.45,4.45,0,0,1,.11.73l.61.24Z"/><path class="cls-7" d="M107,22.09l-.51-.14a6.13,6.13,0,0,0,.1.94l.56.14A6.9,6.9,0,0,1,107,22.09Z"/><path class="cls-57" d="M107,21.81l.15-.12-.51-.36a.81.81,0,0,0-.19.64l.51.14A.46.46,0,0,1,107,21.81Z"/><path class="cls-58" d="M107.91,21.14l-.2-.63a13.81,13.81,0,0,0-1.1.84l.5.36C107.35,21.51,107.67,21.3,107.91,21.14Z"/><path class="cls-49" d="M108,21.05a.36.36,0,0,1,.19-.05l0-.66a.63.63,0,0,0-.34.07l-.17.12.19.63Z"/><path class="cls-59" d="M108.62,21.11v-.68a1.44,1.44,0,0,0-.44-.09l0,.66A1,1,0,0,1,108.62,21.11Z"/><path class="cls-13" d="M108.6,20.43v.67a1.22,1.22,0,0,0,1.07.16l-.22-.57C109.34,20.77,109,20.55,108.6,20.43Z"/><path class="cls-53" d="M110,21l-.48-.42c0,.06,0,.08,0,.1l.21.57A.57.57,0,0,0,110,21Z"/><path class="cls-58" d="M109.52,19.94c0,.19,0,.43,0,.68L110,21a2.15,2.15,0,0,0,.1-.61Z"/><path class="cls-10" d="M110.07,20.16l-.52-.51c0,.09,0,.21,0,.31l.53.49A2.83,2.83,0,0,1,110.07,20.16Z"/><path class="cls-7" d="M110.15,19.55l-.42-.45a1.13,1.13,0,0,0-.18.58l.52.5A3.14,3.14,0,0,1,110.15,19.55Z"/><path class="cls-60" d="M110.21,19.43l.17-.11-.39-.43-.2.14-.08.09.43.45A.26.26,0,0,1,110.21,19.43Z"/><path class="cls-58" d="M110.9,19l-.17-.59a5.89,5.89,0,0,0-.77.48l.4.42Z"/><path class="cls-10" d="M111,19a.23.23,0,0,1,.15,0l-.18-.62a1.38,1.38,0,0,0-.29.12l.17.6Z"/><path class="cls-59" d="M111.32,19l-.18-.66a.5.5,0,0,0-.17,0l.19.62Z"/><path class="cls-13" d="M111.71,19.11l-.17-.68a2.83,2.83,0,0,0-.42-.13l.17.66Z"/><path class="cls-61" d="M112,19.13v0l-.22-.59h0a2.51,2.51,0,0,1-.29-.1l.18.68C111.85,19.15,112,19.19,112,19.13Z"/><path class="cls-10" d="M112.23,18.9l-.29-.51c-.06.08-.11.13-.14.13l.24.61Z"/><path class="cls-58" d="M112.61,18.27l-.57-.12v0a.63.63,0,0,1-.12.23l.29.51A1.78,1.78,0,0,0,112.61,18.27Z"/><path class="cls-62" d="M112.61,18.12a1.05,1.05,0,0,1,0-.19l-.61-.12c0,.19.09.34.09.37l.56.11A.33.33,0,0,0,112.61,18.12Z"/><path class="cls-10" d="M112.38,17.27l-.58-.12c0,.23.11.5.16.69l.6.12C112.51,17.77,112.44,17.51,112.38,17.27Z"/><path class="cls-63" d="M112.29,16.49l-.54-.13a.8.8,0,0,0,0,.15,2.3,2.3,0,0,0,.08.66l.58.12C112.27,16.83,112.23,16.59,112.29,16.49Z"/><path class="cls-7" d="M112.65,15.75l-.35-.48a4.46,4.46,0,0,0-.56,1.11l.54.13C112.4,16.26,112.5,16,112.65,15.75Z"/><path class="cls-14" d="M112.78,15.56a.49.49,0,0,1,.13-.1l-.27-.56a1,1,0,0,0-.21.19l-.15.22.35.47Z"/><path class="cls-58" d="M113.27,15.36l-.26-.6a1,1,0,0,0-.39.16l.26.55A1.21,1.21,0,0,1,113.27,15.36Z"/><path class="cls-64" d="M113,14.77l.26.59c.36-.06.83-.06,1.06-.27l-.24-.69C113.89,14.71,113.4,14.67,113,14.77Z"/><path class="cls-10" d="M114.63,14.63l-.26-.71a1.15,1.15,0,0,0-.28.43.25.25,0,0,1,0,.07l.24.68h0A1.34,1.34,0,0,0,114.63,14.63Z"/><path class="cls-7" d="M115.21,14.2l-.13-.58a1.16,1.16,0,0,0-.73.33l.26.72C114.72,14.43,114.76,14.24,115.21,14.2Z"/><path class="cls-20" d="M116,14l-.14-.57a2.17,2.17,0,0,1-.68.19h-.07l.12.58A2.86,2.86,0,0,0,116,14Z"/><path class="cls-14" d="M116.73,13.58l-.16-.57a4.45,4.45,0,0,1-.78.42l.13.57A5.6,5.6,0,0,0,116.73,13.58Z"/><path class="cls-26" d="M117.41,13.17l-.12-.61a1.05,1.05,0,0,0-.26.13c-.13.1-.29.22-.48.34l.16.57C117,13.42,117.26,13.25,117.41,13.17Z"/><path class="cls-20" d="M117.45,13.14a2.43,2.43,0,0,1,1-.07l0-.55a2.79,2.79,0,0,0-1.2.05l.13.61Z"/><path class="cls-22" d="M119.42,13.19l0-.51c-.27,0-.62-.12-1-.16l0,.55C118.8,13.09,119.16,13.15,119.42,13.19Z"/><path class="cls-20" d="M119.87,13.28h0v-.56a1.53,1.53,0,0,1-.53,0l0,.51Z"/><path class="cls-17" d="M120.26,13.13l-.05-.6a1.12,1.12,0,0,1-.35.19v.56A.84.84,0,0,0,120.26,13.13Z"/><path class="cls-65" d="M118.91,24.73c-.07.17-.26.85-.56,1.06s-1.14,0-1.34.08a.34.34,0,0,0,0,.57,23.64,23.64,0,0,1,2.5,1.34c.08,0,.2,0,.24-.18s.45-2.68.41-2.77C120.07,24.49,119,24.57,118.91,24.73Z"/><path class="cls-66" d="M121.82,25.21c0,.07-.37,2.77-.31,2.8a30.37,30.37,0,0,1,2.4-1.9c.08-.05,0-.22,0-.24a3.34,3.34,0,0,0-.68-.85C123.12,25,121.83,25.19,121.82,25.21Z"/><path class="cls-67" d="M122.43,29.4c0,.15,1,.34,1.81.05.21-.07.51-.89.9-1s1.34.27,1.64,0,.19-.85-.16-.87a6.46,6.46,0,0,1-1.75-.31C124.78,27.22,122.54,28.49,122.43,29.4Z"/><path class="cls-68" d="M115.73,27.65c-.08.05-.29.6-.51.76a.61.61,0,0,1-.4.09,1.72,1.72,0,0,1-.72-.17,1,1,0,0,0-.43-.14c-.25,0-.51.29-.61.58-.23.69,1.1,1,1.28,1.08a2.42,2.42,0,0,0,1.32-.43,2.32,2.32,0,0,1,1-.29c.28,0,.64.18,1.11.23a.31.31,0,0,0,.21-.15.47.47,0,0,0,0-.4,9.82,9.82,0,0,0-1.64-1C116.18,27.7,115.83,27.59,115.73,27.65Z"/><path class="cls-69" d="M132.32,29.16a1.07,1.07,0,0,0,.1.49c0,.06.52,0,.54,0s0-.4-.36-.66C132.54,28.89,132.31,29.06,132.32,29.16Z"/><path class="cls-70" d="M104.33,30.38a1,1,0,0,0,0,.7c.2.17.83-.29.94-.44a.4.4,0,0,0,.12-.31c0-.21-.12-.25-.2-.25A4,4,0,0,0,104.33,30.38Z"/><path class="cls-71" d="M133.61,27.25a.33.33,0,0,0-.32.37c0,.23.15.41.65.38s.6.29.86.29c.56,0,.45-.54.46-.79S134.27,27.22,133.61,27.25Z"/><path class="cls-72" d="M130.21,21.7a.37.37,0,0,0-.28.46c.07.09.37,0,.76.22a4.26,4.26,0,0,1,.66,1,.78.78,0,0,0,.72.25c.17-.1-.17-1.15-.28-1.2a10.73,10.73,0,0,1-.92-.6A2,2,0,0,0,130.21,21.7Z"/><path class="cls-73" d="M132.17,25.67a.41.41,0,0,0-.17.49,1.18,1.18,0,0,0,.86.21A.28.28,0,0,0,133,26c0-.12-.27-.77-.46-.77S132.33,25.54,132.17,25.67Z"/><path class="cls-74" d="M109.55,25.93a2.34,2.34,0,0,0-.69.87c-.08.13-.17.4-.1.4a.39.39,0,0,0,.39-.17c.27-.43.63-.23.78-.37.4-.38.4-.79.35-.85A.86.86,0,0,0,109.55,25.93Z"/><path class="cls-75" d="M127.9,19.44a1.22,1.22,0,0,0,0,1.2c.09.07.39,0,.45-.08a1,1,0,0,0-.22-1C128.07,19.47,128,19.4,127.9,19.44Z"/><path class="cls-76" d="M129.1,24c-.18.06-.56.41-.48.55s.2.14.64.09c.18,0,.39.32.5.37a2.56,2.56,0,0,0,.64.18.45.45,0,0,0,.28-.36c0-.06-.37-.3-.46-.42-.24-.28-.07-.45-.15-.56A2.58,2.58,0,0,0,129.1,24Z"/><path class="cls-77" d="M123.93,22c0,.09.26.27.36.25a3.88,3.88,0,0,1,.44-.14c.38,0,1,.45,1.26.38a.45.45,0,0,0,.16-.46,1.28,1.28,0,0,0-.8-.37c-.35,0-.61-.22-.75-.15C124.08,21.73,124,21.69,123.93,22Z"/><path class="cls-78" d="M125,19c0,.09.14.24.51.56.16.13.19.43.39.67,0,0,.35.13.36.06,0-.29-.18-.4-.16-.71,0-.49,0-.62-.06-.73a1.36,1.36,0,0,0-.69-.18C125.21,18.64,125,18.83,125,19Z"/><path class="cls-79" d="M120.47,16.75c0,.22.31.56.44.56s.5-.3.83-.29a.45.45,0,0,0,.48-.52.47.47,0,0,0-.37-.18.55.55,0,0,1-.65,0C121,16.19,120.58,16.2,120.47,16.75Z"/><path class="cls-80" d="M125.18,16.7c.06.19.16.17.24.1a.72.72,0,0,1,.49-.19c.32,0,.69,1,.82,1s.13-.43.1-.62a2,2,0,0,0-.39-.74,1.5,1.5,0,0,0-.79-.42C125.38,15.81,125.12,16.5,125.18,16.7Z"/><path class="cls-81" d="M121.87,18.53c-.26.36-.51.39-.78.64s-.21.67,0,.67.26-.29,1-.56a1.63,1.63,0,0,1,1.24-.15c.24,0,.35-.26.32-.31a3.09,3.09,0,0,0-.89-.42A1.33,1.33,0,0,0,121.87,18.53Z"/><path class="cls-82" d="M121.1,14.37c-.13.23.06.69.57.74a.43.43,0,0,0,.44-.62C122,14.24,121.24,14.12,121.1,14.37Z"/><path class="cls-83" d="M117.87,14.71c-.05.14,0,.43.12.49s.27-.21.58-.17.5.38.61.38.43-.29.29-.74c0,0-.07,0-.22-.11s-.17-.25-.24-.25C118.63,14.31,118,14.34,117.87,14.71Z"/><path class="cls-84" d="M116.81,21.09c-.25.16-.65.46-.55.82,0,.12.49,0,.74,0a.81.81,0,0,0,.6-.88C117.47,20.83,117.24,20.82,116.81,21.09Z"/><path class="cls-85" d="M126.92,23.37c-.21.54-.21.75,0,.8s.3-.05.87-.73c.08-.11.41-.16.43-.17a.52.52,0,0,0,.23-.36c0-.11-.59-.37-.72-.36S127,23.28,126.92,23.37Z"/><path class="cls-86" d="M118.7,18.5c-.42.58-.39,1.29-.12,1.31.11,0,.21-.21.23-.3s0-.25.11-.44a.31.31,0,0,1,.29-.14s.15-.51,0-.61S118.85,18.29,118.7,18.5Z"/><path class="cls-87" d="M110.84,23.19a1,1,0,0,0-.29.53c0,.19.18.4.55.3s.43-.3.91-.54c.23-.11.25-.39.13-.42a5.44,5.44,0,0,0-.57-.13A1.3,1.3,0,0,0,110.84,23.19Z"/><path class="cls-88" d="M115,16.36a3.36,3.36,0,0,1-.63.12.84.84,0,0,0-.57.65,4.65,4.65,0,0,0,.36,1.49.38.38,0,0,0,.34,0c.12-.08-.14-1.19.08-1.45s1.33-.5,1.44-.68,0-.7-.12-.71S115.24,16.23,115,16.36Z"/><path class="cls-89" d="M108.69,22.23a1.84,1.84,0,0,0-.47.33.52.52,0,0,0-.13.5c0,.14.15.17.31.05a.87.87,0,0,1,.59-.28c.1,0,.13-.35,0-.49A.31.31,0,0,0,108.69,22.23Z"/><path class="cls-90" d="M113.18,26s.47.41.3.6-.16,0-.49.09a1.43,1.43,0,0,0-.65.41,1.84,1.84,0,0,1-.75.45.3.3,0,0,1-.2-.08.59.59,0,0,1-.08-.43c0-.08.12-.36.26-.38a1.79,1.79,0,0,0,.76-.24C112.65,26.22,112.66,25.93,113.18,26Z"/><path class="cls-91" d="M111.31,21a.56.56,0,0,0-.2.38c0,.18.28.48.49.28s.53-.85.36-.93S111.45,20.84,111.31,21Z"/><path class="cls-92" d="M114.27,20.27a1.53,1.53,0,0,0-1.15.88.31.31,0,0,0,.22.35c.19,0,.57-.58.8-.65a1.69,1.69,0,0,1,.73.13c.33.11.43.19.49,0s0-.61-.2-.66A2,2,0,0,0,114.27,20.27Z"/><path class="cls-93" d="M107.45,32c0,.27.11.43.65.46s.55-.32.48-.34a1.9,1.9,0,0,1-.75-.49A.38.38,0,0,0,107.45,32Z"/><path class="cls-94" d="M107.07,29.18a.66.66,0,0,0,.06.37.41.41,0,0,0,.2.13c.11,0,.21,0,.52-.24.12-.1.25-.09.34-.19a.23.23,0,0,0,0-.22.75.75,0,0,0-.44-.34A1.32,1.32,0,0,0,107.07,29.18Z"/><path class="cls-95" d="M108.61,24.34a1.28,1.28,0,0,0-.66.17.64.64,0,0,0-.36.63.36.36,0,0,0,.26.32.38.38,0,0,0,.39-.2.52.52,0,0,1,.5-.39c.21,0,.36,0,.43-.13s0-.34,0-.35A1.75,1.75,0,0,0,108.61,24.34Z"/><path class="cls-96" d="M111,31.57c0,.24.13.4.26.4s.37-.11.52-.12.33.07.36,0a.43.43,0,0,0-.06-.4c-.08-.18-.3-.09-.4-.09s-.37-.16-.45-.16S111,31.48,111,31.57Z"/><path class="cls-97" d="M125.74,31.1a1,1,0,0,0,1,.24c.12,0,.23-.35.08-.43a1.16,1.16,0,0,0-.94-.15A.23.23,0,0,0,125.74,31.1Z"/><path class="cls-98" d="M109.25,30.13c-.3.1-.44.18-.48.42s.14.23.42.23c.46,0,.68-.23.68-.43C109.87,30,109.52,30.05,109.25,30.13Z"/><path class="cls-99" d="M128.36,31.57c.15.26.54,0,1,.18.14.05.34.42.57.36s.25-.49.26-.79-.42-.33-.6-.26a5.35,5.35,0,0,1-1.07.27A.25.25,0,0,0,128.36,31.57Z"/><path class="cls-100" d="M128.89,29c0,.12.74,0,1,.22s.69.28.73.2a.57.57,0,0,0-.2-.69,1.59,1.59,0,0,0-.73-.25C128.94,28.52,128.85,28.87,128.89,29Z"/><path class="cls-101" d="M133.56,31.05c-.15,0-.36.39-.68.37s-.48-.17-.61-.16-.49.44-.42.55a1.48,1.48,0,0,0,1.12.36.51.51,0,0,0,.47-.24c.15-.23.42-.27.49-.33a.61.61,0,0,0,0-.33A.51.51,0,0,0,133.56,31.05Z"/><path class="cls-102" d="M135.82,31.43A.36.36,0,0,0,136,32c.11,0,.66-.1.7-.2a.51.51,0,0,0-.27-.51C136.3,31.24,135.93,31.27,135.82,31.43Z"/><path class="cls-9" d="M123,28.57l-.13-.11a1.83,1.83,0,0,0-.57.86l.17,0A1.59,1.59,0,0,1,123,28.57Z"/><path class="cls-63" d="M122.29,29.31a.65.65,0,0,0,0,.14c0,.09.11.16.25.2l.07-.15a.3.3,0,0,1-.15-.08.11.11,0,0,1,0-.08Z"/><path class="cls-13" d="M123.27,29.57a2.41,2.41,0,0,1-.66-.07l-.07.15a3.14,3.14,0,0,0,1.85-.11l-.14-.12A2.61,2.61,0,0,1,123.27,29.57Z"/><path class="cls-13" d="M114.23,18.61l-.13.11a.52.52,0,0,0,.5,0l-.12-.13A.46.46,0,0,1,114.23,18.61Z"/><path class="cls-19" d="M114.48,17.83a3.55,3.55,0,0,1,0,.8l.11.13,0,0a1.94,1.94,0,0,0,0-.72c0-.28-.08-.62.06-.74l-.11-.13C114.43,17.28,114.46,17.56,114.48,17.83Z"/><path class="cls-20" d="M135.82,31.74l-.17,0a.52.52,0,0,0,.25.28l.09-.15A.28.28,0,0,1,135.82,31.74Z"/><path class="cls-36" d="M125.67,15.85a1.51,1.51,0,0,1,.6.28l.09-.14a1.53,1.53,0,0,0-.69-.31.57.57,0,0,0-.46.36l.15.08S125.51,15.85,125.67,15.85Z"/><path class="cls-36" d="M108.61,22.3a.27.27,0,0,1,.27,0l.05-.16a.49.49,0,0,0-.43.06l-.23.17.11.13Z"/><path class="cls-63" d="M123.53,19a.22.22,0,0,1-.14.09l0,.17a.43.43,0,0,0,.21-.11Z"/><path class="cls-20" d="M114,29.72l-.06.15.34.12.05-.16Z"/><path class="cls-13" d="M116.17,16.52a.71.71,0,0,0,0-.27H116a1.16,1.16,0,0,1,0,.21.18.18,0,0,1-.05.08l.14.1A.27.27,0,0,0,116.17,16.52Z"/><path class="cls-7" d="M119.25,18.52a.55.55,0,0,1,0,.22l.17,0a.91.91,0,0,0,0-.33Z"/><path class="cls-20" d="M118.8,19.4c0,.2-.14.38-.22.38l0,.17a.53.53,0,0,0,.35-.44.61.61,0,0,1,.07-.35L119,19A.54.54,0,0,0,118.8,19.4Z"/><path class="cls-20" d="M133.06,26.37l-.13-.1a.16.16,0,0,1-.07.07l.06.16A.39.39,0,0,0,133.06,26.37Z"/><path class="cls-36" d="M121.83,14.32l0-.16c-.2-.06-.67-.16-.88.11l.13.11C121.24,14.2,121.65,14.26,121.83,14.32Z"/><path class="cls-9" d="M122.09,14.5a.59.59,0,0,1,0,.14l.17,0a.85.85,0,0,0,0-.23.51.51,0,0,0-.37-.29l-.06.15C122,14.36,122.06,14.42,122.09,14.5Z"/><path class="cls-13" d="M121.41,15l-.06.16c.53.23.91-.06.93-.49l-.17,0C122.13,15,121.87,15.21,121.41,15Z"/><path class="cls-7" d="M121.11,14.67l-.17,0a.79.79,0,0,0,.41.46l.06-.16A.57.57,0,0,1,121.11,14.67Z"/><path class="cls-9" d="M121.13,14.38l-.13-.11a.52.52,0,0,0-.06.44l.17,0A.34.34,0,0,1,121.13,14.38Z"/><path class="cls-9" d="M119.09,14.41a.59.59,0,0,0,.35.27.43.43,0,0,1,0,.28l.17,0c0-.23,0-.48-.19-.49s-.23-.19-.29-.26a.13.13,0,0,0-.06-.05l-.09.15S119.05,14.37,119.09,14.41Z"/><path class="cls-36" d="M119,14.35l.09-.15a1.88,1.88,0,0,0-1.19.21l.13.11A1.88,1.88,0,0,1,119,14.35Z"/><path class="cls-13" d="M119.48,15a.55.55,0,0,1-.06.26.39.39,0,0,1-.24.16s-.13-.17-.24-.24a.75.75,0,0,0-.42-.14v.17a.55.55,0,0,1,.33.11c.1.07.18.24.3.26a.45.45,0,0,0,.39-.19.62.62,0,0,0,.12-.35Z"/><path class="cls-20" d="M118.19,15.11l0,.16a.47.47,0,0,1,.28-.1V15A.51.51,0,0,0,118.19,15.11Z"/><path class="cls-13" d="M118,15.19h0l-.06.15.09,0a.36.36,0,0,0,.22-.09l-.06-.16C118.1,15.17,118.07,15.19,118,15.19Z"/><path class="cls-7" d="M117.7,14.82c0,.21.07.47.24.53l.06-.16c-.11,0-.14-.28-.13-.36Z"/><path class="cls-9" d="M118.05,14.52l-.12-.12a.56.56,0,0,0-.23.42h.17A.37.37,0,0,1,118.05,14.52Z"/><path class="cls-36" d="M121.18,16.33a.6.6,0,0,0,.68,0,.34.34,0,0,1,.19,0l.08-.15a.44.44,0,0,0-.36,0,.44.44,0,0,1-.49,0,.6.6,0,0,0-.8.17l.15.08A.44.44,0,0,1,121.18,16.33Z"/><path class="cls-9" d="M122.2,16.52s0,.08,0,.11l.16,0a.59.59,0,0,0,0-.13c0-.11-.11-.22-.24-.29l-.08.15A.33.33,0,0,1,122.2,16.52Z"/><path class="cls-13" d="M121.54,17.19c.12,0,.26,0,.39-.05s.35-.09.42-.49l-.16,0c-.06.29-.22.33-.3.35a2.08,2.08,0,0,0-.41.05c-.21.07-.44.24-.56.25s-.09,0-.17-.09l-.12.12a.42.42,0,0,0,.28.14C121.09,17.46,121.34,17.25,121.54,17.19Z"/><path class="cls-7" d="M120.5,16.8h-.17a.87.87,0,0,0,.31.51l.11-.12A.69.69,0,0,1,120.5,16.8Z"/><path class="cls-9" d="M120.63,16.45l-.14-.09a.8.8,0,0,0-.16.45h.17A.63.63,0,0,1,120.63,16.45Z"/><path class="cls-9" d="M126.38,16.23a1.78,1.78,0,0,1,.42.74.49.49,0,0,1,0,.13l.17,0a1,1,0,0,0,0-.19,2,2,0,0,0-.48-.84l-.14-.12-.08.15Z"/><path class="cls-7" d="M126.81,17.1a1.65,1.65,0,0,1-.08.47l.06.18c.1,0,.17-.38.19-.63Z"/><path class="cls-22" d="M126.73,17.57a2,2,0,0,1-.3-.44c-.15-.26-.3-.53-.51-.54v.16c.14,0,.31.36.44.58.25.43.38.44.45.42Z"/><path class="cls-19" d="M125.84,16.58c-.28,0-.44.22-.49.23h0l-.06.15.12,0c.17,0,.23-.23.48-.23h.07v-.16Z"/><path class="cls-9" d="M125.25,17l0-.16s-.06,0-.09-.12a1.17,1.17,0,0,1,.15-.57l-.15-.09a1.21,1.21,0,0,0-.16.71C125.09,16.86,125.13,16.94,125.25,17Z"/><path class="cls-36" d="M125.29,18.51a.42.42,0,0,0-.24.12l.11.13a.52.52,0,0,1,.15-.09,1.5,1.5,0,0,1,.55.07l0-.16A1.58,1.58,0,0,0,125.29,18.51Z"/><path class="cls-9" d="M126.26,19.57c0-.33.08-.51-.06-.8a.48.48,0,0,0-.29-.19l0,.16a.41.41,0,0,1,.18.09c.13.18,0,.49,0,.74a.84.84,0,0,0,.14.43.86.86,0,0,1,0,.13l.17,0a.46.46,0,0,0-.06-.25A.9.9,0,0,1,126.26,19.57Z"/><path class="cls-13" d="M125.93,20.17l-.09.15a.88.88,0,0,0,.43.1c.15,0,.16-.12.16-.26l-.17,0v.12A.63.63,0,0,1,125.93,20.17Z"/><path class="cls-19" d="M125.72,19.75a1.06,1.06,0,0,0-.4-.44l-.11.12a.94.94,0,0,1,.37.42c.07.17.16.42.27.47l.08-.15A1.83,1.83,0,0,1,125.72,19.75Z"/><path class="cls-7" d="M125.11,19.06l-.13.11a1.82,1.82,0,0,0,.24.27l.1-.13A2.39,2.39,0,0,1,125.11,19.06Z"/><path class="cls-64" d="M125,19s0-.12.13-.21l-.12-.12a.42.42,0,0,0-.17.39.64.64,0,0,0,.11.16l.12-.12Z"/><path class="cls-36" d="M127.91,19.46a.31.31,0,0,1,.22.11l.12-.12a.43.43,0,0,0-.4-.15c-.07,0-.14.15-.18.3l.15.08A.81.81,0,0,1,127.91,19.46Z"/><path class="cls-9" d="M128.41,20.27l.17,0a1.19,1.19,0,0,0-.33-.85l-.12.12A1,1,0,0,1,128.41,20.27Z"/><path class="cls-13" d="M128.33,20.56a.54.54,0,0,1-.38.06l-.09.14a.61.61,0,0,0,.57-.07.47.47,0,0,0,.15-.39l-.17,0C128.42,20.39,128.4,20.52,128.33,20.56Z"/><path class="cls-64" d="M127.86,20.76h0l.09-.15c-.09-.06-.17-.3-.16-.79a1,1,0,0,1,0-.15l-.15-.08a1.56,1.56,0,0,0,0,.22C127.61,20.18,127.65,20.62,127.86,20.76Z"/><path class="cls-36" d="M122.49,18.24a1.42,1.42,0,0,0-.71.18,1.82,1.82,0,0,1-.31.31l-.17.1.09.14.17-.1a1.63,1.63,0,0,0,.35-.34,1.45,1.45,0,0,1,.58-.12,1.57,1.57,0,0,1,.71.19l.06-.16A1.88,1.88,0,0,0,122.49,18.24Z"/><path class="cls-9" d="M123.78,18.82c0-.11-.26-.26-.53-.38l0,.16a2.09,2.09,0,0,1,.41.23.64.64,0,0,1,0,.07l.15.07A.37.37,0,0,0,123.78,18.82Z"/><path class="cls-13" d="M123.75,19l-.16-.07a.39.39,0,0,1-.06.11l.08.16A.66.66,0,0,0,123.75,19Z"/><path class="cls-13" d="M123.31,19.09a2,2,0,0,0-1.15.11l-.09.05.06.16a.67.67,0,0,0,.11-.07,1.91,1.91,0,0,1,1-.08h.15l0-.16Z"/><path class="cls-20" d="M121.41,19.64a.47.47,0,0,1-.29.17l-.06,0-.09.14a.3.3,0,0,0,.15.05.62.62,0,0,0,.41-.23,2.49,2.49,0,0,1,.6-.35l-.06-.15A2,2,0,0,0,121.41,19.64Z"/><path class="cls-7" d="M120.81,19.48a.46.46,0,0,0,.17.45l.08-.14a.38.38,0,0,1-.09-.28Z"/><path class="cls-9" d="M121.39,19l-.09-.14c-.43.24-.47.47-.49.65l.16,0C121,19.4,121,19.2,121.39,19Z"/><path class="cls-36" d="M118.81,18.41a.25.25,0,0,1,.29-.09l.08-.15a.43.43,0,0,0-.5.14,2.51,2.51,0,0,0-.19.24l.15.09Z"/><path class="cls-9" d="M119.17,18.17l-.07.15a.22.22,0,0,1,.15.2l.16-.07A.36.36,0,0,0,119.17,18.17Z"/><path class="cls-13" d="M119.41,18.77l-.17,0a.46.46,0,0,1,0,.16l.08.16C119.35,19,119.39,18.88,119.41,18.77Z"/><path class="cls-7" d="M119.2,18.9h-.09l0,.19a.21.21,0,0,1,.15,0h0Z"/><path class="cls-63" d="M119.08,19.1l0-.19A.26.26,0,0,0,119,19l.06.19A.15.15,0,0,1,119.08,19.1Z"/><path class="cls-13" d="M118.51,19.74l-.08.15a.25.25,0,0,0,.18.06l0-.17A.12.12,0,0,1,118.51,19.74Z"/><path class="cls-7" d="M118.43,19.9h0l.08-.16a.38.38,0,0,1-.1-.23l-.16,0A.5.5,0,0,0,118.43,19.9Z"/><path class="cls-9" d="M118.59,18.71a.5.5,0,0,1,0-.07l-.14-.1a.64.64,0,0,0-.06.1,1.88,1.88,0,0,0-.19.91l.16,0A1.87,1.87,0,0,1,118.59,18.71Z"/><path class="cls-36" d="M115.94,15.67c-.32,0-.73.45-1,.58a5.86,5.86,0,0,1-.58.1.83.83,0,0,0-.51.37l.14.1a.67.67,0,0,1,.4-.31,2.89,2.89,0,0,0,.62-.11c.22-.09.67-.55.9-.56l.08-.16Z"/><path class="cls-9" d="M116,15.68l-.07.16a1.17,1.17,0,0,1,.1.42h.16C116.17,16,116.11,15.74,116,15.68Z"/><path class="cls-20" d="M116.11,16.64l-.15-.09c-.08.06-.72.28-.73.29l.1.14A3.43,3.43,0,0,0,116.11,16.64Z"/><path class="cls-13" d="M114.61,17.13l.1.14a2.07,2.07,0,0,1,.62-.29l-.1-.14A2.19,2.19,0,0,0,114.61,17.13Z"/><path class="cls-7" d="M114.1,18.3c0-.08-.1-.34-.11-.37a2.92,2.92,0,0,1-.14-.74l-.17,0a3.13,3.13,0,0,0,.18.92,2.68,2.68,0,0,1,.07.27,1,1,0,0,0,.18.38l.12-.11A1,1,0,0,1,114.1,18.3Z"/><path class="cls-9" d="M113.85,17.13a1.2,1.2,0,0,1,.15-.31l-.14-.1a1.09,1.09,0,0,0-.17.38.11.11,0,0,0,0,0l.17,0Z"/><path class="cls-36" d="M117.33,20.91h.08l0-.16-.13,0a2.29,2.29,0,0,0-.83.39l.1.14A1.92,1.92,0,0,1,117.33,20.91Z"/><path class="cls-9" d="M117.57,21a.62.62,0,0,1,0,.29l.16.05a.61.61,0,0,0,0-.43.43.43,0,0,0-.25-.18l-.06.16A.27.27,0,0,1,117.57,21Z"/><path class="cls-103" d="M117.71,21.37l-.16-.05a.77.77,0,0,1-.55.55l.06.15A.9.9,0,0,0,117.71,21.37Z"/><path class="cls-13" d="M117,21.87a2,2,0,0,1-.5.08c-.09,0-.19,0-.2-.05l-.11.13a.49.49,0,0,0,.31.08,2.61,2.61,0,0,0,.59-.09l-.07-.15Z"/><path class="cls-7" d="M116.18,22l.1-.13h0a.51.51,0,0,1,0-.3l-.16,0C116.1,21.67,116.07,22,116.18,22Z"/><path class="cls-9" d="M116.6,21.27l-.1-.14a1.09,1.09,0,0,0-.34.42l.16,0A1.08,1.08,0,0,1,116.6,21.27Z"/><path class="cls-36" d="M113.37,20.58l.11.12a1.58,1.58,0,0,1,1.44-.38l0-.17A1.76,1.76,0,0,0,113.37,20.58Z"/><path class="cls-9" d="M115.19,20.21a1.55,1.55,0,0,0-.23-.06l0,.17.21.05a.3.3,0,0,1,.18.23l.16-.06A.47.47,0,0,0,115.19,20.21Z"/><path class="cls-7" d="M115.31,20.6a.64.64,0,0,1,0,.28l.17,0a1,1,0,0,0,0-.38Z"/><path class="cls-103" d="M115.52,20.92l-.17,0a.26.26,0,0,1-.06.18l.08.15A.39.39,0,0,0,115.52,20.92Z"/><path class="cls-13" d="M115.29,21.06h0c-.18,0-.68-.22-.87-.24V21a6.87,6.87,0,0,0,.88.24l.08,0Z"/><path class="cls-103" d="M114,20.88l.07.15a.41.41,0,0,1,.32,0v-.17A.51.51,0,0,0,114,20.88Z"/><path class="cls-7" d="M114,20.88a1.6,1.6,0,0,0-.35.32c-.16.19-.27.26-.33.26v.17c.17,0,.35-.2.44-.29a1.52,1.52,0,0,1,.31-.31Z"/><path class="cls-13" d="M113.26,21.42l-.11.13a.41.41,0,0,0,.19.08v-.17h0Z"/><path class="cls-19" d="M113.16,21.55l.1-.13a.31.31,0,0,1-.09-.11l-.16.05A.41.41,0,0,0,113.16,21.55Z"/><path class="cls-9" d="M113,21.23a.59.59,0,0,0,0,.14l.16-.06a.22.22,0,0,1,0-.08.82.82,0,0,1,.33-.53l-.12-.12A.93.93,0,0,0,113,21.23Z"/><path class="cls-36" d="M111.88,20.74a.06.06,0,0,1,.06,0l.06-.16a.23.23,0,0,0-.12,0,1.15,1.15,0,0,0-.74.39l.13.11A1,1,0,0,1,111.88,20.74Z"/><path class="cls-9" d="M112,20.59l-.06.16c.07,0,0,.15,0,.21l.17,0A.31.31,0,0,0,112,20.59Z"/><path class="cls-7" d="M112,21a1,1,0,0,1-.14.33l.15.08a1.26,1.26,0,0,0,.16-.43Z"/><path class="cls-13" d="M111.61,21.6a.32.32,0,0,1-.19.09.33.33,0,0,1-.13-.08l-.12.13a.88.88,0,0,0,.21.12.47.47,0,0,0,.34-.13,1.61,1.61,0,0,0,.28-.36l-.16-.08A1,1,0,0,1,111.61,21.6Z"/><path class="cls-7" d="M111.15,21.41l-.16,0a.51.51,0,0,0,.19.29l.11-.13A.33.33,0,0,1,111.15,21.41Z"/><path class="cls-9" d="M111.14,21.37a.52.52,0,0,1,.13-.3l-.13-.11a.64.64,0,0,0-.16.41.28.28,0,0,0,0,.09l.16-.05S111.14,21.38,111.14,21.37Z"/><path class="cls-9" d="M108.93,22.1l-.06.16a.24.24,0,0,1,.18.2l.16-.07A.43.43,0,0,0,108.93,22.1Z"/><path class="cls-7" d="M109.05,22.45a.54.54,0,0,1,0,.22l.17,0a.79.79,0,0,0,0-.31Z"/><path class="cls-13" d="M109,22.79a.5.5,0,0,1-.21.05.5.5,0,0,0-.3.16c-.08.07-.25.21-.34.13l-.12.12c.14.12.33.07.51-.07s.13-.15.27-.17.31,0,.35-.17a1,1,0,0,0,0-.14l-.17,0Z"/><path class="cls-7" d="M108.06,23.25l.11-.12a.35.35,0,0,1-.07-.23l-.17,0A.43.43,0,0,0,108.06,23.25Z"/><path class="cls-9" d="M108.39,22.46l-.12-.13-.12.1a.69.69,0,0,0-.22.46h.17a.53.53,0,0,1,.17-.35Z"/><path class="cls-36" d="M108.76,24.37l.06-.17a1.4,1.4,0,0,0-1.25.48l.15.08A1.21,1.21,0,0,1,108.76,24.37Z"/><path class="cls-9" d="M109.17,24.43a.38.38,0,0,1,0,.26l.14.08c.11-.2,0-.47,0-.49a2,2,0,0,0-.45-.08l0,.17A1.68,1.68,0,0,1,109.17,24.43Z"/><path class="cls-13" d="M109.17,24.69h0s-.08.14-.31.13a.68.68,0,0,0-.49.16l.12.12a.52.52,0,0,1,.38-.11c.27,0,.4-.1.46-.24Z"/><path class="cls-7" d="M108.21,25.24a.28.28,0,0,1-.12.15l.1.13a.41.41,0,0,0,.19-.24.45.45,0,0,1,.1-.18l-.12-.11A.56.56,0,0,0,108.21,25.24Z"/><path class="cls-63" d="M108.09,25.39a.52.52,0,0,1-.23,0v.17a.61.61,0,0,0,.35-.07Z"/><path class="cls-13" d="M107.82,25.41l-.09-.07-.11.13.09.07a.25.25,0,0,0,.15.05v-.17Z"/><path class="cls-7" d="M107.66,25.28a.49.49,0,0,1,0-.21h-.17a.59.59,0,0,0,.07.29s.06.07.11.11l.1-.13Z"/><path class="cls-9" d="M107.72,24.76l-.14-.09a.7.7,0,0,0-.13.4h.17A.54.54,0,0,1,107.72,24.76Z"/><path class="cls-36" d="M110.12,25.8l0-.16a1.38,1.38,0,0,0-1.24.78l.13.1A1.29,1.29,0,0,1,110.12,25.8Z"/><path class="cls-9" d="M110.42,25.8a.26.26,0,0,0-.25-.16l0,.16c.09,0,.13,0,.13,0a.53.53,0,0,1,0,.18h.17A.79.79,0,0,0,110.42,25.8Z"/><path class="cls-7" d="M110.26,26a1.29,1.29,0,0,1-.14.36l.14.08a1.19,1.19,0,0,0,.17-.45Z"/><path class="cls-63" d="M110.12,26.38a2.15,2.15,0,0,1-.23.28l.08.14a2,2,0,0,0,.3-.34Z"/><path class="cls-20" d="M109.89,26.66c-.14.07-.28,0-.55.12s-.24.29-.3.33a.44.44,0,0,1-.22.07h0v.16a.54.54,0,0,0,.32-.09c.11-.07.18-.26.29-.32s.37,0,.55-.13Z"/><path class="cls-13" d="M108.77,27.17l-.11.14.15,0v-.17Z"/><path class="cls-9" d="M109.07,26.51l-.14-.09-.22.35h0l.15.06Z"/><path class="cls-7" d="M108.64,27.3h0l.11-.14h0a.8.8,0,0,1,.1-.33l-.16-.06C108.65,26.88,108.54,27.2,108.64,27.3Z"/><path class="cls-36" d="M107.72,28.72c.09,0,.15,0,.28.09l.09-.14a.48.48,0,0,0-.37-.13,1.17,1.17,0,0,0-.45.24l.11.13A1.09,1.09,0,0,1,107.72,28.72Z"/><path class="cls-9" d="M108.09,28.67l-.1.14a1,1,0,0,1,.21.2v0l.16-.07A.74.74,0,0,0,108.09,28.67Z"/><path class="cls-7" d="M108.36,29l-.16.07a.24.24,0,0,1,0,.17l.13.11A.42.42,0,0,0,108.36,29Z"/><path class="cls-20" d="M108.19,29.21c0,.05-.07.08-.16.11a1.27,1.27,0,0,0-.41.27.44.44,0,0,1-.26.08v.16a.56.56,0,0,0,.36-.1,1.72,1.72,0,0,1,.37-.25.48.48,0,0,0,.25-.17Z"/><path class="cls-13" d="M107.21,29.59l-.09.15a.45.45,0,0,0,.24.09v-.16A.37.37,0,0,1,107.21,29.59Z"/><path class="cls-7" d="M107,29.67l.1.07.08-.15-.06,0a.8.8,0,0,1-.06-.17l-.16,0A.64.64,0,0,0,107,29.67Z"/><path class="cls-9" d="M107.1,29.17a1.47,1.47,0,0,1,.28-.26l-.11-.13a1.59,1.59,0,0,0-.32.31.55.55,0,0,0,0,.32l.16,0A.46.46,0,0,1,107.1,29.17Z"/><path class="cls-36" d="M112.68,26.16a.5.5,0,0,1,.38-.15h.13l.08.09.13-.11-.1-.11a.45.45,0,0,0-.24-.05.64.64,0,0,0-.51.21,1.73,1.73,0,0,1-.31.24l.12.13A2.12,2.12,0,0,0,112.68,26.16Z"/><path class="cls-9" d="M113.27,26.11a.65.65,0,0,1,.22.35.13.13,0,0,1,0,.06l.15.07c.1-.22-.09-.45-.23-.6Z"/><path class="cls-20" d="M113.64,26.58l-.16-.06,0,.05-.12,0,.07.16a.3.3,0,0,0,.16-.06A.44.44,0,0,0,113.64,26.58Z"/><path class="cls-63" d="M112.65,26.78l.07.16a1.6,1.6,0,0,1,.68-.19l-.07-.16A1.48,1.48,0,0,0,112.65,26.78Z"/><path class="cls-20" d="M112.73,26.93l-.08-.15c-.21.13-.4.36-.57.46a2,2,0,0,1-.51.26l0,.17a2.44,2.44,0,0,0,.56-.28C112.4,27.24,112.53,27.06,112.73,26.93Z"/><path class="cls-13" d="M111.46,27.46l-.09.14a.34.34,0,0,0,.24.06l0-.16A.21.21,0,0,1,111.46,27.46Z"/><path class="cls-7" d="M111.37,27.6l.09-.14c-.1-.06-.22-.31,0-.67l-.13-.11C111,27.16,111.22,27.5,111.37,27.6Z"/><path class="cls-9" d="M111.59,26.66a1.43,1.43,0,0,0,.77-.24l-.11-.13a1.19,1.19,0,0,1-.68.21.36.36,0,0,0-.26.19l.14.1A.22.22,0,0,1,111.59,26.66Z"/><path class="cls-36" d="M109.69,30.11l0-.16a1.29,1.29,0,0,0-.89.21l.11.13A1.16,1.16,0,0,1,109.69,30.11Z"/><path class="cls-9" d="M109.74,30l0,.16a.2.2,0,0,1,.16.2l.17,0A.37.37,0,0,0,109.74,30Z"/><path class="cls-7" d="M109.85,30.31a.27.27,0,0,1,0,.18l.14.1a.46.46,0,0,0,.06-.33Z"/><path class="cls-13" d="M108.85,30.69l-.09.14a1,1,0,0,0,1.2-.25l-.15-.09C109.6,30.85,109,30.78,108.85,30.69Z"/><path class="cls-7" d="M108.63,30.54a.28.28,0,0,0,.13.3l.09-.15,0,0a.18.18,0,0,1,0-.11Z"/><path class="cls-9" d="M108.81,30.5a.31.31,0,0,1,.15-.21l-.1-.14a.49.49,0,0,0-.21.3.36.36,0,0,0,0,.1h.17A.11.11,0,0,1,108.81,30.5Z"/><path class="cls-36" d="M104.35,30.39a6.23,6.23,0,0,1,.82-.29h.11l.07-.15a.34.34,0,0,0-.18,0,4.65,4.65,0,0,0-.92.33.34.34,0,0,0-.1.2l.16.07A.29.29,0,0,1,104.35,30.39Z"/><path class="cls-9" d="M105.35,30l-.07.15s.09.08.11.26a.34.34,0,0,1-.07.19l.14.09a.47.47,0,0,0,.09-.3C105.53,30.1,105.44,30,105.35,30Z"/><path class="cls-13" d="M105.47,30.64l-.15-.08a.83.83,0,0,1-.24.25l.09.15A1.49,1.49,0,0,0,105.47,30.64Z"/><path class="cls-63" d="M104.62,31.06v.17a2,2,0,0,0,.55-.28l-.1-.14A2.17,2.17,0,0,1,104.62,31.06Z"/><path class="cls-20" d="M104.62,31.06a.45.45,0,0,1-.16,0v.17l.18,0Z"/><path class="cls-13" d="M104.37,31.06l-.11.13a.31.31,0,0,0,.2.07v-.17A.13.13,0,0,1,104.37,31.06Z"/><path class="cls-7" d="M104.14,30.82a.76.76,0,0,0,.1.34l0,0,.1-.13a.77.77,0,0,1-.06-.27Z"/><path class="cls-9" d="M104.31,30.52l-.16-.06a1.5,1.5,0,0,0,0,.37l.17,0A1.22,1.22,0,0,1,104.31,30.52Z"/><path class="cls-36" d="M108.11,31.86l.08-.15a1.1,1.1,0,0,1-.27-.23.16.16,0,0,0-.11,0,.54.54,0,0,0-.43.26l.14.1a.39.39,0,0,1,.29-.2A1.14,1.14,0,0,0,108.11,31.86Z"/><path class="cls-9" d="M108.63,31.93l-.44-.22-.08.15.44.23s0,0,0,0l.17,0A.24.24,0,0,0,108.63,31.93Z"/><path class="cls-7" d="M108.59,32.13a.2.2,0,0,1-.06.17l.13.11a.43.43,0,0,0,.1-.27Z"/><path class="cls-63" d="M108.53,32.3c-.11.13-.49.1-.54.1v.16s.52.06.68-.16Z"/><path class="cls-20" d="M107.65,32.31l-.07.15a1.2,1.2,0,0,0,.41.11V32.4A1,1,0,0,1,107.65,32.31Z"/><path class="cls-13" d="M107.44,32.37a.56.56,0,0,0,.15.1l.06-.16-.08-.05Z"/><path class="cls-20" d="M107.5,32.17l-.15.09a.53.53,0,0,0,.1.12l.12-.12A.18.18,0,0,1,107.5,32.17Z"/><path class="cls-7" d="M107.47,32h-.17a.48.48,0,0,0,.06.24l.14-.1A.27.27,0,0,1,107.47,32Z"/><path class="cls-9" d="M107.52,31.81l-.14-.1a.72.72,0,0,0-.08.33l.17,0A.5.5,0,0,1,107.52,31.81Z"/><path class="cls-36" d="M111.45,31.18c-.09-.05-.16-.12-.26-.12a.35.35,0,0,0-.32.24l.15.09a.24.24,0,0,1,.17-.17,1,1,0,0,1,.18.11.48.48,0,0,0,.26.06l0-.17A.38.38,0,0,1,111.45,31.18Z"/><path class="cls-9" d="M111.85,31.21h-.19l0,.17.22,0c.1,0,.16,0,.23.25a.92.92,0,0,1,0,.16l.16.07a.62.62,0,0,0,0-.27C112.18,31.39,112.1,31.21,111.85,31.21Z"/><path class="cls-7" d="M112.25,31.84l-.16-.06a.64.64,0,0,1,0,.07l.09.15C112.22,32,112.23,31.91,112.25,31.84Z"/><path class="cls-20" d="M112.07,31.85c-.08,0-.13,0-.23,0a2.2,2.2,0,0,0-.54.12l0,.16a2.46,2.46,0,0,1,.51-.11c.11,0,.24.06.33,0Z"/><path class="cls-13" d="M111.11,31.91l-.1.14a.39.39,0,0,0,.33.05l0-.16A.24.24,0,0,1,111.11,31.91Z"/><path class="cls-20" d="M111,31.82l-.14.09a.51.51,0,0,0,.14.15l.09-.15A.26.26,0,0,1,111,31.82Z"/><path class="cls-7" d="M111,31.7l-.16.06a.56.56,0,0,0,.07.16l.13-.1A.42.42,0,0,1,111,31.7Z"/><path class="cls-9" d="M111,31.39l-.15-.1a.7.7,0,0,0-.05.47l.16-.06A.47.47,0,0,1,111,31.39Z"/><path class="cls-36" d="M110.91,23.18a1.56,1.56,0,0,1,.6-.22,1.78,1.78,0,0,1,.33.05l0-.16a2.16,2.16,0,0,0-.38-.06,1.44,1.44,0,0,0-.63.22.58.58,0,0,0-.24.19l.14.1A.38.38,0,0,1,110.91,23.18Z"/><path class="cls-9" d="M111.89,22.85l0,.16c.09,0,.26.07.32.1l.13-.11C112.26,22.94,112,22.89,111.89,22.85Z"/><path class="cls-7" d="M112.29,23l-.13.12a.23.23,0,0,1,0,.18l.16.07A.42.42,0,0,0,112.29,23Z"/><path class="cls-20" d="M112.15,23.29a.31.31,0,0,1-.16.16c-.11.05-.67.43-.8.5l.08.15c.11-.05.71-.46.79-.5a.44.44,0,0,0,.25-.25Z"/><path class="cls-13" d="M111.11,24v.16a.33.33,0,0,0,.15,0l-.08-.15Z"/><path class="cls-20" d="M110.77,24l0,.17a1,1,0,0,0,.38,0l0-.16A1,1,0,0,1,110.77,24Z"/><path class="cls-13" d="M110.69,23.94l-.11.13a.43.43,0,0,0,.18.09V24A.18.18,0,0,1,110.69,23.94Z"/><path class="cls-7" d="M110.58,23.77l-.17,0a.45.45,0,0,0,.18.28l.1-.13A.36.36,0,0,1,110.58,23.77Z"/><path class="cls-9" d="M110.58,23.71a1.28,1.28,0,0,1,.2-.41l-.13-.11a1.66,1.66,0,0,0-.23.48.53.53,0,0,0,0,.13l.17,0Z"/><path class="cls-36" d="M125.38,21.5c-.3,0-.5-.18-.75-.17a1.84,1.84,0,0,0-.36.14l.1.13.28-.11c.14,0,.42.2.74.17a1.89,1.89,0,0,1,.37.1l.08-.15A1.45,1.45,0,0,0,125.38,21.5Z"/><path class="cls-9" d="M126.29,22a.76.76,0,0,0-.46-.36l-.07.15c.17.07.34.17.37.26a.31.31,0,0,1,0,.23l.15.07A.48.48,0,0,0,126.29,22Z"/><path class="cls-13" d="M126.11,22.25a.44.44,0,0,1-.13.19.63.63,0,0,1-.26-.05,3,3,0,0,0-1-.33v.17a2.66,2.66,0,0,1,.91.31.74.74,0,0,0,.41.06.54.54,0,0,0,.21-.28Z"/><path class="cls-104" d="M124.73,22.06c-.14,0-.36.13-.46.14v.17c.14,0,.36-.13.48-.14v-.17Z"/><path class="cls-13" d="M124.27,22.2a.38.38,0,0,1-.15-.07l-.11.13a.56.56,0,0,0,.26.11V22.2Z"/><path class="cls-7" d="M124,22.27l.1-.14c-.06,0-.16-.11-.16-.17l-.17,0C123.8,22.12,123.94,22.21,124,22.27Z"/><path class="cls-9" d="M124.05,21.76l.32-.16-.1-.14-.3.15a.43.43,0,0,0-.18.38l.17,0A.28.28,0,0,1,124.05,21.76Z"/><path class="cls-36" d="M127.67,22.41a1.2,1.2,0,0,0-.41.31,2.45,2.45,0,0,0-.5.66,2.15,2.15,0,0,0-.14.54h.17a2,2,0,0,1,.16-.57,3,3,0,0,1,.44-.53.93.93,0,0,1,.31-.25,1,1,0,0,1,.39.13l.11-.14A1.26,1.26,0,0,0,127.67,22.41Z"/><path class="cls-9" d="M128.47,22.74a1.56,1.56,0,0,0-.28-.17l-.1.14a1.39,1.39,0,0,1,.28.16s0,0,0,.12l.15.07A.25.25,0,0,0,128.47,22.74Z"/><path class="cls-13" d="M128.38,23a.52.52,0,0,1-.2.26l0,.16a.62.62,0,0,0,.32-.35Z"/><path class="cls-104" d="M128.07,23.45l.16,0,0-.16h0l-.15,0a.62.62,0,0,0-.18,0l.07.16A.42.42,0,0,1,128.07,23.45Z"/><path class="cls-13" d="M127.63,23.54a3.91,3.91,0,0,1-.51.59.35.35,0,0,1-.22,0l-.09.14a.47.47,0,0,0,.38,0,2.67,2.67,0,0,0,.57-.64.56.56,0,0,1,.16-.15l-.07-.16A.73.73,0,0,0,127.63,23.54Z"/><path class="cls-7" d="M126.82,24.29l.08-.14a.2.2,0,0,1-.11-.22l-.17,0A.36.36,0,0,0,126.82,24.29Z"/><path class="cls-36" d="M130,22.15a.33.33,0,0,1,.28-.42,1.81,1.81,0,0,1,.63.09,3.61,3.61,0,0,1,.54.4l.23.12.11-.13a1.83,1.83,0,0,1-.24-.13,3.3,3.3,0,0,0-.57-.41,1.89,1.89,0,0,0-.72-.11c-.48.06-.51.64-.36.74l.12-.15Z"/><path class="cls-9" d="M132,23a2,2,0,0,1,.09.4l.17,0a1.89,1.89,0,0,0-.12-.54,1.54,1.54,0,0,0-.24-.54.48.48,0,0,0-.16-.12l-.11.13a.39.39,0,0,1,.14.1A1.49,1.49,0,0,1,132,23Z"/><path class="cls-64" d="M132.09,23.39a.31.31,0,0,1-.05.2l.09.15a.44.44,0,0,0,.13-.34Z"/><path class="cls-63" d="M131.79,23.57l0,.16c.09,0,.32.06.38,0l-.09-.15A.71.71,0,0,1,131.79,23.57Z"/><path class="cls-13" d="M131.39,23.36l-.12.11a.84.84,0,0,0,.49.26l0-.16A.77.77,0,0,1,131.39,23.36Z"/><path class="cls-63" d="M131.36,23.3a4.07,4.07,0,0,0-.38-.6,1.18,1.18,0,0,0-.25-.32l-.11.13a1.51,1.51,0,0,1,.27.36,3.13,3.13,0,0,1,.32.5.26.26,0,0,0,.07.11l.11-.12Z"/><path class="cls-13" d="M130,22.15l-.12.14,0,0a1.26,1.26,0,0,1,.74.21l.1-.14A1.3,1.3,0,0,0,130,22.15Z"/><path class="cls-36" d="M130.23,24.13c0-.1,0-.15,0-.23a.19.19,0,0,0-.19-.17,3.54,3.54,0,0,0-.9.14,1,1,0,0,0-.38.22l.14.1a.83.83,0,0,1,.29-.16,3.33,3.33,0,0,1,.86-.13s0,0,0,.11a.6.6,0,0,0,.13.46l.14-.11S130.25,24.31,130.23,24.13Z"/><path class="cls-9" d="M130.32,24.36l-.13.11.34.28.11-.13Z"/><path class="cls-64" d="M130.64,24.62l-.11.13.13.11a.34.34,0,0,1,0,.1l.15.09c.06-.12.08-.23,0-.29Z"/><path class="cls-63" d="M130.77,25l-.15-.08a.54.54,0,0,1-.22.23l0,.16A.62.62,0,0,0,130.77,25Z"/><path class="cls-13" d="M130.4,25.19h0a2.29,2.29,0,0,1-.62-.18l0,.17a1.8,1.8,0,0,0,.73.17Z"/><path class="cls-63" d="M129.76,25a.71.71,0,0,1-.15-.15,1.09,1.09,0,0,0-.19-.18l-.09.14c.1.07.19.23.34.33l.05,0,0-.17Z"/><path class="cls-13" d="M129.21,24.63c-.12,0-.36.05-.39,0a.35.35,0,0,1-.17-.1l-.16.07a.49.49,0,0,0,.28.19,2.32,2.32,0,0,0,.44,0,.23.23,0,0,1,.13,0l.08-.15A.43.43,0,0,0,129.21,24.63Z"/><path class="cls-9" d="M128.63,24.55s0,0,0-.06a1.31,1.31,0,0,1,.24-.3l-.13-.11a2.24,2.24,0,0,0-.26.32.21.21,0,0,0,0,.24l.16-.07Z"/><path class="cls-36" d="M132.3,25.59c.06-.09.15-.29.24-.29s.18.15.32.46l.16-.05c-.07-.15-.22-.59-.48-.58s-.29.22-.37.34-.23.19-.3.37l.16.05A1.62,1.62,0,0,1,132.3,25.59Z"/><path class="cls-9" d="M133,25.7l-.16.06c0,.11.1.21.12.27l.16-.05A2,2,0,0,0,133,25.7Z"/><path class="cls-7" d="M133.14,26,133,26a.28.28,0,0,1,0,.13l.15.06A.43.43,0,0,0,133.14,26Z"/><path class="cls-13" d="M133.14,26.22l-.16-.06a.37.37,0,0,1,0,.11l.13.11A1.19,1.19,0,0,0,133.14,26.22Z"/><path class="cls-13" d="M132.73,26.36a1.46,1.46,0,0,1-.63-.17l-.1.13a1.59,1.59,0,0,0,.73.21.38.38,0,0,0,.19,0l-.06-.15A.31.31,0,0,1,132.73,26.36Z"/><path class="cls-7" d="M132,26.13l-.15.08a.38.38,0,0,0,.13.12l.1-.14A.28.28,0,0,1,132,26.13Z"/><path class="cls-9" d="M132,25.89l-.16-.06a.5.5,0,0,0,0,.38l.15-.08A.33.33,0,0,1,132,25.89Z"/><path class="cls-36" d="M134.39,27.12c-.24,0-.65,0-.74,0a.4.4,0,0,0-.34.11l.12.12a.22.22,0,0,1,.2-.06c.15,0,.45,0,.77,0a1.94,1.94,0,0,1,.62.09l.06-.16A2.3,2.3,0,0,0,134.39,27.12Z"/><path class="cls-9" d="M135.08,27.22l-.06.16c.1,0,.19.07.19.13a1.32,1.32,0,0,1,0,.27l.16,0a2.41,2.41,0,0,0,0-.33C135.37,27.35,135.24,27.27,135.08,27.22Z"/><path class="cls-7" d="M135.2,27.78a1.39,1.39,0,0,1-.07.34l.11.13c.07-.05.1-.25.12-.43Z"/><path class="cls-13" d="M135.25,28.24l-.12-.12a.52.52,0,0,1-.33.11l0,.17A.65.65,0,0,0,135.25,28.24Z"/><path class="cls-20" d="M134.7,28.19a1.11,1.11,0,0,0-.24-.16l-.06.16a.62.62,0,0,1,.18.13.38.38,0,0,0,.24.08l0-.17A.13.13,0,0,1,134.7,28.19Z"/><path class="cls-13" d="M133.91,27.94h-.21a.49.49,0,0,1-.19,0l-.11.13a.72.72,0,0,0,.29.08h.22a1.12,1.12,0,0,1,.49.08l.06-.16A1.22,1.22,0,0,0,133.91,27.94Z"/><path class="cls-7" d="M133.4,27.81l-.15.08a.36.36,0,0,0,.16.14l.1-.13A.53.53,0,0,1,133.4,27.81Z"/><path class="cls-9" d="M133.44,27.35l-.13-.11a.53.53,0,0,0-.05.66l.14-.09A.36.36,0,0,1,133.44,27.35Z"/><path class="cls-36" d="M132.57,28.8a.47.47,0,0,0-.38.31.8.8,0,0,0,0,.26h.17c0-.09,0-.17,0-.21a.4.4,0,0,1,.22-.18.91.91,0,0,1,.22.2l.13-.1C132.81,28.93,132.66,28.8,132.57,28.8Z"/><path class="cls-9" d="M132.92,29.06l-.13.11a.65.65,0,0,1,.14.22l.16,0A1,1,0,0,0,132.92,29.06Z"/><path class="cls-7" d="M133.09,29.34l-.16.05v.12l.17,0A1.27,1.27,0,0,0,133.09,29.34Z"/><path class="cls-13" d="M132.89,29.61a1.37,1.37,0,0,1-.37,0l-.08.16a1.24,1.24,0,0,0,.54,0,.28.28,0,0,0,.12-.22l-.17,0C132.93,29.57,132.92,29.59,132.89,29.61Z"/><path class="cls-7" d="M132.44,29.62l-.11.14a.19.19,0,0,0,.12,0l.07-.16Z"/><path class="cls-9" d="M132.44,29.62a1.05,1.05,0,0,1-.07-.26h-.17a.91.91,0,0,0,.13.4l.11-.14Z"/><path class="cls-36" d="M135.88,31.23l.09.14c.17-.06.47-.12.57,0l.12-.12C136.48,31,136.05,31.15,135.88,31.23Z"/><path class="cls-9" d="M136.66,31.23l-.12.12a.5.5,0,0,1,.17.32l.17,0A.74.74,0,0,0,136.66,31.23Z"/><path class="cls-13" d="M136.87,31.83a.53.53,0,0,0,0-.13l-.17,0v.1h0l.13.11S136.87,31.85,136.87,31.83Z"/><path class="cls-20" d="M136.7,31.78l-.19.07,0,.17a1,1,0,0,0,.3-.13Z"/><path class="cls-13" d="M136.05,31.93l-.06,0-.1.14a.43.43,0,0,0,.13.05,1.55,1.55,0,0,0,.51-.08l0-.17A1.41,1.41,0,0,1,136.05,31.93Z"/><path class="cls-7" d="M135.63,31.57a.86.86,0,0,0,0,.22l.17-.05a.47.47,0,0,1,0-.16Z"/><path class="cls-9" d="M136,31.37l-.08-.15a.37.37,0,0,0-.26.36h.17C135.81,31.52,135.8,31.43,136,31.37Z"/><path class="cls-36" d="M133.56,30.91c-.16,0-.31.19-.44.29a.32.32,0,0,1-.23.09c-.15,0-.49-.16-.63-.16a.48.48,0,0,0-.3.15l.14.1c.07-.06.12-.09.17-.08s.37.14.6.16.55-.37.69-.38a.5.5,0,0,1,.22.09l.08-.15A.58.58,0,0,0,133.56,30.91Z"/><path class="cls-9" d="M134.09,31.31a.45.45,0,0,0-.23-.3l-.08.16.1.07a.13.13,0,0,1,0,.07v.15h.17Z"/><path class="cls-20" d="M134.06,31.64a.36.36,0,0,0,0-.18h-.17a.25.25,0,0,1,0,.1,0,0,0,0,1,0,0l.11.13A.19.19,0,0,0,134.06,31.64Z"/><path class="cls-7" d="M133.89,31.58c-.12.07-.22.08-.3.14a3.16,3.16,0,0,0-.28.32l.09.15c.13-.12.18-.25.29-.33a3.13,3.13,0,0,0,.32-.16Z"/><path class="cls-13" d="M132,31.91l-.1.14a2,2,0,0,0,1.27.23l0-.16A1.91,1.91,0,0,1,132,31.91Z"/><path class="cls-20" d="M133.31,32a.22.22,0,0,1-.15.08l0,.16a.41.41,0,0,0,.21-.1Z"/><path class="cls-7" d="M131.88,31.8l-.16.06a.47.47,0,0,0,.22.19l.09-.14C131.92,31.85,131.89,31.82,131.88,31.8Z"/><path class="cls-9" d="M132.1,31.38l-.13-.11c-.18.16-.32.45-.25.6l.16-.07A.52.52,0,0,1,132.1,31.38Z"/><path class="cls-36" d="M129.67,28.32a1.14,1.14,0,0,0-.83.35l.15.07a1.16,1.16,0,0,1,.7-.25,1.42,1.42,0,0,1,.49.12l.07-.15A1.64,1.64,0,0,0,129.67,28.32Z"/><path class="cls-9" d="M130.43,28.54l-.19-.09-.06.16a.8.8,0,0,1,.16.08.75.75,0,0,1,.29.39l.16,0A.92.92,0,0,0,130.43,28.54Z"/><path class="cls-7" d="M130.63,29.08a.59.59,0,0,1,0,.19l.16.05a.67.67,0,0,0,0-.28Z"/><path class="cls-20" d="M130.8,29.31l-.16,0v0a.22.22,0,0,1,0,.12h0l.09.15A.32.32,0,0,0,130.8,29.31Z"/><path class="cls-13" d="M130.56,29.41h0a.79.79,0,0,1-.3-.06,1.54,1.54,0,0,1-.23-.14l-.08.15.24.14a1,1,0,0,0,.37.08l.13,0Z"/><path class="cls-104" d="M129.82,29.12h0l-.06.16h0a.56.56,0,0,1,.17.09l.07-.16Z"/><path class="cls-13" d="M129.32,29l-.25,0-.06.16.3,0a1.84,1.84,0,0,1,.41.06l.05-.16A1.9,1.9,0,0,0,129.32,29Z"/><path class="cls-7" d="M128.92,29l-.15.08a.34.34,0,0,0,.24.13l.06-.16A.33.33,0,0,1,128.92,29Z"/><path class="cls-9" d="M128.91,29c0-.05,0-.16.08-.22l-.15-.08c-.05.07-.16.27-.07.4l.15-.09Z"/><path class="cls-36" d="M129.15,31.07c-.18.05-.45.09-.64.13a.37.37,0,0,0-.23.17l.16.07a.15.15,0,0,1,.11-.08c.18,0,.45-.07.65-.13a2.53,2.53,0,0,1,.53-.15.73.73,0,0,1,.33.08l.11-.12a.83.83,0,0,0-.44-.13A2.26,2.26,0,0,0,129.15,31.07Z"/><path class="cls-9" d="M130.34,31.32a.34.34,0,0,0-.17-.29l-.11.13c.1.06.11.12.11.16a2.45,2.45,0,0,1,0,.27h.16A1.67,1.67,0,0,0,130.34,31.32Z"/><path class="cls-20" d="M130.15,31.59a1.44,1.44,0,0,1-.13.4l.13.11a1.22,1.22,0,0,0,.16-.51Z"/><path class="cls-7" d="M130,32.07l.05.16a.29.29,0,0,0,.15-.14L130,32S130,32.07,130,32.07Z"/><path class="cls-13" d="M129.91,32.08a.23.23,0,0,1-.11,0l-.07.15a.37.37,0,0,0,.18,0l.1,0-.06-.16Z"/><path class="cls-20" d="M129.55,31.83a.65.65,0,0,0-.43-.18v.17a.49.49,0,0,1,.3.12,1,1,0,0,0,.32.27l.06-.16A.76.76,0,0,1,129.55,31.83Z"/><path class="cls-13" d="M128.71,31.66l0,.17a3.12,3.12,0,0,1,.44,0v-.17C129,31.64,128.72,31.66,128.71,31.66Z"/><path class="cls-20" d="M128.59,31.66h-.05l0,.17h.16l0-.17Z"/><path class="cls-7" d="M128.46,31.61l-.1.13a.44.44,0,0,0,.16.09l0-.17A.25.25,0,0,1,128.46,31.61Z"/><path class="cls-9" d="M128.4,31.54a.19.19,0,0,1,0-.1l-.15-.07a.31.31,0,0,0-.06.2c0,.05.06.12.13.18l.1-.14Z"/><path class="cls-36" d="M125.66,30.72a.34.34,0,0,0-.09.17l.17,0s0-.07,0-.08a.92.92,0,0,1,.92,0l.06-.16A1.05,1.05,0,0,0,125.66,30.72Z"/><path class="cls-9" d="M126.75,30.71l0,.17.1.06a.22.22,0,0,1,0,.22l.17,0a.37.37,0,0,0-.07-.38A.83.83,0,0,0,126.75,30.71Z"/><path class="cls-13" d="M126.75,31.3a1.15,1.15,0,0,1-.64,0l0,.16a1.14,1.14,0,0,0,.79,0,.43.43,0,0,0,.14-.24l-.17,0A.29.29,0,0,1,126.75,31.3Z"/><path class="cls-7" d="M125.77,31.11l-.15.08a.93.93,0,0,0,.45.27l0-.16A1.08,1.08,0,0,1,125.77,31.11Z"/><path class="cls-9" d="M125.76,31.09a.25.25,0,0,1,0-.17l-.16,0a.4.4,0,0,0,0,.3h0l.15-.08Z"/><path class="cls-36" d="M124.87,27.1a6.77,6.77,0,0,0-2,1.37l.14.1a7.5,7.5,0,0,1,1.87-1.3,6.94,6.94,0,0,0,1.62.31l0-.17A6.1,6.1,0,0,1,124.87,27.1Z"/><path class="cls-9" d="M126.52,27.41l0,.17a.36.36,0,0,1,.39.24l.16-.05A.5.5,0,0,0,126.52,27.41Z"/><path class="cls-7" d="M126.87,27.82a.7.7,0,0,1,0,.38l.16.05a.91.91,0,0,0,0-.49Z"/><path class="cls-13" d="M126.87,28.2a.42.42,0,0,1-.06.15.41.41,0,0,1-.37.14c-.29,0-.69-.12-1-.12a.9.9,0,0,0-.37.07l.08.15a.63.63,0,0,1,.29-.05c.32,0,.71.12,1,.12a.58.58,0,0,0,.5-.21.69.69,0,0,0,.1-.21Z"/><path class="cls-20" d="M124.3,29.4l0,0,.13.13,0,0c.09-.07.5-.82.72-.94l-.09-.15C124.78,28.58,124.42,29.26,124.3,29.4Z"/><path class="cls-36" d="M123.32,24.89h-.07c-.18,0-.62.06-1,.11l-.57.08.14.15.46-.07c.38-.05.79-.1,1-.1h0Z"/><path class="cls-9" d="M123.31,24.89l0,.17a2.4,2.4,0,0,1,.39.42l.13-.11A2.33,2.33,0,0,0,123.31,24.89Z"/><path class="cls-64" d="M123.92,25.87s0,.1,0,.12l.17.05c0-.06,0-.13,0-.2a2.06,2.06,0,0,0-.32-.48l-.12.12A2.32,2.32,0,0,1,123.92,25.87Z"/><path class="cls-20" d="M124.1,26l-.17,0c0,.05,0,.07-.08.12a13.93,13.93,0,0,0-1.67,1.28l-.65.59v0l-.13.31a4.91,4.91,0,0,0,.9-.75,15.88,15.88,0,0,1,1.64-1.26A.33.33,0,0,0,124.1,26Z"/><path class="cls-26" d="M121.5,26.57a8,8,0,0,0-.12,1.69h0l.13-.3c0-.3.08-.87.16-1.51Z"/><path class="cls-9" d="M121.85,25.23h0l-.15-.15s-.11.73-.2,1.49l.19-.12C121.73,26.06,121.79,25.64,121.85,25.23Z"/><path class="cls-36" d="M119.55,24.47a1.12,1.12,0,0,0-.75.18l.14.09a1.44,1.44,0,0,1,.61-.1,2.38,2.38,0,0,1,.39,0l.07-.15A1.62,1.62,0,0,0,119.55,24.47Z"/><path class="cls-9" d="M120,24.51l-.07.16a.52.52,0,0,1,.26.18l.17-.06A.78.78,0,0,0,120,24.51Z"/><path class="cls-63" d="M120.19,24.84c-.06.47-.14,1.07-.22,1.6l.16.09c.12-.82.24-1.74.24-1.74Z"/><path class="cls-20" d="M120,26.44a9.75,9.75,0,0,1-.22,1.23l.15.08a7.7,7.7,0,0,0,.23-1.23Z"/><path class="cls-63" d="M119.61,27.77v.17a.34.34,0,0,0,.29-.2l-.15-.07A.17.17,0,0,1,119.61,27.77Z"/><path class="cls-20" d="M119.57,27.76l-.23-.15-.08.14.21.14a.19.19,0,0,0,.14.05v-.17Z"/><path class="cls-63" d="M117.12,26.45h0l-.13.12.09.05a23.6,23.6,0,0,1,2.21,1.15l.08-.15A22.89,22.89,0,0,0,117.12,26.45Z"/><path class="cls-9" d="M116.91,26.05a.31.31,0,0,1,0-.1l-.13-.11a.52.52,0,0,0,.14.72l.12-.12A.37.37,0,0,1,116.91,26.05Z"/><path class="cls-36" d="M117.85,25.75c-.33,0-.56-.06-.68-.06a.41.41,0,0,0-.34.15L117,26a.26.26,0,0,1,.21-.09,6.54,6.54,0,0,0,.68.06,1,1,0,0,0,.52-.1l-.08-.14A1,1,0,0,1,117.85,25.75Z"/><path class="cls-9" d="M118.28,25.68l.09.14a2.61,2.61,0,0,0,.58-1.08l-.15-.09A2.52,2.52,0,0,1,118.28,25.68Z"/><path class="cls-36" d="M116.42,27.67a1.46,1.46,0,0,0-.59-.17.25.25,0,0,0-.15,0l.06.16s0,0,.09,0a1.24,1.24,0,0,1,.51.15,13.12,13.12,0,0,1,1.21.71l.11-.13C117.19,28.09,116.51,27.71,116.42,27.67Z"/><path class="cls-9" d="M117.65,28.39l-.1.14a1.8,1.8,0,0,1,.39.3.37.37,0,0,1,0,.31l.15.09a.58.58,0,0,0,0-.5A2.51,2.51,0,0,0,117.65,28.39Z"/><path class="cls-20" d="M117.94,29.14s-.07.18-.19.18a6.21,6.21,0,0,1-.85-.18,1.29,1.29,0,0,0-.55,0v.18a1,1,0,0,1,.51,0,6.45,6.45,0,0,0,.89.19.38.38,0,0,0,.34-.27Z"/><path class="cls-13" d="M115.37,29.54l0,.18a4.32,4.32,0,0,1,1-.42v-.17A3.84,3.84,0,0,0,115.37,29.54Z"/><path class="cls-13" d="M114.59,29.82l0,.17a3.36,3.36,0,0,0,.79-.27l0-.18A2.76,2.76,0,0,1,114.59,29.82Z"/><path class="cls-63" d="M114.59,29.82a.52.52,0,0,1-.22,0l-.06.16a.71.71,0,0,0,.31,0Z"/><path class="cls-13" d="M113.12,29.14l-.14.09a1.87,1.87,0,0,0,1,.65l.06-.16A1.74,1.74,0,0,1,113.12,29.14Z"/><path class="cls-63" d="M113.11,28.74l-.15-.09a.63.63,0,0,0,0,.59l.14-.1A.43.43,0,0,1,113.11,28.74Z"/><path class="cls-36" d="M114.83,28.36a1.92,1.92,0,0,1-.88-.24.47.47,0,0,0-.25-.07.92.92,0,0,0-.74.61l.15.08a.75.75,0,0,1,.59-.52.35.35,0,0,1,.17,0,2,2,0,0,0,1,.27.77.77,0,0,0,.39-.09l-.08-.15A.51.51,0,0,1,114.83,28.36Z"/><path class="cls-9" d="M115.14,28.3l.08.14c.22-.13.42-.67.52-.75l0-.17C115.5,27.59,115.37,28.13,115.14,28.3Z"/><path d="M13,21.53H.64v-.3a2.94,2.94,0,0,0,1.75-.73,4.71,4.71,0,0,0,.36-2.09c0-.74,0-2.66,0-4.1V10.48c0-.46,0-.94,0-1.34a1.73,1.73,0,0,0-.24-.89A2.62,2.62,0,0,0,.78,7.51V7.22h6.4v.29c-.75.1-2,.32-2.08,1.69C5,11,5,12.11,5,14.06c0,1.79,0,2.74,0,4.53a11.64,11.64,0,0,0,0,1.21,1.86,1.86,0,0,0,.21.82,4.3,4.3,0,0,0,2.37.51,10.4,10.4,0,0,0,2.47-.29c2.06-.58,2.64-1.93,3.32-3.54l.28.08Z"/><path d="M19,21.59c-2.72,0-4.49-2.28-4.49-5.05a4.45,4.45,0,0,1,4.21-4.61c2.09,0,3.7,1.05,3.86,3.34h-6.3c0,.2,0,.46,0,.73,0,2.21,1.21,4.14,3.6,4.14a2.75,2.75,0,0,0,2.66-1.75l.24.06A3.94,3.94,0,0,1,19,21.59Zm-.26-9.22c-1.39,0-2.3,1.83-2.42,2.52,1.13,0,1.81,0,3,0a2.72,2.72,0,0,0,1-.1.87.87,0,0,0,.24-.67A1.69,1.69,0,0,0,18.7,12.37Z"/><path d="M28.26,21.53v-.3c.54,0,.94,0,.94-.35a27.81,27.81,0,0,0-2.35-3.62c-.24-.32-.36-.4-.54-.4a.55.55,0,0,0-.26,0v3.84c0,.37.38.41.66.45l.44,0v.3h-4v-.3c.68-.06,1.17-.14,1.17-.57V9.5c0-.18,0-.28-.16-.4a3.43,3.43,0,0,0-.39-.25c-.18-.1-.38-.18-.58-.28v-.2l2.66-1.21h.22v9.38c1.55-1.29,3.7-3.36,3.7-3.68s-.91-.45-1.59-.47v-.3h4.93v.3a9.28,9.28,0,0,0-1.15.17,4.23,4.23,0,0,0-1.77.84c-.82.7-1.67,1.49-2.37,2.13,1.14,1.75,2.23,3.36,3,4.35a5,5,0,0,0,1.13,1.23,5.35,5.35,0,0,0,1.23.12v.3Z"/><path d="M36.6,21.61a7.34,7.34,0,0,1-3.08-.67V18.27h.24c.44,1.29,1.15,3,2.84,3a1.86,1.86,0,0,0,2-2.14,1.54,1.54,0,0,0-1.39-1.51,15.59,15.59,0,0,1-1.91-.48,2.51,2.51,0,0,1-1.69-2.45c0-1.65,1.47-2.72,3.2-2.72a7,7,0,0,1,2.69.52L39.76,15l-.24.06c-.73-1.63-1.43-2.72-2.86-2.72a1.69,1.69,0,0,0-1.73,1.77c0,.93.6,1.27,1.41,1.47.58.14,1.34.3,1.83.41a2.72,2.72,0,0,1,2.15,2.65C40.32,20.7,38.53,21.61,36.6,21.61Z"/><path d="M47.89,21.59a1.66,1.66,0,0,1-1.77-1.77,3.51,3.51,0,0,1-2.82,1.73,1.8,1.8,0,0,1-1.87-1.91,2.81,2.81,0,0,1,1.55-2c1.71-1.1,2.59-1.48,3.14-1.81v-2c0-.08-.25-.88-1.47-.88-.83,0-1.63.68-1.63,1v.89c0,.4-.51.76-1,.76a.83.83,0,0,1-.82-.8c0-.65.7-1,1.2-1.31a10,10,0,0,1,3.61-1.49,2,2,0,0,1,1.65,1,3.73,3.73,0,0,1,.12,1.18c0,1.86,0,2.92,0,4.71,0,1.15.48,1.41,1,1.41a.81.81,0,0,0,.93-.68h.2A2.1,2.1,0,0,1,47.89,21.59Zm-1.77-5.37c-.21.16-.51.32-.81.5s-.7.4-1,.62c-.67.45-1.19,1-1.19,1.61a1.25,1.25,0,0,0,1.23,1.29,2.1,2.1,0,0,0,1.6-.56.74.74,0,0,0,.21-.51Z"/><path d="M55.71,21.53v-.32c.77,0,1.17-.12,1.17-.47v-5c0-1.52-.54-2.49-1.85-2.49a2.63,2.63,0,0,0-2,1.05v6.45c.08.35.34.37.64.41l.42,0v.3H50.2v-.3c.68-.06,1.09-.21,1.09-.57V13.88c0-.2,0-.26-.16-.36s-.57-.3-.91-.46v-.2l2.63-.93H53V14a4.29,4.29,0,0,1,3.19-2.09c1.55,0,2.42,1.29,2.42,3.08V20.8c0,.16.14.26.38.33a5.45,5.45,0,0,0,.81.12v.28Z"/><path d="M67.52,21.63h-.16V19.72a3.51,3.51,0,0,1-3.26,1.87c-2,0-3.83-1.69-3.83-4.77a4.83,4.83,0,0,1,5.07-4.93,6.55,6.55,0,0,1,2,.32c0-.84,0-2.83,0-3.42l-1.64-.62V8l3.19-.87h.21V19.94c.22.12.9.4,1.4.6v.22Zm-.18-7.49A3.07,3.07,0,0,0,65,12.37c-2,0-2.85,2-2.85,4.19s1.06,4.16,3.07,4.16a2.19,2.19,0,0,0,2.08-1.91Z"/><path d="M74.46,21.61a7.37,7.37,0,0,1-3.08-.67V18.27h.24c.44,1.29,1.15,3,2.84,3,1.24,0,2-.67,2-2.14a1.54,1.54,0,0,0-1.39-1.51,15.59,15.59,0,0,1-1.91-.48,2.53,2.53,0,0,1-1.69-2.45c0-1.65,1.47-2.72,3.2-2.72a7,7,0,0,1,2.69.52L77.62,15l-.23.06c-.74-1.63-1.44-2.72-2.87-2.72a1.69,1.69,0,0,0-1.73,1.77c0,.93.6,1.27,1.41,1.47.58.14,1.34.3,1.83.41a2.72,2.72,0,0,1,2.15,2.65C78.18,20.7,76.39,21.61,74.46,21.61Z"/><path d="M5.54,43A7.47,7.47,0,0,1,2,42.2l-.18-.1-.08,0c-.08,0-.35.39-.57.69H1l-.06-4h.28A6.23,6.23,0,0,0,3.59,42a4.69,4.69,0,0,0,1.93.51c1.91,0,3.22-1.13,3.22-2.9,0-1.45-1-2.09-2.22-2.56s-1.73-.58-2.91-1A4,4,0,0,1,1,32.41c0-2.86,2.26-4.17,4.77-4.17a6,6,0,0,1,3.18.81l.16.1,0,0c.08,0,.38-.4.58-.71H10v3.75H9.7c-.66-1.79-1.95-3.58-4-3.58a2.65,2.65,0,0,0-2.9,2.73c0,1.35.91,2.15,2.22,2.64,1.08.4,1.81.62,2.83,1a3.88,3.88,0,0,1,2.84,3.82C10.73,41.4,8.54,43,5.54,43Z"/><path d="M16,42.71a8,8,0,0,1-1.37-.12c0,.88,0,3.07,0,4,0,.2.3.3.61.36s.72.06,1,.1v.32h-5v-.32c.63-.06,1.61-.2,1.61-.62v-11c0-.2,0-.28-.18-.38s-.88-.42-1.21-.58v-.2l2.92-1.15h.18v2.19c.71-1,1.79-2.19,3.28-2.19,2.5,0,3.66,2.25,3.66,4.35C21.56,40.51,19.43,42.71,16,42.71Zm.79-8.15A2.26,2.26,0,0,0,14.64,36c0,.52,0,1.18,0,1.61,0,1.1,0,1.55,0,2.17.08,1.13.43,2.45,2.14,2.45,1.48,0,2.91-1.71,2.91-4.14C19.69,36.13,18.75,34.56,16.78,34.56Z"/><path d="M29.14,42.83a1.65,1.65,0,0,1-1.77-1.77,3.51,3.51,0,0,1-2.82,1.73,1.8,1.8,0,0,1-1.87-1.91,2.81,2.81,0,0,1,1.55-2c1.71-1.1,2.59-1.48,3.14-1.81V35c0-.08-.25-.88-1.47-.88-.83,0-1.63.68-1.63,1V36c0,.4-.51.76-.95.76a.83.83,0,0,1-.82-.8c0-.65.7-1,1.2-1.31a10.11,10.11,0,0,1,3.62-1.49,2,2,0,0,1,1.65.95,3.78,3.78,0,0,1,.11,1.18c0,1.87,0,2.92,0,4.71,0,1.15.47,1.41.95,1.41a.81.81,0,0,0,.93-.68h.2A2.1,2.1,0,0,1,29.14,42.83Zm-1.77-5.37c-.21.16-.51.32-.81.5s-.7.4-1,.62c-.68.45-1.2,1-1.2,1.61a1.26,1.26,0,0,0,1.24,1.29,2.09,2.09,0,0,0,1.59-.56.66.66,0,0,0,.21-.51Z"/><path d="M37.29,35.32a1.13,1.13,0,0,1-.86-.38.94.94,0,0,0-.69-.34c-.6,0-1.16.94-1.46,1.75V42c.08.22.34.32.66.38s.72.06,1,.09v.3h-4.5v-.3c.66,0,1.09-.21,1.09-.57V35.24c0-.2,0-.26-.17-.36s-.56-.34-.9-.5v-.2l2.61-1h.17l0,2.62A6.83,6.83,0,0,1,35,34.32,2.41,2.41,0,0,1,37,33.17a1.15,1.15,0,0,1,1.23,1.09A1,1,0,0,1,37.29,35.32Z"/><path d="M43.58,42.83A5.59,5.59,0,0,1,40,41.64H39.9l-.47,1.07h-.22V30.39c-.24-.16-.68-.4-1.14-.64v-.2l2.69-1.21H41l-.06,7a4.19,4.19,0,0,1,3.44-2.17c2.48,0,3.9,2.31,3.9,4.81A4.72,4.72,0,0,1,43.58,42.83Zm-.32-8.35A2.29,2.29,0,0,0,41,36c0,.32,0,1,0,1.39,0,.52,0,1.06,0,1.56.06,1.75.75,3.5,2.68,3.5,1.61,0,2.71-1.75,2.71-4.2C46.35,36.25,45.39,34.48,43.26,34.48Z"/><path d="M55.83,42.83a1.65,1.65,0,0,1-1.77-1.77,3.51,3.51,0,0,1-2.82,1.73,1.79,1.79,0,0,1-1.87-1.91,2.81,2.81,0,0,1,1.55-2c1.71-1.1,2.59-1.48,3.14-1.81V35c0-.08-.26-.88-1.47-.88-.83,0-1.63.68-1.63,1V36c0,.4-.52.76-1,.76a.83.83,0,0,1-.82-.8c0-.65.7-1,1.19-1.31A10.25,10.25,0,0,1,54,33.17a2,2,0,0,1,1.65.95,3.73,3.73,0,0,1,.12,1.18c0,1.87,0,2.92,0,4.71,0,1.15.48,1.41,1,1.41a.82.82,0,0,0,.93-.68h.2A2.1,2.1,0,0,1,55.83,42.83Zm-1.77-5.37c-.22.16-.51.32-.81.5s-.7.4-1,.62c-.67.45-1.19,1-1.19,1.61a1.25,1.25,0,0,0,1.23,1.29,2.06,2.06,0,0,0,1.59-.56.68.68,0,0,0,.22-.51Z"/><path d="M63.65,42.77v-.32c.77,0,1.17-.11,1.17-.47V37c0-1.51-.54-2.49-1.85-2.49a2.63,2.63,0,0,0-2,1V42c.08.36.34.38.64.42l.42,0v.3h-3.9v-.3c.68,0,1.09-.21,1.09-.57V35.12c0-.2,0-.26-.16-.36s-.57-.3-.91-.46v-.2l2.62-.93H61v2.09a4.29,4.29,0,0,1,3.19-2.09c1.55,0,2.42,1.29,2.42,3.08V42c0,.16.14.26.38.34a7.17,7.17,0,0,0,.81.11v.28Z"/><path d="M73.73,42.77v-.3c.54,0,.94,0,.94-.35a26.76,26.76,0,0,0-2.35-3.62c-.24-.32-.36-.4-.54-.4a.53.53,0,0,0-.25,0V42c0,.38.37.42.65.46l.44,0v.3h-4v-.3c.68,0,1.18-.13,1.18-.57V30.74c0-.18,0-.28-.16-.39a3.52,3.52,0,0,0-.4-.26c-.18-.1-.38-.18-.58-.28v-.2l2.67-1.21h.22v9.38c1.55-1.29,3.69-3.36,3.69-3.68s-.91-.45-1.59-.47v-.3h4.93v.3a8.41,8.41,0,0,0-1.15.18,4.14,4.14,0,0,0-1.77.83c-.81.7-1.67,1.49-2.36,2.13,1.13,1.75,2.22,3.36,3,4.35a5.53,5.53,0,0,0,1.13,1.24,5.5,5.5,0,0,0,1.23.11v.3Z"/>
<polygon points="87.95 54 87.64 54 87.64 0 87.95 0 87.95 26.92 87.95 54"/>
</svg>