<svg xmlns="http://www.w3.org/2000/svg" viewBox="0 0 105 50" width="100%" height="100%">
    <path d="M52.09 27.953h-4.987v8.517c-.976-1.024-2.114-1.752-4.012-1.752-3.93 0-6.341 3.234-6.341 7.385 0 5.068 3.577 7.628 8.753 7.628h6.586V27.953Zm-39.217 9.541c1.084-.917 1.708-2.588 1.708-4.124 0-3.126-2.521-5.417-6.505-5.417H0V49.73h7.398c5.393 0 8.754-1.995 8.754-6.55 0-2.372-.921-4.528-3.28-5.687m-3.061-3.369c0 .916-.542 2.049-1.925 2.049h-2.9v-4.016h2.9c1.382 0 1.925 1.132 1.925 1.967Zm-1.545 11.24h-3.28v-5.31h3.28c2.087 0 2.9 1.347 2.9 2.587 0 1.375-.786 2.722-2.9 2.722Zm20.598 4.366h4.986V27.953h-4.987V49.73Zm-9.324 0h4.987V35.12H19.54v14.61Zm2.493-16.846c1.735 0 3.117-1.402 3.144-3.127a3.138 3.138 0 0 0-3.144-3.126 3.137 3.137 0 0 0-3.143 3.126 3.138 3.138 0 0 0 3.143 3.127Zm25.07 11.778c-.515.62-1.654.89-2.385.89-1.897 0-2.98-1.698-2.98-3.477 0-1.914 1.219-3.181 2.98-3.181.786 0 2.005.647 2.385 1.267v4.501Zm23.199 5.068V34.987h-6.586c-5.177 0-8.754 2.56-8.754 7.628 0 4.15 2.412 7.385 6.342 7.385 1.897 0 3.035-.727 4.011-1.751l.813 1.482h4.174Zm-4.987-9.677v4.501c-.38.62-1.6 1.267-2.385 1.267-1.761 0-2.98-1.267-2.98-3.18 0-1.78 1.083-3.478 2.98-3.478.732 0 1.87.27 2.385.89m19.665-24.44c-.298.016-.708.022-1.052.022-.084 0-.534-.03-.689-.03-3.35 0-6.067 2.706-6.065 6.037-.002 3.333 2.716 6.037 6.065 6.035 3.35 0 6.069-2.702 6.069-6.035 0-.157-.008-.56-.008-.668 0-.343 0-.754.016-1.048 0 0 .023-1.344.389-2.535.043-.146.306-1.05.865-1.942.313-.498.83-1.052.945-1.183.132-.113.687-.629 1.191-.939.9-.558 1.807-.82 1.95-.864 1.203-.362 2.553-.387 2.553-.387.296-.016.703-.019 1.048-.019.109 0 .518.01.675.01 3.35 0 6.067-2.699 6.067-6.032S102.282 0 98.933 0c-3.35 0-6.069 2.703-6.069 6.036 0 .153.028.599.028.68 0 .344 0 .755-.019 1.05 0 0-.025 1.339-.392 2.536a8.102 8.102 0 0 1-.869 1.94c-.305.5-.823 1.05-.942 1.187-.133.109-.686.624-1.185.935-.906.558-1.812.818-1.962.862-1.197.366-2.543.387-2.543.387Z"/><path d="M98.933 15.604c-3.351 0-6.069 2.706-6.069 6.038 0 .156.027.597.027.683 0 .341 0 .75-.018 1.046 0 0-.025 1.34-.393 2.533a8.017 8.017 0 0 1-.868 1.942c-.306.5-.823 1.054-.942 1.187-.134.11-.687.628-1.185.939-.906.552-1.813.818-1.962.862-1.197.365-2.543.383-2.543.383-.298.018-.708.02-1.052.02-.08 0-.528-.023-.689-.023-.16 0-.563.012-.672.012-.345 0-.754-.005-1.054-.018 0 0-1.349-.022-2.547-.389-.148-.044-1.057-.304-1.955-.858-.501-.316-1.057-.83-1.19-.943-.112-.131-.63-.684-.94-1.185-.561-.892-.826-1.792-.87-1.938-.367-1.195-.388-2.539-.388-2.539a16.14 16.14 0 0 1-.026-1.045c.004-.108.02-.512.02-.67 0-.156-.016-.56-.02-.668 0-.342.004-.754.026-1.048 0 0 .021-1.344.388-2.535.044-.146.31-1.05.87-1.942.31-.497.828-1.052.94-1.183.133-.113.688-.629 1.19-.938.898-.559 1.807-.82 1.955-.865 1.198-.362 2.547-.387 2.547-.387.3-.016.709-.018 1.054-.018.109 0 .518.01.672.01 3.35 0 6.068-2.699 6.068-6.032C89.306 2.704 86.59 0 83.24 0s-6.067 2.703-6.066 6.036c0 .153.024.599.024.68 0 .344-.004.755-.024 1.05 0 0-.018 1.339-.384 2.536-.045.146-.306 1.043-.867 1.94-.312.5-.833 1.05-.947 1.186-.134.109-.685.625-1.188.935-.9.558-1.806.818-1.952.863-1.198.366-2.549.387-2.549.387-.297.016-.709.022-1.055.022-.076 0-.524-.03-.684-.03-3.35 0-6.07 2.705-6.07 6.037 0 3.333 2.72 6.035 6.07 6.035.154 0 .6-.027.684-.027.347 0 .758 0 1.055.02 0 0 1.35.022 2.55.387.145.043 1.052.306 1.95.865.504.308 1.055.826 1.189.935.113.134.634.684.947 1.186.56.893.822 1.796.867 1.943.366 1.192.384 2.532.384 2.532.02.296.024.708.024 1.052 0 .078-.024.522-.024.677-.002 3.336 2.717 6.038 6.066 6.038 3.35 0 6.068-2.704 6.068-6.038 0-.155-.008-.558-.008-.667 0-.343 0-.753.017-1.046 0 0 .023-1.346.389-2.535.043-.15.306-1.052.865-1.944.313-.5.83-1.052.945-1.18.131-.116.686-.629 1.19-.942.9-.558 1.808-.815 1.95-.862 1.204-.366 2.554-.385 2.554-.385.296-.02.703-.026 1.049-.026.108.002.517.016.675.016 3.349 0 6.067-2.702 6.067-6.034 0-3.333-2.718-6.038-6.067-6.038"/>
</svg>