<svg xmlns="http://www.w3.org/2000/svg" width="100%" height="100%" viewBox="0 0 365 215">
    <path d="M24.45 179.865c4.534-.934 9.867.532 12.267 4.399 6.133 7.067 2.8 17.467 4.134 26.134-4.8-4.8-13.334-.801-19.6-1.601-6.4.667-12 .134-17.6 1.467l-2.4 2.134c.666-9.467-5.867-23.467 5.6-28 3.6-1.067 6.533.933 8.666 3.2l1.067 2.267c1.334-4 2.933-8.934 7.866-10m-9.466 14.265c-1.334-2.133-3.068-3.333-5.601-3.2-1.466.4-2.934.933-4 2.399-1.467 2.934-1.466 6.934-.133 9.868 3.6-.267 7.6 0 10.8-.8.4-3.067.267-5.734-1.066-8.267m18.399-5.865c-2.8-2.533-7.066-2.4-10.133 0-3.466 3.467-3.334 9.734-1.867 14.134 5.333 0 9.067-.267 14.134-.8.4-4.533.666-9.867-2.134-13.334M5.65 164.665l32.667 3.733c1.466-.266 2.666-1.466 3.6-2.4l-1.467 11.467c-.933-1.2-2-2.8-3.733-3.2-10.8-.933-22-2.533-33.467-3.6-1.333 0-1.733 1.467-2.666 2l1.333-11.2c.533 1.333 2.133 3.067 3.733 3.2M21.117 117.065l32.933 10.533c-1.466 2.267-4.133 4-6.4 5.2-11.2 4.667-22.533 8.667-33.6 13.467l24.667 7.867c1.867.133 3.467.133 5.2-.8-.267 3.066-2 6.266-2.667 9.466-.666-1.733-2.666-4.266-4.933-4.8L7.25 149.065c-1.466-.267-2.933.8-4.266 1.6l2.4-8 36.266-14-1.2-.933c-8.266-2.267-16.267-5.067-24.533-7.467-1.6-.267-2.667.933-4 1.333.8-2.8 1.467-6.4 2.8-9.333 1.066 2.267 3.867 4 6.4 4.8M45.517 76.399c-5.2.933-9.734 6.266-11.467 11.2-1.6 4.666-1.6 10.933 1.867 14.799 3.866 4.8 9.6 7.734 15.733 7.067 7.733-1.333 14.533-7.733 16.4-15.333l-.133-.667-10.534-7.067H54.05l4.267-6.533 16.4 11.067c-3.733 10.8-11.467 22.8-23.733 24.933-8.534 1.467-15.867-3.6-20.134-10.4-4.133-6.8-2.8-16.267.8-23.067 2.133-3.733 4.934-7.066 8.133-10 2.134.8 4.134 2.667 5.734 4M75.917 47.065c-4.534.4-9.467 2-12.267 6.534-.933 1.6-1.066 3.733-.533 5.466.533.934 1.2 2 2.267 2.4 10 1.467 26-10.133 30.266 4.933.933 6.667-3.6 13.2-9.333 16.8l-6.8 4c-2.4-1.066-4.667-2.8-6.8-4.266 6.666-1.067 15.466-3.6 17.333-11.734.133-1.333-.133-3.066-1.333-4.133-6.267-4.267-12.4 1.2-18.667 1.467-4.533.533-9.2-.4-11.733-4.267-2.133-3.6-1.467-8.533.666-11.867 3.2-4.4 7.734-8.266 12.934-10.4z"/>
    <path d="m90.05 33.332 23.334 37.067c1.2 5.733-2.8 9.733-6.4 13.2.8-2.934 1.866-6.667.933-10.134-7.067-11.467-14.4-23.2-21.867-34.667-1.466-1.6-3.333-2.666-5.333-3.066 2.4-1.867 6-3.867 9.2-5.6zM123.65 14.265c7.867-1.333 16.534 1.467 21.067 8.667 4.4 6.133 4.933 16.4.667 22.667-3.601 6.4-10.533 10.4-17.467 11.467-7.734.933-14.534-2.267-19.467-7.867-3.467-5.067-5.333-11.467-4-18 2.133-8.8 10.534-15.467 19.2-16.934m1.6 4.667c-5.6.533-11.6 3.6-13.6 9.333-2.8 6.933.4 14.4 5.199 19.467 3.467 3.2 8.134 4.534 12.667 3.867 4.534-.8 9.334-4.134 11.068-8.667 2-3.867 1.066-9.466-.533-13.333-2.134-6.267-8.535-10.267-14.801-10.667M113.25 8.265c1.734 1.067 1.334 3.333.934 4.933-.667 1.6-2.534 2.4-4 2.4-1.734-.133-3.467-1.333-4-3.066-.534-1.6.266-2.934 1.066-4.134 1.467-1.733 4.4-1.6 6-.133M126.717 5.065c.667.8.533 2.533.133 3.467-.666 1.466-2.266 2.266-3.733 2.533-1.6 0-3.067-.667-3.867-2-.533-1.333-.8-2.933-.133-4.267.8-1.2 2-1.866 3.333-2 1.867-.266 3.334.934 4.267 2.267M176.318 5.998c0 2.134.533 4.8.133 6.8-3.733-2.533-8.8-4-13.333-2.133-1.467.8-3.334 2.134-3.6 3.734-.4 1.6.266 3.466 1.733 4.533 7.067 6 25.2 6.533 20 20.267-4.933 9.333-15.867 8.666-24.933 7.733l-.8-.8c-.534-2.267-1.6-4.4-2.134-6.667 4.934 2.8 12.667 4.533 18.267 2.133 1.467-.933 3.333-2.133 3.6-4.133.933-3.067-1.867-5.067-4-6.4-6.667-3.466-17.6-4.267-18.667-14.266-.133-4.4 2.934-7.867 6.934-9.6 5.2-2 10.8-2 16.8-1.2M212.584 7.998l-2.266 6.134c-2.267-3.467-7.067-1.867-10.534-2.667-1.066 10.8-2.133 20.4-2.4 30.934 0 1.733 1.067 3.066 2.134 4.4-3.467.266-7.734-.4-11.2-.667 4.666-4.267 2-10.4 3.466-15.867l1.6-19.2c-4-.666-9.2-1.733-12.666.934.666-2.134 1.733-4.267 2.533-6.534 9.6 1.2 19.733 1.333 29.333 2.533M228.318 11.999c2.8.8 5.466 2.266 8.399 2.8.8 5.066 1.201 11.2 1.467 16.666l2.134 23.467 2.399 3.866-11.733-3.733c1.467-.267 2.8-1.733 2.667-3.467l-.934-11.733c-4.399-2-9.599-3.066-14.399-4.666-2.933 3.6-6.267 6.933-7.867 10.932l1.2 2.534-10.134-3.2c1.334-.933 3.734-1.867 5.2-3.334l22-26.932c.534-1.067-.265-2.267-.399-3.2m-6.801 19.066v.8l10.801 3.2-.8-15.2-.534-.4zM233.251 2.265c.4 1.2.667 3.2-.4 4.133-1.067 1.6-3.2 2.134-5.067 1.6-1.733-.8-2.8-2.533-2.533-4.533.4-1.6 1.733-3.067 3.333-3.467 2.134-.4 3.734.667 4.667 2.267M245.918 6.132c.666 1.066.666 2.933 0 4-1.067 1.066-2.4 2.533-4 2.133-1.734.133-2.934-1.333-3.734-2.667-.4-1.6-.266-3.6 1.334-4.533 2.133-1.333 5.066-1.2 6.4 1.067M279.651 34.132c-2.533 9.733-4.4 19.733-6.8 29.6l.4.267 25.067-16c2.933 1.6 5.333 4 8.133 5.866-.4.667-1.6-.133-2.133.533l-1.867 2.134-15.6 28.933.133 3.867c-3.066-2.267-6.533-4.4-9.333-6.667 2.133 0 4-1.067 5.067-2.933 4.533-8.267 9.333-16.267 13.733-24.667h-.8c-10 7.067-20.4 12.8-30.533 19.2v-3.067c2.4-11.066 4.666-22.533 6.933-33.6l-20.533 22c-.667 1.2-.4 2.8 0 4.134-2.8-1.334-5.2-4.133-8-5.733l4.933-2.534c7.867-7.867 15.2-16.266 22.667-23.733.8-1.067 0-2.533 0-3.467zM323.118 71.998c2.266 2.533 3.866 5.867 5.732 8.667-5.733 8.267-10.932 16.8-16.399 25.2 9.6-1.466 19.2-4.134 28.933-5.867 2 2.667 3.6 5.733 5.466 8.533-1.466-.533-2.666-.533-3.866.267l-25.333 22.4c-.8 1.067-.934 2.4-1.2 3.6l2.667 1.467c12.133 1.733 23.466 3.466 35.466 4.533l2.4-2.133c.933 2.933 1.333 6.133 2.267 9.066l-32.267 23.868c-.933 1.466-2.666 4.132.4 4.666 11.734 1.2 20.267 1.333 32.4 1.733 1.867-.133 3.467-1.466 4.667-3.066-.267 2.933 0 5.733-.533 8.799l-31.867 22.667.533.4c8.266.267 17.2.801 25.6.801 2 .133 3.467-1.2 4.8-2.534-.4 2.8.134 6.8-.533 9.867-2-2.667-5.333-2.8-8-3.067-11.733-.133-22.4-.8-33.734-1.2 1.2-2.667 2.667-5.333 4.934-7.066 9.6-6.8 19.466-14.001 29.199-20.934-.8-.933-2.533-.4-3.599-.533-6.667-.267-15.867-.8-23.6-.8l-3.733 2.133.266-11.467c-.666-2.8-1.734-5.6-2.133-8.533.666.8 2.266 2.266 3.466 1.066l10.267-7.333c-1.067-4.933-2.4-9.6-3.733-14.4-4.134-.4-9.6-2.133-13.867-.8l-1.2 2.267c-1.6-6.667-2.8-13.466-6.933-18.933 2.266 1.067 4.533-.134 6.533-1.601 6.533-6.4 14.533-11.599 20.4-17.866l-2.667.133a1987 1987 0 0 1-32.666 7.067c0-2.133 1.333-3.867 2.4-5.6 5.733-8.533 11.067-17.2 16.666-25.866-9.066 3.466-17.999 8.399-26.799 12.666-1.334.933-1.067 2.667-1.467 3.867l-5.601-8.267c3.734.8 7.201-1.333 10.534-2.667l23.466-11.2c1.467-.667 2.535-2.267 2.268-4m13.733 71.465c.534 3.6 1.6 7.6 2.8 10.933 4.267-3.466 8.533-5.6 12.8-9.2-4.933-.4-10.4-1.2-15.6-1.733"/>
    <path fill="#9d2636" d="M207.651 74.398c3.333 7.334 0 15.467-2.133 22.667.266 1.733.133 2.667-.8 4.133-1.867-.4-3.734.267-4.934 1.867-3.333 3.867-3.866 9.467-2.533 14.4.8 1.2 1.467 3.067 3.2 3.2h1.733c-1.733 8.133 5.734 17.067-1.466 24.133-3.6 4.4-8.8 5.334-13.867 6.667l-1.333 22.133.4.4c4-6.133 7.066-13.066 10.8-19.333-.667-1.067-2.4-1.733-3.067-2.8 5.2-1.067 9.333-5.467 11.867-10 3.466-7.733-3.2-14.4-.4-22.133 3.866-3.6 6.4-9.067 4.533-14.534-.4-1.6-1.733-2.933-3.2-3.6.133-1.466 1.733-1.466 2.133-2.8 2.267-7.6 1.734-17.066 9.867-21.333 12-5.867 24.8-.267 33.867 7.6 5.733 5.467 10 13.733 7.466 21.867-2 6.8-9.733 9.466-12.933 15.466.4 1.2-.933 1.2-1.333 2-1.467-1.2-3.6-1.866-5.467-1.333-5.2 1.6-8.667 7.2-10.133 12-2 4.133-7.867 3.067-11.6 4.8-6.534 2.667-12 9.467-11.6 16.8l.4 3.2c-.8-.533-1.734-1.2-2.8-1.2-4.267 6.4-8.534 12.8-12.534 19.333h.8c6.134-3.866 12.534-8.133 18.934-11.866-2.667-5.2-2.934-12.534.266-17.467 3.467-6 10.134-6.933 16.134-8.133 1.733 0 2-2.667 3.866-2.4 0 1.333 1.2 2.4 2.4 2.533 5.467-.133 10.267-3.467 12.667-8.267.8-2 1.067-4.666-.133-6.533.8-1.067 2.933-1.2 4.133-2.4 4.933-5.867 10.4-13.467 18.8-12.667 12.267.934 21.6 12.667 25.067 23.467 1.866 7.067 1.6 15.333-2.934 20.933-4.933 5.067-12 5.867-18.533 7.067-1.867.533-2.933 2.667-4.8 2.267-.8-2.8-2.533-2.8-4.8-3.867-5.733 0-11.2 1.733-14.267 6.8-1.066 1.333.667 3.067.667 4.267-8 2.533-12.8 14-22.8 10.133-4.4-1.467-8.133-4.4-11.2-8.4-7.333 3.067-14.267 6.933-21.333 10.533 7.6.267 15.866-.4 23.466-.533l.8-3.067c5.067 4 12.267 5.867 18.267 3.334 6.267-2.8 11.2-12.8 19.467-9.6 4.8.4 8.933-1.467 11.733-5.067l.267-2.933c9.466.666 18.266-8 27.333-1.867 9.6 6.133 12 17.867 11.067 28.933-1.067 7.6-5.067 15.067-12 19.2-7.067 2.667-14.534.134-21.067-2.4-1.733 0-2.933-.4-4 .934-2.133-.267-.667-2.8-1.333-4-1.734-3.6-5.6-5.467-9.467-5.6-3.2-.8-6.4 0-8.933 1.733-.8 1.067-1.067 2.533-.934 3.733-8.266-2-16.4 5.734-23.733-1.2-4.533-3.066-5.6-8.533-6.8-13.6-5.467-.8-11.6-.266-17.467-.933-18.133-1.467-36.8.667-55.2.933-.8 6.8-5.466 14.4-12.533 16.267-6.267 2.267-12.134-3.733-18.401-1.6-.533 0-.666-.533-1.066-.8.666-.8.133-1.867-.134-2.667-2.666-2.666-7.333-2.133-10.533-1.866-3.2 1.066-7.067 2.666-7.733 6.4.133.8.666 1.866-.534 2.266-5.6-2.533-10.666 2.267-16.266 2.667-6.134 1.6-11.334-1.467-15.334-5.467-7.466-9.466-8.533-23.066-3.867-34.133 2.534-5.333 7.6-11.067 13.867-11.6 7.6-1.067 13.334 3.867 20 3.333.8-.4 1.467.267 2.133.534-.8 2.133.667 3.733 1.734 5.333 4.4 3.333 10.667 4.4 15.867 2 4.266.4 5.333 4.933 8.666 6.933 4 3.467 8.8 5.867 14.534 4.8 2.934-.933 6-1.6 8.667-3.333l.4 2.533c7.333.8 14.267.267 21.6 1.067l.533-.267c-6.266-3.866-12.8-6.8-19.066-10.4-3.6 4.534-8.4 7.6-14 8.134-7.201.8-12.668-5.067-16.801-10.267-.933-1.333-3.333-.4-3.733-2 1.333-1.067 1.466-3.067.533-4.4-3.733-4-8.8-6.667-14.133-5.6-2.267 0-3.2 2.267-4.267 3.733-1.067.4-.8-.8-1.333-1.333-5.6-3.867-13.334-2.533-18.667-6.667-5.733-5.066-7.867-12.8-6.133-20 2-12 11.333-24.133 23.866-26.4 8.934-1.466 15.6 6.134 20.8 12.667 1.067 1.867 3.467.667 4.267 2.933-1.867.934-1.067 3.467-1.2 5.067 1.2 4.533 5.6 8.267 9.733 10.133 1.734.4 4.267.934 5.6-.8 1.334-4.4 3.068 1.6 5.201 1.2 6 2.134 14 3.6 15.867 10.8 1.866 5.067.133 10.534-1.467 15.067 3.067 2.933 7.2 4.267 10.667 7.067l9.333 6.133c-3.2-6.8-8.133-13.333-12-20-.8-.133-1.867.4-2.667.933-.666-1.733 0-4-.133-6.266-1.6-10.534-12.267-13.6-20.4-17.067-1.867-1.467-3.067-3.467-3.2-5.867-1.867-4-5.867-8.533-10.801-8.533-1.466-.267-3.066 1.733-4 .133-1.2-5.466-7.2-7.066-10.266-11.6-4.134-4.4-5.067-11.066-2.934-16.8 4.8-11.066 15.867-18.133 27.601-19.733 6.4-.4 13.867.933 17.867 6.667 4.533 5.333 2.533 13.466 6.933 18.666.8 2.667-3.333 3.067-3.333 5.6-.8 6 1.333 11.067 5.6 15.2 1.333 6.667-4.534 11.734-2 18.667 1.466 5.467 5.733 10.933 11.2 13.2l-2.267 2.267c3.467 6.4 6.667 12.8 10.133 19.066h.267c.133-7.6 0-15.2-.4-22.4-5.733-.8-11.333-3.6-14.533-8.666-4.134-5.334-1.334-13.334.533-19.067.8-1.6-1.6-3.333.267-4.4 1.2.667 2 0 2.933-.667 2.667-4.533 2.267-11.2-.933-15.333-1.467-1.6-3.067-3.467-5.467-2.4-.667-1.467 0-2.667 0-4-2-7.867-7.2-17.6-1.067-25.067 7.2-8.933 19.2-10.8 30.4-8.933 6.667 1.6 13.6 4.8 17.467 11.333"/>
</svg>