<svg xmlns="http://www.w3.org/2000/svg" width="100%" height="100%" viewBox="0 0 400 245.944">
    <path d="M198.494 77.394c-.045.046-1.057.17-2.247.276-1.19.106-2.839.377-3.664.602-.825.226-2.025.509-2.666.63-4.11.772-11.046 4.754-12.204 7.006-.144.28-.574.884-.955 1.342-1.111 1.336-1.382 1.87-2.606 5.142-1.244 3.325-.339 9.21 2.36 15.358 1.041 2.372 1.502 5.347.982 6.338-.129.246-.117.611.045 1.334l.223.995 1.288-.06c1.204-.055 1.33-.028 1.911.414 1.671 1.271 3.518 3.638 3.819 4.896.055.229.207.627.337.885.579 1.15 1.034 7.389.584 8.014-.073.101-.268.596-.433 1.101-.837 2.543-1.911 3.586-3.312 3.212-1.124-.3-1.969.594-1.4 1.481.888 1.385.599 3.479-1.019 7.39-1.06 2.56-1.276 3.731-1.275 6.917l.001 2.916.618 1.634c.613 1.616 1.07 2.622 1.267 2.783.056.046.244.346.417.667.174.32.483.771.688 1 .204.229.579.735.832 1.125.252.389.508.708.567.708.059 0 .368.238.686.53 2.79 2.554 7.691 4.803 10.469 4.803 1.229 0 1.223-.01 1.283 1.976.137 4.492.27 8.405.324 9.524.056 1.159.128 8.673.099 10.301l-.013.717-.389-.42c-.214-.231-.53-.741-.704-1.134a9.349 9.349 0 0 0-.778-1.364c-.254-.357-.462-.746-.462-.864s-.45-1.024-1-2.013c-.55-.989-1-1.968-1-2.175 0-.208-.343-.912-.762-1.566s-.824-1.348-.9-1.543c-.148-.38-1.232-2.243-1.471-2.526-.169-.201-1.187-2.34-1.624-3.413-.168-.412-.43-.9-.583-1.083-.602-.723-.589-.766.605-1.855 1.393-1.272 1.381-1.32-.625-2.391-1.765-.942-3.339-2.027-3.679-2.533a7.708 7.708 0 0 0-.753-.888c-2.403-2.436-3.383-4.071-4.543-7.583-1.406-4.254-1.191-8.365.662-12.667 1.418-3.292 1.186-6.81-.565-8.552-.582-.58-1.311-1.483-1.619-2.007l-.922-1.572c-.198-.34-.367-.741-.375-.89a.747.747 0 0 0-.246-.464c-.127-.106-.282-.472-.344-.812-.061-.341-.259-1.104-.439-1.696-1.23-4.039-.454-7.709 1.993-9.423l1.19-.834-.098-1c-.081-.823-.182-1.074-.574-1.42-1.285-1.137-1.89-2.684-2.249-5.749-.356-3.048-1.446-7.581-1.903-7.914-.062-.046-.282-.504-.489-1.019-.206-.515-.501-1.112-.656-1.327a13.274 13.274 0 0 1-.698-1.171c-1.042-1.952-1.272-2.283-2.217-3.184-.843-.805-2.75-2.132-3.064-2.132-.049 0-.813-.328-1.696-.728-3.421-1.55-6.25-2.019-10.609-1.76-3.648.217-8.976 1.629-11.935 3.162-.699.363-1.376.659-1.504.659-.129 0-.622.281-1.095.625-.886.643-1.764 1.225-3.261 2.161-.798.5-1.324.932-3.513 2.881-6.347 5.654-9.527 13.239-8.208 19.583.152.733.343 1.677.425 2.097.144.745.27 1.032 1.219 2.792.252.467.458.948.458 1.068 0 .331 1.631 2.294 2.678 3.221.51.452 1.147 1.113 1.416 1.468.269.355.883.939 1.364 1.297.482.358.875.723.875.812 0 .089.121.162.268.162 1.09 0 5.232 4.882 5.232 6.167 0 .792.875 1.495 1.461 1.174 3.537-1.941 9.586.743 11.942 5.297.141.274.315.524.385.555.443.195 1.278 2.362 1.531 3.973.199 1.264 2.273 3.511 4.047 4.386 1.177.58 2.755 1.281 2.884 1.281.058 0 .493.184.969.409.476.225 1.84.754 3.031 1.175 1.192.421 2.56 1.024 3.039 1.341.48.316.937.575 1.014.575.774 0 4.545 3.684 5.545 5.417.212.366.547.891.746 1.166.301.416.915 2.118 1.745 4.834.085.28.102 1.487.037 2.75-.146 2.859-.146 3.618 0 3.764.14.14 2.409-.55 2.548-.775.21-.341.512-.119.865.636.203.435.817 1.413 1.364 2.172.548.76 1.042 1.529 1.099 1.709.057.18.173.327.257.327.084 0 .34.37.569.822.229.451.492.868.586.926.093.058.17.214.17.348 0 .256 1.158 2.114 1.378 2.211.071.031.248.293.395.583.146.29.66 1.127 1.142 1.86 1.356 2.065 2.009 3.108 2.4 3.833a22.615 22.615 0 0 0 1.702 2.731c1.001 1.398.705 1.53-.935.418-.46-.311-.933-.565-1.052-.565s-.502-.23-.852-.511a9.817 9.817 0 0 0-1.147-.791c-.62-.34-2.861-1.865-3.168-2.157-.121-.114-.302-.208-.402-.208-.099 0-.578-.3-1.064-.667-.486-.366-.932-.666-.992-.666-.184 0-1.739-1.049-1.739-1.173 0-.171-1.287-.994-1.555-.994-.373 0-6.278-3.796-6.278-4.036 0-.087.229-.73.508-1.428.918-2.291 1.829-6.753 1.826-8.943-.003-2.998-1.471-7.162-3.201-9.083a2.217 2.217 0 0 1-.3-.417c-.14-.297-2.102-2.093-2.286-2.093-.095 0-.263-.109-.374-.243-.383-.461-2.413-1.457-3.416-1.675-.554-.12-1.795-.49-2.757-.822a82.58 82.58 0 0 0-2.5-.823c-1.894-.555-4.654-2.146-5.522-3.184-.375-.448-1.139-.185-1.457.501-1.348 2.909-5.523 2.517-10.104-.947-.725-.548-2.523-2.234-2.615-2.452-.063-.15-.422-.606-.797-1.014-.376-.409-.726-.915-.779-1.125-.052-.211-.15-.383-.216-.383-.138 0-.741-1.306-1.003-2.176-.33-1.095-.179-4.025.221-4.285.104-.068.366-.324.582-.57l.394-.447-.716-.831c-.509-.591-.881-.863-1.285-.938-1.33-.25-4.212-2.811-5.428-4.825-.464-.767-1.494-2.094-1.626-2.094-.064 0-.667-.568-1.341-1.261-1.175-1.21-3.262-2.907-3.829-3.114-.148-.054-.748-.425-1.333-.825-2.909-1.987-5.6-2.601-9.392-2.143-1.584.192-4.12.861-4.524 1.194-.103.085-.591.273-1.084.418-.493.146-.971.323-1.063.394-.091.072-.729.423-1.416.781-2.053 1.07-3.526 2.129-5.334 3.834-.32.303-1.21 1.132-1.977 1.844-.767.712-1.63 1.632-1.917 2.044-.592.85-.613.884-1.516 2.395-.363.608-.757 1.105-.874 1.105-.248 0-.524.504-2.071 3.782-.355.751-.645 1.521-.645 1.711 0 .19-.074.475-.165.635-.658 1.152-1.832 5.633-2.324 8.872-.41 2.697.007 7.561.805 9.389.193.443.351.877.351.964 0 .407 1.565 3.238 2.282 4.127.441.547 1.202 1.488 1.692 2.092.49.603 1.066 1.14 1.28 1.194.213.054.511.234.662.4.307.339 2.071 1.247 3.834 1.972 1.547.637 5.626 1.659 8.083 2.026 4.317.645 5.985 1.541 6.561 3.523.205.703 1.464.46 1.742-.336.549-1.576 2.319-3.005 3.753-3.029.382-.006.823-.063.981-.126.839-.332 5.743.255 6.142.736a.757.757 0 0 0 .511.235c.174 0 .81.3 1.414.667.603.366 1.137.666 1.187.666.499 0 3.6 3.009 4.047 3.928.587 1.208.281 2.906-.525 2.906-.252 0-.336.707-.14 1.181.202.488.346.555 1.533.714 1.28.171 4.76 3.267 5.313 4.726.188.496 3.991 3.869 4.815 4.27.424.207.953.529 1.191.726 1.781 1.479 7.969 1.873 11.837.754 1.022-.296 4.111-1.753 4.305-2.031.046-.065.721-.551 1.5-1.078 1.392-.942 3-2.36 3-2.645 0-.079.271-.475.602-.879l.602-.735.488.348c.817.582 5.335 2.995 6.251 3.339.473.177.952.433 1.063.567.112.135.888.593 1.724 1.017l2.02 1.027c.275.141.537.303.583.361.121.151 1.999 1.021 2.558 1.185.712.208 4.121 2.374 3.972 2.523-.072.072-1.251.056-2.621-.034-5.048-.332-8.399-.504-11.325-.581-1.65-.044-4.029-.127-5.287-.186-2.529-.118-2.348-.018-2.547-1.403-.217-1.511-.382-1.63-1.302-.929a5.58 5.58 0 0 1-1.198.65c-2.08.769-4.398 1.61-4.833 1.754-3.615 1.196-8.66.766-11.5-.978-.55-.338-1.324-.78-1.72-.982-.396-.201-1.183-.78-1.75-1.286-3.373-3.009-4.822-4.4-6.16-5.909-.809-.914-1.116-1.136-1.917-1.39a49.691 49.691 0 0 1-1.386-.459c-.472-.171-1.205-.052-1.743.282-.518.322-3.521.785-4.391.677a22.14 22.14 0 0 0-1.683-.122c-3.942-.113-8.187-1.929-9.24-3.952a5.176 5.176 0 0 0-.578-.84c-.486-.558-.729-1.586-.646-2.734l.07-.972-.678-.346c-.61-.312-.771-.327-1.605-.155-2.355.486-5.378-.059-8.573-1.546-2.42-1.127-6.096-1.757-10.25-1.757-3.195 0-5.055.6-7.377 2.378a8.721 8.721 0 0 1-1.207.763c-.651.316-2.916 2.46-2.916 2.758 0 .106-.407.64-.904 1.186-3.744 4.111-6.396 14.745-5.528 22.159.22 1.883.316 2.429.79 4.5.694 3.032 2.062 7.137 2.588 7.763.121.145.221.319.221.387 0 .365 2.718 4.16 3.593 5.017 2.092 2.047 5.61 4.111 7.814 4.584.372.079.976.223 1.343.318.843.219 3.69.231 4.906.021.51-.089 1.452-.242 2.094-.34 1.648-.254 3.076-.682 7.5-2.248 3.417-1.21 5.398-1.42 6.465-.686 1.011.694 2.332.188 2.043-.783-.693-2.324.918-4.616 4.454-6.338 5.634-2.744 14.929-.917 13.629 2.679-.304.84.97 2.087 1.407 1.379.591-.955 4.01-.634 6.752.635 2.969 1.374 8.413 1.831 11.688.983 3.497-.907 7.698-4.174 9.263-7.204l1.117-2.167c.973-1.89 1.588-3.811 1.734-5.416l.114-1.25 1.334-.015a67.515 67.515 0 0 0 3-.123c.916-.06 2.529-.148 3.583-.197 1.054-.049 3.342-.166 5.083-.26 1.742-.095 4.741-.207 6.665-.25 4.549-.102 6.266-.173 10.502-.437 2.16-.135 6.435-.208 11.167-.193 7.131.024 9.906.112 17.916.563 1.696.095 4.546.2 6.334.232 7.106.13 7.283.169 7.443 1.62.135 1.237 1.715 6.007 2.147 6.484.134.148.243.332.243.409 0 .266 1.014 2.221 1.257 2.422.133.111.243.284.243.384 0 .193 2.517 2.686 3.185 3.154l1.065.748c2.29 1.609 7.181 2.524 9.268 1.734.219-.083.811-.2 1.315-.261.505-.061 1.629-.289 2.5-.507 4.902-1.226 6.785-1.415 8.407-.845 1.08.379 1.337.119 1.177-1.192-.332-2.729 3.459-4.691 8.41-4.352 1.626.111 2.226.209 4.173.678.671.162 2.877 1.146 3.75 1.673.807.487 1.25.83 1.25.966 0 .081.253.504.563.939.992 1.397 1.104 1.736 1.104 3.355 0 2.125.628 2.659 2.033 1.729.995-.659 3.503-.669 5.133-.021a53.56 53.56 0 0 0 1.834.688c.412.142 1.221.457 1.796.7.576.243 1.626.549 2.334.68a36.36 36.36 0 0 1 1.953.412c2.443.64 7.822.688 9.417.084.412-.156 1.05-.37 1.418-.476.768-.221 2.575-1.339 3.384-2.093.303-.284.605-.516.671-.516.326 0 3.86-3.88 3.86-4.238 0-.049.299-.578.665-1.175 2.859-4.671 4.486-10.692 4.371-16.17-.138-6.587-1.393-12.277-3.512-15.928a45.256 45.256 0 0 1-1.16-2.193c-.828-1.681-5.161-6.129-5.971-6.129-.076 0-.514-.18-.974-.4-4.27-2.046-7.684-2.577-11.002-1.712-2.16.563-5.436 1.578-9.167 2.841-1.987.673-2.016.677-4.549.684-2.682.008-2.987.095-2.771.79.199.64-.247 2.141-.843 2.838-.323.377-.587.766-.587.864 0 .335-2.511 2.13-3.583 2.561-2.427.974-7.83 1.393-9.535.738-2.633-1.011-6.698 1.315-12.622 7.219-1.238 1.235-2.729 2.164-4.26 2.657-.504.162-1.104.391-1.333.508-2.114 1.077-8.257.895-10.608-.314-.472-.242-.908-.441-.97-.441-.321 0-3.714-1.785-4.463-2.348-1.294-.973-1.25-1.015-1.554 1.492l-.109.895-.936-.078c-.515-.043-1.538-.017-2.273.057-.736.074-2.425.176-3.754.226-2.861.107-8.769.407-9.833.499-2.338.203-6.57.282-6.417.12.533-.562 3.352-2.196 3.79-2.196.406 0 5.873-2.74 6.347-3.181.167-.156.655-.413 1.083-.573.429-.159.851-.355.938-.435.087-.079.316-.144.509-.144s.685-.211 1.092-.469c.408-.258 1.29-.748 1.961-1.089.671-.341 1.346-.686 1.5-.767 3.289-1.715 3.73-1.833 4.22-1.134.604.863 2.856 3.284 3.137 3.373.141.045.556.349.923.674.367.326 1.004.83 1.417 1.119.412.29.849.624.97.743 1.662 1.632 8.406 2.948 11.28 2.202.366-.095.996-.252 1.4-.348 1.291-.308 3.209-1.408 4.372-2.509.609-.575 1.869-1.713 2.801-2.53.931-.816 1.836-1.666 2.01-1.887.693-.881 3.616-2.712 4.33-2.712 1.007 0 1.697-.941 1.122-1.529-1.638-1.677-.665-4.484 2.243-6.475 1.227-.84 4.026-2.329 4.378-2.329.15 0 .569-.151.93-.335 1.424-.726 4.812-1.073 6.414-.657.847.221 2.416.986 2.416 1.179 0 .08.108.146.239.146.248 0 1.257 1.368 1.267 1.717.012.468.455.816.803.63.185-.099.708-.18 1.162-.18.742 0 .872-.059 1.284-.575.866-1.086 2.554-1.694 6.495-2.339 2.909-.475 4.379-.791 5.396-1.157.401-.144.871-.262 1.044-.262.173 0 .445-.063.604-.14l1.55-.75c.693-.335 1.309-.61 1.369-.61.06 0 .43-.228.823-.507a104.5 104.5 0 0 1 1.381-.958c1.667-1.13 2.769-2.3 3.399-3.606 2.018-4.188 2.521-5.848 2.845-9.388.224-2.438-.454-7.742-1.323-10.362-.59-1.779-1.004-3.167-1.004-3.365 0-.11-.188-.445-.417-.746-.229-.3-.417-.606-.417-.68 0-.073-.178-.51-.395-.969a71.677 71.677 0 0 1-.792-1.753c-.218-.504-.664-1.216-.991-1.583-.921-1.031-1.488-1.84-1.488-2.121 0-.141-.905-1.183-2.01-2.317-1.105-1.134-2.124-2.249-2.265-2.479-.24-.39-1.172-1.161-1.957-1.618-.19-.11-.422-.3-.515-.42-.404-.522-2.946-2.206-4.837-3.205-2.321-1.225-7.185-2.271-9.333-2.007-5.066.623-7.474 1.695-10.534 4.692-.623.611-1.564 1.53-2.091 2.042-.527.513-.958.978-.958 1.033 0 .055-.225.336-.5.624s-.5.629-.5.76c0 .13-.244.438-.542.684-.298.246-.967.934-1.487 1.529-.52.595-1.27 1.317-1.667 1.604-.396.287-.759.566-.804.619-.178.207-1.318.663-1.659.663-.628 0-1.384.487-1.248.803 1.073 2.499 1.172 3.354.617 5.364-.475 1.724-2.244 4.46-3.571 5.526-.382.307-.972.801-1.312 1.099-.34.298-.735.542-.877.542-.143 0-.361.1-.484.223-2.457 2.458-8.633 2.642-8.633.257 0-1.055-1.213-.892-2.45.33-.611.603-1.24 1.055-1.645 1.181-.36.112-.898.313-1.196.447-.297.134-1.197.324-2 .422-.802.099-1.695.283-1.984.41-.289.126-.673.23-.854.23-.631 0-3.631.972-4.705 1.525-1.586.817-3.49 2.212-3.496 2.562-.002.095-.306.47-.676.834-.826.814-2.443 3.223-2.591 3.86-.06.258-.208.627-.328.82-1.446 2.325-1.269 9.934.315 13.52.599 1.357.584 1.598-.113 1.807-.198.06-1.016.554-1.817 1.098-.802.545-1.702 1.074-2 1.176-.546.188-1.141.554-2.377 1.463-.366.27-.756.493-.866.496-.246.007-1.59.901-1.88 1.251-.116.14-.309.254-.429.254s-.337.119-.482.265c-.146.146-.582.437-.97.647-1.932 1.048-2.442 1.365-3.267 2.032-.492.398-.993.723-1.115.723-.121 0-.463.222-.76.493-.44.402-2.448 1.507-2.738 1.507-.189 0-.028-.355.591-1.307l1.338-2.068c.369-.573.978-1.376 1.354-1.785.376-.409.817-1.056.98-1.437.288-.672 1.378-2.315 1.76-2.653.103-.092.476-.654.827-1.25.352-.596.763-1.233.915-1.417.151-.183.524-.783.828-1.333.304-.55.826-1.412 1.16-1.917 2.719-4.108 2.763-4.162 3.213-3.926.114.06.508.291.875.514 1.747 1.063 1.71 1.104 1.364-1.463-.485-3.604-.159-5.433 1.571-8.8 1.126-2.193 1.13-2.199 3.533-4.844 2.927-3.223 5.162-4.343 10.948-5.49 2.825-.56 3.405-.709 4.196-1.081.428-.202.972-.416 1.208-.475s.43-.186.43-.282c0-.096.177-.414.393-.705.485-.656 1.134-1.953 1.474-2.948.141-.412.39-1.125.553-1.583l.355-1c.032-.092.321-.504.643-.917.321-.412.727-.965.902-1.229.491-.739 3.18-3.604 3.384-3.604.099 0 .433-.192.741-.427 2.338-1.783 6.593-2.008 7.596-.402.385.617 2.125-.448 2.125-1.3 0-.401.751-2.138.966-2.234.066-.03.442-.466.835-.97.394-.505.965-1.104 1.27-1.334.305-.229 1.018-.81 1.584-1.291.566-.482 1.123-.875 1.238-.875.515 0 4.819-4.959 5.445-6.273.213-.446.74-1.448 1.173-2.227 1.329-2.395 1.612-4.64 1.079-8.571-.298-2.202-.667-3.327-1.993-6.068-.237-.489-.43-.978-.43-1.087 0-.184-.393-.818-1.564-2.524-1.679-2.449-6.971-7.586-8.478-8.233-.685-.293-2.636-1.509-3.255-2.028-.118-.099-.568-.331-1-.515-.878-.374-3.132-1.416-3.571-1.65-.156-.083-.606-.2-1-.259-.393-.059-1.353-.32-2.132-.58-6.003-2.004-12.556-1.961-16.965.112-.302.142-.815.351-1.141.463-1.961.679-6.107 4.836-6.92 6.94-.088.229-.341.791-.56 1.25-.772 1.607-2.247 8.195-2.247 10.03 0 1.667-1.5 4.886-2.276 4.886-.237 0-.891 1.16-.891 1.58 0 .142.278.389.619.548.929.434 1.983 1.485 2.27 2.264.819 2.225 1.066 5.391.546 7.025-.146.458-.267 1.021-.27 1.25-.017 1.161-1.856 4.339-3.434 5.931-1.566 1.581-2.061 6.32-1.094 10.486 1.306 5.633 1.452 6.897 1.085 9.405-.276 1.894-.924 4.079-1.349 4.556-.145.162-.494.663-.776 1.114-1.717 2.741-4.097 4.999-6.597 6.258-.504.254-1.096.602-1.314.773-.259.202-.67.31-1.177.31-.89 0-1.449.315-1.291.726.058.151.22.274.36.274.14 0 .255.076.255.17 0 .093.525.552 1.167 1.02.642.468 1.167.918 1.167 1 0 .165-.316.761-.607 1.144-.104.137-.667 1.187-1.25 2.333-.583 1.146-1.107 2.121-1.164 2.167-.191.153-1.813 3.164-1.813 3.365 0 .109-.3.704-.666 1.321-.367.617-.667 1.166-.667 1.221 0 .054-.322.641-.716 1.304-.394.663-.93 1.618-1.191 2.122-.261.504-.568 1.029-.681 1.167a2.275 2.275 0 0 0-.33.666c-.315 1.055-1.461 2.665-1.663 2.337-.118-.191-.035-2.571.248-7.087.086-1.375.197-3.587.246-4.916.05-1.329.202-3.88.338-5.667.136-1.788.267-3.546.29-3.908l.042-.658 1.584-.296c2.982-.56 4.762-1.161 7.583-2.561 4.438-2.202 7.346-6.043 8.009-10.577.366-2.51.288-3.184-.91-7.833a62.306 62.306 0 0 1-.596-2.584c-.15-.733-.344-1.647-.43-2.032-.234-1.044-.19-2.434.117-3.652.336-1.341.258-1.441-1.17-1.487-7.432-.241-4.713-19.337 2.75-19.314 1.089.003 1.106-.003 1.294-.525.105-.29.346-.706.534-.923.248-.286.31-.511.226-.814-.473-1.699-.119-4.215.927-6.586.896-2.034 1.698-4.37 2.058-6 .541-2.449.667-7.886.209-8.982-.138-.331-.219-.601-.18-.601.317 0-1.883-3.901-2.483-4.403-.119-.099-.562-.676-.985-1.282-.824-1.179-2.237-2.483-3.453-3.187-.413-.238-.926-.599-1.141-.802-1.14-1.075-5.249-2.965-7.609-3.5-.734-.167-2.084-.502-3-.746-1.561-.415-2.608-.533-7.503-.85-.735-.047-1.374-.048-1.42-.003"/>
    <path d="M38.5 8.417c0 .137.075.25.167.25.091 0 .166-.113.166-.25 0-.138-.075-.25-.166-.25-.092 0-.167.112-.167.25m206.684 6.631c-2.343.748-3.573 4.115-2.254 6.171 1.309 2.039 4.518 2.849 6.032 1.522.158-.139.526-.44.817-.668 2.18-1.709 1.361-5.765-1.419-7.024-.543-.246-2.407-.247-3.176-.001m-106.4 2.574c-1.284.133-2.931 1.741-3.282 3.202-1.006 4.197 4.366 7.264 7.263 4.147 1.977-2.126 1.83-4.564-.394-6.548-.918-.819-1.712-.996-3.587-.801m119.779 1.358c-3.113.545-4.539 4.815-2.321 6.951 1.434 1.381 3.534 1.87 4.934 1.148 4.769-2.456 2.651-9.021-2.613-8.099m-73.48 1.368c-.366.073-1.11.137-1.652.142-.542.006-1.367.119-1.833.253-.466.133-1.298.349-1.848.479-2.591.614-3.85 1.015-4.561 1.455a51.15 51.15 0 0 1-1.213.729c-.866.493-3.178 2.99-3.559 3.844-2.144 4.802-.572 9.844 4 12.828 2.035 1.329 4.902 2.848 6.122 3.244.343.111.666.272.719.357.052.085.357.154.677.154.32 0 .812.12 1.095.266.282.146.896.379 1.364.518.468.139 1 .357 1.183.484.182.128.458.232.615.232.156 0 .721.253 1.254.561l1.721.992c2.79 1.605 3.73 4.287 2.412 6.883-.612 1.206-.933 1.542-2.238 2.345-2.809 1.727-7.617 2.077-12.591.917-1.803-.421-3.465-1.15-5.363-2.352-1.325-.84-1.496-.535-.786 1.404.235.642.757 2.176 1.161 3.409.915 2.794.77 2.662 3.264 2.967 4.497.55 10.897.331 13.354-.456.864-.277 1.685-.503 1.823-.503.422 0 2.473-1.097 3.802-2.033 5.65-3.979 7.19-11.078 3.284-15.134-1.59-1.651-2.902-2.654-4.673-3.575-.751-.39-1.591-.832-1.866-.982-.275-.151-.654-.274-.842-.275-.188-.001-.413-.061-.5-.134-.087-.073-.458-.231-.825-.351-1.329-.435-4.155-1.594-4.984-2.043a50.02 50.02 0 0 0-1.708-.874c-.473-.227-.907-.491-.966-.585-.058-.094-.404-.252-.769-.35-.865-.233-2.458-1.785-3.068-2.988-2.501-4.937 5.462-8.938 12.412-6.237 1.181.459 1.4.568 2.976 1.483 1.52.881 1.619.747 1.377-1.863a64.838 64.838 0 0 1-.219-3.187c-.045-1.597.155-1.478-2.969-1.765-3.993-.368-4.838-.407-5.582-.259m15.016.109c-.055.054-.099.278-.099.497 0 .22-.307 1.042-.682 1.827-.374.786-.785 1.721-.911 2.08-.126.358-.345.815-.485 1.015-.782 1.117-.197 1.538 1.122.807 1.925-1.066 4.097-1.343 7.43-.947 1.223.145 2.55.264 2.949.264.92 0 .903-.042.721 1.833-.085.871-.187 2.034-.228 2.584-.04.55-.111 1.3-.156 1.666-.146 1.176-1.096 14.533-1.075 15.11.011.307-.028 1.044-.087 1.64-.059.596-.146 1.609-.194 2.25a1280.82 1280.82 0 0 1-.327 4.334c-.18 2.341-1.112 4.318-2.41 5.107-.917.558-.68.976.554.976.58 0 1.836.071 2.792.158.955.087 2.787.242 4.07.345 1.284.103 2.57.217 2.859.254.871.11 1.034-.3.405-1.017-.736-.838-1.332-2.131-1.588-3.445-.236-1.211-.221-1.555.413-9.545.189-2.383.368-4.746.397-5.25.029-.504.141-1.742.249-2.75.108-1.008.374-4.383.593-7.5.451-6.434.417-6.25 1.144-6.157.29.038 1.831.149 3.423.246 3.752.231 4.916.632 5.701 1.965.448.76.891.668 1.232-.254.814-2.205 1.472-3.868 1.778-4.491.186-.38.314-.867.283-1.083l-.055-.393-4.5-.289c-5.234-.337-11.115-.764-11.834-.859a54.38 54.38 0 0 0-2-.181c-.825-.063-3.112-.253-5.083-.423-4.615-.399-6.279-.496-6.401-.374M125.005 22.3c-3.919 2.692-2.434 8.367 2.189 8.367 4.584 0 6.053-6.036 1.997-8.209-1.061-.568-3.457-.659-4.186-.158m120.233 4.755c-.047.123.113.619.357 1.103.566 1.128.478 1.744-.42 2.934-.371.492-.675.935-.675.987 0 .133-1.437 1.885-2.19 2.671-1.11 1.157-1.652 1.808-2.22 2.667-.303.458-.992 1.32-1.53 1.916-1.416 1.569-3.06 3.612-3.06 3.805 0 .091-.239.367-.532.613-.293.247-1.287 1.365-2.209 2.486a776.251 776.251 0 0 1-2.569 3.108c-.491.59-1.166 1.404-1.5 1.81a33.637 33.637 0 0 1-1.247 1.417c-.352.373-.701.828-.775 1.011-.152.374-3.101 3.752-3.474 3.98-.132.08-.53.408-.885.729-.68.614-2.242 1.427-3.106 1.617-1.42.311-1.032.898.88 1.333.734.167 2.046.56 2.917.874.871.314 1.958.665 2.417.781.458.115 1.006.303 1.217.417.435.235 1.843.681 2.158.684.305.003.254-.752-.068-1.019-1.252-1.036-.81-2.979 1.264-5.562.368-.459.932-1.209 1.254-1.667.322-.458 1.055-1.375 1.63-2.037.575-.662 1.42-1.651 1.878-2.199.938-1.12 1.002-1.14 2.163-.689.964.374 3.509 1.165 5.087 1.581 1.862.491 7.311 2.208 7.628 2.404.189.116.312 1.214.701 6.273.099 1.284.263 3.203.364 4.266.272 2.855-.118 3.796-1.82 4.386-1.115.386-.758.581 3.96 2.17 2.521.849 4.696 1.591 4.834 1.65 2.191.933 3.033.766 2.041-.404-.466-.55-.937-1.272-1.511-2.318-.507-.923-.813-3.16-1.277-9.333a721.62 721.62 0 0 0-.608-7.667 109.334 109.334 0 0 1-.245-3.166 24.33 24.33 0 0 0-.163-1.834c-.052-.321-.1-.77-.106-1-.007-.229-.263-3.529-.569-7.333-.307-3.804-.591-7.696-.632-8.649-.091-2.12.067-1.962-2.93-2.941-1.329-.434-2.642-.887-2.917-1.006-1.671-.726-3.399-1.144-3.512-.849m-104.493 2.12c-1.845.288-2.358.429-4.467 1.224-.626.236-1.387.457-1.691.49-.851.094-5.219 2.932-5.957 3.87-.177.224-.419.408-.538.408-.373 0-3.197 3.018-3.515 3.755-.095.221-.414.617-.708.88-.295.263-.536.554-.536.648 0 .192-1.01 2.497-1.482 3.383-.322.604-.698 1.901-1.135 3.917-.739 3.406.52 10.434 2.344 13.083.55.8.86 1.348 1.624 2.875.264.527.543.959.62.959.077 0 .246.199.376.444.13.244.436.565.68.714.244.148 1.057.847 1.807 1.551 1.779 1.673 3.33 2.551 6.916 3.916 2.609.993 9.591 1.344 11.687.587.56-.202 1.648-.556 2.416-.787 1.752-.526 3.273-1.045 3.814-1.301 1.31-.622 4.837-3.157 5.217-3.749.073-.115.213-.209.31-.209.208 0 1.453-1.338 1.473-1.583.014-.176.4-.717 1.74-2.441.471-.604 1.169-1.846 1.628-2.892.442-1.009.871-1.984.953-2.167.082-.183.231-.746.33-1.25s.299-1.442.444-2.083c.208-.914.247-1.78.182-4-.177-6.093-1.992-10.421-6.145-14.65-.531-.541-.965-1.039-.965-1.108 0-.068-.394-.371-.875-.672a20.734 20.734 0 0 1-1.542-1.075c-1.051-.831-5.775-2.518-7.5-2.679a8.647 8.647 0 0 1-1.083-.169c-.916-.236-4.616-.172-6.422.111M145 34.442c.779.15 1.565.374 1.745.498.181.125.47.227.641.227.172 0 .512.1.755.222l1.367.684c.508.254 1.415.923 2.015 1.486.6.563 1.374 1.246 1.721 1.517.818.64 1.744 1.904 2.523 3.443.343.677.675 1.269.739 1.314.145.105 1.223 2.855 1.469 3.75 1.011 3.681.832 7.442-.485 10.187-.27.562-.49 1.075-.49 1.141 0 1.408-4.868 5.946-7.167 6.681-.504.161-1.066.354-1.25.428-1.962.795-6.706.961-8.416.295-.505-.196-1.179-.395-1.498-.442-.32-.047-.862-.263-1.205-.479-.343-.217-.665-.394-.715-.394-.431 0-3.415-2.464-3.418-2.823-.001-.143-.263-.429-.581-.636-.578-.374-.727-.569-2.373-3.11-.48-.741-1.024-1.573-1.208-1.848-.184-.275-.335-.697-.335-.937 0-.241-.179-.841-.397-1.334-1.305-2.952-1.35-7.692-.098-10.395.255-.55.549-1.274.653-1.608.707-2.272 4.942-6.195 7.508-6.955.412-.122.938-.3 1.167-.396.739-.308 4.562-.934 5.25-.86.366.04 1.304.195 2.083.344m103.737.6c.048.298.125 2.304.173 4.458.089 3.993.143 5.07.433 8.566.09 1.091.125 2.022.077 2.07-.094.094-4.146-1.158-5.051-1.559-.301-.134-.751-.243-1-.243-.739.002-4.565-1.339-4.663-1.633-.034-.102.243-.515.616-.92.373-.404.678-.806.678-.893 0-.088.231-.379.513-.648.546-.521 2.248-2.614 5.006-6.157 2.91-3.739 3.082-3.901 3.218-3.041m39.662 8.36c-.049.129.028.463.172.741.585 1.131.148 2.558-1.198 3.916a543.71 543.71 0 0 1-5.081 5.067c-1.261 1.243-2.292 2.332-2.292 2.42 0 .195-1.236 1.451-1.439 1.462-.079.005-.482.422-.894.928-.413.506-1.913 2.116-3.334 3.578a330.201 330.201 0 0 0-4.083 4.271c-3.986 4.285-7.13 6.715-8.69 6.715-1.323 0-1.088.64.708 1.932.88.633 1.93 1.389 2.332 1.68.403.291 1.313 1.029 2.024 1.641 2.024 1.742 2.6 1.804 2.239.238-.459-1.986-.179-2.955 1.29-4.465a29.537 29.537 0 0 0 1.894-2.167c.439-.572.916-1.086 1.062-1.142.29-.111 1.066-.929 2.342-2.467.456-.55 1.666-1.821 2.689-2.824 1.023-1.003 1.86-1.896 1.86-1.983 0-.088.942-1.111 2.094-2.274 1.151-1.163 2.233-2.344 2.403-2.624.17-.28.509-.649.752-.819.243-.17.606-.485.805-.701a91 91 0 0 1 1.571-1.598c.665-.664 1.208-1.323 1.208-1.463 0-.277.454-.732.592-.594.047.046.017.263-.066.482-.082.219-.239.961-.348 1.648-.227 1.429-.617 3.309-1.451 7a486.575 486.575 0 0 0-1.714 7.75c-.685 3.203-1.17 5.63-1.582 7.917-.345 1.919-1.235 5.985-1.351 6.172-.32.518-.841 4.761-.669 5.446.142.564.517.473 1.851-.449.66-.456 1.415-.912 1.678-1.011.262-.1.865-.439 1.339-.753.473-.315.931-.572 1.015-.572.085 0 .297-.158.472-.35a3.37 3.37 0 0 1 .817-.605c.275-.14 1.101-.645 1.834-1.122a38.46 38.46 0 0 1 2.244-1.354c.5-.267 1.625-.957 2.5-1.533.874-.576 1.702-1.117 1.839-1.203.138-.086.652-.421 1.142-.744.491-.324.978-.589 1.083-.59.106 0 .39-.132.632-.292.242-.159 1.292-.858 2.333-1.551a138.232 138.232 0 0 1 2.954-1.917c1.135-.702 4.104-2.677 6.258-4.163 1.428-.986 1.773-1.118 1.392-.534-.134.206-.642 1.125-1.127 2.041-.486.917-1.21 2.257-1.608 2.979-.399.722-.725 1.359-.725 1.417-.001.057-.384.742-.852 1.521-1.426 2.373-1.918 3.235-2.855 5-.365.688-.724 1.325-.798 1.417-.073.091-.45.766-.837 1.5-.387.733-.754 1.37-.816 1.416-.225.167-1.339 2.129-1.828 3.218-.275.614-.565 1.116-.643 1.116-.079 0-.267.243-.42.541-1.529 2.994-2.893 4.625-3.867 4.625-.127 0-.278.075-.334.167-.057.092-.517.167-1.022.167-1.083 0-1.249.531-.312 1 .637.319 1.463.897 2.428 1.7.418.348.8.633.849.633.144 0 2.84 1.819 3.473 2.344.321.266.899.738 1.284 1.05.385.311.656.611.602.665-.055.055.201.495.569.978 1.072 1.412 1.879 2.65 1.879 2.886 0 .12.177.43.393.689.548.656 2.009 2.868 2.293 3.471.458.975.859.673 1.105-.833.318-1.945.73-2.461 2.797-3.506a120.9 120.9 0 0 0 2.494-1.291c.457-.249.889-.453.958-.453.07 0 .896-.37 1.835-.822a351.84 351.84 0 0 1 5.125-2.412c.504-.233 1.029-.501 1.166-.595.425-.29 4.438-2.171 4.631-2.171.201 0 3.408-1.528 3.743-1.783.115-.088 1.185-.598 2.376-1.132 1.192-.534 2.261-1.044 2.376-1.132.517-.399-1.244 2.488-2.773 4.547-.716.963-1.687 2.513-1.911 3.049a4.366 4.366 0 0 1-.59.978c-.404.464-1.314 1.883-1.908 2.974-.224.413-.595.938-.823 1.167-.228.228-.657.865-.954 1.415a32.93 32.93 0 0 1-1.311 2.155l-1.73 2.583c-.527.786-1.1 1.718-1.273 2.071-.173.354-.514.916-.758 1.25-1.136 1.555-3.928 5.899-3.928 6.11 0 .238-.334 1.096-.766 1.97-.612 1.234-.222 1.442 1.82.971 2.088-.48 3.143-.676 4.613-.857.687-.085 1.925-.336 2.75-.558a38.124 38.124 0 0 1 2.666-.61c2.024-.358 5.637-1.155 6.417-1.416.412-.137 1.2-.321 1.75-.408.55-.087 1.862-.354 2.917-.594 1.054-.24 2.666-.577 3.583-.749.917-.171 2.229-.433 2.917-.582a33.997 33.997 0 0 1 1.822-.35c.316-.044.653-.145.75-.224.22-.178 2.872-.725 3.118-.643.099.033.003.219-.213.414-.217.194-.649.585-.96.868-.312.284-.626.516-.699.516-.073 0-.613.469-1.2 1.042-2.137 2.086-3.488 3.291-3.686 3.291-.112 0-.424.234-.693.52-.269.286-1.689 1.534-3.156 2.773s-2.759 2.368-2.872 2.509c-.114.14-.385.373-.605.518-.219.145-.914.725-1.544 1.29-5.982 5.356-7.37 6.227-9.336 5.857-2.247-.422-2.198-.462-1.226.994.366.549.666 1.05.666 1.114 0 .063.213.429.473.812.638.94 1.358 2.491 1.946 4.197.159.458.38.983.493 1.166.209.341 1.233 4.417 2.009 8 .668 3.081.912 3.391 1.438 1.823.422-1.259 2.076-2.038 3.953-1.864 2.362.22 5.805.66 6.022.769.137.07.925.146 1.75.169.825.024 1.793.094 2.151.157l.651.114.447 1.749c.592 2.314.911 3.605 1.338 5.417.194.825.417 1.725.494 2 .077.275.332 1.212.567 2.083l.622 2.31c.215.795.256.738-1.383 1.94-.25.183-.903.69-1.45 1.125-.547.435-1.062.792-1.144.792-.179 0-2.221 1.469-4.933 3.549-.924.708-2.07 1.089-2.694.894a30.46 30.46 0 0 0-.714-.213c-.118-.032-.343-.284-.5-.56-.56-.983-1.114-.492-.688.61.1.259.286.92.413 1.47.127.55.45 1.825.718 2.833 1.042 3.929 1.127 4.347 1.082 5.333-.026.55-.087 1.788-.136 2.75-.05.963-.129 2.575-.175 3.584-.047 1.008-.132 2.113-.189 2.455-.148.893.239.978 1.142.252 1.958-1.574 2.505-1.653 9.504-1.369 3.14.128 7.285.28 9.21.338 1.925.059 4.4.144 5.5.188 1.1.045 2.75.076 3.667.068 2.33-.019 2.355.054.484 1.41-.878.637-1.854 1.383-2.17 1.658-.315.275-.893.687-1.284.916-1.009.592-2.835 1.822-2.941 1.981-.178.267-2.935 2.238-3.423 2.446a3.563 3.563 0 0 0-.867.559c-.445.42-2.864 2.242-3.889 2.931-.409.274-.804.593-.877.708-.073.115-.21.209-.303.209-.136 0-1.739 1.067-2.564 1.707-1.776 1.378-2.992 2.256-3.666 2.647-.459.266-1.111.689-1.45.94-1.095.81-2.877 2.181-3.134 2.41-.137.123-.555.428-.928.678-.8.536-1.999 1.89-3.038 3.43-.41.607-.915 1.292-1.121 1.521-1.611 1.787-1.409 2.574.671 2.619.916.02 4.404.154 7.75.298 3.345.144 6.946.287 8 .317 1.054.029 2.254.099 2.666.155.413.055 3.45.188 6.75.295l7.584.248c.87.03 2.223.153 3.005.274 1.5.232 1.702.334 3.602 1.824.563.442 1.065.803 1.117.803.181 0 .295-1.111.463-4.5.093-1.879.207-3.96.254-4.625.099-1.406-.26-1.664-.955-.688-.204.286-.903.867-1.553 1.292l-1.183.771-4.834-.025c-5.587-.029-12.219-.211-12.583-.345-.137-.051-1.187-.115-2.333-.143a77.036 77.036 0 0 1-3.167-.137 48.586 48.586 0 0 0-2.833-.098c-1.567-.011-1.717-.038-1.431-.254.176-.133.658-.525 1.071-.87 1.056-.882 2.243-1.711 2.451-1.711.167 0 1.565-.949 1.742-1.183.144-.19 1.561-1.234 2.92-2.15 2.655-1.791 5.474-3.802 6.08-4.339.229-.203.717-.559 1.083-.791a58.55 58.55 0 0 0 1.361-.897c.382-.26.762-.473.846-.473.083 0 .334-.195.556-.433.406-.434 3.297-2.532 4.018-2.916.212-.113.648-.407.969-.653.321-.246 1.221-.912 2-1.478a63.602 63.602 0 0 0 2.076-1.567c.363-.295.851-.631 1.084-.747.452-.223 1.14-.69 2.322-1.575 1.405-1.051 1.35-.931 1.364-3.006.012-1.818.068-2.978.259-5.342.138-1.714.069-1.737-1.28-.431-1.562 1.514-1.963 1.677-4.325 1.761-2.067.073-16.627-.302-19.5-.502-.595-.042-2.583-.127-4.416-.19-8.169-.279-10.761-1.425-8.91-3.939a9.32 9.32 0 0 0 .663-1.052c.136-.268.622-.782 1.08-1.143.458-.361.857-.72.886-.798.069-.183 1.654-1.323 1.839-1.323.216 0 2.858-2.003 2.858-2.166 0-.08.137-.188.304-.241.167-.053.449-.228.625-.389.533-.485 2.023-1.537 2.177-1.537.079 0 .423-.244.764-.542.341-.298 1.111-.879 1.71-1.291.6-.413 1.333-.957 1.63-1.211.297-.253.915-.7 1.374-.993 1.083-.694 4.784-3.457 5-3.734.091-.117.579-.461 1.083-.763 1.17-.701 1.713-1.084 2.498-1.76.645-.556 1.707-1.311 3.71-2.639.619-.41 1.125-.813 1.125-.895 0-.082.137-.193.304-.246.167-.053.449-.228.625-.388.177-.16.94-.734 1.696-1.275 1.478-1.057 1.52-1.143 1.118-2.284-.141-.401-.413-1.404-.603-2.229-.19-.825-.44-1.8-.555-2.167a29.18 29.18 0 0 1-.501-2 63.704 63.704 0 0 0-.349-1.541c-.111-.401-.567-.203-.962.416-.591.928-1.191 1.515-1.672 1.636-.632.158-4.922-.131-5.684-.384a3.825 3.825 0 0 0-.75-.143c-.229-.018-1.467-.187-2.75-.377-4.272-.63-4.737-.684-4.997-.585a.525.525 0 0 1-.463-.065c-.114-.089-.544-.203-.957-.253-15.645-1.874-19.582-2.512-21.537-3.492-1.222-.613-1.208-.578-.791-1.978.485-1.629.984-2.248 3.715-4.615 1.3-1.126 2.738-2.409 3.197-2.849.458-.441 1.753-1.569 2.878-2.506 1.125-.937 2.208-1.924 2.407-2.192.198-.269.44-.49.538-.493.097-.002.814-.604 1.593-1.337.78-.732 1.623-1.459 1.875-1.614.252-.156.459-.375.459-.488 0-.112.543-.616 1.208-1.119.665-.503 1.883-1.566 2.708-2.363.825-.796 1.698-1.571 1.939-1.722.241-.151 1.128-.873 1.971-1.605 2.567-2.227 3.601-2.647 5.11-2.073.56.213.564.212.564-.198 0-.3-1.242-2.288-3.266-5.226-1.193-1.733-1.401-2.07-1.405-2.278-.002-.122-.145-.406-.317-.631l-.315-.409-2.723.56c-1.499.308-3.362.698-4.141.866-.779.168-1.979.425-2.667.571a672.9 672.9 0 0 0-4.666 1.009 24.89 24.89 0 0 1-1.75.322c-.862.109-2.094.355-4.167.831-.917.211-2.829.616-4.25.901-1.421.284-2.846.586-3.167.67-.321.085-.827.193-1.126.242l-.543.088.331-.621c.183-.342.556-.921.83-1.288.722-.967 1.576-2.258 2.46-3.719.426-.705.871-1.356.988-1.448.192-.15 3.06-4.527 3.06-4.67 0-.033.401-.646.891-1.361.8-1.169 2.183-3.247 3.996-6.001.628-.955 1.621-2.398 3.159-4.592 1.175-1.677 1.265-1.403-2.039-6.184-.37-.536-.675-1.024-.678-1.083-.003-.06-.228-.403-.5-.763s-.495-.718-.495-.796c0-.077-.198-.439-.439-.803-.514-.777-1.061-.899-1.061-.237 0 .82-.362 1.853-.804 2.293-.963.959-2.958 2.281-3.443 2.281-.166 0-2.363 1.012-4.882 2.25-2.52 1.237-4.68 2.25-4.8 2.25-.12 0-1.367.569-2.77 1.265-4.541 2.253-6.198 3.029-7.28 3.414-.584.207-1.259.541-1.5.741-.241.201-.738.461-1.105.579-.607.196-2.458 1.009-3.639 1.599-.259.129-.784.283-1.166.341-.382.059-.77.163-.861.232-.328.246-2.549.366-3.145.169-.954-.315-1.107-3.56-.247-5.257.847-1.673 3.531-6.531 4.244-7.681.402-.649.731-1.237.731-1.307 0-.07.138-.326.307-.57.168-.243.482-.873.697-1.4.215-.527.447-.959.515-.959.069 0 .172-.148.23-.33.121-.382 1.538-2.896 2.585-4.586.397-.642.841-1.467.986-1.834.145-.366.801-1.641 1.458-2.833a157.21 157.21 0 0 0 1.5-2.769c.168-.331.599-1.156.959-1.833.359-.677.884-1.681 1.166-2.231.616-1.2 1.507-1.783 2.929-1.915 1.226-.114 1.289-.457.219-1.184-.972-.66-2.871-2.046-4.526-3.304-2.658-2.02-3.1-2.248-3.574-1.841-.318.273-3.632 2.39-4.903 3.133-.636.371-2.118 1.321-3.294 2.111-1.176.791-2.558 1.66-3.071 1.931-.818.433-4.251 2.685-4.801 3.149-.111.093-.25.17-.309.17-.06 0-.392.225-.74.5-.347.275-.715.5-.817.5-.103 0-.617.281-1.143.625s-1.077.701-1.224.792a59.2 59.2 0 0 0-1.462.999c-3.378 2.358-3.264 2.402-2.454-.935.56-2.306.723-3.045 1.687-7.648 1.473-7.032 1.707-8.093 2.448-11.083.273-1.1.631-2.638.797-3.417a46.773 46.773 0 0 1 1.011-3.928c.273-.888.198-1.046-.718-1.509-.902-.457-2.632-1.615-3.371-2.258-.62-.539-3.117-2.286-3.511-2.457a1.773 1.773 0 0 1-.562-.414c-.273-.33-.496-.342-.615-.032m-184.482 3.027c-1.192.785-2.767 1.719-3.5 2.077-2.506 1.222-3.757 2.381-2.792 2.584a6.42 6.42 0 0 1 1.006.337c.301.132.622.24.713.24.398 0 2.537 1.441 2.749 1.852.128.248.291.476.362.508.211.093 1.378 1.679 1.38 1.875.001.1.272.519.602.931.986 1.234 2.23 3.198 2.23 3.523 0 .176.207.498 2.656 4.126 1.014 1.503 1.844 2.819 1.844 2.926 0 .106.513.951 1.141 1.876.628.926 1.617 2.459 2.197 3.408.581.949 1.256 2.025 1.5 2.391 1.019 1.531 2.162 3.36 2.162 3.46 0 .058.19.311.422.562.437.472.511.59 1.306 2.081.263.494.796 1.347 1.184 1.897 2.867 4.063 3.328 4.872 3.566 6.264.235 1.37.244 4.085.017 5.121-.448 2.042-.546 2.418-.744 2.834-.36.76-.443 1.532-.175 1.635.214.082 2.645-2.199 3.711-3.483 3.123-3.761 3.989-9.124 1.899-11.762-.286-.361-.52-.705-.52-.764 0-.059-.431-.763-.958-1.565a103.772 103.772 0 0 1-1.125-1.736 50.901 50.901 0 0 0-1.014-1.495c-.466-.668-1.05-1.622-1.298-2.118-.249-.496-.672-1.154-.942-1.461a6.606 6.606 0 0 1-.751-1.062c-.27-.523-1.797-2.939-2.055-3.252-.08-.098-.392-.623-.692-1.167a36.74 36.74 0 0 0-1.387-2.239 3554.01 3554.01 0 0 0-1.626-2.416c-.432-.642-.966-1.504-1.186-1.917-.482-.901-2.891-4.633-3.953-6.124a10.892 10.892 0 0 1-.833-1.417c-.18-.39-.595-1.084-.922-1.542-3.154-4.431-3.418-4.975-3.422-7.042-.003-1.762.007-1.762-2.752.054m-17 11.14c-1.704.936-2.332 1.321-3.418 2.098-2.218 1.584-2.588 1.828-2.782 1.83-.11.002-.485.352-.834.778-.348.426-1.222 1.382-1.942 2.125-.719.742-1.499 1.65-1.733 2.017-.233.366-.47.704-.525.75-.096.08-.31.519-1.221 2.5-.637 1.384-.771 1.812-.97 3.083-.376 2.408.196 5.046 1.451 6.69.306.401.557.834.557.961 0 .277.745.949 2.188 1.975 1.516 1.077 2.593 1.326 6.039 1.397 3.864.08 5.879-.238 10.856-1.713 3.431-1.017 3.999-1.125 5.93-1.134l1.929-.009 1.443.715c4.086 2.025 3.784 6.006-.809 10.66-.746.756-1.438 1.375-1.537 1.375-.099 0-.392.176-.651.391-.486.404-1.045.731-2.055 1.203-.32.15-.695.365-.833.478-.367.302-2.212.928-2.736.928-.249 0-.602.079-.784.177a2.35 2.35 0 0 1-.697.221 3.277 3.277 0 0 0-.616.136c-.374.137-3.224.632-3.64.632-.445 0-.499.579-.069.742.161.061.914.538 1.674 1.06a81.79 81.79 0 0 0 1.655 1.115c.151.092.841.56 1.534 1.042 1.229.853 2.023 1.095 2.273.691.062-.101.367-.29.676-.419.31-.129.563-.304.563-.388 0-.084.94-.609 2.089-1.166 1.149-.557 2.129-1.115 2.177-1.24.048-.125.429-.404.848-.619.418-.215.958-.605 1.199-.865.24-.261.662-.593.937-.737.559-.294 4.084-3.788 4.084-4.048 0-.092.251-.448.557-.792.724-.812 1.443-2.061 1.443-2.505 0-.193.072-.396.16-.45.088-.055.233-.34.321-.635.813-2.724.9-3.15.941-4.619.05-1.773-.175-2.86-.917-4.417-.262-.55-.525-1.167-.584-1.371-.093-.319-.817-1.306-1.473-2.007-.523-.559-1.696-1.384-2.09-1.472-.243-.054-.777-.249-1.188-.434-2.855-1.286-7.868-.778-15.292 1.551-3.381 1.061-8.116 1.157-9.573.194-1.89-1.248-2.366-4.225-1.121-7.003.324-.722 2.546-3.208 2.868-3.208.097 0 .519-.289.939-.643 1.316-1.11 4.357-2.315 6.16-2.442 3.007-.212 2.983-.154 1.021-2.482-.822-.975-1.726-2.109-2.008-2.52-.634-.921-1.01-.949-2.414-.177m-32.22 31.417c-1.89 1.941-2.969 3.167-4.045 4.597a294.94 294.94 0 0 1-1.348 1.782c-.259.339-.471.77-.471.959 0 .188-.065.343-.146.343-.495 0-2.87 5.692-3.581 8.583-.678 2.756-.781 7.519-.213 9.833.532 2.172.633 2.512.84 2.834.46.713 1.23 2.186 1.35 2.583.07.229.492.937.939 1.574.446.636.811 1.237.811 1.334 0 .097.773.935 1.717 1.861 1.576 1.547 2.421 2.228 3.595 2.898.241.137.498.343.572.458.073.115.209.208.302.208.094 0 .416.188.716.417.301.229.61.417.688.417.078 0 .677.26 1.33.579 3.164 1.543 8.756 1.864 12.247.704 2.122-.705 5.258-2.095 5.5-2.438.145-.204 1.636-1.179 1.805-1.179.237 0 1.838-1.316 2.52-2.072 1.062-1.178 2.417-2.506 2.817-2.761.417-.266 1.57-1.855 2.067-2.848.164-.329.433-.742.598-.918.377-.405 1.272-1.812 2.099-3.302.352-.633.817-1.412 1.034-1.732.216-.319.393-.71.393-.869 0-.159.421-1.18.935-2.269 1.973-4.175 2.014-4.41.883-5.02-.467-.252-1.469-.909-2.226-1.459-.757-.55-1.807-1.3-2.334-1.666-.526-.367-1.047-.751-1.157-.854-.11-.102-.454-.318-.764-.478-.63-.326-2.927-1.879-3.864-2.612-1.159-.907-2.225-1.619-3.056-2.039-.458-.231-1.082-.649-1.385-.927-.728-.668-.879-.643-1.433.234-.258.407-.61.869-.784 1.026-.173.156-.315.379-.315.495 0 .116-.062.235-.138.266-.157.063-2.028 2.909-2.028 3.085 0 .063-.16.285-.355.493-.481.512-.312.942.309.785 1.512-.381 3.301-.044 4.229.799.312.283.867.708 1.233.945.367.236.817.558 1 .715.184.156.784.525 1.334.819.55.294 1.059.637 1.131.763.072.125.485.432.917.681.432.249 1.085.689 1.452.978.366.289.985.7 1.375.914.5.275.708.497.708.756 0 .686-1.461 4.221-2.235 5.406-.21.32-.657 1.012-.995 1.535-.337.524-.752 1.05-.922 1.169-.169.119-.337.363-.371.543-.035.18-.213.405-.396.498-.183.094-.782.628-1.332 1.186-.549.558-1.412 1.287-1.916 1.619-.504.333-1.221.827-1.592 1.097-1.176.857-5.327 2.36-6.526 2.363-.347.001-1.297.043-2.111.092-.951.058-1.542.026-1.658-.09-.099-.098-.521-.179-.938-.179a3.738 3.738 0 0 1-1.425-.331 23.917 23.917 0 0 0-1.833-.763c-1.218-.451-2.274-.924-2.417-1.082-.045-.051-.509-.351-1.029-.666-1.002-.608-3.471-2.763-3.471-3.03 0-.087-.33-.545-.734-1.018-3.858-4.519-3.953-11.717-.236-17.886.488-.811.99-1.672 1.114-1.914.488-.95 3.697-3.977 4.216-3.977.065 0 .16-.131.211-.291.114-.359 2.207-1.286 3.346-1.482 1.393-.24 1.285-.787-.366-1.863a320.087 320.087 0 0 1-2.68-1.773c-1.796-1.203-1.787-1.205-3.507.562m-23.868 38.775c-.089.235-.162.514-.162.62 0 .216-.772 2.598-1.091 3.369a6.873 6.873 0 0 0-.322 1.083c-.063.321-.343 1.221-.622 2-.918 2.558-.869 2.678.751 1.837 1.958-1.016 4.431-.952 6.635.172.349.179.74.325.867.325.251 0 4.653 1.405 5.198 1.659.607.282 4.995 1.675 5.279 1.674.153 0 1.278.326 2.5.723 2.536.826 4.607 1.465 6.055 1.869 2.245.626 2.453 1.112.666 1.563-.786.199-2.044.636-3.166 1.101-.275.114-1.925.747-3.667 1.408-1.742.66-3.66 1.418-4.263 1.685-.603.266-1.228.484-1.389.484-.292 0-1.433.412-3.765 1.358-.687.279-1.55.621-1.916.761-.367.14-.817.319-1 .397-.184.078-.634.249-1 .379-.367.13-1.305.495-2.084.809-.779.315-1.666.622-1.971.683a6.836 6.836 0 0 0-1.167.379c-.336.147-.78.336-.987.418-.206.082-.543.224-.75.315-.206.091-.9.359-1.541.597-.642.238-1.563.614-2.047.835-.484.222-.954.403-1.044.403-.09 0-.294.067-.453.15a31.73 31.73 0 0 1-1.456.635l-1.167.484-.482 1.49c-.264.82-.542 1.641-.616 1.824-.497 1.229-1.628 4.821-1.555 4.939.157.255.578.155 1.132-.267 1.339-1.022 3.448-1.509 4.581-1.058.242.097.657.204.922.239.266.034.566.127.667.206.101.078.334.186.518.239.183.053 1.116.364 2.074.691.958.327 1.884.594 2.059.594.408 0 3.15.836 3.358 1.024.087.079.316.143.509.143.192 0 .421.059.508.132.087.072.683.296 1.325.498.642.202 2.292.75 3.667 1.218 2.528.861 2.995.997 4.5 1.308.734.152 2.644.798 6.253 2.114.598.218 1.243.397 1.433.397.19 0 .481.15.647.333.166.183.398.333.516.333.869 0 2.597 1.688 3.24 3.163.604 1.388.72 1.402 1.065.135.157-.576.515-1.76.795-2.631.494-1.536.667-2.047 1.466-4.333.774-2.213.774-2.213-1.136-1.569-1.747.588-2.716.619-4.779.155-.603-.136-3.827-1.244-4.123-1.417a1.384 1.384 0 0 0-.583-.17c-.162 0-.819-.186-1.461-.413-.642-.227-1.377-.414-1.633-.416a2.51 2.51 0 0 1-.917-.228c-.506-.252-.703-.318-7.533-2.512-2.705-.869-5.367-1.67-5.917-1.781-1.554-.312-1.625-.504-.413-1.125.564-.288 1.123-.524 1.243-.524.192 0 2.791-.982 4.17-1.576.275-.119.859-.349 1.297-.511.439-.163.837-.36.885-.438.048-.078.254-.142.458-.142.363 0 2.463-.818 4.527-1.764.959-.44 3.572-1.403 3.806-1.403.13 0 .326-.108.435-.24.11-.131 1.038-.514 2.062-.851 1.025-.336 2.185-.756 2.578-.933a71.5 71.5 0 0 1 2.333-.964 209.65 209.65 0 0 0 5.258-2.162c.443-.192.944-.35 1.113-.35.276 0 1.176-.373 3.265-1.352.375-.176.9-.542 1.166-.812.266-.271.569-.495.674-.498.105-.002.555-.325 1-.717a27.319 27.319 0 0 1 1.419-1.163c1.505-1.113 1.595-1.97.239-2.273-.514-.115-1.553-.435-2.308-.712-1.572-.574-2.553-.886-3.624-1.149a23.067 23.067 0 0 1-1.5-.435c-.785-.262-1.634-.517-3.166-.95a15.75 15.75 0 0 1-1.667-.589c-1.043-.458-7.472-2.516-7.861-2.516-.176 0-.613-.15-.972-.334-.36-.183-.764-.333-.898-.333-.277 0-7.82-2.479-9.352-3.073a16.847 16.847 0 0 0-1.917-.599c-.504-.115-.954-.255-1-.311-.046-.055-.611-.453-1.256-.885-1.298-.87-1.573-1.148-2.387-2.424-.63-.986-.795-1.059-1.028-.447m327.421 31.51c3.356.483 8.558 1.038 8.9.948.194-.05.453-.008.576.094.123.103.517.181.874.175.358-.006.874.055 1.148.137l.499.148-.499.312a7.063 7.063 0 0 0-.978.783c-.265.258-.677.516-.917.572-.24.056-.661.308-.936.56-.275.251-.932.728-1.459 1.06-.527.331-.958.663-.958.736 0 .073-.394.373-.875.665-.481.293-1.078.721-1.326.952-.248.231-.531.42-.629.42-.097 0-1.117.694-2.265 1.542-1.149.848-2.137 1.527-2.197 1.509-.117-.036-.941-3.024-1.263-4.579-.107-.52-.251-1.001-.32-1.069-.069-.069-.125-.356-.125-.639-.001-.282-.226-1.402-.5-2.488-.659-2.605-.946-2.442 3.25-1.838M17.94 177.458c-.057.344-.104 1.113-.104 1.709-.002 1.153-.405 4.917-.661 6.166-.568 2.775-.163 4.321.644 2.459.503-1.163 2.11-1.684 3.931-1.275.579.13 5.822.735 9.333 1.077.642.062 1.242.171 1.334.241.091.071.841.185 1.666.254 2.242.187 2.55.218 4 .403.734.094 2.482.246 3.886.339 1.404.093 2.685.24 2.848.327.162.087.969.186 1.792.221.824.035 1.59.121 1.704.192.113.07.933.154 1.822.188 3.445.129 5.439 1.075 6.216 2.95.246.595.825.571.986-.042.061-.229.199-1.617.307-3.084.188-2.538.576-6.278.792-7.625.089-.556.062-.625-.251-.625-.193 0-.352.087-.352.193 0 1.315-2.881 2.544-5 2.132-.412-.08-1.312-.181-2-.225-2.163-.137-6.068-.623-6.442-.801-.198-.094-.433-.126-.523-.07-.09.056-.941-.015-1.891-.158-1.757-.264-9.502-1.207-10.74-1.308a30.605 30.605 0 0 1-1.833-.239c-1.496-.239-3.317-.456-5.904-.705-2.801-.269-3.745-.799-4.652-2.61-.441-.88-.771-.91-.908-.084m23.554 17.785c-1.125.23-1.923.542-2.682 1.048-.241.161-.822.517-1.292.792-.469.275-.853.575-.853.667 0 .092-.263.376-.584.632-.321.256-.583.579-.583.717 0 .139-.187.528-.417.865-.229.337-.416.681-.416.763 0 .083-.169.422-.375.753-.467.754-.958 2.121-.961 2.68-.006.877-.265.907-.725.084-.242-.432-.439-.837-.439-.9 0-.063-.225-.281-.5-.484-.275-.204-.5-.471-.5-.594 0-1.094-4.012-2.679-6.384-2.521-5.164.343-7.955 3.741-8.424 10.255-.202 2.797-.206 2.723.553 10.667.136 1.421.295 3.671.353 5 .137 3.111.232 3.256 1.242 1.907.312-.417.758-.864.989-.994 1.845-1.031 2.797-1.218 6.671-1.316 1.329-.034 3.054-.107 3.833-.163 2.021-.146 6.659-.399 7.25-.395.834.005 4.271-.173 8.667-.45 2.291-.144 4.691-.293 5.333-.33 2.286-.134 4.923.743 5.579 1.854.323.548.72.712.923.383.058-.094.024-1.425-.075-2.959-.309-4.768-.341-5.379-.424-8.121a140.039 140.039 0 0 0-.172-4c-.05-.733-.125-1.919-.166-2.636-.145-2.534-1.805-6.795-3.264-8.374-.175-.19-.318-.423-.318-.519 0-.333-1.752-2.017-2.208-2.122-.252-.058-.458-.176-.458-.263 0-.204-2.473-1.388-3.667-1.756-1.205-.371-4.09-.461-5.506-.17m5.266 6.95c1.748.322 3.152 1.567 4.332 3.843.225.432.408.892.408 1.021 0 .129.158.591.351 1.028.594 1.343.517 8.902-.096 9.411-.108.09-1.504.197-3.101.237-1.597.041-4.142.134-5.654.208-1.513.074-3.309.136-3.991.138l-1.242.004-.388-1.75c-.845-3.804-.653-7.312.534-9.756.529-1.088 2.062-3.077 2.486-3.224.101-.036.289-.148.417-.25 1.029-.824 3.969-1.274 5.944-.91m-19.252 4.526c1.462.312 3.312 1.788 3.671 2.928.104.332.377.895.607 1.253.768 1.193 1.233 6.851.61 7.426-.08.074-1.759.221-3.729.326a936.2 936.2 0 0 0-5.255.293l-1.671.101-.222-.481c-.961-2.088-1.054-5.941-.196-8.167 1.127-2.922 3.4-4.274 6.185-3.679"/>
</svg>