<svg width="578" height="496" viewBox="0 0 578 496" xmlns="http://www.w3.org/2000/svg">
<path d="M14 4.73478L16.71 4.74878L19.585 4.74078C22.801 4.73278 26.017 4.74078 29.233 4.74678C31.5463 4.74478 33.8606 4.74144 36.176 4.73678C41.892 4.73078 47.6086 4.73078 53.326 4.73678C60.169 4.74378 67.013 4.73878 73.857 4.73278C87.267 4.72344 100.677 4.72211 114.087 4.72878C125.823 4.73411 137.559 4.73544 149.294 4.73278H151.649L161.115 4.73078C190.734 4.72478 220.353 4.73078 249.973 4.74078C276.309 4.75011 302.645 4.75011 328.982 4.74078C361.695 4.72777 394.409 4.7251 427.122 4.73278H429.472C441.202 4.73544 452.932 4.73378 464.662 4.72778C477.995 4.72244 491.329 4.72478 504.662 4.73478C511.47 4.73978 518.28 4.74278 525.089 4.73478C531.312 4.73011 537.536 4.73311 543.759 4.74378C546.021 4.74511 548.282 4.74378 550.543 4.73978C553.597 4.73378 556.652 4.73978 559.706 4.74978L562.416 4.73478C568.48 4.77278 568.48 4.77278 570.708 7.00078C570.905 9.61478 570.976 12.1228 570.96 14.7378L570.968 17.1978C570.976 19.9498 570.968 22.6998 570.962 25.4508C570.964 27.4308 570.967 29.4108 570.972 31.3908C570.98 36.8558 570.976 42.3198 570.969 47.7838C570.965 53.6688 570.972 59.5528 570.977 65.4368C570.985 76.3054 570.986 87.1741 570.979 98.0428C570.974 108.081 570.973 118.12 570.976 128.16V130.175L570.978 138.273C570.983 163.613 570.979 188.952 570.968 214.292C570.959 236.822 570.959 259.352 570.968 281.882C570.981 309.868 570.984 337.855 570.976 365.842L570.975 367.852C570.973 377.887 570.975 387.922 570.98 397.957C570.987 409.363 570.985 420.769 570.974 432.175C570.968 437.999 570.968 443.824 570.974 449.649C570.979 454.973 570.976 460.298 570.965 465.622C570.964 467.556 570.965 469.49 570.969 471.424C570.975 474.038 570.969 476.651 570.959 479.264L570.974 481.58C570.936 486.773 570.936 486.773 568.708 489.001C565.678 489.199 562.738 489.269 559.706 489.253L556.831 489.261C553.615 489.269 550.399 489.261 547.183 489.255C544.868 489.257 542.554 489.26 540.24 489.265C534.523 489.271 528.807 489.271 523.09 489.265C516.246 489.258 509.403 489.263 502.559 489.269C489.149 489.278 475.739 489.279 462.328 489.273C446.652 489.265 430.977 489.265 415.301 489.271C385.681 489.277 356.062 489.271 326.443 489.261C300.107 489.251 273.771 489.251 247.434 489.261C214.721 489.274 182.007 489.276 149.294 489.269H146.944C135.214 489.266 123.484 489.268 111.754 489.274C98.4206 489.28 85.0873 489.277 71.754 489.267C64.945 489.262 58.136 489.259 51.327 489.267C45.103 489.272 38.8796 489.269 32.657 489.258C30.395 489.256 28.1336 489.257 25.873 489.262C22.818 489.268 19.764 489.262 16.71 489.252L14 489.267C7.93597 489.229 7.93597 489.229 5.70797 487.001C5.51777 484.426 5.4337 481.845 5.45597 479.264L5.44697 476.804C5.43997 474.052 5.44697 471.302 5.45397 468.551C5.45131 466.571 5.44797 464.591 5.44397 462.611C5.43597 457.146 5.43997 451.682 5.44597 446.218C5.45097 440.333 5.44397 434.449 5.43797 428.565C5.43131 417.696 5.43064 406.827 5.43597 395.959C5.44131 385.92 5.44264 375.881 5.43997 365.842V363.827L5.43797 355.729C5.43197 330.389 5.43797 305.049 5.44797 279.71C5.45731 257.18 5.45731 234.65 5.44797 212.12C5.43497 184.133 5.4323 156.146 5.43997 128.16V126.15C5.44197 116.114 5.44031 106.079 5.43497 96.0448C5.42964 84.6388 5.43197 73.2328 5.44197 61.8268C5.44797 56.0021 5.44797 50.1774 5.44197 44.3528C5.43664 39.0281 5.43964 33.7038 5.45097 28.3798C5.45231 26.4458 5.45097 24.5118 5.44697 22.5778C5.44097 19.9638 5.44697 17.3508 5.45697 14.7378L5.44197 12.4218C5.49197 5.43778 7.20197 4.77678 14 4.73478ZM16.708 18.0008C16.5182 20.4553 16.4351 22.917 16.459 25.3788L16.451 27.7218C16.445 30.3408 16.453 32.9588 16.461 35.5778C16.4596 37.4624 16.457 39.3478 16.453 41.2338C16.447 46.4358 16.453 51.6378 16.461 56.8398C16.468 62.4418 16.463 68.0438 16.459 73.6458C16.455 84.6284 16.4583 95.6111 16.469 106.594C16.479 119.371 16.479 132.148 16.479 144.924C16.4803 168.404 16.4883 191.883 16.503 215.361C16.5209 242.302 16.5276 269.243 16.523 296.184V298.233C16.522 319.978 16.529 341.723 16.536 363.467C16.54 372.383 16.5416 381.299 16.541 390.217C16.541 401.075 16.5456 411.933 16.555 422.793C16.5603 428.337 16.5626 433.883 16.562 439.429C16.5606 444.498 16.564 449.567 16.572 454.636V460.159C16.5706 462.647 16.573 465.135 16.579 467.623L16.573 469.827C16.536 473.539 16.536 473.539 17.708 477.001C23.453 478.018 29.101 478.144 34.921 478.13L37.645 478.135C40.655 478.14 43.665 478.137 46.675 478.135L53.216 478.142C59.206 478.147 65.1963 478.148 71.187 478.146C77.6476 478.147 84.1086 478.15 90.57 478.156C103.225 478.164 115.88 478.168 128.537 478.168C142.523 478.169 156.51 478.172 170.496 478.178C191.191 478.184 211.886 478.187 232.582 478.187H253.95C278.67 478.186 303.39 478.193 328.109 478.207C358.839 478.224 389.568 478.232 420.298 478.23H422.506C434.243 478.23 445.979 478.235 457.716 478.245C469.504 478.253 481.292 478.254 493.081 478.248C499.469 478.243 505.857 478.245 512.246 478.253C518.09 478.26 523.934 478.259 529.777 478.251C531.896 478.249 534.014 478.25 536.132 478.256C539.003 478.263 541.875 478.258 544.746 478.25L547.258 478.265C551.801 478.237 555.428 477.728 559.708 476.001C559.76 410.12 559.797 344.239 559.818 278.358C559.828 256.158 559.842 233.958 559.86 211.758C559.88 188.308 559.892 164.858 559.896 141.406C559.899 127.35 559.908 113.295 559.924 99.2388C559.934 89.6128 559.937 79.9871 559.934 70.3618C559.933 64.8004 559.937 59.2388 559.946 53.6768C559.955 48.5928 559.957 43.5091 559.95 38.4258C559.949 36.5791 559.951 34.7324 559.958 32.8858C559.966 30.3908 559.961 27.8958 559.954 25.3998L559.97 23.1898C560.058 19.1458 560.058 19.1458 557.708 16.0008C554.791 15.8028 551.968 15.7328 549.05 15.7488L546.287 15.7408C543.197 15.7328 540.107 15.7408 537.018 15.7468C534.795 15.7448 532.571 15.7414 530.348 15.7368C524.211 15.7288 518.073 15.7328 511.936 15.7398C506.006 15.7438 500.076 15.7378 494.146 15.7328C481.262 15.7234 468.378 15.7221 455.494 15.7288C444.219 15.7341 432.944 15.7354 421.67 15.7328H419.407L410.313 15.7308C381.856 15.7248 353.399 15.7308 324.943 15.7408C299.64 15.7501 274.337 15.7501 249.035 15.7408C217.605 15.7278 186.175 15.7251 154.745 15.7328H152.488C141.218 15.7354 129.948 15.7338 118.678 15.7278C105.869 15.7224 93.06 15.7248 80.25 15.7348C73.708 15.7408 67.1663 15.7408 60.625 15.7348C54.645 15.7294 48.6656 15.7324 42.687 15.7438C40.5136 15.7451 38.3413 15.7438 36.17 15.7398C33.235 15.7338 30.3 15.7398 27.366 15.7498L24.763 15.7348C20.262 15.5678 20.262 15.5678 16.708 18.0008Z"/>
<path d="M85.637 83.6956L87.973 83.6986L90.388 83.6856C92.0803 83.6799 93.7726 83.6793 95.465 83.6836C98.028 83.6866 100.591 83.6636 103.155 83.6386C121.786 83.5616 121.786 83.5616 128.375 88.9366L130 90.9996L131.687 93.0616C135.6 98.8376 134.487 107.308 134 114C132.897 117.81 131.326 120.775 128.363 123.512C126.663 125.032 126.663 125.032 127 128C128.444 129.434 128.444 129.434 130.312 130.75C134.982 134.635 136.728 138.036 137.277 144.02C137.575 154.244 135.919 161.266 129.402 169.176C120.604 175.856 111.11 175.569 100.547 175.412C97.9781 175.38 95.409 175.366 92.84 175.372C91.2066 175.362 89.5723 175.35 87.937 175.336L85.611 175.329C80.232 175.232 80.232 175.232 78 173C77.801 170.24 77.727 167.58 77.741 164.818L77.731 162.256C77.721 159.452 77.728 156.648 77.734 153.844L77.729 148.015C77.7257 143.94 77.729 139.865 77.739 135.789C77.751 130.556 77.744 125.323 77.732 120.091C77.726 116.077 77.726 112.064 77.732 108.051C77.734 106.121 77.7323 104.192 77.727 102.262C77.722 99.5686 77.73 96.8746 77.741 94.1816L77.729 91.7476C77.781 85.0316 78.895 83.7866 85.637 83.6956ZM99 104C98.68 107.058 98.68 107.058 98.75 110.5L98.734 114.031C98.691 117.118 98.691 117.118 101 119C105.177 119.31 108.477 119.439 112 117C113.6 113.799 113.352 110.48 113 107C112.255 104.423 112.255 104.423 110 103C104.014 101.381 104.014 101.381 99 104ZM99 139C98.8036 141.495 98.7202 143.997 98.75 146.5L98.727 148.59C98.624 152.752 98.624 152.752 101 156C106.659 156.67 106.659 156.67 111.437 154.125C114.254 150.295 114.323 147.76 114 143C112.253 139.272 112.253 139.272 109 137C107.086 136.803 107.086 136.803 105 136.812L102.875 136.77C100.755 136.835 100.755 136.835 99 139Z"/>
<path d="M156.121 83.7266L158.5 83.7496L160.879 83.7266C166.747 83.7466 166.747 83.7466 169 85.9996C169.199 88.7596 169.273 91.4196 169.259 94.1816L169.269 96.7436C169.279 99.5476 169.272 102.352 169.266 105.156L169.271 110.985C169.274 115.059 169.271 119.135 169.261 123.211C169.249 128.444 169.256 133.677 169.268 138.909C169.274 142.922 169.274 146.935 169.268 150.949C169.266 152.878 169.268 154.808 169.273 156.738C169.278 159.431 169.27 162.125 169.259 164.818L169.271 167.252C169.229 172.772 169.229 172.772 167 175C164.127 175.199 161.371 175.278 158.5 175.25L156.121 175.273C150.253 175.253 150.253 175.253 148 173C147.801 170.24 147.727 167.58 147.741 164.818L147.731 162.256C147.721 159.452 147.728 156.648 147.734 153.844L147.729 148.015C147.726 143.94 147.729 139.865 147.739 135.789C147.751 130.556 147.744 125.323 147.732 120.091C147.726 116.077 147.726 112.064 147.732 108.051C147.734 106.121 147.732 104.192 147.727 102.262C147.722 99.5686 147.73 96.8746 147.741 94.1816L147.729 91.7476C147.783 84.7296 149.137 83.7506 156.121 83.7266Z"/>
<path d="M194.375 83.6247L196.703 83.5507L198.961 83.5387L201.017 83.5137C203.963 84.2357 205.092 85.6737 207 87.9997C208.508 90.8367 208.508 90.8367 209.91 94.0857L211.47 97.6557L213.063 101.375C214.114 103.801 215.167 106.225 216.223 108.648L217.621 111.904C218.993 114.985 220.469 117.994 222 121H223L223.06 117.819C223.136 113.931 223.225 110.044 223.317 106.156C223.356 104.472 223.391 102.788 223.422 101.104C223.467 98.6867 223.525 96.2687 223.586 93.8517L223.621 91.5617C223.772 86.2277 223.772 86.2277 226 83.9997C228.662 83.8028 231.331 83.7194 234 83.7497L236.234 83.7267C241.747 83.7467 241.747 83.7467 244 85.9997C244.199 88.7597 244.273 91.4197 244.259 94.1817L244.269 96.7437C244.279 99.5477 244.272 102.352 244.266 105.156L244.271 110.985C244.274 115.059 244.271 119.135 244.261 123.211C244.249 128.444 244.256 133.677 244.268 138.909C244.274 142.922 244.274 146.935 244.268 150.949C244.266 152.878 244.268 154.808 244.273 156.738C244.278 159.431 244.27 162.125 244.259 164.818L244.271 167.252C244.229 172.772 244.229 172.772 242 175C239.041 175.444 236.05 175.324 233.063 175.313L230.564 175.361L228.16 175.363L225.961 175.373C223.394 174.885 222.603 174.039 221 172C219.928 170.03 219.928 170.03 218.95 167.79L217.84 165.282L216.687 162.625L214.297 157.211L213.119 154.531C211.589 151.09 210.029 147.663 208.438 144.25L206.996 141.14L206 139H205L204.94 142.09C204.864 145.865 204.775 149.64 204.683 153.417C204.644 155.051 204.609 156.687 204.578 158.323C204.533 160.671 204.475 163.019 204.414 165.367L204.379 167.59C204.228 172.772 204.228 172.772 202 175C199.29 175.199 196.707 175.278 194 175.25L191.766 175.273C186.253 175.253 186.253 175.253 184 173C183.801 170.24 183.727 167.58 183.741 164.818L183.731 162.256C183.721 159.452 183.728 156.648 183.734 153.844L183.729 148.015C183.726 143.94 183.729 139.865 183.739 135.789C183.751 130.556 183.744 125.323 183.732 120.091C183.726 116.077 183.726 112.064 183.732 108.051C183.734 106.121 183.732 104.192 183.727 102.262C183.722 99.5687 183.73 96.8747 183.741 94.1817L183.729 91.7477C183.793 83.4837 187.01 83.6377 194.375 83.6247Z"/>
<path d="M315.242 88.5971C316.889 89.9951 318.455 91.4881 320 92.9991C319.467 97.0071 318.411 99.2181 315.75 102.249L313.984 104.327C311.567 106.364 310.154 106.864 307 106.999C304.64 105.968 304.64 105.968 302.25 104.499C297.864 102.159 294.882 101.374 289.977 102.284C286.136 103.674 284.032 106.324 281.945 109.71C277.178 121.254 277.711 138.812 282.109 150.26C283.754 153.471 285.811 155.405 289 156.999C290.707 157.066 292.416 157.087 294.125 157.062L299 156.999V142.999L295.125 141.999C291.325 140.576 291.325 140.576 290.023 138.265C288.893 133.909 288.641 129.48 289 124.999C291 122.999 291 122.999 293.674 122.756L297.031 122.769L300.676 122.774L304.5 122.811L308.324 122.813C317.72 122.859 317.72 122.859 320 123.999C322.163 130.401 321.306 138.043 321.35 144.744C321.367 146.581 321.394 148.418 321.432 150.254C321.487 152.909 321.509 155.562 321.523 158.218L321.593 160.702C321.571 166.412 321.571 166.412 318.593 169.473L316 170.999L314 172.194C302.594 177.496 289.72 178.585 277.813 174.374C268.866 170.404 263.023 163.847 259 154.999C253.246 139.669 254.153 119.375 260.066 104.276C264.622 94.3091 270.717 87.9341 281 83.9991C292.018 80.1191 305.669 81.7751 315.242 88.5971Z"/>
<path d="M384 86.9997C385.366 87.9556 386.7 88.9561 388 89.9997C387.452 94.2827 385.976 96.8507 383.438 100.313L381.496 102.988L380 105C376.785 104.428 373.626 103.57 370.563 102.438C366.028 100.901 362.295 100.132 357.688 101.875C355.841 102.905 355.841 102.905 355 105C354.644 108.276 354.44 110.223 356.402 112.95C360.869 116.476 366.252 117.985 371.559 119.912C377.701 122.232 382.659 124.497 386.426 130.132L387.313 132.125L388.238 134.133C391.35 141.761 391.198 150.887 388.25 158.563C384.17 167.189 377.917 171.746 369.047 175.125C357.197 178.528 343.355 177.199 332.125 172.063C327.837 169.233 327.837 169.233 327 166C328.014 163.545 329.027 161.505 330.375 159.25L331.415 157.426C332.265 155.944 333.127 154.468 334 153C338.442 152.838 340.21 153.708 344 156C350.215 158.168 356.228 159.284 362.375 156.438C365.266 154.151 365.266 154.151 366.125 150.5C366.354 147.006 366.354 147.006 364.305 144.927C361.92 142.933 359.875 141.843 357.008 140.668L354.121 139.436C352.134 138.608 350.145 137.788 348.152 136.975C340.468 133.672 336.45 130.002 332.125 122.938C329.407 115.711 330.014 106.708 332.625 99.5617C336.252 91.8397 340.979 87.0197 349 83.9997C359.964 80.8777 373.87 81.9597 384 86.9997Z"/>
<path d="M408.766 83.7266L411 83.7496L413.234 83.7266C418.747 83.7466 418.747 83.7466 421 85.9996C421.21 88.8386 421.294 91.5806 421.29 94.4216L421.31 97.0636C421.33 99.9586 421.334 102.854 421.336 105.75L421.356 111.79C421.367 116.02 421.372 120.25 421.371 124.481C421.371 129.883 421.398 135.285 421.432 140.688C421.454 144.852 421.458 149.016 421.457 153.181C421.46 155.171 421.469 157.161 421.484 159.151C421.637 180.871 421.637 180.871 414.852 189.84C406.558 197.653 406.558 197.653 402 199C398.247 198.36 396.899 196.899 394.188 194.188C392 191 392 191 391.313 188.563C392.209 185.222 393.998 183.572 396.493 181.234C400.328 175.55 400.296 167.954 400.287 161.299L400.307 158.822C400.32 157.065 400.33 155.309 400.336 153.553C400.344 150.775 400.364 147.997 400.388 145.219C400.444 138.33 400.48 131.441 400.516 124.552C400.546 118.709 400.586 112.866 400.636 107.022C400.656 104.282 400.664 101.542 400.672 98.8016L400.712 93.7946L400.71 91.4796C400.789 84.8236 402.126 83.7496 408.766 83.7266Z"/>
<path d="M467.813 82.5631L470.216 82.5851C478.912 82.8291 485.966 85.1561 492.406 91.1721C504.48 105.02 504.817 121.582 504 139C503.113 149.863 499.792 161.072 492.012 169.035C490.075 170.565 488.159 171.808 486 173L482.875 174.813C473.415 178.411 462.269 177.705 453 174C449.979 172.31 447.507 170.378 445 168L443.355 166.477C434.125 156.897 432.821 144.38 432.812 131.75L432.775 128.762C432.749 115.168 435.627 101.696 445.313 91.6131C452.235 84.9951 458.364 82.4361 467.813 82.5631ZM461 103C454.952 110.84 455.635 120.984 455.625 130.375L455.551 134.203C455.525 142.373 456.044 150.137 461.393 156.713C464.197 158.959 467.532 159.088 471 159C475.605 157.43 477.145 154.478 479.203 150.328C483.346 138.224 483.663 116.751 478 105C475.188 101.833 473.475 100.131 469.188 99.7501C465.523 100.037 463.878 100.744 461 103Z"/>
<path d="M488 57.9996C491.213 60.1976 492.274 62.1466 493 65.8746C493.27 69.2476 492.921 70.1576 491.313 73.3746C487.87 77.2816 487.87 77.2816 485 77.9996C480.172 77.9226 477.985 77.7126 474.063 74.8746C471.553 71.3756 471 69.2966 471 64.9996C472.315 60.7256 473.424 59.3536 477.25 56.9996C481.729 55.8056 483.777 56.1676 488 57.9996ZM462.656 59.3046C465.122 62.4156 465.122 66.1376 465 69.9996C463.438 73.6696 462.34 74.7726 459 76.9996C453.971 77.8096 450.175 77.8146 445.938 74.8746C443.748 71.6246 443 69.9166 443 65.9996C444.45 61.6496 445.149 59.5666 449 56.9996C453.798 55.3996 458.624 56.1276 462.656 59.3046Z"/>
<path d="M90.285 209.679L94 209.689L97.621 209.639C107.081 209.634 116.628 210.486 124 217.001C128.786 222.854 129.73 228.457 129.426 235.907C128.552 242.254 125.868 246.829 121 251.001C121.727 254.246 121.727 254.246 124.813 255.751C129.241 258.877 131.138 262.201 132.75 267.438C133.613 276.286 132.368 283.353 128.313 291.313C124.1 296.208 119.369 298.991 113 300.001C108.355 300.195 103.71 300.187 99.06 300.186C96.81 300.189 94.558 300.206 92.307 300.226C90.8777 300.229 89.4486 300.231 88.02 300.231L84.085 300.244C81 300.001 81 300.001 79 298.001C78.801 295.271 78.727 292.642 78.741 289.911L78.731 287.378C78.721 284.607 78.728 281.835 78.734 279.063L78.729 273.302C78.7257 269.273 78.729 265.245 78.739 261.217C78.751 256.045 78.744 250.873 78.732 245.701C78.7258 241.734 78.7258 237.767 78.732 233.801C78.734 231.893 78.7323 229.985 78.727 228.078C78.722 225.416 78.73 222.753 78.741 220.091L78.729 217.685C78.798 208.872 82.631 209.725 90.285 209.679ZM92 224.001C91.69 226.295 91.69 226.295 91.734 228.938L91.727 231.899L91.75 235.001L91.727 238.103L91.734 241.063L91.741 243.786C91.791 246.206 91.791 246.206 94 248.001C100.568 248.84 106.272 248.342 112 245.001C115.402 242.053 115.662 238.477 116 234.181C116 230.059 114.701 227.815 112.063 224.751C108.416 221.657 105.048 221.839 100.437 221.813L96.934 221.771C93.877 221.691 93.877 221.691 92 224.001ZM92 261.001C91.722 263.721 91.722 263.721 91.805 266.884L91.825 270.419L91.875 274.126L91.902 277.856C91.926 280.904 91.9587 283.953 92 287.001C97.955 290.121 103.518 289.659 109.875 287.688C112.975 286.638 114.897 285.533 117 283.001C119.182 277.545 119.588 272.636 118 267.001C115.638 262.715 112.647 260.432 108 259.001C104.485 258.686 104.485 258.686 100.813 258.751L97.082 258.735C93.895 258.677 93.895 258.677 92 261.001Z"/>
<path d="M133 210C134.915 209.865 136.832 209.768 138.75 209.688L141.984 209.512C145 210 145 210 147.002 212.08C149.209 215.304 150.636 218.56 151.98 222.198L152.763 224.248C153.58 226.391 154.384 228.538 155.187 230.687C156.004 232.844 156.823 235.001 157.644 237.157C158.151 238.495 158.657 239.834 159.16 241.174C160.461 244.637 160.461 244.637 162 247.999H164C165.211 244.999 166.42 241.999 167.625 238.999L168.723 236.273C170.464 231.929 172.173 227.581 173.762 223.179L174.562 220.968C175.053 219.598 175.535 218.225 176.008 216.851C177.269 213.338 177.788 212.141 181 209.999C183.7 209.804 183.7 209.804 186.688 209.874L189.699 209.929L192 210C193.058 213.176 193.014 214.732 191.586 217.746L190.546 219.992L189.375 222.438L186.898 227.773L185.511 230.741C182.916 236.337 180.401 241.968 177.881 247.598C177.008 249.546 176.132 251.492 175.255 253.438L173.625 257.066L172.165 260.315C170.203 264.839 169.844 268.3 169.754 273.223L169.654 277.541C169.606 279.807 169.563 282.074 169.524 284.342C169.484 286.532 169.432 288.721 169.379 290.91L169.303 294.883C169 298 169 298 167 300C164.906 300.266 164.906 300.266 162.5 300.25L160.094 300.266C158 300 158 300 156 298C155.856 295.232 155.856 295.232 155.973 291.684C156.233 273.627 154.149 260.482 145.636 244.199C142.92 238.889 140.492 233.452 138.066 228.005C137.266 226.223 136.444 224.45 135.622 222.678L134.141 219.418L132.813 216.536C131.943 213.823 131.999 212.623 133 210Z"/>
<path d="M243.164 213.38C244.813 214.751 244.813 214.751 247 217.001C244.125 223.876 244.125 223.876 243 225.001C239.412 225.545 237.403 224.761 234.375 223.001C229.346 220.325 224.577 220.303 219 221.001C215.26 222.248 213.635 222.933 211.625 226.314C210.581 230.802 210.336 233.683 212.449 237.88C215.374 242.076 219.689 243.833 224.187 246.001C225.904 246.869 227.619 247.74 229.332 248.614L231.795 249.863C240.318 254.263 246.022 258.605 249.375 267.751C250.832 274.981 250.015 282.704 246.359 289.153C241.439 295.84 235.221 299.696 227.25 301.689C215.394 302.829 203.632 301.707 194 294.001C194.432 289.249 195.328 287.081 199 284.001C202.196 285.014 205.093 286.051 208.063 287.626C214.388 290.393 222.171 289.879 228.625 287.876C231.648 285.489 232.74 283.64 234 280.001C234.529 274.977 234.133 271.998 231 268.001C225.744 263.143 219.134 260.411 212.748 257.331C205.491 253.679 201.175 249.771 197.125 242.751C194.783 234.944 195.17 227.247 199 220.001C202.638 214.207 208.402 210.541 214.938 208.689C224.561 206.768 234.743 208.015 243.164 213.38Z"/>
<path d="M259.785 209.742L262.799 209.723L266.062 209.735L269.402 209.73C271.736 209.728 274.07 209.732 276.403 209.74C279.985 209.751 283.567 209.74 287.148 209.728C289.411 209.728 291.674 209.73 293.938 209.735L297.201 209.723L300.215 209.743C301.093 209.743 301.97 209.745 302.875 209.747C305 210.001 305 210.001 307 212.001C307.341 215.141 307.341 217.275 305.988 220.153C302.995 222.935 299.762 222.637 295.875 222.688C291.052 222.382 291.052 222.382 287 224.001C286.886 226.291 286.843 228.584 286.826 230.876L286.806 233.054C286.792 234.619 286.78 236.184 286.77 237.75C286.753 240.225 286.731 242.7 286.705 245.174C286.636 252.212 286.575 259.251 286.523 266.289C286.49 270.589 286.45 274.889 286.403 279.189C286.387 280.831 286.375 282.473 286.366 284.116C286.352 286.409 286.331 288.702 286.303 290.996L286.272 294.958C286 298.001 286 298.001 284 300.001C281.906 300.267 281.906 300.267 279.5 300.251L277.094 300.267C275 300.001 275 300.001 273 298.001C272.728 294.958 272.728 294.958 272.697 290.997L272.671 288.814C272.646 286.427 272.634 284.04 272.621 281.654C272.605 279.999 272.588 278.345 272.57 276.692C272.524 272.334 272.49 267.976 272.457 263.618C272.405 256.638 272.342 249.658 272.269 242.679C272.247 240.235 272.229 237.79 272.214 235.345L272.174 230.875L272.144 226.917C272.332 224.11 272.332 224.11 271 223.001C267.608 222.77 264.212 222.597 260.814 222.483C255.214 222.214 255.214 222.214 253 220.001C252.734 218.126 252.734 218.126 252.75 216.001L252.734 213.876C253.341 209.594 256.16 209.749 259.785 209.742Z"/>
<path d="M317.094 209.734L319.5 209.75L321.906 209.734C324 210 324 210 326 212C326.265 214.438 326.265 214.438 326.287 217.544L326.327 221.067L326.344 224.898L326.411 230.862C326.449 234.366 326.474 237.871 326.5 241.375C326.53 245.518 326.564 249.661 326.612 253.804C326.641 256.384 326.661 258.964 326.672 261.544C326.238 274.649 326.238 274.649 330.889 286.273C335.311 289.892 340.556 289.47 346 289C349.574 287.631 350.648 286.59 352.604 283.314C354.151 279.641 354.384 277.079 354.401 273.108L354.421 271.106C354.441 268.94 354.441 266.775 354.441 264.609C354.454 263.099 354.467 261.588 354.481 260.076C354.518 256.111 354.538 252.147 354.553 248.182C354.577 241.823 354.618 235.464 354.675 229.104C354.691 226.884 354.695 224.662 354.698 222.44L354.728 218.374L354.742 214.782C355 212 355 212 357 210C359.094 209.734 359.094 209.734 361.5 209.75L363.906 209.734C366 210 366 210 368 212C368.26 214.837 368.26 214.837 368.275 218.51L368.29 220.536C368.304 222.755 368.303 224.973 368.3 227.191L368.314 231.826C368.321 235.072 368.321 238.318 368.316 241.564C368.31 245.704 368.326 249.844 368.35 253.984C368.365 257.18 368.366 260.375 368.363 263.571C368.363 265.096 368.368 266.621 368.378 268.146C368.433 277.495 368.168 285.423 363.438 293.75C356.168 300.46 347.52 302.35 337.906 302.207C330.11 301.652 324.286 299.324 318.625 293.891C313.129 287.497 312.882 279.287 312.855 271.178L312.835 267.195L312.832 262.949L312.822 258.554C312.816 255.498 312.814 252.441 312.815 249.384C312.815 245.461 312.801 241.54 312.784 237.618C312.774 234.598 312.77 231.579 312.771 228.561C312.77 227.115 312.766 225.668 312.758 224.221C312.748 222.205 312.752 220.19 312.758 218.175L312.753 214.699C313.055 211.394 313.693 210.166 317.093 209.734"/>
<path d="M432 213.001L433.95 213.981C435.625 214.939 435.625 214.939 438 217.001C438.625 219.501 438.625 219.501 438 222.001C436.001 224.741 434.867 225.849 431.5 226.439C428.54 225.921 427.34 224.844 425 223.001C419.799 220.805 415.205 219.964 409.73 221.735C403.595 224.544 401.365 228.127 398.875 234.282C396.66 241.165 396.745 247.89 396.688 255.063L396.6 258.593C396.537 267.204 397.118 276.574 403.044 283.331C407.257 287.208 410.559 289.146 416.375 289.126L418.648 289.134C421.175 288.991 423.526 288.518 426 288.001C426.029 284.189 426.047 280.376 426.063 276.564L426.088 273.264L426.098 270.13L426.114 267.226C426.251 265.028 426.251 265.028 425 264.001C422.452 263.718 419.905 263.553 417.348 263.38C415 263.001 415 263.001 413 261.001C412.25 257.501 412.25 257.501 412 254.001C414.609 251.392 415.745 251.744 419.375 251.735L422.609 251.728L426 251.751L429.39 251.728L432.625 251.735L435.602 251.742C438 252.001 438 252.001 440 254.001C440.233 256.772 440.357 259.552 440.371 262.333L440.398 264.844C440.413 266.6 440.422 268.356 440.426 270.113C440.437 272.793 440.486 275.471 440.537 278.151C440.547 279.858 440.554 281.564 440.559 283.271L440.618 285.692C440.583 289.962 440.388 291.52 437.605 294.964C429.86 301.021 420.678 302.871 411 302.001C400.847 299.918 394.184 295.246 388 287.001C379.288 273.084 379.527 253.515 383 238.001C385.45 227.931 389.943 218.688 399 213.001C409.893 207.114 421.093 207.282 432 213.001Z"/>
<path d="M463.452 209.748L466.129 209.77H468.871C470.785 209.774 472.699 209.782 474.613 209.794C477.554 209.812 480.495 209.814 483.436 209.814L489.004 209.832L491.687 209.835C497.884 209.884 497.884 209.884 499 211C498.95 212.996 498.95 212.996 498.687 215.437L498.449 217.871C498 220 498 220 496 222C493.386 222.319 493.386 222.319 490.117 222.414L486.582 222.531L482.875 222.625L479.145 222.742C476.096 222.837 473.048 222.923 470 223C468.774 225.453 468.886 227.05 468.902 229.79L468.912 232.64L468.937 235.625L468.951 238.633C468.963 241.088 468.979 243.544 469 246C471.845 246.818 474.303 247.101 477.258 247.027L479.652 246.99C481.309 246.955 482.965 246.916 484.622 246.873C486.748 246.843 488.875 246.915 491 247C493 249 493 249 493.266 250.875L493.25 253L493.266 255.125C493 257 493 257 491 259C488.753 259.319 488.753 259.319 485.992 259.414L483.004 259.531L479.875 259.625L476.723 259.742C474.15 259.837 471.575 259.923 469 260C468.971 264.125 468.953 268.25 468.937 272.375L468.912 275.937L468.902 279.336L468.886 282.478C468.829 284.996 468.829 284.996 470 287L472.539 287.076C475.644 287.171 478.749 287.27 481.853 287.372C483.859 287.436 485.865 287.498 487.871 287.557L491.68 287.684L495.203 287.794C498 288 498 288 500 289C500.027 290.647 500.047 292.292 500.062 293.937L500.098 296.715C500 299 500 299 499 300C495.92 300.114 492.865 300.164 489.785 300.168L486.979 300.178C485.016 300.183 483.053 300.185 481.09 300.185C478.079 300.187 475.068 300.205 472.057 300.225C470.154 300.228 468.251 300.23 466.347 300.23L463.605 300.252L461.067 300.242L458.828 300.247C457 300 457 300 455 298C454.801 295.27 454.727 292.641 454.741 289.91L454.731 287.377C454.721 284.606 454.728 281.834 454.734 279.062L454.729 273.301C454.726 269.272 454.729 265.244 454.739 261.216C454.751 256.044 454.744 250.872 454.732 245.7C454.726 241.733 454.726 237.767 454.732 233.8C454.734 231.893 454.732 229.985 454.727 228.077C454.722 225.415 454.73 222.752 454.741 220.09L454.729 217.684C454.785 210.467 456.385 209.774 463.452 209.748Z"/>
<path d="M86.385 335.748L88.598 335.77H90.868C92.4533 335.774 94.038 335.782 95.622 335.794C98.056 335.812 100.49 335.814 102.924 335.814L107.535 335.832L109.755 335.835C114.884 335.884 114.884 335.884 116 337C116.188 340.437 116.188 340.437 116 344C113.52 346.48 112.67 346.28 109.246 346.379L106.408 346.482L103.438 346.562C101.498 346.622 99.559 346.686 97.621 346.754L95.01 346.826C93.003 346.783 93.003 346.783 92 348C91.9078 349.404 91.8634 350.812 91.867 352.219L91.863 354.793L91.875 357.5L91.863 360.207L91.867 362.781L91.871 365.158C91.799 367.018 91.799 367.018 93 368C96.396 368.237 99.784 368.396 103.186 368.518C108.786 368.787 108.786 368.787 111 371C111.188 374.562 111.188 374.562 111 378C108.69 380.31 102.372 379.462 99.082 379.605C95.225 379.427 95.225 379.427 92 381C91.865 383.423 91.79 385.821 91.754 388.246L91.654 392.721C91.6065 395.082 91.5632 397.444 91.524 399.805C91.484 402.077 91.432 404.349 91.379 406.621L91.353 408.768C91.227 413.773 91.227 413.773 89 416C87.125 416.266 87.125 416.266 85 416.25L82.875 416.266C81 416 81 416 79 414C78.8077 411.614 78.7213 409.221 78.741 406.828L78.731 404.591C78.721 402.144 78.728 399.697 78.734 397.25L78.729 392.161C78.7257 388.604 78.729 385.046 78.739 381.488C78.751 376.921 78.744 372.355 78.732 367.788C78.726 364.285 78.726 360.781 78.732 357.278C78.734 355.593 78.7323 353.909 78.727 352.225C78.722 349.874 78.73 347.523 78.741 345.172L78.729 343.05C78.784 336.82 80.227 335.776 86.385 335.748Z"/>
<path d="M167.25 340.064C176.387 348.605 178.933 361.964 179.351 373.924C179.5 386.569 178.131 400.494 169.074 410.028C162.587 416.002 156.779 417.883 148 418.001C140.426 417.236 135.072 414.412 129.875 408.814C122.047 399.224 120.607 387.788 120.625 375.814L120.63 372.453C120.801 361.01 122.53 350.794 130.715 342.2C141.929 331.475 154.613 332.045 167.25 340.064ZM138.813 349.063C133.795 357.194 133.48 365.98 133.563 375.313L133.585 378.928C133.775 393.194 133.775 393.194 140.688 405.25C145.998 408.056 150.453 408.735 156.25 407.063C162.192 402.606 164.668 396.752 165.719 389.516C166.81 375.876 167.415 361.988 161.25 349.437C157.881 345.787 154.317 344.339 149.438 343.625C145.073 344.296 142.006 346.051 138.813 349.063Z"/>
<path d="M138.438 315.688C142 316 142 316 143.938 317.125C145.53 319.935 145.453 321.828 145 325C143.438 327.438 143.438 327.438 141 329C137.375 328.938 137.375 328.938 134 328C132 325 132 325 132.25 321.438C133.246 316.871 133.745 316.113 138.438 315.688ZM164 316C166 317.563 166 317.563 167 320C166.875 323.625 166.875 323.625 166 327C163 329 163 329 159.438 328.75C156 328 156 328 154 326C153.454 319.995 153.454 319.994 155.063 317.062C158.155 315.367 160.555 315.569 164 316Z"/>
<path d="M206.5 335.562L209.977 335.462C217.667 335.414 223.643 336.474 230 340.999C235.905 347.214 236.354 353.173 236.277 361.409C235.781 367.831 233.807 372.713 228.937 376.999C226 378.999 226 378.999 223 379.999C223.599 384.237 225.084 387.294 227.195 390.999L229.113 394.437C230.119 396.224 231.131 398.008 232.149 399.788C233.135 401.518 234.103 403.258 235.07 404.999L236.844 408.124C238.129 411.32 238.038 412.769 237 415.999C235.42 416.135 233.835 416.231 232.25 416.312L229.578 416.487C227 415.999 227 415.999 224.914 413.96C222.689 410.518 220.884 407.007 219.125 403.311C216.767 398.503 214.401 393.717 211.75 389.061L210.422 386.721C208.697 384.631 207.589 384.531 205 383.999L204.94 386.721C204.861 390.05 204.776 393.378 204.683 396.707C204.644 398.148 204.609 399.59 204.578 401.031C204.533 403.101 204.475 405.171 204.414 407.241L204.319 411.018C204 413.999 204 413.999 202 415.999C200.125 416.265 200.125 416.265 198 416.249L195.875 416.265C194 415.999 194 415.999 192 413.999C191.808 411.613 191.721 409.22 191.741 406.827L191.731 404.59C191.721 402.143 191.728 399.696 191.734 397.249L191.729 392.16C191.726 388.602 191.729 385.044 191.739 381.487C191.751 376.92 191.744 372.354 191.732 367.787C191.726 364.284 191.726 360.78 191.732 357.277C191.734 355.592 191.732 353.908 191.727 352.224C191.722 349.873 191.73 347.522 191.741 345.171L191.729 343.049C191.813 333.574 198.895 335.6 206.5 335.562ZM204 347.999C203.69 350.293 203.69 350.293 203.734 352.937L203.727 355.897L203.75 358.999L203.727 362.101L203.734 365.061L203.741 367.784C203.791 370.204 203.791 370.204 206 371.999C210.487 372.61 214.703 372.496 218.938 370.874C222.05 368.044 223.672 365.248 224.285 361.042C224.492 356.349 223.745 352.932 221 348.999C216.33 345.664 208.465 343.534 204 347.999Z"/>
<path d="M256.512 335.723L258.782 335.735L261.112 335.73C262.739 335.728 264.367 335.732 265.995 335.74C268.49 335.751 270.985 335.74 273.48 335.728C275.06 335.728 276.64 335.73 278.219 335.735L280.489 335.723C285.77 335.771 285.77 335.771 288 338.001C287.75 341.564 287.75 341.564 287 345.001C284.54 346.231 282.775 346.191 280.027 346.282L277.053 346.396L270.811 346.606L267.84 346.72L265.101 346.812C263.014 346.774 263.014 346.774 262 348.001C261.908 349.405 261.863 350.812 261.867 352.22L261.863 354.794L261.875 357.501L261.863 360.208L261.867 362.782L261.871 365.159C261.799 367.019 261.799 367.019 263 368.001C266.825 368.238 270.644 368.398 274.475 368.519L276.902 368.622L279.136 368.698C281 369.001 281 369.001 283 371.001C283.25 374.001 283.25 374.001 283 377.001C280.647 379.354 280.101 379.271 276.902 379.38L274.475 379.483L271.937 379.563C266.543 379.264 266.543 379.264 262 381.001C261.919 382.709 261.886 384.419 261.902 386.13L261.912 389.265L261.937 392.564L261.951 395.874C261.963 398.583 261.979 401.292 262 404.001L264.247 404.045C267.603 404.12 270.957 404.216 274.312 404.314L277.85 404.382L281.238 404.489L284.365 404.569C287 405.001 287 405.001 288.875 406.306C290 408.001 290 408.001 289.75 411.626C289 415.001 289 415.001 288 416.001C285.284 416.114 282.595 416.165 279.879 416.169L277.409 416.179C275.682 416.183 273.954 416.186 272.226 416.186C269.577 416.188 266.928 416.206 264.279 416.226C262.604 416.229 260.929 416.231 259.254 416.231L256.842 416.253C251.229 416.23 251.229 416.23 249 414.001C248.808 411.615 248.721 409.222 248.741 406.829L248.731 404.592C248.721 402.145 248.728 399.698 248.734 397.251L248.729 392.162C248.726 388.604 248.729 385.046 248.739 381.489C248.751 376.922 248.744 372.356 248.732 367.789C248.726 364.285 248.726 360.782 248.732 357.279C248.734 355.594 248.732 353.91 248.727 352.226C248.722 349.875 248.73 347.524 248.741 345.173L248.729 343.051C248.785 336.741 250.304 335.779 256.512 335.723Z"/>
<path d="M306.938 335.688L309.59 335.637C312.585 336.088 313.1 336.675 315 339C316.029 341.079 316.992 343.189 317.89 345.328L318.696 347.213C319.554 349.223 320.402 351.236 321.25 353.25C322.413 355.98 323.578 358.71 324.746 361.438L325.605 363.45C328.225 369.57 331.022 375.588 333.925 381.578C335 384 335 384 335 386L337 385L336.987 383.23C336.943 377.163 336.911 371.096 336.89 365.03C336.88 362.763 336.867 360.497 336.85 358.231C336.825 354.98 336.814 351.728 336.805 348.477L336.773 345.392V342.542L336.759 340.025C337 338 337 338 339 336C340.875 335.734 340.875 335.734 343 335.75L345.125 335.734C347 336 347 336 349 338C349.198 340.428 349.273 342.743 349.259 345.172L349.269 347.409C349.279 349.856 349.272 352.303 349.266 354.75L349.271 359.839C349.274 363.397 349.271 366.954 349.261 370.512C349.249 375.079 349.256 379.645 349.268 384.212C349.274 387.715 349.274 391.218 349.268 394.722C349.266 396.406 349.268 398.091 349.273 399.775C349.278 402.126 349.27 404.477 349.259 406.828L349.271 408.95C349.229 413.771 349.229 413.771 347 416C344.977 416.336 344.977 416.336 342.625 416.375L340.289 416.461C337.023 415.803 336.149 414.574 334 412C332.39 409.032 331.07 405.954 329.742 402.852L328.563 400.154C327.743 398.274 326.928 396.393 326.118 394.511C324.879 391.639 323.632 388.771 322.378 385.906C321.206 383.214 320.036 380.521 318.868 377.828C317.05 373.6 315.37 369.401 314 365L312 366L312.013 367.809C312.057 374.005 312.089 380.201 312.11 386.398C312.12 388.712 312.133 391.027 312.15 393.341C312.175 396.662 312.186 399.983 312.195 403.305L312.227 406.455V409.367L312.241 411.937C312 414 312 414 310 416C308.125 416.266 308.125 416.266 306 416.25L303.875 416.266C302 416 302 416 300 414C299.808 411.614 299.721 409.221 299.741 406.828L299.731 404.591C299.721 402.144 299.728 399.697 299.734 397.25L299.729 392.161C299.726 388.603 299.729 385.045 299.739 381.488C299.751 376.921 299.744 372.355 299.732 367.788C299.726 364.284 299.726 360.781 299.732 357.278C299.734 355.593 299.732 353.909 299.727 352.225C299.722 349.874 299.73 347.523 299.741 345.172L299.729 343.05C299.781 337.132 301.073 335.714 306.938 335.688Z"/>
<path d="M367.875 335.734L370 335.75L372.125 335.734C374 336 374 336 376 338C376.198 340.428 376.273 342.743 376.259 345.172L376.269 347.409C376.279 349.856 376.272 352.303 376.266 354.75L376.271 359.839C376.274 363.397 376.271 366.955 376.261 370.512C376.249 375.079 376.256 379.645 376.268 384.212C376.274 387.716 376.274 391.219 376.268 394.722C376.266 396.407 376.268 398.091 376.273 399.775C376.278 402.126 376.27 404.477 376.259 406.828L376.271 408.95C376.229 413.771 376.229 413.771 374 416C372.125 416.266 372.125 416.266 370 416.25L367.875 416.266C366 416 366 416 364 414C363.808 411.615 363.721 409.222 363.741 406.828L363.731 404.591C363.721 402.144 363.728 399.697 363.734 397.25L363.729 392.161C363.726 388.603 363.729 385.046 363.739 381.488C363.751 376.921 363.744 372.355 363.732 367.788C363.726 364.285 363.726 360.782 363.732 357.278C363.734 355.594 363.732 353.909 363.727 352.225C363.722 349.874 363.73 347.523 363.741 345.172L363.729 343.05C363.789 336.313 363.789 336.313 367.875 335.734Z"/>
<path d="M398.813 335.375L401.395 335.148C405.609 336.526 406.918 340.251 409 344C410.486 346.944 411.841 349.936 413.172 352.953L414.287 355.446C415.056 357.17 415.822 358.894 416.585 360.619C417.756 363.259 418.932 365.897 420.113 368.531C420.863 370.214 421.612 371.896 422.359 373.578L423.423 375.958L424.405 378.185L425.268 380.13C426.025 382.064 426.54 383.976 427 386L429 385L428.987 383.23C428.943 377.164 428.911 371.097 428.89 365.03C428.88 362.764 428.867 360.497 428.85 358.231C428.825 354.98 428.814 351.728 428.805 348.477L428.773 345.392V342.542L428.759 340.025C429 338 429 338 431 336C432.875 335.734 432.875 335.734 435 335.75L437.125 335.734C439 336 439 336 441 338C441.198 340.428 441.273 342.743 441.259 345.172L441.269 347.409C441.279 349.856 441.272 352.303 441.266 354.75L441.271 359.839C441.274 363.397 441.271 366.955 441.261 370.512C441.249 375.079 441.256 379.645 441.268 384.212C441.274 387.716 441.274 391.219 441.268 394.722C441.266 396.407 441.268 398.091 441.273 399.775C441.278 402.126 441.27 404.477 441.259 406.828L441.271 408.95C441.229 413.771 441.229 413.771 439 416C436.977 416.336 436.977 416.336 434.625 416.375L432.289 416.461C429.089 415.817 428.119 414.474 426 412C424.825 409.735 423.743 407.421 422.758 405.066L421.876 403.025C420.95 400.875 420.037 398.719 419.125 396.563C418.22 394.448 417.313 392.333 416.405 390.219C415.809 388.831 415.215 387.443 414.622 386.053C412.227 380.459 409.679 374.95 407.062 369.457C406 367 406 367 406 365L404 366L404.013 367.809C404.057 374.005 404.089 380.202 404.11 386.398C404.12 388.713 404.133 391.027 404.15 393.341C404.175 396.662 404.186 399.983 404.195 403.305L404.227 406.455V409.367L404.241 411.937C404 414 404 414 402 416C400.125 416.266 400.125 416.266 398 416.25L395.875 416.266C394 416 394 416 392 414C391.808 411.615 391.721 409.222 391.741 406.828L391.731 404.591C391.721 402.144 391.728 399.697 391.734 397.25L391.729 392.161C391.726 388.603 391.729 385.046 391.739 381.488C391.751 376.921 391.744 372.355 391.732 367.788C391.726 364.285 391.726 360.782 391.732 357.278C391.734 355.594 391.732 353.909 391.727 352.225C391.722 349.874 391.73 347.523 391.741 345.172L391.729 343.05C391.779 337.276 393.054 335.703 398.813 335.375Z"/>
<path d="M500 339C503.063 341.25 503.063 341.25 505 343C503.926 345.915 503.222 347.778 501 350C497.531 349.763 495.189 349.102 492.125 347.438C487.095 345.124 483.041 345.36 477.813 347C472.13 351.04 469.226 357.212 468 364C467.67 368.086 467.63 372.152 467.625 376.25L467.551 379.488C467.523 387.206 468.287 395.615 473.483 401.751C477.736 405.451 481.356 406.112 486.867 406.328C490.045 405.839 491.593 405.183 494 403C494.657 399.945 494.515 396.984 494.375 393.875L494.332 391.34C494.6 387.35 494.6 387.35 493 384C490.745 383.757 488.49 383.617 486.227 383.477C483.567 382.907 482.63 382.147 481 380C480.688 377.438 480.688 377.438 481 375C483.49 372.51 484.285 372.743 487.719 372.734L490.543 372.727L493.5 372.75L496.457 372.727L499.281 372.734L501.877 372.741C504 373 504 373 506 375C506.236 377.522 506.352 379.931 506.371 382.457L506.398 384.699C506.413 386.267 506.422 387.835 506.426 389.403C506.437 391.793 506.486 394.182 506.537 396.573C506.547 398.097 506.554 399.621 506.559 401.145L506.618 403.301C506.583 407.161 506.131 408.837 503.688 411.881C497.068 417.1 489.25 418.16 481 418C472.912 416.8 466.636 413.156 461.277 407.031C451.988 394.433 452.511 377.141 454.504 362.231C456.664 352.615 461.123 344.106 469 338C478.044 332.276 491.209 333.487 500 339Z"/>
</svg>
