<svg xmlns="http://www.w3.org/2000/svg" width="100%" height="100%" viewBox="0 0 420 150">
<g>
<path d="M 50.52 145.03 C50.19,144.49 48.20,143.59 46.11,143.03 C44.02,142.47 40.42,140.64 38.12,138.97 C29.94,133.05 27.27,124.71 30.90,116.49 C33.55,110.51 33.60,108.67 31.12,109.46 C28.73,110.22 20.13,103.57 17.05,98.57 C15.83,96.60 14.45,95.22 13.98,95.52 C12.61,96.36 6.00,83.63 6.00,80.15 C6.00,78.42 5.49,77.00 4.87,77.00 C3.78,77.00 4.14,68.92 5.67,58.85 C6.11,55.98 5.87,55.12 4.59,54.85 C3.25,54.56 3.79,53.05 7.57,46.50 C10.11,42.10 12.29,37.83 12.42,37.00 C12.55,36.17 16.90,32.25 22.08,28.28 C27.26,24.31 31.39,20.60 31.25,20.04 C30.99,18.95 39.91,13.92 44.00,12.86 L 46.50 12.22 L 44.25 11.49 C41.64,10.65 41.71,10.89 43.02,7.44 C43.99,4.89 44.30,4.78 48.89,5.39 C52.58,5.88 54.03,5.67 54.99,4.52 C56.85,2.27 60.74,2.60 61.52,5.07 C61.99,6.54 62.94,7.08 64.84,6.96 C70.01,6.63 70.45,7.17 66.50,9.00 C64.30,10.02 63.09,10.89 63.82,10.93 C64.54,10.97 66.00,10.53 67.07,9.96 C68.14,9.39 69.00,9.33 69.00,9.84 C69.00,11.09 66.91,12.68 64.50,13.28 C63.40,13.55 64.69,13.82 67.38,13.88 L 72.25 14.00 L 71.63 10.92 C71.19,8.71 71.37,7.95 72.26,8.25 C72.95,8.47 73.64,10.73 73.80,13.30 C74.10,17.76 74.26,17.99 77.94,18.98 C80.46,19.66 81.96,20.72 82.31,22.09 C82.67,23.44 82.45,23.99 81.68,23.66 C70.53,18.93 67.58,18.00 65.68,18.60 C63.57,19.27 63.57,19.30 66.02,20.29 C67.38,20.85 70.97,21.85 74.00,22.53 C78.69,23.58 79.18,23.89 77.30,24.63 C75.17,25.48 75.23,25.65 79.40,30.12 C81.76,32.65 84.55,35.21 85.59,35.79 C86.63,36.37 87.13,37.20 86.70,37.64 C86.26,38.07 84.99,37.85 83.86,37.14 C82.73,36.44 81.61,36.06 81.36,36.31 C81.12,36.55 82.39,37.69 84.20,38.83 C86.08,40.02 87.86,40.54 88.36,40.04 C89.98,38.42 85.69,31.65 81.75,29.60 C77.11,27.18 76.98,26.00 81.35,26.00 C83.79,26.00 86.44,27.30 91.10,30.77 C94.62,33.40 97.41,35.99 97.30,36.52 C97.19,37.06 98.22,39.41 99.59,41.74 C106.29,53.18 106.62,54.49 106.21,68.27 C105.88,79.52 105.64,81.02 104.17,80.77 C103.05,80.59 102.39,81.32 102.17,83.00 C101.84,85.60 92.05,102.00 90.84,102.00 C90.46,102.00 89.98,101.21 89.77,100.25 C89.51,99.04 88.60,100.02 86.84,103.41 C84.41,108.11 84.27,108.21 83.65,105.74 C83.21,103.97 83.79,101.59 85.50,98.18 C88.02,93.17 88.47,90.34 87.38,86.30 L 86.80 84.11 L 81.65 86.14 C78.82,87.25 76.37,88.30 76.20,88.47 C76.04,88.63 76.20,89.94 76.56,91.38 C77.44,94.88 79.21,94.76 78.41,91.25 L 77.78 88.50 L 80.77 91.50 C83.82,94.57 84.02,96.00 81.40,96.00 C80.21,96.00 80.06,96.76 80.66,99.75 C82.12,106.99 81.74,109.33 79.00,109.99 C76.60,110.56 76.48,110.97 75.93,120.22 C75.38,129.52 75.23,130.01 71.60,134.45 C68.00,138.84 62.74,142.00 59.03,142.00 C58.09,142.00 56.50,142.90 55.50,144.00 C53.55,146.16 51.48,146.58 50.52,145.03 ZM 48.05 133.25 C48.20,112.14 48.55,106.66 49.75,106.25 C50.61,105.96 51.04,107.18 51.12,110.17 C51.23,114.20 51.29,114.29 52.00,111.50 C52.71,108.70 52.78,108.80 53.02,113.00 L 53.28 117.50 L 54.31 112.75 C55.50,107.24 57.00,106.47 57.00,111.38 C57.00,118.11 55.93,121.00 53.43,121.00 C52.16,121.00 50.91,121.34 50.65,121.75 C50.40,122.17 51.61,122.51 53.34,122.50 L 56.50 122.50 L 56.23 130.75 C55.94,139.94 56.08,140.08 62.89,137.62 C66.85,136.19 69.85,130.14 69.94,123.40 C70.03,116.85 67.07,110.29 65.78,114.16 C65.15,116.06 61.00,108.13 61.00,105.03 C61.00,103.45 60.52,102.01 59.92,101.81 C59.27,101.59 59.12,100.36 59.55,98.66 L 60.25 95.87 L 63.08 99.19 L 65.92 102.50 L 65.96 98.78 C65.99,95.74 65.70,95.18 64.36,95.69 C63.23,96.12 62.88,95.88 63.22,94.91 C63.49,94.13 64.51,93.65 65.48,93.82 C66.89,94.08 67.14,93.67 66.68,91.82 C64.62,83.60 64.62,83.64 66.48,84.35 C68.03,84.95 68.17,84.61 67.62,81.77 C66.85,77.85 63.91,73.62 61.64,73.18 C60.25,72.90 60.00,73.88 60.01,79.68 C60.01,88.61 57.87,107.00 56.82,107.00 C56.37,107.00 56.00,105.88 56.00,104.50 C56.00,103.12 55.55,102.00 55.00,102.00 C54.45,102.00 54.00,103.41 54.00,105.14 L 54.00 108.27 L 51.66 105.89 C50.37,104.57 48.86,102.66 48.30,101.63 C47.46,100.07 46.99,100.86 45.49,106.38 C44.51,110.02 43.43,113.00 43.09,113.00 C41.84,113.00 39.82,108.73 40.78,108.12 C41.31,107.78 42.07,106.04 42.45,104.25 C42.84,102.46 44.11,100.34 45.27,99.52 C46.43,98.71 47.09,97.75 46.73,97.40 C46.37,97.04 46.79,95.38 47.65,93.70 C48.85,91.39 49.13,88.55 48.81,81.86 C48.58,77.01 48.06,72.73 47.67,72.34 C46.04,70.70 43.64,75.33 42.33,82.67 C41.55,86.98 40.98,91.40 41.05,92.50 C41.65,102.15 41.16,104.65 37.12,112.30 C32.33,121.37 31.94,125.51 35.25,131.96 C37.48,136.32 42.51,140.00 46.23,140.00 C47.74,140.00 48.01,139.02 48.05,133.25 ZM 53.66 136.75 C53.38,136.06 53.16,136.62 53.16,138.00 C53.16,139.38 53.38,139.94 53.66,139.25 C53.94,138.56 53.94,137.44 53.66,136.75 ZM 50.68 129.81 C50.36,129.01 50.13,129.25 50.08,130.42 C50.04,131.47 50.27,132.06 50.60,131.73 C50.94,131.40 50.97,130.53 50.68,129.81 ZM 73.96 125.55 C74.02,122.53 72.30,125.00 71.57,129.00 C70.93,132.48 70.93,132.48 72.43,130.00 C73.25,128.62 73.95,126.62 73.96,125.55 ZM 70.00 110.74 C70.00,109.78 64.85,104.82 64.36,105.31 C64.18,105.49 64.54,106.97 65.16,108.60 C65.85,110.43 66.99,111.57 68.14,111.57 C69.16,111.57 70.00,111.20 70.00,110.74 ZM 26.40 100.46 C23.62,96.81 17.97,92.24 18.03,93.68 C18.08,94.85 20.96,98.05 24.83,101.25 C29.26,104.91 29.65,104.72 26.40,100.46 ZM 76.00 101.00 C76.00,98.65 75.20,98.53 72.60,100.50 C71.56,101.29 70.32,101.70 69.85,101.41 C69.38,101.12 69.00,101.36 69.00,101.94 C69.00,102.52 70.57,103.00 72.50,103.00 C75.33,103.00 76.00,102.62 76.00,101.00 ZM 32.00 98.00 C31.40,96.87 31.33,96.00 31.86,96.00 C32.37,96.00 33.05,96.68 33.36,97.50 C33.68,98.32 34.42,99.00 35.00,99.00 C36.14,99.00 35.34,97.09 32.73,93.61 C31.59,92.08 30.60,91.85 27.60,92.42 C23.21,93.24 23.31,94.59 27.97,97.75 C32.08,100.53 33.40,100.61 32.00,98.00 ZM 57.03 91.89 C57.68,89.47 57.83,86.07 57.38,83.64 C56.63,79.51 56.63,79.51 55.93,82.50 L 55.24 85.50 L 55.02 82.50 C54.80,79.50 54.80,79.50 53.92,82.00 C53.03,84.54 53.65,67.98 54.63,63.00 C55.03,60.96 54.93,60.80 54.07,62.14 C52.63,64.39 50.85,85.40 52.06,85.83 C52.58,86.02 53.00,87.06 53.00,88.14 C53.00,89.23 53.45,89.84 54.00,89.50 C54.60,89.13 55.00,90.32 55.00,92.44 C55.00,97.12 55.67,96.94 57.03,91.89 ZM 36.50 92.00 C35.50,90.89 34.45,90.21 34.18,90.49 C33.90,90.76 34.50,91.89 35.50,93.00 C36.50,94.11 37.55,94.79 37.82,94.51 C38.10,94.24 37.50,93.11 36.50,92.00 ZM 98.72 83.39 C98.00,82.67 93.00,90.84 93.01,92.73 C93.01,93.70 94.40,92.10 96.08,89.16 C97.77,86.22 98.95,83.62 98.72,83.39 ZM 25.31 84.02 C23.77,81.83 22.19,80.03 21.82,80.02 C20.45,79.98 19.87,84.13 21.04,85.55 C22.86,87.74 24.22,87.29 22.95,84.91 C21.17,81.58 22.58,81.60 24.96,84.94 C26.16,86.62 27.36,88.00 27.63,88.00 C27.91,88.00 26.86,86.21 25.31,84.02 ZM 35.54 80.19 C37.21,76.81 39.97,72.57 41.67,70.77 C47.72,64.40 48.43,61.89 48.83,45.71 C49.25,28.45 48.41,24.43 46.40,34.00 C45.65,37.58 42.77,45.17 39.99,50.88 C36.01,59.08 33.48,62.78 27.92,68.51 L 20.89 75.77 L 24.22 77.83 C26.22,79.06 28.08,81.34 28.86,83.50 C29.58,85.49 30.69,86.94 31.33,86.73 C31.98,86.52 33.87,83.58 35.54,80.19 ZM 93.31 83.47 C95.46,78.97 95.47,79.00 92.50,79.00 C90.25,79.00 90.00,79.40 90.00,83.00 C90.00,87.94 91.11,88.09 93.31,83.47 ZM 81.12 84.27 C86.26,82.44 86.45,82.25 85.16,80.23 C83.95,78.31 75.00,81.82 75.00,84.22 C75.00,86.41 75.08,86.41 81.12,84.27 ZM 13.93 78.83 C13.97,77.14 15.01,75.42 16.75,74.12 C18.26,72.99 18.99,72.05 18.37,72.03 C17.75,72.01 16.67,72.69 15.97,73.53 C14.84,74.89 14.45,74.83 12.46,72.96 C9.32,70.01 8.87,71.59 10.73,78.99 C11.96,83.86 12.52,84.92 13.10,83.44 C13.52,82.37 13.89,80.30 13.93,78.83 ZM 18.81 79.47 C18.50,79.17 17.94,79.72 17.56,80.71 C17.02,82.13 17.14,82.25 18.12,81.27 C18.81,80.59 19.11,79.78 18.81,79.47 ZM 40.97 76.50 C40.97,75.95 40.53,76.18 40.00,77.00 C39.47,77.82 39.03,78.95 39.03,79.50 C39.03,80.05 39.47,79.82 40.00,79.00 C40.53,78.18 40.97,77.05 40.97,76.50 ZM 81.68 77.47 L 83.96 75.98 L 82.07 71.24 C75.63,55.08 73.31,49.69 67.97,38.43 C64.02,30.12 61.62,26.12 60.85,26.59 C60.02,27.11 59.87,26.41 60.33,24.11 C60.68,22.35 60.68,17.56 60.34,13.46 C59.86,7.86 59.34,6.00 58.24,6.00 C57.07,6.00 56.91,6.90 57.43,10.38 C57.92,13.67 57.70,15.16 56.54,16.31 C55.69,17.16 55.00,19.15 55.00,20.74 C55.00,22.32 54.34,24.49 53.53,25.56 C52.72,26.63 52.05,28.16 52.03,28.97 C51.98,31.28 54.51,27.14 55.99,22.50 C58.07,15.95 58.47,16.14 59.19,24.00 C60.20,34.87 65.07,51.82 67.00,51.18 C68.25,50.76 68.29,50.93 67.21,52.24 C66.18,53.48 66.16,54.76 67.10,58.48 C67.81,61.31 68.58,62.69 69.03,61.95 C69.44,61.29 70.30,61.07 70.95,61.47 C71.80,61.99 71.69,62.51 70.56,63.35 C69.16,64.38 69.22,65.29 71.14,72.35 L 73.28 80.19 L 76.34 79.58 C78.02,79.25 80.42,78.30 81.68,77.47 ZM 56.66 72.75 C56.38,72.06 56.16,72.62 56.16,74.00 C56.16,75.38 56.38,75.94 56.66,75.25 C56.94,74.56 56.94,73.44 56.66,72.75 ZM 68.00 74.62 C68.00,74.41 67.21,73.63 66.25,72.87 C64.66,71.63 64.63,71.66 65.87,73.25 C67.18,74.92 68.00,75.45 68.00,74.62 ZM 97.89 71.95 C100.16,68.21 101.28,60.85 100.04,57.78 C99.13,55.50 99.13,55.50 99.06,57.68 C99.03,58.88 98.43,60.45 97.74,61.18 C96.49,62.50 94.00,70.69 94.00,73.51 C94.00,75.97 95.91,75.20 97.89,71.95 ZM 90.79 68.22 C90.72,66.72 91.00,64.60 91.40,63.50 C91.87,62.24 91.57,62.43 90.60,64.00 C88.92,66.74 88.43,72.47 89.96,71.53 C90.48,71.20 90.86,69.71 90.79,68.22 ZM 103.71 66.76 C103.47,65.52 103.26,66.30 103.25,68.50 C103.24,70.70 103.44,71.72 103.69,70.76 C103.94,69.81 103.95,68.01 103.71,66.76 ZM 16.54 61.49 C17.58,55.94 17.56,55.12 16.38,56.10 C15.34,56.97 14.63,56.94 13.50,56.00 C12.27,54.98 12.00,55.05 12.00,56.35 C12.00,57.35 11.45,57.72 10.50,57.36 C9.41,56.95 9.00,57.47 9.00,59.27 C9.00,60.63 8.77,63.27 8.48,65.12 C8.08,67.75 8.17,68.05 8.91,66.50 C9.43,65.40 9.89,63.26 9.93,61.75 C10.00,59.08 11.92,57.74 12.07,60.25 C12.19,62.27 12.98,66.39 13.54,67.89 C14.38,70.20 15.24,68.37 16.54,61.49 ZM 57.72 59.75 C57.50,57.96 57.32,59.42 57.32,63.00 C57.32,66.57 57.50,68.04 57.72,66.25 C57.95,64.46 57.95,61.54 57.72,59.75 ZM 21.90 58.75 C21.97,55.47 21.60,54.00 20.70,54.00 C19.92,54.00 19.47,55.08 19.57,56.75 C19.67,58.26 19.84,61.53 19.97,64.00 C20.16,67.82 20.32,68.12 21.00,66.00 C21.44,64.62 21.85,61.36 21.90,58.75 ZM 59.68 61.81 C59.36,61.01 59.13,61.25 59.08,62.42 C59.04,63.47 59.27,64.06 59.60,63.73 C59.94,63.40 59.97,62.53 59.68,61.81 ZM 55.78 50.00 L 55.75 45.50 L 54.95 50.00 C54.51,52.47 54.16,55.62 54.17,57.00 L 54.20 59.50 L 55.00 57.00 C55.44,55.62 55.79,52.47 55.78,50.00 ZM 59.72 49.75 C59.50,47.96 59.32,49.42 59.32,53.00 C59.32,56.58 59.50,58.04 59.72,56.25 C59.95,54.46 59.95,51.54 59.72,49.75 ZM 97.35 48.51 C96.49,45.77 92.00,39.24 92.00,40.73 C92.00,41.39 92.92,44.26 94.04,47.11 C95.17,49.97 95.90,53.02 95.67,53.90 C95.39,55.00 94.83,54.48 93.91,52.25 C93.17,50.46 92.21,49.00 91.78,49.00 C90.27,49.00 91.03,51.58 93.72,55.52 L 96.43 59.50 L 97.21 55.01 C97.63,52.53 97.70,49.61 97.35,48.51 ZM 88.62 49.51 C88.52,43.90 88.25,43.01 86.64,43.01 C85.41,43.00 84.98,43.50 85.36,44.49 C85.67,45.31 86.23,48.23 86.59,50.99 C87.54,58.10 88.76,57.20 88.62,49.51 ZM 25.30 51.25 C26.04,49.74 26.45,47.63 26.21,46.56 C25.86,44.97 25.53,45.22 24.39,47.92 C22.03,53.53 22.80,56.34 25.30,51.25 ZM 57.68 51.81 C57.36,51.01 57.13,51.25 57.08,52.42 C57.04,53.47 57.27,54.06 57.60,53.73 C57.94,53.40 57.97,52.53 57.68,51.81 ZM 101.93 50.25 C99.65,46.43 95.81,41.83 97.54,45.00 C99.74,49.03 103.09,54.00 103.59,54.00 C103.91,54.00 103.16,52.31 101.93,50.25 ZM 21.66 43.75 C22.13,40.81 22.90,39.61 24.77,38.90 C29.12,37.24 32.44,34.33 34.82,30.11 C36.74,26.70 36.86,26.00 35.56,26.00 C34.70,26.00 34.00,26.57 34.00,27.27 C34.00,27.97 32.41,29.40 30.48,30.44 C28.54,31.49 26.02,33.86 24.87,35.71 C23.32,38.21 22.47,38.81 21.53,38.03 C20.60,37.25 19.24,38.11 16.25,41.35 C14.04,43.75 11.70,46.79 11.06,48.11 C10.25,49.79 10.92,49.38 13.31,46.75 C15.18,44.69 17.04,43.00 17.44,43.00 C17.85,43.00 17.86,44.91 17.47,47.25 L 16.76 51.50 L 18.89 49.58 C20.07,48.53 21.31,45.90 21.66,43.75 ZM 58.73 35.25 C58.51,33.19 58.34,34.88 58.34,39.00 C58.34,43.12 58.51,44.81 58.73,42.75 C58.94,40.69 58.94,37.31 58.73,35.25 ZM 38.00 35.20 C38.00,32.68 31.74,37.26 30.28,40.85 L 28.93 44.16 L 33.46 40.37 C35.96,38.28 38.00,35.96 38.00,35.20 ZM 54.68 37.81 C54.36,37.01 54.13,37.25 54.08,38.42 C54.04,39.47 54.27,40.06 54.60,39.73 C54.94,39.40 54.97,38.53 54.68,37.81 ZM 76.53 31.79 C78.10,32.02 78.20,31.88 77.05,31.11 C75.08,29.79 71.66,31.67 72.42,33.66 C72.74,34.49 73.05,35.69 73.12,36.33 C73.18,36.97 73.54,36.15 73.90,34.50 C74.40,32.25 75.06,31.57 76.53,31.79 ZM 79.00 34.00 C79.00,33.45 78.55,33.00 78.00,33.00 C77.45,33.00 77.00,33.45 77.00,34.00 C77.00,34.55 77.45,35.00 78.00,35.00 C78.55,35.00 79.00,34.55 79.00,34.00 ZM 27.50 28.38 C29.15,26.97 29.60,26.28 28.50,26.84 C25.51,28.36 22.36,30.94 23.50,30.93 C24.05,30.93 25.85,29.78 27.50,28.38 ZM 73.25 28.34 C72.56,28.06 71.44,28.06 70.75,28.34 C70.06,28.62 70.62,28.84 72.00,28.84 C73.38,28.84 73.94,28.62 73.25,28.34 ZM 45.50 25.00 C46.50,23.90 48.11,23.00 49.10,23.00 C50.08,23.00 51.21,22.47 51.61,21.83 C52.10,21.03 51.77,20.87 50.58,21.33 C49.62,21.70 48.09,22.01 47.17,22.03 C46.25,22.05 44.69,23.17 43.70,24.53 C41.55,27.48 42.93,27.84 45.50,25.00 ZM 72.00 25.95 C69.39,24.17 65.00,21.93 65.00,22.38 C65.00,23.05 71.39,26.97 72.50,26.97 C73.05,26.97 72.82,26.51 72.00,25.95 ZM 48.45 17.86 C49.77,16.66 47.98,16.76 44.15,18.10 C42.42,18.70 41.00,19.58 41.00,20.05 C41.00,20.98 46.93,19.24 48.45,17.86 ZM 55.00 10.62 C55.00,9.03 49.73,6.57 47.80,7.27 C47.09,7.53 48.08,8.21 50.00,8.78 C51.92,9.35 52.69,9.86 51.69,9.91 C49.28,10.03 50.57,12.00 53.06,12.00 C54.13,12.00 55.00,11.38 55.00,10.62 ZM 162.00 117.57 C162.00,106.46 161.67,102.00 160.85,102.00 C160.19,102.00 160.47,101.13 161.50,100.00 C163.51,97.78 165.63,97.39 166.21,99.14 C166.49,99.98 167.23,99.95 168.97,99.02 C171.01,97.92 171.53,98.00 172.66,99.55 C176.48,104.77 174.98,114.22 169.45,119.75 C166.77,122.43 166.05,124.02 165.80,127.79 C165.58,131.32 165.07,132.56 163.75,132.81 C162.14,133.12 162.00,131.86 162.00,117.57 ZM 168.57 117.54 C171.76,112.66 171.14,101.13 167.74,102.25 C166.40,102.69 164.92,120.01 166.23,120.00 C166.63,120.00 167.68,118.89 168.57,117.54 ZM 216.03 126.88 C216.01,126.53 216.68,124.34 217.50,122.00 C220.27,114.14 218.77,101.52 215.13,102.21 C213.79,102.47 213.45,104.15 213.21,111.76 C212.93,120.83 212.88,121.00 210.46,121.00 C208.02,121.00 208.00,120.93 208.00,111.50 C208.00,106.28 207.81,102.00 207.58,102.00 C204.54,102.00 204.00,103.52 204.00,112.11 C204.00,120.23 203.83,121.00 202.07,121.00 C200.30,121.00 200.11,120.11 199.82,110.75 C199.57,102.77 199.82,100.22 200.94,99.25 C202.87,97.58 204.00,97.67 204.00,99.50 C204.00,101.34 204.78,101.34 208.00,99.50 C211.31,97.61 213.36,97.61 212.64,99.50 C211.90,101.42 212.48,101.39 215.60,99.35 C218.61,97.37 220.04,98.42 221.87,103.90 C223.38,108.45 223.29,111.65 221.49,117.72 C220.22,122.01 216.14,128.85 216.03,126.88 ZM 252.42 124.16 C254.67,119.81 255.41,111.80 253.98,107.36 C252.26,102.01 251.09,100.68 249.37,102.11 C248.39,102.92 248.00,105.91 248.00,112.62 C248.00,121.33 247.86,122.00 246.00,122.00 C244.13,122.00 244.00,121.33 244.00,112.00 C244.00,106.00 243.60,102.00 243.00,102.00 C241.09,102.00 242.01,100.42 244.93,98.70 C247.78,97.02 247.87,97.03 248.18,99.09 L 248.50 101.20 L 251.30 98.99 C252.84,97.77 254.25,96.94 254.43,97.14 C254.60,97.34 255.56,99.07 256.56,101.00 C259.36,106.39 258.98,113.73 255.53,120.94 C253.94,124.27 252.25,127.00 251.79,127.00 C251.33,127.00 251.61,125.72 252.42,124.16 ZM 370.56 123.89 C373.11,118.94 373.56,110.75 371.56,105.51 C370.61,103.03 369.51,101.00 369.12,101.00 C366.82,101.00 366.00,104.07 366.00,112.70 C366.00,121.33 365.86,122.00 364.00,122.00 C362.14,122.00 362.00,121.33 362.00,112.20 C362.00,106.81 361.55,101.95 361.01,101.41 C360.36,100.76 361.04,99.82 363.01,98.65 C365.93,96.93 366.00,96.94 366.00,98.91 L 366.00 100.93 L 369.37 98.94 L 372.75 96.95 L 374.62 100.73 C377.35,106.23 376.95,114.11 373.57,121.25 C372.08,124.41 370.43,127.00 369.90,127.00 C369.38,127.00 369.67,125.60 370.56,123.89 ZM 133.01 125.25 C133.02,124.84 133.69,122.29 134.51,119.59 C135.33,116.89 136.02,112.84 136.04,110.59 C136.08,106.59 136.11,106.56 137.41,109.00 C138.14,110.38 139.05,113.24 139.43,115.36 C140.18,119.50 143.88,124.00 146.53,124.00 C149.57,124.00 154.00,118.46 154.00,114.65 C154.00,111.11 150.41,106.36 145.90,103.95 C144.28,103.08 143.81,103.36 142.90,105.71 C141.51,109.32 142.33,116.76 144.36,118.79 C145.80,120.23 146.12,120.20 148.02,118.48 C150.90,115.88 150.41,110.63 147.25,110.18 C145.34,109.91 145.00,110.32 145.00,112.93 C145.00,114.62 145.41,116.00 145.91,116.00 C146.40,116.00 146.58,115.10 146.29,114.00 C145.93,112.61 146.26,112.00 147.38,112.00 C149.37,112.00 149.52,115.32 147.61,116.91 C146.53,117.81 145.85,117.70 144.61,116.46 C142.75,114.60 142.58,112.66 144.04,109.93 C146.26,105.77 151.37,108.64 151.22,113.97 C151.10,118.30 149.28,121.00 146.49,121.00 C142.30,121.00 140.67,117.12 141.22,108.52 C141.68,101.37 141.58,100.97 138.86,98.36 C134.93,94.60 134.58,92.74 136.96,88.07 C139.89,82.34 142.42,80.99 149.70,81.27 C155.08,81.47 155.69,81.70 154.89,83.19 C154.40,84.13 153.55,85.16 153.01,85.50 C152.47,85.83 150.83,88.14 149.37,90.63 L 146.72 95.16 L 151.86 99.66 C156.85,104.02 157.00,104.31 157.00,109.51 C157.00,115.96 155.75,119.58 152.25,123.25 C149.37,126.26 146.49,126.67 141.28,124.78 C138.64,123.83 137.50,123.83 135.97,124.78 C133.73,126.19 133.00,126.30 133.01,125.25 ZM 146.84 91.45 C148.48,87.86 148.31,87.10 145.63,85.88 C142.89,84.63 139.00,86.14 139.00,88.45 C139.00,89.69 143.63,93.89 145.09,93.97 C145.41,93.99 146.20,92.85 146.84,91.45 ZM 227.16 120.45 C224.58,114.79 227.21,106.02 231.93,104.52 C234.09,103.84 234.59,101.49 233.09,99.11 C232.39,98.01 231.99,98.16 231.07,99.86 C229.63,102.56 228.00,102.62 228.00,99.98 C228.00,96.88 232.30,95.31 235.34,97.30 C237.36,98.63 237.86,100.00 238.42,105.69 C238.78,109.44 239.34,114.41 239.66,116.75 C240.17,120.59 240.02,121.00 238.11,121.00 C236.95,121.00 236.00,120.51 236.00,119.90 C236.00,119.29 234.42,119.73 232.44,120.90 C230.49,122.06 228.76,123.00 228.60,123.00 C228.45,123.00 227.80,121.85 227.16,120.45 ZM 234.64 116.78 C235.54,115.32 235.14,108.08 234.05,106.13 C233.46,105.06 232.92,105.28 231.64,107.10 C230.01,109.42 229.38,116.05 230.67,117.33 C231.73,118.40 233.82,118.11 234.64,116.78 ZM 296.97 119.95 C294.59,116.61 293.40,110.52 294.38,106.64 C295.16,103.51 299.73,98.00 301.55,98.00 C302.30,98.00 304.10,100.02 305.55,102.49 C307.68,106.14 308.05,107.72 307.52,110.89 C306.88,114.68 301.70,123.00 299.98,123.00 C299.52,123.00 298.16,121.63 296.97,119.95 ZM 304.04 115.39 C305.95,110.38 301.40,100.59 298.35,103.13 C296.03,105.05 296.70,111.49 299.59,114.92 C301.01,116.62 302.37,118.00 302.61,118.00 C302.85,118.00 303.50,116.83 304.04,115.39 ZM 181.79 120.26 C176.38,114.06 176.09,104.72 181.15,99.34 C183.99,96.32 184.63,96.39 186.47,99.95 C188.69,104.24 188.36,106.79 185.16,109.99 C182.45,112.71 182.39,112.94 183.90,115.43 C184.78,116.88 186.07,117.80 186.82,117.51 C188.81,116.75 187.71,119.11 185.36,120.68 C183.61,121.84 183.12,121.78 181.79,120.26 ZM 183.80 106.84 C183.99,104.59 183.55,102.87 182.55,102.04 C181.18,100.91 181.00,101.37 181.00,105.96 C181.00,111.99 183.30,112.71 183.80,106.84 ZM 262.02 120.75 C262.05,117.78 263.92,116.57 268.03,116.87 C271.59,117.12 272.13,116.91 271.83,115.34 C271.63,114.33 269.95,112.79 268.09,111.91 C264.46,110.19 262.00,107.49 262.00,105.21 C262.00,103.26 267.82,98.00 269.98,98.00 C272.78,98.00 274.34,100.47 272.51,101.99 C271.33,102.97 270.68,102.98 269.54,102.04 C268.04,100.79 266.00,101.39 266.00,103.08 C266.00,103.61 268.04,105.28 270.54,106.77 C276.87,110.58 277.34,114.38 272.22,120.25 C270.38,122.35 261.99,122.76 262.02,120.75 ZM 312.00 112.77 C312.00,107.37 311.54,102.94 310.92,102.32 C310.14,101.54 310.48,100.78 312.14,99.62 C314.84,97.72 316.42,97.51 315.39,99.17 C314.88,100.00 315.23,100.11 316.59,99.54 C322.17,97.21 322.60,97.47 322.75,103.30 C322.91,109.34 321.27,112.70 318.64,111.69 C316.79,110.98 316.56,109.22 318.02,107.00 C318.89,105.67 319.11,105.67 319.98,107.00 C320.79,108.23 320.97,108.12 320.98,106.37 C320.99,105.20 320.42,103.77 319.72,103.18 C317.13,101.03 316.09,103.51 315.79,112.52 C315.54,120.12 315.23,121.53 313.75,121.81 C312.18,122.11 312.00,121.16 312.00,112.77 ZM 320.50 110.00 C320.84,109.45 320.39,109.00 319.50,109.00 C318.61,109.00 318.16,109.45 318.50,110.00 C318.84,110.55 319.29,111.00 319.50,111.00 C319.71,111.00 320.16,110.55 320.50,110.00 ZM 344.44 117.49 C342.22,111.66 343.00,104.61 346.62,97.96 C349.83,92.05 350.60,92.05 348.51,97.97 C346.54,103.57 346.59,111.33 348.63,115.64 C350.09,118.71 350.43,118.92 351.88,117.61 C353.21,116.41 353.41,114.68 353.00,108.02 C352.53,100.46 352.65,99.80 354.71,98.45 C355.93,97.65 357.18,97.00 357.50,97.00 C357.81,97.00 357.94,102.51 357.78,109.25 C357.52,120.76 357.38,121.50 355.50,121.45 C354.40,121.43 353.61,120.87 353.75,120.20 C354.08,118.61 352.94,118.73 350.56,120.53 C347.46,122.88 346.28,122.29 344.44,117.49 ZM 380.34 118.28 C377.22,110.81 380.04,100.15 385.83,97.51 C387.62,96.70 388.00,95.68 388.00,91.70 C388.00,88.74 387.61,87.12 387.00,87.50 C386.45,87.84 386.00,87.74 386.00,87.27 C386.00,86.46 391.19,83.00 392.40,83.00 C392.73,83.00 393.00,91.55 393.00,102.00 L 393.00 121.00 L 390.50 121.00 C389.12,121.00 388.00,120.48 388.00,119.85 C388.00,119.15 387.27,119.35 386.17,120.35 C383.40,122.85 382.05,122.37 380.34,118.28 ZM 387.79 108.19 C388.02,100.67 387.82,99.13 386.67,99.57 C383.30,100.87 381.81,110.30 384.17,115.48 C386.28,120.11 387.49,117.67 387.79,108.19 ZM 192.00 105.00 C192.00,93.57 191.67,89.00 190.85,89.00 C190.19,89.00 190.47,88.13 191.50,87.00 C195.60,82.47 196.00,83.91 196.00,103.00 C196.00,120.33 195.93,121.00 194.00,121.00 C192.08,121.00 192.00,120.33 192.00,105.00 ZM 280.00 112.70 C280.00,108.06 279.52,103.92 278.91,103.31 C278.13,102.53 278.13,102.04 278.91,101.55 C279.54,101.17 280.00,97.73 280.00,93.46 C280.00,86.69 280.21,85.91 282.45,84.44 C285.47,82.47 288.36,82.90 288.84,85.39 C289.43,88.49 285.48,90.26 284.69,87.25 C284.44,86.29 284.18,88.27 284.12,91.66 C284.01,97.35 284.15,97.77 286.00,97.29 C287.68,96.85 288.00,97.26 288.00,99.88 C288.00,103.19 287.16,103.76 285.20,101.80 C284.27,100.87 284.00,102.87 284.00,110.80 C284.00,120.33 283.87,121.00 282.00,121.00 C280.16,121.00 280.00,120.33 280.00,112.70 ZM 326.90 116.25 C326.85,113.64 326.86,106.14 326.93,99.58 C327.03,90.88 326.72,87.43 325.78,86.81 C324.79,86.16 324.95,85.62 326.44,84.48 C330.37,81.48 331.00,82.47 331.00,91.62 L 331.00 100.23 L 333.57 98.55 C336.71,96.49 338.37,97.55 340.07,102.70 C341.57,107.27 340.59,114.36 337.94,118.09 C336.18,120.55 335.19,121.00 331.43,121.00 L 327.00 121.00 L 326.90 116.25 ZM 333.60 119.23 C337.12,116.89 338.21,107.18 335.41,103.17 C334.15,101.37 333.53,101.15 332.41,102.07 C331.40,102.91 331.00,105.63 331.00,111.62 C331.00,119.79 331.33,120.75 333.60,119.23 ZM 294.00 86.50 C294.00,84.09 294.46,83.00 295.46,83.00 C297.59,83.00 299.04,86.18 297.87,88.28 C296.16,91.33 294.00,90.34 294.00,86.50 ZM 301.38 88.56 C300.50,86.25 301.39,83.55 303.14,83.21 C305.04,82.85 306.29,85.51 305.46,88.14 C304.76,90.34 302.17,90.61 301.38,88.56 ZM 211.02 66.97 C211.02,66.71 211.68,64.70 212.47,62.50 C214.41,57.13 214.39,47.66 212.44,43.89 C209.75,38.69 208.52,40.85 208.21,51.33 C207.93,60.79 207.88,61.00 205.53,61.00 C203.16,61.00 203.12,60.84 202.81,50.25 C202.56,41.63 202.80,39.26 204.00,38.28 C206.08,36.59 208.00,36.71 208.00,38.53 C208.00,39.89 208.32,39.88 211.00,38.50 C213.96,36.97 214.03,36.99 216.00,40.22 C218.63,44.54 218.63,53.01 216.01,58.78 C214.21,62.76 210.98,68.05 211.02,66.97 ZM 123.63 59.53 C127.16,56.37 130.65,52.15 131.88,49.54 C134.40,44.17 134.74,35.86 132.51,34.01 C130.23,32.12 128.00,33.55 128.00,36.91 C128.00,39.84 129.51,41.82 130.79,40.55 C131.15,40.19 130.83,39.51 130.08,39.05 C128.42,38.02 129.46,34.66 131.25,35.24 C133.15,35.87 133.32,40.49 131.50,42.00 C127.96,44.94 124.76,36.41 127.96,32.55 C130.23,29.81 132.97,30.70 134.65,34.70 C136.52,39.18 135.29,47.17 131.90,52.67 C129.30,56.87 129.83,57.71 133.32,54.96 C136.89,52.15 138.31,46.75 137.85,37.69 C137.32,27.11 133.13,21.51 127.30,23.57 L 124.50 24.55 L 124.41 40.88 L 124.31 57.20 L 121.10 59.72 C119.34,61.10 117.78,62.06 117.63,61.86 C117.49,61.66 117.70,57.22 118.09,52.00 C119.34,35.54 119.14,26.17 117.48,22.96 L 115.96 20.03 L 118.48 21.17 C120.37,22.04 121.95,22.03 124.86,21.16 C130.87,19.36 132.94,19.74 136.50,23.30 C144.44,31.24 144.90,54.28 137.27,62.24 C134.78,64.83 134.11,65.00 126.06,65.00 L 117.50 64.99 L 123.63 59.53 ZM 147.04 60.07 C146.47,59.00 146.00,56.23 146.00,53.91 C146.00,50.28 146.56,49.15 150.06,45.83 C153.08,42.96 153.96,41.45 153.49,39.98 C152.69,37.44 151.31,37.45 150.50,40.00 C149.55,42.98 147.82,42.42 148.18,39.25 C148.43,37.07 149.08,36.43 151.34,36.18 C156.20,35.62 157.69,38.04 158.46,47.80 C158.84,52.59 159.39,57.51 159.69,58.75 C160.10,60.52 159.78,61.00 158.19,61.00 C157.08,61.00 155.98,60.45 155.76,59.77 C155.46,58.87 154.65,59.00 152.71,60.27 C149.33,62.48 148.31,62.45 147.04,60.07 ZM 154.01 56.49 C155.28,54.96 154.93,46.60 153.54,45.20 C152.20,43.86 150.00,48.41 150.00,52.52 C150.00,58.07 151.48,59.54 154.01,56.49 ZM 172.04 60.07 C171.47,59.00 171.00,56.25 171.00,53.95 C171.00,50.40 171.61,49.16 175.02,45.74 C177.85,42.91 178.87,41.17 178.46,39.86 C177.68,37.42 176.30,37.49 175.50,40.00 C174.55,42.98 172.82,42.42 173.18,39.25 C173.43,37.07 174.08,36.43 176.34,36.18 C181.20,35.62 182.69,38.04 183.46,47.80 C183.84,52.59 184.39,57.51 184.69,58.75 C185.10,60.52 184.78,61.00 183.19,61.00 C182.08,61.00 180.98,60.45 180.76,59.77 C180.46,58.87 179.65,59.00 177.71,60.27 C174.33,62.48 173.31,62.45 172.04,60.07 ZM 179.01 56.49 C180.28,54.96 179.93,46.60 178.54,45.20 C177.20,43.86 175.00,48.41 175.00,52.52 C175.00,58.07 176.48,59.54 179.01,56.49 ZM 221.98 59.43 C219.85,53.83 222.19,46.58 226.95,44.03 C228.96,42.95 229.69,40.02 228.29,38.62 C227.90,38.23 226.80,38.94 225.85,40.20 C224.29,42.26 224.06,42.32 223.46,40.74 C222.35,37.87 223.71,36.00 226.90,36.00 C231.18,36.00 232.64,38.06 233.40,45.18 C233.77,48.66 234.34,53.64 234.67,56.25 C235.20,60.56 235.07,61.00 233.21,61.00 C232.09,61.00 230.98,60.45 230.76,59.77 C230.46,58.87 229.65,59.00 227.71,60.27 C224.15,62.60 223.12,62.45 221.98,59.43 ZM 228.96 57.05 C229.98,56.40 230.32,54.69 230.11,51.32 C229.74,45.20 229.24,44.47 226.90,46.59 C225.02,48.30 224.37,53.20 225.61,56.42 C226.30,58.23 226.91,58.34 228.96,57.05 ZM 162.80 44.25 C162.56,31.02 162.80,27.13 163.90,25.75 C164.68,24.79 165.69,24.00 166.15,24.00 C166.62,24.00 167.00,32.33 167.00,42.50 C167.00,60.19 166.91,61.00 165.05,61.00 C163.20,61.00 163.08,60.10 162.80,44.25 ZM 189.00 51.50 C189.00,44.98 188.64,42.00 187.85,42.00 C187.19,42.00 187.47,41.13 188.50,40.00 C190.44,37.86 193.00,37.32 193.00,39.06 C193.00,39.65 193.98,39.43 195.22,38.56 C199.25,35.74 200.00,36.50 200.00,43.38 C200.00,50.71 198.17,53.60 195.31,50.74 C193.37,48.80 194.33,45.53 196.58,46.39 C197.75,46.84 198.06,46.43 197.82,44.75 C197.61,43.27 196.81,42.50 195.50,42.50 C193.66,42.50 193.48,43.26 193.21,51.75 C192.95,60.18 192.75,61.00 190.96,61.00 C189.15,61.00 189.00,60.27 189.00,51.50 ZM 238.02 60.30 C238.06,57.84 240.25,56.50 244.21,56.50 C249.93,56.50 249.85,54.42 244.00,51.00 C240.07,48.70 239.50,47.94 239.50,44.97 C239.50,42.23 240.15,41.14 242.90,39.29 C246.87,36.61 246.90,36.61 249.50,38.57 C251.21,39.87 251.28,40.21 250.00,41.04 C249.17,41.57 247.22,41.73 245.66,41.40 C243.27,40.90 242.87,41.10 243.17,42.65 C243.36,43.67 245.22,45.40 247.29,46.50 C252.03,49.01 252.97,52.15 250.41,56.94 C248.64,60.24 248.12,60.52 243.25,60.80 C240.36,60.97 238.01,60.74 238.02,60.30 ZM 29.00 75.42 C29.00,74.55 29.53,74.01 30.19,74.23 C32.04,74.85 32.35,77.00 30.58,77.00 C29.71,77.00 29.00,76.29 29.00,75.42 ZM 33.00 71.00 C33.00,70.45 33.67,70.00 34.50,70.00 C35.33,70.00 36.00,70.45 36.00,71.00 C36.00,71.55 35.33,72.00 34.50,72.00 C33.67,72.00 33.00,71.55 33.00,71.00 ZM 37.47 66.95 C36.52,65.41 37.82,64.42 39.10,65.70 C39.82,66.42 39.84,66.98 39.16,67.40 C38.60,67.75 37.84,67.55 37.47,66.95 ZM 72.67 73.33 C71.52,72.18 71.94,71.00 73.50,71.00 C74.32,71.00 75.00,71.68 75.00,72.50 C75.00,74.06 73.82,74.48 72.67,73.33 ZM 71.00 67.00 C71.00,66.45 71.45,66.00 72.00,66.00 C72.55,66.00 73.00,66.45 73.00,67.00 C73.00,67.55 72.55,68.00 72.00,68.00 C71.45,68.00 71.00,67.55 71.00,67.00 ZM 68.00 56.44 C68.00,55.58 68.46,55.16 69.02,55.51 C69.58,55.86 69.77,56.56 69.46,57.07 C68.60,58.46 68.00,58.20 68.00,56.44 Z"/>
</g>
</svg>