<svg xmlns="http://www.w3.org/2000/svg" width="1393" height="753" viewBox="0 0 1393 753">
<g>
<path d="M 125.00 682.64 C125.00,682.45 127.97,675.36 131.60,666.89 C149.32,625.61 157.05,591.33 155.67,560.13 C155.13,548.05 154.79,546.15 152.09,540.37 C146.22,527.82 132.49,516.99 122.50,517.01 C120.30,517.01 114.00,518.62 108.50,520.57 C86.02,528.57 86.30,528.49 84.41,526.93 C83.45,526.14 81.78,523.49 80.70,521.04 C78.27,515.56 77.64,498.63 79.64,492.75 C80.34,490.68 81.40,486.18 82.00,482.75 C84.68,467.45 88.49,460.66 95.46,458.80 C98.39,458.02 100.30,456.76 101.41,454.89 C102.30,453.37 105.46,450.95 108.41,449.50 C113.70,446.91 114.09,446.87 131.63,447.18 L 149.46 447.50 L 150.81 443.50 C151.76,440.68 151.96,437.09 151.50,431.35 C150.71,421.68 151.30,422.03 136.30,422.01 C123.18,422.00 116.75,420.60 112.47,416.84 C106.73,411.80 106.40,413.91 119.46,372.50 C122.58,362.60 125.52,354.11 125.98,353.64 C128.70,350.86 143.73,351.01 156.29,353.93 C159.64,354.71 160.25,354.55 161.57,352.54 C162.38,351.29 163.73,346.95 164.56,342.89 C165.40,338.82 166.30,334.75 166.58,333.84 C167.15,331.94 165.89,331.42 147.50,325.99 L 135.50 322.45 L 136.00 317.47 C136.27,314.74 136.50,307.31 136.50,300.97 C136.50,290.57 136.25,288.95 133.95,284.48 C129.73,276.29 126.92,274.65 93.60,260.94 C66.19,249.66 56.85,233.71 59.98,203.50 C62.24,181.68 67.51,166.96 86.49,129.50 C100.78,101.30 108.97,87.36 114.31,82.18 L 117.73 78.87 L 118.40 84.19 C119.44,92.43 122.75,101.34 126.90,107.11 L 130.69 112.38 L 121.47 126.44 C99.02,160.67 91.33,179.85 90.28,204.19 C89.76,216.49 89.82,217.01 92.31,221.26 C93.72,223.67 96.60,226.84 98.71,228.30 C104.35,232.21 120.03,238.43 140.85,245.02 C150.94,248.21 162.04,252.22 165.51,253.93 C173.80,258.01 181.04,264.63 184.56,271.35 L 187.39 276.76 L 185.68 315.63 C179.43,457.92 176.89,517.44 175.56,553.00 C174.72,575.28 173.81,597.78 173.53,603.00 C173.25,608.22 172.54,627.80 171.94,646.50 C171.34,665.20 170.67,681.06 170.45,681.75 C170.16,682.70 164.68,683.00 147.53,683.00 C135.14,683.00 125.00,682.84 125.00,682.64 ZM 149.27 399.09 C152.20,397.97 156.00,389.74 156.00,384.51 C156.00,376.33 150.72,372.25 144.66,375.74 C140.06,378.40 137.80,383.36 138.28,389.76 C138.88,397.92 143.04,401.45 149.27,399.09 ZM 159.99 304.51 C164.51,302.17 166.00,299.24 166.00,292.68 C166.00,275.47 151.19,275.91 150.51,293.14 C150.20,301.29 151.94,304.83 156.80,305.93 C156.96,305.97 158.40,305.33 159.99,304.51 ZM 179.38 654.40 C179.76,638.51 180.26,621.45 180.51,616.50 C180.75,611.55 181.20,600.53 181.51,592.00 C181.81,583.47 183.17,551.75 184.53,521.50 C185.88,491.25 186.99,464.55 187.00,462.17 L 187.00 457.85 L 199.75 458.55 C206.76,458.94 212.61,459.35 212.75,459.46 C213.91,460.42 213.98,485.34 213.04,565.50 C211.85,665.53 211.58,680.76 210.91,681.42 C210.68,681.66 203.33,682.18 194.60,682.57 L 178.71 683.30 L 179.38 654.40 ZM 219.33 681.42 C218.67,679.69 219.52,586.54 220.94,505.64 C221.81,456.16 221.56,458.05 227.17,458.02 C233.67,457.98 233.21,450.40 232.43,544.88 C232.05,591.97 231.46,642.20 231.12,656.50 L 230.50 682.50 L 225.24 682.80 C221.05,683.04 219.85,682.76 219.33,681.42 ZM 239.83 571.75 C240.19,449.32 239.71,458.00 246.11,458.00 C252.52,458.00 252.00,448.04 252.00,571.11 L 252.00 683.00 L 245.75 683.00 L 239.50 683.00 L 239.83 571.75 ZM 260.61 609.25 C260.26,568.69 259.87,518.17 259.74,497.00 L 259.50 458.50 L 264.75 458.20 L 270.00 457.90 L 270.01 475.20 C270.01,484.71 270.25,503.75 270.54,517.50 C271.73,574.53 272.97,681.24 272.45,682.09 C272.14,682.59 269.49,683.00 266.56,683.00 L 261.24 683.00 L 260.61 609.25 ZM 280.99 674.25 C280.99,669.99 280.30,621.28 279.47,566.00 C278.64,510.73 278.23,464.22 278.58,462.66 C279.16,460.00 279.44,459.86 282.85,460.47 C291.90,462.11 296.88,466.75 297.73,474.32 C298.53,481.39 297.32,485.35 292.27,492.18 C287.66,498.41 287.60,498.60 287.82,505.50 C289.73,565.41 293.06,661.20 293.55,670.25 L 294.18 682.00 L 287.59 682.00 L 281.00 682.00 L 280.99 674.25 ZM 617.05 617.54 C591.87,612.76 579.69,601.94 573.33,578.70 C571.83,573.23 571.63,565.90 571.56,516.34 L 571.48 460.18 L 581.85 460.21 L 592.22 460.24 L 591.63 466.37 C591.30,469.74 590.74,492.08 590.39,516.00 C589.86,552.47 590.01,560.87 591.28,568.00 C595.86,593.76 607.43,605.13 632.26,608.29 C659.92,611.81 679.83,599.04 686.45,573.53 C689.54,561.65 690.28,545.71 689.78,502.34 L 689.29 460.18 L 697.21 460.21 L 705.13 460.25 L 704.60 463.87 C703.86,468.85 702.11,505.72 701.01,539.50 C700.35,559.59 699.63,569.34 698.45,574.00 C692.97,595.65 678.30,610.87 657.47,616.54 C649.14,618.80 626.65,619.36 617.05,617.54 ZM 748.57 617.83 C743.05,616.78 730.69,611.31 727.25,608.40 C725.10,606.58 725.06,606.31 726.41,601.89 C727.19,599.35 728.14,594.74 728.53,591.64 C729.38,584.77 730.88,584.42 734.32,590.28 C737.87,596.34 746.08,603.68 752.78,606.80 C760.49,610.38 774.01,610.65 781.12,607.36 C787.98,604.19 793.93,598.30 797.16,591.50 C799.55,586.44 800.00,584.24 799.98,577.50 C799.96,571.92 799.40,568.29 798.13,565.50 C794.39,557.32 783.82,550.23 763.04,541.97 C745.72,535.08 734.02,524.54 730.48,512.63 C728.42,505.69 728.59,493.50 730.85,486.24 C733.92,476.37 741.56,467.24 750.50,462.74 C768.37,453.74 794.55,454.71 808.86,464.90 L 811.62 466.86 L 808.56 476.24 C806.88,481.40 805.07,485.82 804.55,486.06 C804.03,486.30 801.96,483.58 799.96,480.00 C792.71,467.04 779.48,462.00 765.54,466.90 C757.76,469.63 753.50,473.30 750.03,480.26 C747.50,485.32 747.00,487.49 747.02,493.41 C747.05,502.10 749.13,507.13 755.07,512.84 C759.67,517.26 771.68,523.97 780.31,526.94 C789.81,530.20 800.93,536.30 806.56,541.31 C814.54,548.42 817.26,554.30 817.79,565.56 C818.31,576.44 816.91,583.85 812.80,592.08 C804.38,608.94 785.06,619.13 762.00,618.87 C757.33,618.82 751.28,618.35 748.57,617.83 ZM 404.74 604.28 C405.72,589.05 405.73,487.04 404.75,471.86 L 404.00 460.22 L 415.25 460.19 L 426.50 460.17 L 425.86 473.83 C425.51,481.35 425.17,496.10 425.11,506.60 L 425.00 525.71 L 432.65 526.35 C442.64,527.20 499.03,527.19 510.98,526.34 L 520.27 525.68 L 519.62 505.09 C519.26,493.77 518.70,479.03 518.36,472.34 L 517.74 460.18 L 528.91 460.16 L 540.07 460.14 L 539.29 485.32 C538.28,517.54 538.28,559.76 539.29,591.25 L 540.09 616.00 L 529.05 616.00 L 518.01 616.00 L 518.76 594.75 C519.16,583.06 519.50,565.40 519.50,555.50 L 519.50 537.50 L 472.09 537.24 L 424.68 536.98 L 425.28 574.79 C425.60,595.59 426.01,613.25 426.18,614.05 C426.44,615.24 424.45,615.55 415.24,615.78 L 403.99 616.07 L 404.74 604.28 ZM 68.26 450.75 C65.97,449.51 61.96,447.17 59.35,445.54 C54.90,442.76 53.84,442.55 42.55,442.19 C32.44,441.87 28.42,442.24 17.58,444.45 C10.47,445.90 4.10,446.87 3.41,446.60 C1.53,445.88 -0.30,435.32 0.27,428.52 C0.80,422.12 3.56,414.00 5.21,414.00 C5.75,414.00 8.25,415.81 10.76,418.02 C16.85,423.38 23.96,425.51 35.50,425.43 C40.45,425.39 46.75,424.86 49.50,424.24 C52.25,423.63 56.10,422.86 58.05,422.55 C60.35,422.18 63.71,420.18 67.55,416.90 C74.94,410.58 77.61,409.21 79.28,410.88 C80.99,412.59 81.47,429.91 80.01,437.40 C78.57,444.78 75.19,453.00 73.59,453.00 C72.95,453.00 70.55,451.99 68.26,450.75 ZM 86.72 448.10 C85.77,446.50 85.00,443.60 85.00,441.66 C85.00,435.76 89.80,417.64 91.74,416.21 C96.74,412.53 103.10,414.26 104.00,419.54 C104.77,424.07 109.29,425.70 124.50,426.93 C131.65,427.51 139.19,428.51 141.25,429.16 C144.58,430.20 145.00,430.70 145.00,433.60 C145.00,435.40 144.56,438.02 144.02,439.43 C143.11,441.84 142.63,442.00 136.18,442.00 C132.41,442.00 125.71,441.51 121.31,440.92 C111.29,439.57 105.85,440.82 101.48,445.46 C95.39,451.91 89.58,452.95 86.72,448.10 ZM 188.31 418.41 C188.66,400.31 189.89,364.35 191.05,338.50 C192.20,312.65 192.97,287.00 192.76,281.50 C192.28,269.22 190.10,264.03 182.00,255.88 C174.20,248.03 164.06,243.43 138.50,236.16 C126.95,232.88 115.43,229.29 112.90,228.19 C106.40,225.38 101.82,221.01 98.73,214.69 C96.21,209.54 96.11,208.82 96.96,201.37 C99.39,180.21 106.29,163.49 123.16,137.82 C133.47,122.12 135.55,119.75 133.31,126.21 C131.09,132.63 131.43,147.36 133.97,154.92 L 136.02 161.01 L 131.34 172.75 C127.35,182.77 126.59,185.78 126.21,193.20 L 125.76 201.89 L 129.13 205.00 C133.82,209.32 147.02,215.64 156.21,217.95 C160.45,219.02 173.50,220.85 185.21,222.02 C210.10,224.51 223.28,227.10 231.13,231.07 C241.64,236.37 251.74,248.49 257.52,262.73 C261.20,271.81 261.66,280.86 262.42,359.00 C262.75,393.38 263.29,427.24 263.62,434.26 C264.33,449.30 264.03,450.00 256.88,450.00 L 252.00 450.00 L 251.96 442.25 C251.93,437.99 251.72,431.12 251.49,427.00 C251.25,422.88 250.56,386.88 249.95,347.00 C249.30,304.86 248.41,272.83 247.81,270.51 C246.18,264.12 243.21,259.16 240.04,257.52 C237.73,256.33 233.26,256.00 219.22,256.00 C209.38,256.00 201.08,256.25 200.78,256.56 C200.47,256.86 201.07,259.90 202.10,263.31 C204.15,270.04 204.28,257.67 200.42,421.75 C199.76,449.68 199.73,450.00 197.63,450.01 C196.46,450.02 193.74,450.31 191.59,450.67 L 187.68 451.31 L 188.31 418.41 ZM 313.95 432.94 C300.78,431.00 289.17,423.68 281.53,412.50 C275.59,403.79 272.84,394.70 272.24,381.82 C271.77,371.56 271.87,370.88 274.71,364.82 C278.55,356.65 282.49,352.00 285.57,352.00 C286.89,352.00 292.59,353.54 298.24,355.42 C303.88,357.30 310.56,359.14 313.07,359.50 C318.73,360.33 324.97,358.74 328.85,355.47 C335.21,350.12 345.76,354.29 351.94,364.60 C359.58,377.33 361.47,388.84 358.08,401.91 C355.35,412.46 353.95,415.11 347.63,421.80 C338.66,431.28 327.60,434.94 313.95,432.94 ZM 642.66 428.02 C617.37,423.44 603.34,410.68 598.28,387.66 C596.96,381.66 596.69,371.54 596.60,325.43 L 596.50 270.35 L 607.27 270.40 C615.18,270.44 617.92,270.76 617.58,271.64 C617.33,272.30 616.60,284.82 615.95,299.46 C614.43,333.60 615.16,374.98 617.43,383.95 C623.70,408.65 640.41,420.03 668.50,418.72 C679.92,418.19 686.09,416.36 693.89,411.19 C704.98,403.84 711.72,390.18 714.00,370.46 C714.77,363.80 715.05,345.22 714.83,315.32 L 714.50 270.23 L 722.35 270.36 L 730.20 270.50 L 729.61 276.00 C728.82,283.38 727.23,319.49 726.52,346.00 C725.65,378.86 724.61,385.86 718.84,397.48 C711.83,411.61 701.67,420.40 686.33,425.63 C679.41,427.98 676.69,428.33 663.00,428.59 C654.47,428.76 645.32,428.50 642.66,428.02 ZM 773.11 427.92 C768.25,426.96 757.47,422.18 752.99,418.99 C750.12,416.95 750.11,416.93 751.60,412.73 C752.41,410.41 753.35,405.93 753.68,402.76 C754.40,395.89 756.50,395.05 759.41,400.47 C769.48,419.16 797.07,425.95 813.18,413.70 C824.43,405.15 828.90,386.37 822.59,374.18 C819.15,367.52 809.71,361.13 793.28,354.34 C772.03,345.56 762.97,338.75 757.37,327.35 C754.73,321.96 754.50,320.63 754.54,310.50 C754.60,296.63 756.74,290.56 764.54,282.13 C774.91,270.93 787.67,266.46 807.00,267.27 C819.32,267.79 825.20,269.45 833.04,274.65 C835.95,276.57 836.90,277.77 836.40,278.91 C835.28,281.50 833.15,288.20 832.00,292.75 C831.41,295.09 830.35,297.00 829.64,297.00 C828.93,297.00 827.33,294.73 826.07,291.94 C820.55,279.72 808.24,273.36 795.28,276.04 C783.75,278.42 776.71,284.43 773.49,294.66 C771.50,301.00 771.91,310.99 774.36,315.72 C778.33,323.38 789.35,331.02 805.00,336.96 C818.75,342.18 827.01,346.95 833.59,353.47 C841.34,361.15 843.38,366.63 843.24,379.50 C842.99,404.27 828.05,422.28 803.41,427.50 C795.93,429.09 780.16,429.30 773.11,427.92 ZM 1260.31 413.29 C1241.71,392.14 1230.67,380.07 1196.47,343.52 C1180.51,326.46 1165.93,310.82 1164.08,308.78 C1162.24,306.73 1160.27,305.33 1159.72,305.68 C1158.63,306.34 1159.46,411.03 1160.63,420.75 L 1161.25 426.00 L 1153.08 426.00 L 1144.91 426.00 L 1145.53 415.75 C1145.88,410.11 1146.60,400.33 1147.14,394.00 C1147.69,387.67 1148.38,356.51 1148.69,324.75 C1149.20,271.80 1149.39,267.00 1150.91,267.00 C1151.82,267.00 1164.71,280.15 1179.54,296.22 C1214.12,333.71 1262.06,384.92 1264.98,387.50 L 1267.25 389.50 L 1266.68 332.50 C1266.36,301.15 1265.82,274.33 1265.47,272.90 L 1264.82 270.29 L 1272.41 270.40 L 1280.00 270.50 L 1280.00 275.40 C1280.00,278.09 1279.28,292.71 1278.39,307.90 C1277.15,329.14 1276.90,346.27 1277.29,382.25 C1277.78,427.16 1277.73,429.00 1275.96,429.00 C1274.84,429.00 1268.73,422.88 1260.31,413.29 ZM 1321.27 427.63 C1316.07,426.30 1305.13,421.26 1301.69,418.60 C1300.01,417.29 1299.99,416.83 1301.36,411.85 C1302.18,408.91 1303.13,404.36 1303.48,401.75 C1304.31,395.61 1305.93,395.66 1309.97,401.95 C1314.18,408.51 1320.00,413.64 1326.88,416.84 C1331.74,419.10 1333.84,419.46 1342.50,419.48 C1351.43,419.50 1353.03,419.21 1357.50,416.84 C1364.28,413.23 1368.81,408.57 1371.91,402.00 C1374.10,397.34 1374.50,395.13 1374.48,387.50 C1374.46,376.80 1372.50,372.12 1365.77,366.78 C1359.07,361.45 1356.53,360.09 1342.01,354.04 C1315.80,343.12 1306.20,333.61 1304.14,316.53 C1301.93,298.12 1309.26,282.38 1324.12,273.67 C1337.98,265.55 1363.65,264.76 1378.01,272.01 C1386.27,276.17 1386.54,276.71 1384.14,284.20 C1383.03,287.66 1381.72,291.82 1381.25,293.44 C1379.88,298.05 1378.33,297.57 1375.53,291.65 C1372.66,285.58 1366.70,279.62 1361.14,277.26 C1355.25,274.76 1344.46,275.18 1337.95,278.18 C1327.26,283.10 1321.71,291.76 1321.73,303.50 C1321.75,319.35 1329.51,326.97 1356.65,337.79 C1382.85,348.22 1393.00,359.63 1393.00,378.63 C1393.00,401.03 1380.78,418.41 1359.94,425.65 C1353.77,427.80 1350.29,428.30 1339.50,428.60 C1330.86,428.83 1324.75,428.51 1321.27,427.63 ZM 395.00 424.57 C395.00,423.78 396.33,414.90 397.97,404.82 C402.96,373.99 411.82,310.68 414.25,288.50 C416.43,268.66 416.67,267.50 418.63,267.50 C420.34,267.50 423.49,272.96 436.77,299.00 C456.34,337.37 484.61,390.37 485.70,390.73 C486.14,390.87 488.09,387.95 490.03,384.24 C494.05,376.55 525.83,317.46 542.19,287.25 C549.84,273.13 553.68,267.00 554.87,267.00 C556.36,267.00 556.97,270.73 559.85,297.75 C563.79,334.81 572.62,410.15 574.00,418.50 C574.54,421.80 574.99,424.84 574.99,425.25 C575.00,425.66 570.14,426.00 564.19,426.00 L 553.38 426.00 L 550.65 392.75 C547.87,358.96 543.30,313.69 542.40,311.05 C541.45,308.25 498.00,390.63 486.42,417.17 C483.54,423.78 481.04,427.22 480.37,425.50 C479.77,423.98 441.38,347.85 431.34,328.26 C426.48,318.78 422.25,311.02 421.95,311.01 C420.75,310.99 412.31,391.25 411.35,411.75 L 410.69 426.00 L 402.84 426.00 C396.71,426.00 395.00,425.69 395.00,424.57 ZM 863.50 348.22 L 863.50 270.44 L 874.28 270.44 L 885.05 270.44 L 884.28 288.97 C883.27,313.00 883.28,386.60 884.29,408.75 L 885.07 426.00 L 874.29 426.00 L 863.50 426.00 L 863.50 348.22 ZM 915.50 348.22 L 915.50 270.44 L 926.22 270.44 L 936.94 270.44 L 936.22 289.47 C935.09,319.29 935.29,342.26 936.68,342.73 C938.47,343.32 972.09,309.97 990.85,289.00 L 1007.40 270.50 L 1017.60 270.44 L 1027.80 270.38 L 1022.65 274.92 C1007.73,288.08 966.74,328.11 959.84,336.25 L 955.81 341.00 L 964.06 350.25 C980.29,368.44 1027.53,422.27 1028.87,424.12 C1030.20,425.93 1029.79,426.00 1017.18,426.00 L 1004.12 426.00 L 985.34 403.25 C951.39,362.09 938.21,347.00 936.23,347.00 C934.85,347.00 934.75,350.37 935.35,378.25 C935.72,395.44 936.31,413.21 936.66,417.75 L 937.30 426.00 L 926.40 426.00 L 915.50 426.00 L 915.50 348.22 ZM 1042.76 413.75 C1043.72,397.94 1043.72,301.61 1042.77,283.95 L 1042.03 270.40 L 1082.52 270.42 L 1123.00 270.43 L 1123.00 277.15 L 1123.00 283.87 L 1119.75 283.45 C1111.61,282.37 1087.27,281.00 1076.33,281.00 L 1064.27 281.00 L 1063.64 285.64 C1063.29,288.19 1063.00,301.31 1063.00,314.80 L 1063.00 339.32 L 1086.25 338.64 C1099.04,338.27 1111.41,337.69 1113.75,337.35 L 1118.00 336.74 L 1118.00 344.00 L 1118.00 351.27 L 1113.41 350.64 C1110.88,350.30 1098.51,349.71 1085.91,349.35 L 1063.00 348.68 L 1063.00 382.50 L 1063.00 416.32 L 1088.75 415.63 C1102.91,415.25 1116.64,414.57 1119.25,414.13 L 1124.00 413.32 L 1124.00 419.66 L 1124.00 426.00 L 1083.01 426.00 L 1042.02 426.00 L 1042.76 413.75 ZM 42.05 372.96 C30.15,370.48 18.96,361.55 14.85,351.26 C12.83,346.19 12.55,343.77 12.54,331.00 C12.52,314.31 14.14,307.12 21.44,291.50 C24.99,283.90 26.77,281.46 32.88,275.81 C41.64,267.71 44.69,266.56 55.41,267.29 C70.29,268.32 80.54,273.26 86.74,282.42 C91.39,289.28 93.00,295.71 92.99,307.43 C92.99,318.66 91.01,328.42 86.01,342.00 C81.89,353.19 79.22,357.58 73.05,363.35 C64.06,371.77 52.89,375.23 42.05,372.96 ZM 99.66 348.39 C96.51,345.23 95.53,340.73 96.34,333.00 C96.99,326.81 100.59,315.97 102.40,314.77 C104.51,313.36 111.52,314.02 114.65,315.93 C116.55,317.09 118.26,319.26 118.97,321.42 C119.69,323.59 120.81,325.02 121.83,325.04 C122.75,325.06 131.38,327.25 141.00,329.89 L 158.50 334.71 L 158.80 338.11 C159.28,343.68 156.30,346.00 148.71,345.98 C145.29,345.97 138.68,345.27 134.00,344.43 C122.19,342.30 115.94,343.15 111.04,347.58 C106.49,351.70 103.20,351.93 99.66,348.39 ZM 302.20 334.44 C292.75,331.90 284.94,326.47 279.62,318.73 C274.72,311.63 271.81,297.52 271.63,280.00 C271.49,266.49 272.65,260.00 276.75,251.29 C279.88,244.63 283.20,241.30 289.71,238.30 C301.97,232.63 319.89,233.75 331.62,240.91 C335.88,243.51 343.67,256.33 347.36,266.83 C350.16,274.81 350.41,276.58 350.45,289.00 C350.51,304.42 349.16,309.99 343.28,318.75 C338.96,325.18 330.24,331.23 321.29,333.99 C313.75,336.32 309.55,336.42 302.20,334.44 ZM 568.50 238.91 C520.26,234.55 491.88,199.36 496.13,149.16 C499.13,113.69 520.33,88.94 555.50,79.88 C568.18,76.61 592.35,76.56 605.19,79.76 C623.33,84.30 634.82,90.73 645.87,102.56 C653.80,111.06 658.80,120.00 662.62,132.54 C665.11,140.70 665.36,142.97 665.41,158.00 C665.48,177.33 664.23,183.51 657.47,197.50 C645.32,222.64 624.18,235.86 591.08,239.00 C585.26,239.55 579.83,239.94 579.00,239.86 C578.17,239.79 573.45,239.36 568.50,238.91 ZM 598.50 229.41 C618.81,224.53 633.89,209.00 640.01,186.68 C644.12,171.71 644.34,146.96 640.50,131.92 C633.04,102.66 611.41,86.00 580.89,86.00 C568.48,86.00 562.57,87.25 552.18,92.07 C536.62,99.30 526.13,112.83 520.85,132.50 C517.88,143.55 517.60,170.58 520.33,182.50 C525.58,205.41 539.77,221.98 559.66,228.43 C570.84,232.05 585.91,232.43 598.50,229.41 ZM 404.46 235.94 C404.27,235.63 404.59,226.40 405.16,215.44 C406.18,196.05 405.58,94.83 404.38,85.00 L 403.84 80.50 L 445.92 80.50 L 488.00 80.50 L 488.00 87.26 L 488.00 94.02 L 484.25 93.55 C476.69,92.60 467.03,92.05 446.39,91.39 L 425.28 90.71 L 424.81 105.61 C424.55,113.80 424.55,126.98 424.80,134.90 L 425.27 149.31 L 450.88 148.62 C464.97,148.25 477.96,147.68 479.75,147.36 L 483.00 146.77 L 483.00 153.99 C483.00,160.46 482.82,161.14 481.25,160.54 C480.29,160.17 467.16,159.60 452.09,159.27 L 424.68 158.68 L 425.28 196.15 C425.61,216.77 426.02,234.21 426.19,234.91 C426.43,235.89 423.91,236.23 415.66,236.35 C409.69,236.43 404.65,236.25 404.46,235.94 ZM 685.50 158.50 L 685.50 80.50 L 696.37 80.50 L 707.23 80.50 L 706.63 86.50 C705.51,97.51 704.70,178.18 705.47,202.19 L 706.22 225.89 L 708.86 226.19 C712.88,226.66 753.61,225.34 761.06,224.50 L 767.62 223.76 L 767.68 230.13 L 767.75 236.50 L 726.62 236.50 L 685.50 236.50 L 685.50 158.50 ZM 787.76 212.50 C788.71,181.58 788.70,134.95 787.74,104.50 L 786.98 80.50 L 798.13 80.50 L 809.28 80.50 L 808.66 94.50 C808.32,102.20 807.74,118.22 807.37,130.10 C806.65,153.59 806.86,154.63 811.78,151.41 C816.32,148.44 849.67,114.48 865.18,97.05 L 879.82 80.60 L 889.94 80.55 L 900.05 80.50 L 891.77 87.97 C872.54,105.35 831.34,146.11 829.08,150.00 C828.43,151.11 830.29,153.83 836.24,160.50 C840.65,165.45 855.09,181.88 868.31,197.00 C881.54,212.12 894.53,226.84 897.18,229.69 C899.83,232.54 902.00,235.24 902.00,235.69 C902.00,236.14 896.29,236.50 889.31,236.50 L 876.62 236.50 L 847.41 201.50 C813.39,160.74 809.59,156.52 807.91,157.55 C806.69,158.31 807.07,192.15 808.66,224.00 L 809.28 236.50 L 798.15 236.50 L 787.02 236.50 L 787.76 212.50 ZM 234.46 177.11 C225.88,170.42 213.97,167.12 198.00,166.99 L 191.50 166.94 L 194.50 164.76 C196.15,163.57 201.25,158.97 205.84,154.55 C222.05,138.91 232.82,118.61 239.85,90.47 C245.19,69.05 246.25,60.42 245.05,47.71 C243.90,35.43 240.56,21.59 236.57,12.56 C235.16,9.36 234.00,6.62 234.00,6.45 C234.00,6.28 236.96,7.69 240.57,9.57 C244.19,11.46 248.04,13.00 249.14,13.00 C250.61,13.00 251.87,14.65 254.02,19.37 C258.95,30.26 264.96,48.90 267.75,61.98 C270.15,73.23 270.43,76.59 270.43,95.00 C270.44,122.80 268.39,131.28 255.30,157.42 C250.42,167.17 241.52,182.16 240.77,181.91 C240.62,181.86 237.78,179.70 234.46,177.11 ZM 255.00 181.49 C255.00,181.20 256.97,177.03 259.38,172.23 C277.11,136.92 282.73,90.68 273.48,56.12 C272.14,51.12 268.39,40.07 265.14,31.55 C258.64,14.50 258.67,14.18 266.27,15.93 C274.41,17.80 279.38,23.61 286.05,39.00 C288.31,44.22 291.03,49.92 292.10,51.65 C296.23,58.37 301.72,78.14 304.69,97.00 C306.20,106.59 306.49,114.36 306.42,143.84 C306.32,185.27 306.79,183.77 296.38,176.70 C288.23,171.17 272.39,172.20 260.26,179.05 C257.37,180.68 255.00,181.78 255.00,181.49 ZM 160.70 169.61 C155.48,167.68 149.57,163.43 146.50,159.42 C141.90,153.39 138.00,143.89 138.00,138.72 C138.00,133.29 140.25,127.00 142.20,127.00 C143.54,127.00 149.53,130.48 164.18,139.78 C168.76,142.69 174.21,145.57 176.29,146.20 C180.04,147.33 180.14,147.29 185.12,142.42 C197.64,130.20 208.38,112.16 213.66,94.50 C216.08,86.41 216.36,83.87 216.43,69.32 C216.49,54.48 216.33,52.92 214.44,50.39 C210.37,44.94 207.39,43.50 200.18,43.50 C193.65,43.50 193.26,43.65 183.00,50.20 C171.11,57.78 172.33,57.67 157.53,52.55 C151.34,50.41 148.27,49.88 143.78,50.21 C140.60,50.44 138.00,50.25 138.00,49.78 C138.00,49.32 144.19,42.72 151.75,35.12 C166.75,20.05 177.44,12.24 193.75,4.43 C204.13,-0.54 208.90,-1.11 217.91,1.57 C223.18,3.13 223.20,3.15 227.13,11.53 C241.93,43.12 239.36,86.45 220.45,124.10 C212.68,139.57 192.14,161.72 180.60,167.07 C173.03,170.59 165.83,171.50 160.70,169.61 ZM 314.20 127.75 C313.53,117.71 312.08,104.35 310.98,98.05 C308.98,86.68 304.33,65.03 303.32,62.38 C302.91,61.33 303.89,61.00 307.41,61.00 C311.27,61.00 312.20,61.38 312.99,63.25 C333.00,110.78 338.74,125.62 337.80,127.38 C335.73,131.25 328.34,138.43 322.59,142.16 C319.35,144.27 316.40,146.00 316.06,146.00 C315.71,146.00 314.87,137.79 314.20,127.75 ZM 175.50 136.42 C174.40,135.59 167.09,131.07 159.26,126.38 C151.43,121.69 144.82,117.52 144.57,117.11 C144.31,116.70 147.84,116.56 152.39,116.80 C165.49,117.49 170.91,115.50 179.19,106.96 C190.10,95.70 197.47,81.43 200.06,66.57 C200.69,62.96 201.59,60.00 202.06,60.00 C202.52,60.00 204.02,60.51 205.39,61.13 C209.22,62.88 210.34,66.90 209.76,76.79 C209.24,85.65 205.78,96.39 199.24,109.50 C193.68,120.63 181.06,138.04 178.59,137.97 C177.99,137.95 176.60,137.25 175.50,136.42 ZM 146.00 108.96 C144.76,108.13 145.15,107.43 148.29,104.85 C152.82,101.13 159.13,92.37 164.91,81.75 C172.90,67.10 180.62,59.75 189.53,58.30 L 193.22 57.70 L 192.86 66.13 C192.36,77.75 188.70,85.07 177.51,96.78 C169.59,105.07 168.81,105.61 161.67,107.75 C153.60,110.17 148.40,110.57 146.00,108.96 ZM 130.97 98.97 C121.61,88.95 123.41,72.09 134.95,61.67 C138.78,58.20 139.38,58.00 145.75,58.01 C150.83,58.02 153.82,58.64 157.86,60.51 C163.21,63.01 163.22,63.02 162.55,66.76 C160.27,79.48 143.34,102.00 136.05,102.00 C134.81,102.00 132.53,100.64 130.97,98.97 Z"/>
</g>
</svg>