<svg version="1.1" xmlns="http://www.w3.org/2000/svg" width="100%" height="100%" viewBox="0 0 842 322">
    <path transform="translate(258.375,0.625)" d="M0 0 C1.28648437 -0.02835937 2.57296875 -0.05671875 3.8984375 -0.0859375 C8.82348297 0.52324003 11.96495236 2.31103702 15.0859375 6.19140625 C17.625 11.04166667 17.625 11.04166667 17.625 14.375 C24.885 14.375 32.145 14.375 39.625 14.375 C39.625 10.415 39.625 6.455 39.625 2.375 C45.99489414 -0.80994707 52.68810659 -0.42832494 59.5 1.5 C64.93601188 3.57132474 67.3446942 6.81438841 69.9375 12 C71.52280764 19.78241934 71.7356575 27.4294063 67.625 34.375 C64.08148691 38.82970217 60.16802015 41.2066183 54.625 42.375 C44.12107051 43.34807976 44.12107051 43.34807976 40.78125 41.17578125 C38.511315 37.64051085 39.46698973 33.43059694 39.625 29.375 C34.675 29.375 29.725 29.375 24.625 29.375 C27.925 37.955 31.225 46.535 34.625 55.375 C41.225 55.705 47.825 56.035 54.625 56.375 C54.563125 54.621875 54.50125 52.86875 54.4375 51.0625 C54.25899119 46.00475045 54.25899119 46.00475045 55.6875 43.546875 C60.75183912 40.48376666 69.61892379 41.6540858 75.21484375 42.99609375 C80.47575385 45.26807988 83.52284014 49.1105393 85.625 54.375 C87.55468391 62.25877442 86.54639306 69.45831415 83 76.6875 C77.31711471 83.11813336 70.88171892 83.88220785 62.578125 84.4921875 C59.54784636 84.37193835 57.9718537 84.30119124 55.625 82.375 C54.76580195 78.70688525 54.8009228 75.1573402 54.625 71.375 C50.005 71.375 45.385 71.375 40.625 71.375 C43.1656097 77.93239923 45.70673563 84.48959811 48.24829102 91.04663086 C49.10845065 93.26598013 49.96848175 95.48537922 50.82836914 97.70483398 C51.66361056 99.86062678 52.49927421 102.01625604 53.33535767 104.17172241 C54.1740776 106.33686323 55.0104708 108.50290675 55.84457397 110.66983032 C57.92227044 116.05454254 60.04208884 121.41397134 62.26220703 126.74169922 C62.68119766 127.76323593 63.10018829 128.78477264 63.53187561 129.83726501 C64.31769011 131.74794804 65.11817234 133.6526992 65.93675232 135.54957581 C68.50685558 141.85193217 69.47124788 147.57001761 68.625 154.375 C66.32703056 159.23608919 63.48608919 162.07703056 58.625 164.375 C53.00048717 165.20763181 47.00146137 165.34539301 42.22119141 161.8972168 C35.39463544 155.38703379 32.84887278 143.29275074 29.6875 134.5625 C29.10373337 132.96389095 28.51957217 131.36542594 27.93505859 129.76708984 C25.82035431 123.97382802 23.72205304 118.17467055 21.625 112.375 C20.95274384 110.51642365 20.95274384 110.51642365 20.26690674 108.62030029 C13.36807219 89.54508659 6.49052063 70.46222747 -0.375 51.375 C-2.76033297 53.76033297 -3.33224263 55.61842427 -4.45947266 58.79467773 C-4.86868454 59.93847397 -5.27789642 61.0822702 -5.69950867 62.26072693 C-6.14607308 63.52666615 -6.59258957 64.79262227 -7.0390625 66.05859375 C-7.50816887 67.37500284 -7.97785132 68.69120677 -8.44807434 70.00721741 C-9.44997573 72.8139774 -10.44866487 75.62185023 -11.4447937 78.43066406 C-13.77703007 85.00570253 -16.12612019 91.57471863 -18.47600365 98.14346695 C-19.00091506 99.61079682 -19.52564499 101.07819162 -20.05019569 102.54565048 C-24.87007703 116.0265072 -29.79755554 129.46538481 -34.8125 142.875 C-35.1546051 143.7902243 -35.49671021 144.70544861 -35.84918213 145.64840698 C-37.68586759 150.55925745 -39.52875064 155.46773829 -41.375 160.375 C-40.45680481 160.36389694 -39.53860962 160.35279388 -38.59259033 160.34135437 C-29.94082517 160.24118259 -21.28925467 160.16505042 -12.637043 160.11593914 C-8.18876667 160.0898415 -3.74096937 160.05444111 0.70703125 159.99780273 C4.99940957 159.94348782 9.29132709 159.91358072 13.58402252 159.90061378 C15.22194932 159.89137285 16.85985079 159.87332708 18.49758148 159.84634972 C20.79158575 159.81006376 23.08368476 159.80505408 25.37792969 159.80737305 C26.68364929 159.79626999 27.9893689 159.78516693 29.33465576 159.77372742 C32.625 160.375 32.625 160.375 35.04658508 162.78143311 C36.59341778 165.32310578 37.12926878 166.52718571 37.12109375 169.44140625 C37.12173828 170.17423828 37.12238281 170.90707031 37.12304688 171.66210938 C37.10306641 172.41298828 37.08308594 173.16386719 37.0625 173.9375 C37.06958984 174.69224609 37.07667969 175.44699219 37.08398438 176.22460938 C37.04654044 179.49375264 36.85952846 181.94354968 35.28515625 184.83984375 C32.43062069 187.47944958 29.67255361 187.49845189 25.9699707 187.48852539 C25.02922195 187.48844986 24.08847321 187.48837433 23.11921692 187.48829651 C22.10663315 187.48313522 21.09404938 187.47797394 20.05078125 187.47265625 C18.49232735 187.47053383 18.49232735 187.47053383 16.90238953 187.46836853 C13.58073052 187.46276656 10.25913867 187.45021372 6.9375 187.4375 C4.68684993 187.43248525 2.43619881 187.4279223 0.18554688 187.42382812 C-5.33468217 187.41364696 -10.85476582 187.39407183 -16.375 187.375 C-16.375 198.595 -16.375 209.815 -16.375 221.375 C-2.845 221.375 10.685 221.375 24.625 221.375 C25.285 218.075 25.945 214.775 26.625 211.375 C33.47016648 190.74029524 47.53705453 174.00464111 66.8125 164 C70.24765502 162.31928037 73.69154945 160.98935592 77.31762695 159.79443359 C78.12512894 159.52762787 78.93263092 159.26082214 79.76460266 158.9859314 C80.37853378 158.78432404 80.9924649 158.58271667 81.625 158.375 C81.76343826 157.50900681 81.90187653 156.64301361 82.04450989 155.7507782 C82.72347197 151.50439116 83.40267339 147.25804248 84.08203125 143.01171875 C84.210084 142.21130346 84.33813675 141.41088818 84.47006989 140.58621788 C86.04598602 130.73728794 87.62519529 120.88889615 89.21069336 111.04150391 C89.35868661 110.12226009 89.50667986 109.20301628 89.65915775 108.2559166 C90.26378294 104.50066508 90.86846363 100.74542255 91.47348213 96.99023438 C93.21298052 86.19230546 94.94307746 75.39302562 96.64825153 64.58961964 C97.63625044 58.3316399 98.63318594 52.07513211 99.63736248 45.8197279 C100.21998132 42.18743743 100.79756754 38.55450438 101.3631897 34.91952515 C101.98879586 30.89957767 102.63604253 26.88340595 103.28515625 22.8671875 C103.46387268 21.69480026 103.64258911 20.52241302 103.82672119 19.3144989 C104.83996153 13.16840535 105.98492793 8.47908562 109.625 3.375 C114.06926041 0.24381653 118.33320675 -0.52119079 123.625 0.375 C133.59313477 4.73605896 139.50824038 18.17778811 145.1953125 27.05078125 C149.68574815 34.04469726 154.25413377 40.98776795 158.8125 47.9375 C159.6840213 49.26675079 160.55552236 50.59601484 161.42700195 51.92529297 C163.49249416 55.07552819 165.55857284 58.22537801 167.625 61.375 C170.25526524 58.87579489 172.32887854 56.51944244 174.1484375 53.3828125 C174.60508789 52.60615234 175.06173828 51.82949219 175.53222656 51.02929688 C176.25877441 49.77729492 176.25877441 49.77729492 177 48.5 C183.13318686 38.10541815 189.54614681 27.90900139 196.08740234 17.76708984 C197.44141779 15.66060471 198.78018562 13.54553089 200.11328125 11.42578125 C200.79777344 10.35714844 201.48226563 9.28851563 202.1875 8.1875 C202.74566406 7.30707031 203.30382812 6.42664063 203.87890625 5.51953125 C206.37892107 2.44904324 208.92701844 0.70799638 212.8359375 -0.05859375 C218.60523661 -0.06900765 221.99130907 0.85339489 226.625 4.375 C228.9945183 8.40773622 230.12110308 11.95918146 230.78973389 16.56764221 C230.97200027 17.78871674 231.15426666 19.00979126 231.34205627 20.26786804 C231.53130479 21.60766726 231.72033879 22.94749679 231.90917969 24.28735352 C232.11726878 25.70880681 232.32625126 27.13012956 232.53605652 28.55133057 C233.10126234 32.39900215 233.65336004 36.2484487 234.20262432 40.0984242 C234.77981227 44.13157603 235.36752785 48.1631954 235.95367432 52.1950531 C236.93595183 58.96354305 237.90970963 65.73321769 238.87841797 72.50366211 C239.99807717 80.32837346 241.13120398 88.1510445 242.27155185 95.97276551 C243.36913449 103.50334199 244.45717183 111.03526792 245.54087067 118.56785393 C246.00189308 121.77114175 246.46625372 124.97391924 246.93331146 128.17633247 C247.48277929 131.94681458 248.02387725 135.71840601 248.55855751 139.49101257 C248.75600085 140.87452641 248.95630768 142.2576351 249.15969658 143.6402874 C249.4370155 145.52884065 249.70289235 147.4190635 249.96820068 149.30934143 C250.12008724 150.36621942 250.2719738 151.4230974 250.42846298 152.51200199 C250.62438899 155.36609926 250.32913089 157.61483229 249.625 160.375 C250.40875 160.33375 251.1925 160.2925 252 160.25 C254.625 160.375 254.625 160.375 256.625 162.375 C257.078125 164.59765625 257.078125 164.59765625 256.625 167.375 C254.94676876 169.70488486 253.30579974 171.71370175 251.375 173.8125 C250.26530169 175.0609106 249.15593578 176.30961674 248.046875 177.55859375 C247.47646484 178.19265137 246.90605469 178.82670898 246.31835938 179.47998047 C243.70559371 182.40389729 241.16734157 185.38990765 238.625 188.375 C237.62671859 189.54072139 236.62801913 190.70608491 235.62890625 191.87109375 C235.13406738 192.44843262 234.63922852 193.02577148 234.12939453 193.62060547 C232.61693176 195.38440902 231.10350478 197.14738096 229.58984375 198.91015625 C224.60500201 204.71711589 219.63133047 210.53305862 214.6875 216.375 C214.25107178 216.89070557 213.81464355 217.40641113 213.36499023 217.93774414 C212.11645695 219.41525136 210.87070643 220.89510864 209.625 222.375 C209.16810791 222.89989014 208.71121582 223.42478027 208.24047852 223.96557617 C204.89000803 227.85829147 203.35725796 230.10940646 203.625 235.375 C205.16990662 238.71895371 207.3629395 241.48267074 209.625 244.375 C210.40359375 245.38304687 211.1821875 246.39109375 211.984375 247.4296875 C213.80796049 249.77405058 215.64756869 252.10494791 217.49609375 254.4296875 C220.92376272 258.74195156 224.30764434 263.0877129 227.6875 267.4375 C228.57042725 268.57312378 228.57042725 268.57312378 229.47119141 269.73168945 C234.54494505 276.26222859 239.59286011 282.81234751 244.625 289.375 C246.89258173 285.9736274 248.29938202 282.44661156 249.79296875 278.66796875 C250.1041716 277.88849884 250.41537445 277.10902893 250.73600769 276.30593872 C251.76490198 273.72613117 252.7887367 271.14434755 253.8125 268.5625 C254.53637447 266.74428656 255.26049924 264.92617275 255.98486328 263.1081543 C260.37875958 252.07123511 264.74282208 241.02254304 269.09933472 229.9708252 C270.00335079 227.67900524 270.90878826 225.38775201 271.81469727 223.09667969 C272.43378135 221.53060878 273.05284028 219.96452792 273.671875 218.3984375 C273.98285629 217.61186768 274.29383759 216.82529785 274.61424255 216.01489258 C276.81167451 210.45085613 278.9902729 204.87965457 281.16329956 199.30604553 C282.78536016 195.15353087 284.4184211 191.0053942 286.05352783 186.85800171 C286.84498391 184.84342844 287.63180578 182.82702778 288.41375732 180.80874634 C289.50599778 177.99130182 290.614409 175.18072624 291.7265625 172.37109375 C292.20696991 171.11439377 292.20696991 171.11439377 292.69708252 169.83230591 C295.13724496 163.73992925 298.08500471 160.06833019 303.625 156.375 C306.98828125 156.0390625 306.98828125 156.0390625 310.9375 156 C312.23300781 155.97164062 313.52851562 155.94328125 314.86328125 155.9140625 C319.27709073 156.45490312 321.25114643 157.51031756 324.625 160.375 C328.28715026 165.19925415 330.31263738 170.23749453 332.3984375 175.89453125 C332.75516541 176.84212311 333.11189331 177.78971497 333.47943115 178.76602173 C334.25373025 180.82495814 335.02464105 182.88517128 335.7925415 184.94650269 C337.87267576 190.52989091 339.9773082 196.10405615 342.078125 201.6796875 C342.52016266 202.85500534 342.96220032 204.03032318 343.41763306 205.24125671 C348.77408677 219.46543145 354.26301607 233.63829587 359.75 247.8125 C361.18782683 251.52730577 362.62541284 255.24220411 364.06231689 258.95736694 C364.92172919 261.1791076 365.78184069 263.40057797 366.64276123 265.62173462 C367.02249084 266.60306366 367.40222046 267.5843927 367.79345703 268.59545898 C368.12475616 269.45058578 368.4560553 270.30571259 368.7973938 271.18675232 C369.44602227 272.90177057 370.04517188 274.63551564 370.625 276.375 C370.62646656 275.82577126 370.62793312 275.27654251 370.62944412 274.71067047 C370.6665604 261.32200851 370.72588948 247.93360185 370.80890274 234.54514313 C370.84838141 228.07044981 370.88056823 221.59589259 370.89599609 215.12109375 C370.91115972 208.87044047 370.94560108 202.62016132 370.99330902 196.36967468 C371.00812566 193.98714961 371.01604117 191.60457112 371.01688385 189.22200012 C371.01925428 185.88001803 371.04634222 182.53906919 371.07910156 179.19726562 C371.0740712 178.21614807 371.06904083 177.23503052 371.06385803 176.22418213 C371.15606678 170.128593 372.12891479 165.45630594 375.625 160.375 C380.48653371 155.75061428 384.03325574 155.25062747 390.625 155.375 C389.9915352 144.44579409 388.76096414 133.65085401 387.375 122.796875 C387.1543974 121.05050448 386.93402403 119.30410499 386.71386719 117.55767822 C386.2557115 113.93022558 385.79486733 110.30312787 385.33203125 106.67626953 C384.7384433 102.02311059 384.15166887 97.36912132 383.5668335 92.71485519 C383.11483223 89.12355829 382.65933726 85.53271131 382.20275879 81.94199371 C381.98478944 80.22447538 381.76790571 78.50681891 381.55212402 76.78902435 C381.25184353 74.40282631 380.94688041 72.01727344 380.640625 69.63183594 C380.55228394 68.92231277 380.46394287 68.21278961 380.3729248 67.48176575 C379.91672056 63.81139366 379.91672056 63.81139366 378.625 60.375 C373.35353334 68.23074315 368.12956515 76.1132475 363 84.0625 C362.53843506 84.772854 362.07687012 85.48320801 361.60131836 86.21508789 C359.49497749 89.45857602 357.41061662 92.70886264 355.3984375 96.01171875 C349.93695129 104.75220536 349.93695129 104.75220536 346.0625 106.625 C341.09530955 107.70875064 337.41069196 107.99452578 332.5625 106.3125 C325.41197669 101.59619739 321.23894398 93.89437134 316.8125 86.75 C311.61851231 78.46911064 306.30113247 70.33359844 300.625 62.375 C298.49507676 64.50492324 298.75990243 68.87931355 298.36572266 71.82275391 C298.24359909 72.70898438 298.12147552 73.59521484 297.99565125 74.50830078 C297.72980714 76.44022429 297.46581345 78.3724031 297.20341873 80.30479813 C296.78716443 83.36551899 296.364789 86.42533513 295.94052124 89.48495483 C294.73459266 98.18710718 293.53694924 106.89037305 292.35058594 115.59521484 C291.62520888 120.91435397 290.89014709 126.2320813 290.1490593 131.54905319 C289.868695 133.57466531 289.59203012 135.6007931 289.31917191 137.62742996 C288.93622265 140.46991793 288.54099188 143.31045434 288.14306641 146.15087891 C287.97926231 147.40117386 287.97926231 147.40117386 287.81214905 148.67672729 C287.09415894 153.68881767 286.01914343 157.88623913 283.625 162.375 C279.34317238 163.80227587 275.23554564 163.59947769 270.75 163.625 C269.40228516 163.6559375 269.40228516 163.6559375 268.02734375 163.6875 C259.2381058 163.7394305 259.2381058 163.7394305 255.625 160.375 C254.47744732 156.51087698 254.71510136 153.42843162 255.35772705 149.48138428 C255.54554245 148.30112167 255.73335785 147.12085907 255.92686462 145.90483093 C256.14081375 144.61849258 256.35476288 143.33215424 256.57519531 142.00683594 C256.79751557 140.63167517 257.01907934 139.25639193 257.23994446 137.8809967 C257.84146987 134.15009647 258.45411711 130.42110163 259.06918049 126.69241238 C259.71253433 122.78307521 260.34702215 118.87229796 260.98284912 114.96173096 C262.05278254 108.39028113 263.12997524 101.8200519 264.21142578 95.25048828 C265.4589173 87.67168549 266.69479959 80.09105936 267.92444348 72.50934196 C269.10981959 65.20238374 270.30366132 57.89683233 271.50124359 50.59186554 C272.0095261 47.49047989 272.51484823 44.38863378 273.01773834 41.28636932 C273.61172825 37.62447184 274.21315781 33.96386964 274.82015038 30.30410576 C275.14536655 28.33263788 275.46333186 26.3599781 275.78102112 24.38728333 C278.62332271 7.37667729 278.62332271 7.37667729 283.125 2.875 C287.35914871 0.33451077 291.75957701 -0.55377602 296.625 0.375 C301.96486126 3.33699423 304.70272907 6.81586435 307.96875 11.90234375 C308.45577393 12.63995438 308.94279785 13.377565 309.44458008 14.13752747 C311.0156615 16.5222024 312.57032931 18.91710149 314.125 21.3125 C315.19872023 22.94834626 316.27359401 24.58343594 317.34960938 26.21777344 C319.4728981 29.44552449 321.59051613 32.67687048 323.703125 35.91162109 C327.47094906 41.67589581 331.29441205 47.40226207 335.125 53.125 C336.21910419 54.76538882 337.31289977 56.40598356 338.40625 58.046875 C339.1384375 59.14515625 339.870625 60.2434375 340.625 61.375 C344.16084197 57.1767052 347.04171719 52.70847587 349.9375 48.0625 C350.70549927 46.8396228 350.70549927 46.8396228 351.48901367 45.59204102 C354.50598257 40.78316997 357.50383881 35.96247885 360.5 31.140625 C361.15444092 30.08915283 361.80888184 29.03768066 362.4831543 27.9543457 C363.7529956 25.91292313 365.020235 23.86987896 366.28442383 21.82495117 C369.20873689 17.12134671 372.17764976 12.44834388 375.26171875 7.84765625 C376.05195435 6.66248413 376.05195435 6.66248413 376.8581543 5.45336914 C379.36337853 2.50643341 382.05304227 0.67845619 385.87109375 -0.05859375 C391.28102393 -0.06823712 394.37131834 0.72898715 398.625 4.375 C401.16417541 7.28733046 402.08553502 9.45369838 402.64849854 13.26112366 C402.79805874 14.23287505 402.94761894 15.20462645 403.10171127 16.20582485 C403.25151569 17.25817853 403.40132011 18.31053221 403.55566406 19.39477539 C403.72278019 20.5026368 403.88989632 21.61049822 404.06207657 22.75193119 C404.59357938 26.29147539 405.10927776 29.83312623 405.625 33.375 C405.95899241 35.60589072 406.29421904 37.83659705 406.6307373 40.06710815 C407.6824057 47.0617799 408.71041213 54.05981919 409.734375 61.05859375 C409.91826027 62.31399523 410.10214554 63.56939671 410.29160309 64.86284065 C411.16143256 70.80310585 412.02987643 76.74356933 412.89610171 82.68436092 C413.88605214 89.47327033 414.88196637 96.26127179 415.88268828 103.04860157 C416.75917004 108.9963072 417.62778655 114.94513547 418.49365997 120.89439583 C418.85965627 123.40125545 419.22804248 125.90776742 419.59893036 128.413908 C420.11532369 131.90707548 420.62268298 135.40144556 421.12792969 138.89624023 C421.35694725 140.42445152 421.35694725 140.42445152 421.59059143 141.98353577 C423.36837195 154.44423872 423.36837195 154.44423872 422.625 160.375 C419.1218593 164.00058057 414.62639998 163.9012689 409.8125 164.0625 C409.11962891 164.09666016 408.42675781 164.13082031 407.71289062 164.16601562 C406.01747151 164.24786344 404.32126542 164.31312365 402.625 164.375 C403.25664063 165.17679688 403.88828125 165.97859375 404.5390625 166.8046875 C409.92272132 173.64471603 415.28491239 180.50089354 420.625 187.375 C426.15944689 194.49833724 431.71808188 201.60196728 437.29833984 208.68945312 C439.57586206 211.58308827 441.85024007 214.47919323 444.125 217.375 C445.0416523 218.54167796 445.95831895 219.70834464 446.875 220.875 C448.70833333 223.20833333 450.54166667 225.54166667 452.375 227.875 C452.82891113 228.45266113 453.28282227 229.03032227 453.75048828 229.62548828 C454.66569993 230.79039177 455.58073944 231.95543053 456.49560547 233.12060547 C458.80813021 236.06539045 461.12374234 239.00765185 463.4453125 241.9453125 C463.91517578 242.54085937 464.38503906 243.13640625 464.86914062 243.75 C466.15400775 245.37834646 467.44023059 247.00562292 468.7265625 248.6328125 C471.29940029 251.9233842 473.80310555 255.26515233 476.30615234 258.60888672 C476.93042366 259.4420768 476.93042366 259.4420768 477.56730652 260.292099 C478.58680637 261.65286474 479.60594018 263.0139047 480.625 264.375 C480.62713753 262.87948608 480.62713753 262.87948608 480.62931824 261.35375977 C480.64601953 251.93769755 480.68888863 242.52206577 480.75709057 233.10623169 C480.79131738 228.26590838 480.81646384 223.42589925 480.82055664 218.58544922 C480.82484884 213.91024314 480.85338773 209.23574529 480.89843178 204.5607605 C480.91137739 202.7811191 480.9157249 201.00139282 480.91115379 199.22171021 C480.8775623 182.16571894 480.8775623 182.16571894 485.2702179 176.69561768 C491.81957678 170.31141827 499.24240948 169.80867246 508.0703125 169.88671875 C509.42187851 169.92435315 510.77344099 169.9621149 512.125 170 C513.50778768 170.01654673 514.89060362 170.03088447 516.2734375 170.04296875 C526.25749362 170.19124681 526.25749362 170.19124681 528.625 171.375 C528.625 172.695 528.625 174.015 528.625 175.375 C526.58448743 177.24213569 524.37771013 178.66505822 522.08203125 180.203125 C518.08072906 183.74004712 515.11260665 187.60458375 514.16883659 192.96676636 C514.00030196 195.98458429 513.98662418 198.96600957 514.02905273 201.98828125 C514.0249942 203.12752045 514.02093567 204.26675964 514.01675415 205.44052124 C514.01125149 207.90349336 514.01720409 210.36651234 514.03341484 212.82943726 C514.05887623 216.73078274 514.05402215 220.63107385 514.04151917 224.5324707 C514.02091651 232.11037924 514.03641752 239.68799274 514.05699158 247.2658844 C514.08389618 257.56736768 514.09007064 267.86853002 514.06199837 278.17001343 C514.05864153 282.00787241 514.07984621 285.84507955 514.10240173 289.68286133 C514.09988996 292.0424819 514.09632941 294.40210167 514.09155273 296.76171875 C514.10443832 297.82377533 514.11732391 298.88583191 514.13059998 299.98007202 C514.08860204 306.21227492 513.40289953 311.25375731 509.625 316.375 C505.46630921 320.00425002 501.46542358 320.82514293 496.03125 320.90625 C488.71160996 319.29022558 484.68059899 314.61481646 480.3125 308.9375 C479.75127441 308.2273877 479.19004883 307.51727539 478.61181641 306.78564453 C476.93640415 304.6586284 475.27828623 302.51924058 473.625 300.375 C473.16657715 299.78412598 472.7081543 299.19325195 472.23583984 298.58447266 C470.16931895 295.92034686 468.11480615 293.24746687 466.0703125 290.56640625 C463.53641293 287.2486898 460.95923081 283.96608534 458.375 280.6875 C454.1038233 275.26633229 449.8586671 269.82550885 445.625 264.375 C440.09060019 257.25162651 434.53191785 250.14803237 428.95166016 243.06054688 C427.13440197 240.7516859 425.31921889 238.44119776 423.50415039 236.13061523 C422.5933231 234.97116063 421.68235575 233.81181602 420.77124023 232.65258789 C418.35321747 229.57601386 415.93712648 226.4979443 413.5234375 223.41796875 C412.76450195 222.45020508 412.76450195 222.45020508 411.99023438 221.46289062 C411.01443441 220.21852187 410.03915388 218.97374557 409.06445312 217.72851562 C406.9503654 214.96036226 406.9503654 214.96036226 404.625 212.375 C404.61953156 214.25967987 404.61953156 214.25967987 404.61395264 216.18243408 C404.57703974 228.01312457 404.5193076 239.84355387 404.44109726 251.67404556 C404.40155835 257.75650373 404.36940127 263.83881573 404.35400391 269.92138672 C404.3388797 275.78948732 404.30450929 281.65718624 404.25669098 287.52510834 C404.24183346 289.7658006 404.23395649 292.0065502 404.23311615 294.24729156 C404.23075793 297.38177003 404.20376991 300.51512802 404.17089844 303.64941406 C404.1759288 304.57945755 404.18095917 305.50950104 404.18614197 306.46772766 C404.08465679 312.70680706 404.08465679 312.70680706 401.85328674 315.95050049 C399.44723438 317.48864204 398.25201145 317.88002203 395.42651367 317.89257812 C394.60853806 317.90518677 393.79056244 317.91779541 392.94779968 317.93078613 C391.63365837 317.91864075 391.63365837 317.91864075 390.29296875 317.90625 C389.38299637 317.9100769 388.47302399 317.91390381 387.53547668 317.91784668 C385.61144911 317.92056626 383.6873846 317.91320185 381.76342773 317.89648438 C378.83297148 317.87514904 375.90498757 317.89624559 372.97460938 317.921875 C371.10155713 317.91923028 369.22850641 317.91410232 367.35546875 317.90625 C366.48544724 317.91434692 365.61542572 317.92244385 364.71903992 317.93078613 C358.87237544 317.84169302 355.43511921 316.74200489 350.625 313.375 C349.05859375 311.359375 349.05859375 311.359375 348.0625 309.125 C347.67578125 308.26261719 347.2890625 307.40023438 346.890625 306.51171875 C339.625 288.50462963 339.625 288.50462963 339.625 284.375 C311.41 284.87 311.41 284.87 282.625 285.375 C277.675 297.255 277.675 297.255 272.625 309.375 C266.15816601 317.13520079 266.15816601 317.13520079 259.71777344 317.74487305 C255.51380993 317.90584976 251.30676956 317.97348907 247.10009766 318.02026367 C245.29011215 318.04831666 243.48031983 318.09602829 241.67138672 318.16381836 C226.7682639 318.72006742 226.7682639 318.72006742 221.82055664 315.61499023 C219.73896963 313.31783594 218.19096273 311.04550238 216.625 308.375 C215.60307802 306.99596507 214.57084387 305.62449876 213.52734375 304.26171875 C212.53457576 302.86515781 211.54643042 301.46530136 210.5625 300.0625 C205.85776691 293.45282555 201.07116402 286.91613983 196.1875 280.4375 C191.02882271 273.58701287 185.89999391 266.71605783 180.8125 259.8125 C179.92316772 258.60702515 179.92316772 258.60702515 179.01586914 257.37719727 C178.46793701 256.63268311 177.92000488 255.88816895 177.35546875 255.12109375 C176.63460083 254.14160767 176.63460083 254.14160767 175.89916992 253.14233398 C174.7717639 251.57856848 173.69435018 249.97902527 172.625 248.375 C172.62286247 249.56104073 172.62286247 249.56104073 172.62068176 250.77104187 C172.60283545 258.23090288 172.56117485 265.69007414 172.49290943 273.14963055 C172.45865089 276.98451714 172.43353135 280.81900588 172.42944336 284.65405273 C172.42515775 288.35674943 172.39667546 292.05854882 172.35156822 295.76096535 C172.33860123 297.17186057 172.33428279 298.58286323 172.33884621 299.99381065 C172.34375663 301.97340848 172.31477706 303.95300184 172.28442383 305.93237305 C172.27776199 307.05822311 172.27110016 308.18407318 172.26423645 309.34403992 C171.42513419 313.32267012 169.73107755 314.83841951 166.625 317.375 C164.10131836 318.00610352 164.10131836 318.00610352 161.46484375 318.00390625 C160.50642578 318.00583984 159.54800781 318.00777344 158.56054688 318.00976562 C157.57119141 317.98591797 156.58183594 317.96207031 155.5625 317.9375 C154.56927734 317.94845703 153.57605469 317.95941406 152.55273438 317.97070312 C145.34410673 317.8978887 145.34410673 317.8978887 142.01953125 315.48046875 C140.70342099 313.49340031 139.56404241 311.56609896 138.625 309.375 C138.00625 310.2825 137.3875 311.19 136.75 312.125 C131.52995666 318.3772553 122.36457779 320.1418351 114.625 321.375 C92.07565575 323.15274913 71.29059843 319.50688974 53.125 305.375 C51.60696244 304.06223964 50.10564049 302.72979944 48.625 301.375 C47.94308594 300.78460938 47.26117188 300.19421875 46.55859375 299.5859375 C32.75264757 286.88770911 26.09247748 269.35164303 22.625 251.375 C22.625 250.385 22.625 249.395 22.625 248.375 C9.755 248.375 -3.115 248.375 -16.375 248.375 C-16.375 262.565 -16.375 276.755 -16.375 291.375 C-12.80042969 291.31699219 -9.22585937 291.25898438 -5.54296875 291.19921875 C-2.08783182 291.16024535 1.36728079 291.12987367 4.82250977 291.1003418 C7.22724332 291.07516899 9.63190015 291.04102818 12.03637695 290.99780273 C15.48928733 290.93727533 18.94118795 290.90881756 22.39453125 290.88671875 C24.01183891 290.84800911 24.01183891 290.84800911 25.66181946 290.80851746 C28.4057173 290.80748205 30.93235499 290.8482182 33.625 291.375 C37.25944995 295.1943077 37.0531495 299.39055582 36.9375 304.4375 C36.94072266 305.14455078 36.94394531 305.85160156 36.94726562 306.58007812 C36.90892399 310.29224566 36.80423056 313.28711501 34.625 316.375 C31.63445565 317.87027218 28.56554753 317.53102204 25.28540039 317.53613281 C24.52914871 317.54109772 23.77289703 317.54606262 22.99372864 317.55117798 C20.48669533 317.56580874 17.97972527 317.57260257 15.47265625 317.578125 C13.7339223 317.58387503 11.99518837 317.58963278 10.25645447 317.59539795 C6.60887353 317.60591008 2.96131466 317.61175158 -0.6862793 317.61523438 C-5.3651196 317.62072418 -10.04366963 317.64476157 -14.72241879 317.67320633 C-18.31430419 317.6918082 -21.90611927 317.69703696 -25.49804878 317.69857025 C-27.22326815 317.7016021 -28.94848613 317.7096485 -30.67365837 317.72275543 C-33.08466729 317.73976756 -35.49496166 317.73794801 -37.90600586 317.73144531 C-38.62143555 317.7406601 -39.33686523 317.74987488 -40.07397461 317.7593689 C-44.88923495 317.71858504 -44.88923495 317.71858504 -47.05685997 316.18540859 C-48.85243281 313.71926659 -48.75919058 312.07916949 -48.77372742 309.04096985 C-48.78626556 307.93459167 -48.79880371 306.8282135 -48.8117218 305.68830872 C-48.81028671 304.4741478 -48.80885162 303.25998688 -48.80737305 302.0090332 C-48.82266052 300.09179947 -48.82266052 300.09179947 -48.83825684 298.13583374 C-48.86587477 294.62990236 -48.87511776 291.12413317 -48.88111091 287.61810708 C-48.8904822 283.95450151 -48.91668451 280.29101769 -48.94111633 276.62748718 C-48.98481945 269.68962319 -49.01334292 262.75178278 -49.03643972 255.81382293 C-49.06347103 247.91540571 -49.10738375 240.01711074 -49.15272844 232.11878073 C-49.24562927 215.87091574 -49.31728501 199.62302887 -49.375 183.375 C-49.61518954 184.02706201 -49.85537909 184.67912401 -50.1028471 185.35094547 C-52.42009302 191.64170791 -54.7374331 197.93243565 -57.05486697 204.22312886 C-58.24491352 207.45352921 -59.43492947 210.68394083 -60.62486267 213.91438293 C-66.92282534 231.01189956 -73.2255112 248.10766 -79.53818703 265.1997509 C-80.32772361 267.33809734 -81.11674684 269.47663337 -81.90534019 271.61532784 C-82.29806932 272.68003241 -82.69079845 273.74473698 -83.09542847 274.84170532 C-83.44463285 275.78890757 -83.79383724 276.73610981 -84.15362358 277.71201515 C-87.10969214 285.67316471 -90.18240882 293.57907123 -93.54296875 301.37890625 C-93.84084793 302.09038315 -94.13872711 302.80186005 -94.44563293 303.53489685 C-97.13169106 309.60060859 -100.70439786 314.63839834 -106.3125 318.28515625 C-112.8634311 320.61641872 -120.48540055 320.61339977 -126.875 317.875 C-133.72413813 311.02586187 -137.10500656 303.73720936 -140.29611206 294.67486572 C-141.37195885 291.62181363 -142.47932213 288.58045997 -143.58485413 285.53805542 C-144.19313302 283.86402187 -144.79997724 282.18946643 -145.40550232 280.51443481 C-149.01953069 270.5381292 -152.80497574 260.62745194 -156.5871582 250.71395874 C-157.81143893 247.50278308 -159.03222597 244.29030036 -160.25195312 241.07739258 C-163.69799587 232.00375229 -167.15059497 222.93316187 -170.66184998 213.88452148 C-171.99288333 210.45197251 -173.31578774 207.01632152 -174.63772583 203.58026123 C-175.24708755 202.00359835 -175.86065782 200.42855462 -176.47872925 198.85528564 C-177.32313242 196.70559375 -178.15324844 194.55088174 -178.98046875 192.39453125 C-179.44606201 191.19932861 -179.91165527 190.00412598 -180.39135742 188.77270508 C-181.7807504 183.97345412 -181.9538284 180.04338775 -180.3125 175.3125 C-177.29975895 170.74479583 -173.61610803 167.12203601 -168.375 165.375 C-162.75624276 165.0065569 -159.21788621 165.18309772 -154.375 168.375 C-151.10995097 171.955996 -149.44670633 175.24738743 -147.87890625 179.8125 C-147.53981735 180.78610222 -147.53981735 180.78610222 -147.19387817 181.77937317 C-146.43207979 183.97470277 -145.68490313 186.17473176 -144.9375 188.375 C-144.39452282 189.94911801 -143.85062756 191.52291957 -143.3059082 193.09643555 C-142.05827423 196.70726973 -140.81760794 200.32041504 -139.58105469 203.93505859 C-137.25741421 210.72491887 -134.91733362 217.50908121 -132.57660866 224.29306412 C-127.16338939 239.9826892 -121.76561894 255.67759644 -116.375 271.375 C-114.44890604 268.48585906 -113.49568732 266.15430221 -112.38232422 262.8894043 C-111.99299713 261.75491852 -111.60367004 260.62043274 -111.20254517 259.4515686 C-110.57248062 257.59415543 -110.57248062 257.59415543 -109.9296875 255.69921875 C-109.48406823 254.39556596 -109.03804524 253.0920511 -108.59164429 251.78866577 C-107.63875837 249.00426633 -106.6884127 246.2190173 -105.73986816 243.43313599 C-104.23782998 239.02337432 -102.72660073 234.61679554 -101.21386719 230.21069336 C-97.18566153 218.4726732 -93.1589101 206.73445562 -89.21032715 194.96936035 C-79.5187917 166.11194542 -68.40412746 137.89330546 -56.96543312 109.69607544 C-52.07829537 97.64691017 -47.26764873 85.56855199 -42.48534393 73.47742271 C-40.16335454 67.60959723 -37.83510728 61.74425082 -35.50734711 55.87871265 C-33.59892275 51.06820121 -31.69437158 46.256226 -29.79815674 41.44088745 C-28.00825091 36.89616877 -26.20765278 32.35582902 -24.39921379 27.81845474 C-23.7317295 26.13808463 -23.06818783 24.45614229 -22.40887642 22.77254868 C-21.50001591 20.45321302 -20.57729584 18.13985898 -19.65112305 15.82739258 C-19.39196169 15.156118 -19.13280033 14.48484343 -18.8657856 13.7932272 C-16.78061084 8.65327947 -14.05850756 4.33384729 -9.5234375 1.0234375 C-6.32477022 0.05802156 -3.33470566 0.0332805 0 0 Z M205.625 58.375 C205.05394531 59.29796875 204.48289062 60.2209375 203.89453125 61.171875 C198.96936904 69.10559711 193.96651154 76.98438374 188.875 84.8125 C188.07993042 86.03501465 188.07993042 86.03501465 187.26879883 87.28222656 C186.23710423 88.864598 185.20234364 90.44497528 184.16430664 92.02319336 C183.10508141 93.64151479 182.05804237 95.26785686 181.02124023 96.90063477 C180.50247314 97.70686279 179.98370605 98.51309082 179.44921875 99.34375 C178.98862061 100.06884766 178.52802246 100.79394531 178.0534668 101.54101562 C175.60917733 104.67919755 173.46247797 105.36513738 169.625 106.375 C164.28731124 106.93686197 161.21442908 106.07749514 156.625 103.375 C154.5769043 101.12402344 154.5769043 101.12402344 152.76171875 98.484375 C152.08415527 97.50533203 151.4065918 96.52628906 150.70849609 95.51757812 C147.22185066 90.25860226 143.80191278 84.96298698 140.4375 79.625 C134.30339329 69.81459246 134.30339329 69.81459246 127.625 60.375 C127.295 60.375 126.965 60.375 126.625 60.375 C121.17849315 96.72258418 121.17849315 96.72258418 115.94467163 133.10119629 C115.73303966 134.60652088 115.52002619 136.11165195 115.30557251 137.61657715 C115.01194318 139.6813137 114.72380899 141.74673734 114.4375 143.8125 C114.27894531 144.94558594 114.12039063 146.07867187 113.95703125 147.24609375 C113.63127744 150.31584436 113.56452321 153.29068377 113.625 156.375 C116.69316878 157.42548916 119.75123143 158.40970228 122.87890625 159.26953125 C133.73867309 162.28257164 133.73867309 162.28257164 137.625 167.375 C138.285 168.035 138.945 168.695 139.625 169.375 C140.058125 168.42625 140.49125 167.4775 140.9375 166.5 C142.625 163.375 142.625 163.375 145.625 161.375 C147.84570312 161.13208008 147.84570312 161.13208008 150.40625 161.14453125 C151.33050781 161.14646484 152.25476563 161.14839844 153.20703125 161.15039062 C154.16996094 161.16263672 155.13289063 161.17488281 156.125 161.1875 C157.56939453 161.1884668 157.56939453 161.1884668 159.04296875 161.18945312 C166.20317497 161.23439166 166.20317497 161.23439166 169.625 162.375 C170.69209042 165.57627126 170.78173203 167.94857623 170.83032227 171.31518555 C170.8602401 173.14674446 170.8602401 173.14674446 170.89076233 175.01530457 C170.90747482 176.33412125 170.92418732 177.65293793 170.94140625 179.01171875 C170.9619826 180.37507244 170.98297925 181.73841985 171.00437927 183.10176086 C171.0595297 186.68721422 171.10896987 190.27272448 171.15722656 193.85827637 C171.20749299 197.5181992 171.26315219 201.17803957 171.31835938 204.83789062 C171.42585494 212.01685721 171.5273189 219.19589245 171.625 226.375 C174.85927584 223.18150488 177.75530849 220.04594235 180.4375 216.375 C184.70099305 210.60757929 189.02403666 204.88925935 193.375 199.1875 C194.06239258 198.28612305 194.74978516 197.38474609 195.45800781 196.45605469 C197.51304295 193.76188919 199.56890158 191.06835409 201.625 188.375 C202.24584473 187.56144043 202.86668945 186.74788086 203.50634766 185.90966797 C204.6793574 184.37278581 205.85330906 182.83662199 207.02832031 181.30126953 C208.12099249 179.8680618 209.20775277 178.43032447 210.28808594 176.98779297 C212.44960789 174.11566205 214.55510267 171.44556197 217.08984375 168.88671875 C219.23529719 166.70008578 220.45013617 165.20511066 221.625 162.375 C221.36065905 159.03699247 221.36065905 159.03699247 220.44555664 155.36669922 C220.14000402 153.92478223 219.83971434 152.48174258 219.54397583 151.03778076 C219.38800556 150.27684868 219.23203529 149.5159166 219.07133865 148.73192596 C218.31568347 144.74163 217.8076393 140.72477195 217.30639648 136.69580078 C217.14734376 135.42535321 217.14734376 135.42535321 216.98507786 134.12924004 C216.76558948 132.35890635 216.54786073 130.58835372 216.3317852 128.81760025 C215.98758534 126.00067998 215.63641101 123.18470273 215.28346252 120.36886597 C214.28288314 112.37715026 213.29397924 104.38400942 212.31079102 96.39013672 C211.70504264 91.46897157 211.09104021 86.54889318 210.47194099 81.62939072 C210.23863641 79.76142446 210.00861171 77.89304553 209.78191948 76.02426529 C209.46706965 73.42937303 209.14183975 70.83598057 208.81420898 68.24267578 C208.72325455 67.47083954 208.63230011 66.6990033 208.53858948 65.90377808 C208.08195378 61.69488689 208.08195378 61.69488689 205.625 58.375 Z M138.625 179.375 C138.191875 180.138125 137.75875 180.90125 137.3125 181.6875 C134.95453918 185.44277094 132.80403986 186.98198671 128.625 188.375 C124.15108455 188.74782629 120.8465986 188.2125978 116.5625 186.875 C105.34004708 183.66639171 94.28134721 184.71798451 83.625 189.375 C80.01264504 191.41896555 76.82134861 193.7340453 73.625 196.375 C73.00109375 196.85195312 72.3771875 197.32890625 71.734375 197.8203125 C61.65830358 206.48936494 56.36375174 222.35100717 55.31640625 235.14453125 C54.61668462 250.77101208 58.91038365 264.94899562 68.87890625 277.12890625 C76.89901323 285.76693479 87.30429027 291.67555169 99.203125 292.67578125 C106.32183878 292.69850055 112.39899385 292.16605754 119.1953125 290.05859375 C124.24624484 288.6375115 128.10233442 288.58438518 132.875 291.0625 C135.625 293.375 135.625 293.375 139.625 298.375 C139.625 259.105 139.625 219.835 139.625 179.375 C139.295 179.375 138.965 179.375 138.625 179.375 Z M308.625 203.375 C306.40511049 210.38012231 304.18829515 217.38620946 301.97542572 224.39355278 C300.94786271 227.6471286 299.91923409 230.90035954 298.88818359 234.15283203 C297.70354741 237.8899551 296.52352159 241.62852573 295.34375 245.3671875 C294.97189575 246.53804901 294.6000415 247.70891052 294.21691895 248.91525269 C293.70638977 250.536707 293.70638977 250.536707 293.18554688 252.19091797 C292.73254211 253.62321243 292.73254211 253.62321243 292.27038574 255.08444214 C291.53460009 257.29921715 291.53460009 257.29921715 291.625 259.375 C304.165 259.375 316.705 259.375 329.625 259.375 C328.92349319 255.16595913 328.27273817 251.99883805 326.85913086 248.10400391 C326.49883286 247.10341949 326.13853485 246.10283508 325.76731873 245.07192993 C325.37875198 244.00920868 324.99018524 242.94648743 324.58984375 241.8515625 C324.19172989 240.75024994 323.79361603 239.64893738 323.38343811 238.51425171 C322.11461383 235.00773199 320.83866078 231.50385549 319.5625 228 C318.69939797 225.61866054 317.83676234 223.23715198 316.97460938 220.85546875 C314.86347493 215.02667502 312.7464864 209.20003339 310.625 203.375 C309.965 203.375 309.305 203.375 308.625 203.375 Z "/>
    <path transform="translate(81.322998046875,2.725341796875)" d="M0 0 C1.44132754 -0.00435311 2.88265277 -0.00953825 4.32397461 -0.01548767 C8.21836682 -0.02881892 12.11266165 -0.02946334 16.00707221 -0.02692437 C19.26279023 -0.02585148 22.51848881 -0.03074571 25.77420264 -0.03552979 C33.45316176 -0.04660285 41.13207193 -0.04707363 48.81103516 -0.04101562 C56.7284747 -0.03496565 64.64573698 -0.04731776 72.56314629 -0.06858569 C79.37013495 -0.08619722 86.17706715 -0.0922041 92.98407775 -0.08894795 C97.045792 -0.08713554 101.10737954 -0.0897678 105.1690731 -0.10366249 C108.98507537 -0.11623034 112.80080043 -0.11430684 116.6167984 -0.1012516 C118.01601823 -0.09888465 119.41525752 -0.1016248 120.81445503 -0.10987473 C122.72590247 -0.12033189 124.63742882 -0.11044459 126.5488739 -0.0995636 C127.61790294 -0.09973134 128.68693197 -0.09989908 129.78835583 -0.10007191 C134.32813873 0.4888522 137.76416723 2.77925653 140.67700195 6.2746582 C142.47738649 11.67581181 142.53543134 16.49176641 140.05200195 21.6496582 C137.03493478 24.9843114 134.16798428 26.96576177 129.597229 27.53256226 C127.17265014 27.62073764 124.76682589 27.61213036 122.34106445 27.56762695 C121.46171234 27.56338211 120.58236023 27.55913727 119.67636108 27.55476379 C116.88458853 27.53805282 114.09355407 27.50041512 111.30200195 27.4621582 C109.40227284 27.44710155 107.50253234 27.43341486 105.6027832 27.42114258 C100.96057437 27.38817418 96.31891305 27.33644473 91.67700195 27.2746582 C91.68068913 27.8960392 91.6843763 28.5174202 91.6881752 29.15763092 C91.77663048 44.29859483 91.84276208 59.43947911 91.88425064 74.58063507 C91.90484909 81.90289101 91.93291732 89.22497414 91.97875977 96.54711914 C92.01871122 102.93139055 92.04445452 109.31553677 92.05335593 115.69992971 C92.05855675 119.07841592 92.0707228 122.45654406 92.09992218 125.83491516 C92.12899595 129.61257073 92.13295609 133.38948671 92.13110352 137.16723633 C92.14548462 138.27926422 92.15986572 139.39129211 92.17468262 140.53701782 C92.1410486 146.88331318 91.56110979 152.06906671 87.67700195 157.2746582 C83.51260968 160.90379846 79.36860754 161.94320978 73.8840332 161.65356445 C68.69485508 160.76267901 65.64023026 158.56008878 62.50616455 154.37767029 C59.73376728 149.24670143 60.15010367 143.88354942 60.22290039 138.18896484 C60.22231628 136.98825348 60.22173218 135.78754211 60.22113037 134.55044556 C60.22343115 131.27589408 60.24341938 128.00203626 60.2714262 124.72762227 C60.29651912 121.29903155 60.29878804 117.87042558 60.30352783 114.4417572 C60.31593458 107.9571965 60.3487246 101.4729072 60.38892579 94.98846573 C60.43371555 87.60275079 60.45564858 80.21702254 60.47570753 72.83120549 C60.5174596 57.6455388 60.5877664 42.46012571 60.67700195 27.2746582 C52.07915938 27.31280807 43.48183517 27.37230345 34.88435364 27.45856094 C30.89155507 27.49795996 26.89897453 27.53018522 22.90600586 27.5456543 C19.04778613 27.56087134 15.19016611 27.59540476 11.33221436 27.64296722 C9.86518587 27.65772936 8.39807175 27.66569624 6.93096924 27.66654205 C-1.01364383 27.67572326 -7.53095973 27.74455176 -14.32299805 32.2746582 C-17.88020499 36.10549645 -19.49824013 38.77263029 -19.76049805 43.9621582 C-19.85137695 45.20545898 -19.85137695 45.20545898 -19.9440918 46.47387695 C-18.98583109 50.79509031 -16.60047558 53.3788312 -13.32299805 56.2746582 C-10.50666821 58.06480611 -7.5717354 59.39471109 -4.51049805 60.7121582 C-3.68026123 61.09065918 -2.85002441 61.46916016 -1.99462891 61.85913086 C2.07249898 63.70975711 6.16894887 65.48574532 10.27856445 67.23950195 C22.40280304 72.51343112 33.47784286 79.14384592 38.8527832 91.8918457 C43.84660723 106.3289673 42.85080183 122.57575881 36.55200195 136.5246582 C29.79534764 148.8241966 19.6962767 156.51197554 6.4465332 160.52856445 C-7.27676755 164.22553264 -22.29031951 163.09025493 -35.01049805 156.6496582 C-41.92783279 152.60024035 -47.81465324 147.22558096 -53.01049805 141.1496582 C-55.2638954 138.92952095 -55.2638954 138.92952095 -58.69799805 139.2121582 C-61.60951087 140.06553265 -63.47584182 140.82830503 -66.01049805 142.3371582 C-69.32299805 144.2746582 -69.32299805 144.2746582 -73.32299805 144.2746582 C-72.98342474 135.78532545 -70.01138765 126.58288091 -64.44018555 120.07543945 C-58.81793668 115.21772233 -54.87974159 114.85515361 -47.64331055 114.94262695 C-40.49202221 115.65775579 -36.74153393 119.77234462 -31.94799805 124.7746582 C-26.67479333 130.22030851 -20.77638422 133.84306084 -13.26049805 135.2746582 C-7.26923116 135.2746582 -2.70657377 133.59886694 2.48950195 130.7121582 C6.74552909 125.96972797 8.85789322 119.99882165 9.17700195 113.6496582 C8.89606794 108.82270101 7.57618384 105.14023406 4.67700195 101.2746582 C-2.63584211 95.08173553 -11.74532538 92.01978937 -20.5534668 88.5949707 C-32.96208047 83.57903286 -45.13108719 76.12833263 -50.76049805 63.4621582 C-54.54621631 51.69529364 -53.72754337 37.33958531 -48.32299805 26.2746582 C-41.79542879 13.76066533 -32.52493751 5.53689328 -19.05241394 1.22883606 C-12.79450175 -0.29392005 -6.40040877 -0.01280883 0 0 Z " />
    <path transform="translate(806.62890625,18.09765625)" d="M0 0 C15.56522117 13.47401589 25.34639749 31.48681271 28.37109375 51.90234375 C30.23317564 80.38276846 25.42387603 104.0606334 6.37109375 125.90234375 C-6.50029658 139.2868051 -23.7275136 147.49840388 -42.328125 148.23828125 C-64.40041828 148.572378 -82.81887129 144.0131694 -99.62890625 128.90234375 C-100.23992188 128.38414062 -100.8509375 127.8659375 -101.48046875 127.33203125 C-116.00074145 114.13781085 -124.60208794 92.06314574 -125.75292969 72.82958984 C-126.62395181 48.55388081 -121.04041493 25.91161253 -104.6171875 7.41796875 C-94.15066869 -3.80370091 -82.41406044 -10.71358292 -67.62890625 -15.09765625 C-66.81292969 -15.34386719 -65.99695313 -15.59007812 -65.15625 -15.84375 C-42.39521578 -21.50472764 -17.97287764 -14.34091425 0 0 Z M-79.42578125 26.484375 C-90.36172646 38.48676876 -94.63757488 52.61082316 -94.01171875 68.53125 C-92.88251169 84.86924269 -84.13588916 97.92497093 -72.62890625 108.90234375 C-64.53431433 115.61042319 -56.19040693 118.57547432 -45.671875 118.2421875 C-33.87864525 116.92510022 -23.97015076 110.17036237 -16.37890625 101.27734375 C-6.90452853 88.59296126 -1.13241826 73.86488234 -2.62890625 57.90234375 C-5.02273344 42.58184973 -12.55018147 30.23742438 -24.56640625 20.52734375 C-42.52564253 8.04779571 -64.00216882 12.11237251 -79.42578125 26.484375 Z " />
</svg>